M48
; DRILL file {KiCad (5.1.5)-3} date 03/30/21 18:14:29
; FORMAT={-:-/ absolute / inch / decimal}
; #@! TF.CreationDate,2021-03-30T18:14:29+02:00
; #@! TF.GenerationSoftware,Kicad,Pcbnew,(5.1.5)-3
; #@! TF.FileFunction,Plated,1,4,PTH
FMAT,2
INCH
T1C0.0118
T2C0.0157
T3C0.0197
T4C0.0866
%
G90
G05
T1
X1.6098Y-1.8289
X1.6098Y-1.8761
X1.6098Y-1.9273
X1.6098Y-1.9706
X1.657Y-1.8289
X1.657Y-1.8761
X1.657Y-1.9273
X1.657Y-1.9706
T2
X1.063Y-1.378
X1.063Y-1.4173
X1.063Y-1.4567
X1.063Y-1.8898
X1.063Y-1.9291
X1.063Y-1.9685
X1.063Y-2.0079
X1.1024Y-1.378
X1.1024Y-1.4173
X1.1024Y-1.4567
X1.1024Y-1.8898
X1.1024Y-1.9291
X1.1024Y-1.9685
X1.1024Y-2.0079
X1.1417Y-1.378
X1.1417Y-1.4173
X1.1417Y-1.4567
X1.2441Y-2.4449
X1.3346Y-2.1181
X1.3346Y-2.1535
X1.3346Y-2.1929
X1.3346Y-2.2323
X1.3898Y-2.1181
X1.3898Y-2.1535
X1.3898Y-2.1929
X1.3898Y-2.2323
X1.4173Y-2.5591
X1.4173Y-2.5984
X1.4567Y-2.5591
X1.4567Y-2.5984
X1.5394Y-2.5748
X1.5394Y-2.622
X1.5512Y-1.1535
X1.5512Y-1.189
X1.5512Y-1.2244
X1.5512Y-1.2598
X1.5906Y-1.1535
X1.5906Y-1.189
X1.5906Y-1.2244
X1.5906Y-1.2598
X1.5906Y-2.5748
X1.5906Y-2.622
X1.6417Y-2.5748
X1.6417Y-2.622
X1.9252Y-1.7795
X1.9252Y-2.0157
X1.9803Y-1.4173
X1.9803Y-1.9449
X1.9803Y-1.9803
X1.9803Y-2.0157
X1.9803Y-2.0512
X2.0118Y-2.5551
X2.0394Y-1.4173
X2.0512Y-1.6654
X2.0512Y-1.7087
X2.0551Y-2.5551
X2.0984Y-1.4173
X2.0984Y-1.6654
X2.0984Y-2.5551
X2.1181Y-1.8346
X2.1181Y-1.874
X2.1181Y-1.9134
X2.1496Y-1.7559
X2.1575Y-1.4173
X2.185Y-1.7559
X2.189Y-1.6181
X2.2165Y-1.4173
X2.2717Y-1.7283
X2.311Y-1.4724
X2.311Y-1.7874
X2.3425Y-1.8189
X2.3504Y-1.4724
X2.374Y-1.9803
X2.3858Y-1.4724
X2.4055Y-1.9449
X2.4173Y-2.1654
X2.4173Y-2.2008
X2.4252Y-1.4724
X2.4291Y-2.3701
X2.4567Y-2.1299
X2.4685Y-1.9961
X2.4724Y-1.8189
X2.4921Y-1.874
X2.4921Y-1.9134
X2.5197Y-1.7874
X2.5236Y-1.5433
X2.5236Y-1.6102
X2.5276Y-1.874
X2.5276Y-1.9134
X2.5394Y-2.2874
X2.5394Y-2.3228
X2.5394Y-2.3622
X2.5394Y-2.4016
X2.563Y-1.5433
X2.563Y-1.6102
X2.6693Y-2.5512
X2.6693Y-2.5906
X2.6772Y-1.752
X2.6772Y-1.7953
X2.7323Y-2.2323
X2.8622Y-2.0866
X2.8622Y-2.1299
X2.8622Y-2.1732
X2.874Y-1.6142
X2.874Y-1.6535
X2.874Y-1.6929
X2.9016Y-2.2598
X2.9016Y-2.2992
X2.9134Y-2.0866
X2.9134Y-2.1299
X2.9134Y-2.1732
X2.8091Y-2.5591
X2.8281Y-2.5131
X2.8281Y-2.605
X2.874Y-2.4941
X2.874Y-2.624
X2.9199Y-2.5131
X2.9199Y-2.605
X2.939Y-2.5591
X1.0768Y-1.2205
X1.0958Y-1.1745
X1.0958Y-1.2664
X1.1417Y-1.1555
X1.1417Y-1.2854
X1.1877Y-1.1745
X1.1877Y-1.2664
X1.2067Y-1.2205
X2.8091Y-1.2205
X2.8281Y-1.1745
X2.8281Y-1.2664
X2.874Y-1.1555
X2.874Y-1.2854
X2.9199Y-1.1745
X2.9199Y-1.2664
X2.939Y-1.2205
X1.0768Y-2.5591
X1.0958Y-2.5131
X1.0958Y-2.605
X1.1417Y-2.4941
X1.1417Y-2.624
X1.1877Y-2.5131
X1.1877Y-2.605
X1.2067Y-2.5591
T3
X1.7244Y-1.2008
X1.7736Y-1.2008
X2.874Y-1.811
X2.874Y-1.8602
X2.874Y-1.9094
X2.6102Y-1.2008
X2.6594Y-1.2008
X1.3976Y-1.2008
X1.4469Y-1.2008
X2.0079Y-1.2008
X2.0571Y-1.2008
X2.1063Y-1.2008
X2.1555Y-1.2008
X2.2047Y-1.2008
X2.2539Y-1.2008
X2.3031Y-1.2008
X2.3524Y-1.2008
X2.4016Y-1.2008
T4
X2.874Y-1.2205
X1.1417Y-2.5591
X2.874Y-2.5591
X1.1417Y-1.2205
T0
M30
