%TF.GenerationSoftware,KiCad,Pcbnew,(5.1.5)-3*%
%TF.CreationDate,2021-03-30T18:15:46+02:00*%
%TF.ProjectId,rpm_meter_arduino,72706d5f-6d65-4746-9572-5f6172647569,rev?*%
%TF.SameCoordinates,Original*%
%TF.FileFunction,Paste,Top*%
%TF.FilePolarity,Positive*%
%FSLAX46Y46*%
G04 Gerber Fmt 4.6, Leading zero omitted, Abs format (unit mm)*
G04 Created by KiCad (PCBNEW (5.1.5)-3) date 2021-03-30 18:15:46*
%MOMM*%
%LPD*%
G04 APERTURE LIST*
%ADD10C,0.100000*%
%ADD11R,0.900000X1.200000*%
%ADD12R,2.500000X3.300000*%
%ADD13R,1.000000X3.150000*%
%ADD14R,3.500000X2.950000*%
%ADD15R,0.800000X0.900000*%
%ADD16R,1.500000X1.500000*%
%ADD17R,2.600000X3.100000*%
%ADD18R,1.550000X0.600000*%
%ADD19R,1.600000X0.550000*%
%ADD20R,0.550000X1.600000*%
G04 APERTURE END LIST*
D10*
%TO.C,C1*%
G36*
X55377691Y-45676053D02*
G01*
X55398926Y-45679203D01*
X55419750Y-45684419D01*
X55439962Y-45691651D01*
X55459368Y-45700830D01*
X55477781Y-45711866D01*
X55495024Y-45724654D01*
X55510930Y-45739070D01*
X55525346Y-45754976D01*
X55538134Y-45772219D01*
X55549170Y-45790632D01*
X55558349Y-45810038D01*
X55565581Y-45830250D01*
X55570797Y-45851074D01*
X55573947Y-45872309D01*
X55575000Y-45893750D01*
X55575000Y-46331250D01*
X55573947Y-46352691D01*
X55570797Y-46373926D01*
X55565581Y-46394750D01*
X55558349Y-46414962D01*
X55549170Y-46434368D01*
X55538134Y-46452781D01*
X55525346Y-46470024D01*
X55510930Y-46485930D01*
X55495024Y-46500346D01*
X55477781Y-46513134D01*
X55459368Y-46524170D01*
X55439962Y-46533349D01*
X55419750Y-46540581D01*
X55398926Y-46545797D01*
X55377691Y-46548947D01*
X55356250Y-46550000D01*
X54843750Y-46550000D01*
X54822309Y-46548947D01*
X54801074Y-46545797D01*
X54780250Y-46540581D01*
X54760038Y-46533349D01*
X54740632Y-46524170D01*
X54722219Y-46513134D01*
X54704976Y-46500346D01*
X54689070Y-46485930D01*
X54674654Y-46470024D01*
X54661866Y-46452781D01*
X54650830Y-46434368D01*
X54641651Y-46414962D01*
X54634419Y-46394750D01*
X54629203Y-46373926D01*
X54626053Y-46352691D01*
X54625000Y-46331250D01*
X54625000Y-45893750D01*
X54626053Y-45872309D01*
X54629203Y-45851074D01*
X54634419Y-45830250D01*
X54641651Y-45810038D01*
X54650830Y-45790632D01*
X54661866Y-45772219D01*
X54674654Y-45754976D01*
X54689070Y-45739070D01*
X54704976Y-45724654D01*
X54722219Y-45711866D01*
X54740632Y-45700830D01*
X54760038Y-45691651D01*
X54780250Y-45684419D01*
X54801074Y-45679203D01*
X54822309Y-45676053D01*
X54843750Y-45675000D01*
X55356250Y-45675000D01*
X55377691Y-45676053D01*
G37*
G36*
X55377691Y-47251053D02*
G01*
X55398926Y-47254203D01*
X55419750Y-47259419D01*
X55439962Y-47266651D01*
X55459368Y-47275830D01*
X55477781Y-47286866D01*
X55495024Y-47299654D01*
X55510930Y-47314070D01*
X55525346Y-47329976D01*
X55538134Y-47347219D01*
X55549170Y-47365632D01*
X55558349Y-47385038D01*
X55565581Y-47405250D01*
X55570797Y-47426074D01*
X55573947Y-47447309D01*
X55575000Y-47468750D01*
X55575000Y-47906250D01*
X55573947Y-47927691D01*
X55570797Y-47948926D01*
X55565581Y-47969750D01*
X55558349Y-47989962D01*
X55549170Y-48009368D01*
X55538134Y-48027781D01*
X55525346Y-48045024D01*
X55510930Y-48060930D01*
X55495024Y-48075346D01*
X55477781Y-48088134D01*
X55459368Y-48099170D01*
X55439962Y-48108349D01*
X55419750Y-48115581D01*
X55398926Y-48120797D01*
X55377691Y-48123947D01*
X55356250Y-48125000D01*
X54843750Y-48125000D01*
X54822309Y-48123947D01*
X54801074Y-48120797D01*
X54780250Y-48115581D01*
X54760038Y-48108349D01*
X54740632Y-48099170D01*
X54722219Y-48088134D01*
X54704976Y-48075346D01*
X54689070Y-48060930D01*
X54674654Y-48045024D01*
X54661866Y-48027781D01*
X54650830Y-48009368D01*
X54641651Y-47989962D01*
X54634419Y-47969750D01*
X54629203Y-47948926D01*
X54626053Y-47927691D01*
X54625000Y-47906250D01*
X54625000Y-47468750D01*
X54626053Y-47447309D01*
X54629203Y-47426074D01*
X54634419Y-47405250D01*
X54641651Y-47385038D01*
X54650830Y-47365632D01*
X54661866Y-47347219D01*
X54674654Y-47329976D01*
X54689070Y-47314070D01*
X54704976Y-47299654D01*
X54722219Y-47286866D01*
X54740632Y-47275830D01*
X54760038Y-47266651D01*
X54780250Y-47259419D01*
X54801074Y-47254203D01*
X54822309Y-47251053D01*
X54843750Y-47250000D01*
X55356250Y-47250000D01*
X55377691Y-47251053D01*
G37*
%TD*%
%TO.C,C2*%
G36*
X68277691Y-48151053D02*
G01*
X68298926Y-48154203D01*
X68319750Y-48159419D01*
X68339962Y-48166651D01*
X68359368Y-48175830D01*
X68377781Y-48186866D01*
X68395024Y-48199654D01*
X68410930Y-48214070D01*
X68425346Y-48229976D01*
X68438134Y-48247219D01*
X68449170Y-48265632D01*
X68458349Y-48285038D01*
X68465581Y-48305250D01*
X68470797Y-48326074D01*
X68473947Y-48347309D01*
X68475000Y-48368750D01*
X68475000Y-48806250D01*
X68473947Y-48827691D01*
X68470797Y-48848926D01*
X68465581Y-48869750D01*
X68458349Y-48889962D01*
X68449170Y-48909368D01*
X68438134Y-48927781D01*
X68425346Y-48945024D01*
X68410930Y-48960930D01*
X68395024Y-48975346D01*
X68377781Y-48988134D01*
X68359368Y-48999170D01*
X68339962Y-49008349D01*
X68319750Y-49015581D01*
X68298926Y-49020797D01*
X68277691Y-49023947D01*
X68256250Y-49025000D01*
X67743750Y-49025000D01*
X67722309Y-49023947D01*
X67701074Y-49020797D01*
X67680250Y-49015581D01*
X67660038Y-49008349D01*
X67640632Y-48999170D01*
X67622219Y-48988134D01*
X67604976Y-48975346D01*
X67589070Y-48960930D01*
X67574654Y-48945024D01*
X67561866Y-48927781D01*
X67550830Y-48909368D01*
X67541651Y-48889962D01*
X67534419Y-48869750D01*
X67529203Y-48848926D01*
X67526053Y-48827691D01*
X67525000Y-48806250D01*
X67525000Y-48368750D01*
X67526053Y-48347309D01*
X67529203Y-48326074D01*
X67534419Y-48305250D01*
X67541651Y-48285038D01*
X67550830Y-48265632D01*
X67561866Y-48247219D01*
X67574654Y-48229976D01*
X67589070Y-48214070D01*
X67604976Y-48199654D01*
X67622219Y-48186866D01*
X67640632Y-48175830D01*
X67660038Y-48166651D01*
X67680250Y-48159419D01*
X67701074Y-48154203D01*
X67722309Y-48151053D01*
X67743750Y-48150000D01*
X68256250Y-48150000D01*
X68277691Y-48151053D01*
G37*
G36*
X68277691Y-46576053D02*
G01*
X68298926Y-46579203D01*
X68319750Y-46584419D01*
X68339962Y-46591651D01*
X68359368Y-46600830D01*
X68377781Y-46611866D01*
X68395024Y-46624654D01*
X68410930Y-46639070D01*
X68425346Y-46654976D01*
X68438134Y-46672219D01*
X68449170Y-46690632D01*
X68458349Y-46710038D01*
X68465581Y-46730250D01*
X68470797Y-46751074D01*
X68473947Y-46772309D01*
X68475000Y-46793750D01*
X68475000Y-47231250D01*
X68473947Y-47252691D01*
X68470797Y-47273926D01*
X68465581Y-47294750D01*
X68458349Y-47314962D01*
X68449170Y-47334368D01*
X68438134Y-47352781D01*
X68425346Y-47370024D01*
X68410930Y-47385930D01*
X68395024Y-47400346D01*
X68377781Y-47413134D01*
X68359368Y-47424170D01*
X68339962Y-47433349D01*
X68319750Y-47440581D01*
X68298926Y-47445797D01*
X68277691Y-47448947D01*
X68256250Y-47450000D01*
X67743750Y-47450000D01*
X67722309Y-47448947D01*
X67701074Y-47445797D01*
X67680250Y-47440581D01*
X67660038Y-47433349D01*
X67640632Y-47424170D01*
X67622219Y-47413134D01*
X67604976Y-47400346D01*
X67589070Y-47385930D01*
X67574654Y-47370024D01*
X67561866Y-47352781D01*
X67550830Y-47334368D01*
X67541651Y-47314962D01*
X67534419Y-47294750D01*
X67529203Y-47273926D01*
X67526053Y-47252691D01*
X67525000Y-47231250D01*
X67525000Y-46793750D01*
X67526053Y-46772309D01*
X67529203Y-46751074D01*
X67534419Y-46730250D01*
X67541651Y-46710038D01*
X67550830Y-46690632D01*
X67561866Y-46672219D01*
X67574654Y-46654976D01*
X67589070Y-46639070D01*
X67604976Y-46624654D01*
X67622219Y-46611866D01*
X67640632Y-46600830D01*
X67660038Y-46591651D01*
X67680250Y-46584419D01*
X67701074Y-46579203D01*
X67722309Y-46576053D01*
X67743750Y-46575000D01*
X68256250Y-46575000D01*
X68277691Y-46576053D01*
G37*
%TD*%
%TO.C,C3*%
G36*
X68277691Y-51751053D02*
G01*
X68298926Y-51754203D01*
X68319750Y-51759419D01*
X68339962Y-51766651D01*
X68359368Y-51775830D01*
X68377781Y-51786866D01*
X68395024Y-51799654D01*
X68410930Y-51814070D01*
X68425346Y-51829976D01*
X68438134Y-51847219D01*
X68449170Y-51865632D01*
X68458349Y-51885038D01*
X68465581Y-51905250D01*
X68470797Y-51926074D01*
X68473947Y-51947309D01*
X68475000Y-51968750D01*
X68475000Y-52406250D01*
X68473947Y-52427691D01*
X68470797Y-52448926D01*
X68465581Y-52469750D01*
X68458349Y-52489962D01*
X68449170Y-52509368D01*
X68438134Y-52527781D01*
X68425346Y-52545024D01*
X68410930Y-52560930D01*
X68395024Y-52575346D01*
X68377781Y-52588134D01*
X68359368Y-52599170D01*
X68339962Y-52608349D01*
X68319750Y-52615581D01*
X68298926Y-52620797D01*
X68277691Y-52623947D01*
X68256250Y-52625000D01*
X67743750Y-52625000D01*
X67722309Y-52623947D01*
X67701074Y-52620797D01*
X67680250Y-52615581D01*
X67660038Y-52608349D01*
X67640632Y-52599170D01*
X67622219Y-52588134D01*
X67604976Y-52575346D01*
X67589070Y-52560930D01*
X67574654Y-52545024D01*
X67561866Y-52527781D01*
X67550830Y-52509368D01*
X67541651Y-52489962D01*
X67534419Y-52469750D01*
X67529203Y-52448926D01*
X67526053Y-52427691D01*
X67525000Y-52406250D01*
X67525000Y-51968750D01*
X67526053Y-51947309D01*
X67529203Y-51926074D01*
X67534419Y-51905250D01*
X67541651Y-51885038D01*
X67550830Y-51865632D01*
X67561866Y-51847219D01*
X67574654Y-51829976D01*
X67589070Y-51814070D01*
X67604976Y-51799654D01*
X67622219Y-51786866D01*
X67640632Y-51775830D01*
X67660038Y-51766651D01*
X67680250Y-51759419D01*
X67701074Y-51754203D01*
X67722309Y-51751053D01*
X67743750Y-51750000D01*
X68256250Y-51750000D01*
X68277691Y-51751053D01*
G37*
G36*
X68277691Y-50176053D02*
G01*
X68298926Y-50179203D01*
X68319750Y-50184419D01*
X68339962Y-50191651D01*
X68359368Y-50200830D01*
X68377781Y-50211866D01*
X68395024Y-50224654D01*
X68410930Y-50239070D01*
X68425346Y-50254976D01*
X68438134Y-50272219D01*
X68449170Y-50290632D01*
X68458349Y-50310038D01*
X68465581Y-50330250D01*
X68470797Y-50351074D01*
X68473947Y-50372309D01*
X68475000Y-50393750D01*
X68475000Y-50831250D01*
X68473947Y-50852691D01*
X68470797Y-50873926D01*
X68465581Y-50894750D01*
X68458349Y-50914962D01*
X68449170Y-50934368D01*
X68438134Y-50952781D01*
X68425346Y-50970024D01*
X68410930Y-50985930D01*
X68395024Y-51000346D01*
X68377781Y-51013134D01*
X68359368Y-51024170D01*
X68339962Y-51033349D01*
X68319750Y-51040581D01*
X68298926Y-51045797D01*
X68277691Y-51048947D01*
X68256250Y-51050000D01*
X67743750Y-51050000D01*
X67722309Y-51048947D01*
X67701074Y-51045797D01*
X67680250Y-51040581D01*
X67660038Y-51033349D01*
X67640632Y-51024170D01*
X67622219Y-51013134D01*
X67604976Y-51000346D01*
X67589070Y-50985930D01*
X67574654Y-50970024D01*
X67561866Y-50952781D01*
X67550830Y-50934368D01*
X67541651Y-50914962D01*
X67534419Y-50894750D01*
X67529203Y-50873926D01*
X67526053Y-50852691D01*
X67525000Y-50831250D01*
X67525000Y-50393750D01*
X67526053Y-50372309D01*
X67529203Y-50351074D01*
X67534419Y-50330250D01*
X67541651Y-50310038D01*
X67550830Y-50290632D01*
X67561866Y-50272219D01*
X67574654Y-50254976D01*
X67589070Y-50239070D01*
X67604976Y-50224654D01*
X67622219Y-50211866D01*
X67640632Y-50200830D01*
X67660038Y-50191651D01*
X67680250Y-50184419D01*
X67701074Y-50179203D01*
X67722309Y-50176053D01*
X67743750Y-50175000D01*
X68256250Y-50175000D01*
X68277691Y-50176053D01*
G37*
%TD*%
%TO.C,C5*%
G36*
X61352691Y-40426053D02*
G01*
X61373926Y-40429203D01*
X61394750Y-40434419D01*
X61414962Y-40441651D01*
X61434368Y-40450830D01*
X61452781Y-40461866D01*
X61470024Y-40474654D01*
X61485930Y-40489070D01*
X61500346Y-40504976D01*
X61513134Y-40522219D01*
X61524170Y-40540632D01*
X61533349Y-40560038D01*
X61540581Y-40580250D01*
X61545797Y-40601074D01*
X61548947Y-40622309D01*
X61550000Y-40643750D01*
X61550000Y-41156250D01*
X61548947Y-41177691D01*
X61545797Y-41198926D01*
X61540581Y-41219750D01*
X61533349Y-41239962D01*
X61524170Y-41259368D01*
X61513134Y-41277781D01*
X61500346Y-41295024D01*
X61485930Y-41310930D01*
X61470024Y-41325346D01*
X61452781Y-41338134D01*
X61434368Y-41349170D01*
X61414962Y-41358349D01*
X61394750Y-41365581D01*
X61373926Y-41370797D01*
X61352691Y-41373947D01*
X61331250Y-41375000D01*
X60893750Y-41375000D01*
X60872309Y-41373947D01*
X60851074Y-41370797D01*
X60830250Y-41365581D01*
X60810038Y-41358349D01*
X60790632Y-41349170D01*
X60772219Y-41338134D01*
X60754976Y-41325346D01*
X60739070Y-41310930D01*
X60724654Y-41295024D01*
X60711866Y-41277781D01*
X60700830Y-41259368D01*
X60691651Y-41239962D01*
X60684419Y-41219750D01*
X60679203Y-41198926D01*
X60676053Y-41177691D01*
X60675000Y-41156250D01*
X60675000Y-40643750D01*
X60676053Y-40622309D01*
X60679203Y-40601074D01*
X60684419Y-40580250D01*
X60691651Y-40560038D01*
X60700830Y-40540632D01*
X60711866Y-40522219D01*
X60724654Y-40504976D01*
X60739070Y-40489070D01*
X60754976Y-40474654D01*
X60772219Y-40461866D01*
X60790632Y-40450830D01*
X60810038Y-40441651D01*
X60830250Y-40434419D01*
X60851074Y-40429203D01*
X60872309Y-40426053D01*
X60893750Y-40425000D01*
X61331250Y-40425000D01*
X61352691Y-40426053D01*
G37*
G36*
X62927691Y-40426053D02*
G01*
X62948926Y-40429203D01*
X62969750Y-40434419D01*
X62989962Y-40441651D01*
X63009368Y-40450830D01*
X63027781Y-40461866D01*
X63045024Y-40474654D01*
X63060930Y-40489070D01*
X63075346Y-40504976D01*
X63088134Y-40522219D01*
X63099170Y-40540632D01*
X63108349Y-40560038D01*
X63115581Y-40580250D01*
X63120797Y-40601074D01*
X63123947Y-40622309D01*
X63125000Y-40643750D01*
X63125000Y-41156250D01*
X63123947Y-41177691D01*
X63120797Y-41198926D01*
X63115581Y-41219750D01*
X63108349Y-41239962D01*
X63099170Y-41259368D01*
X63088134Y-41277781D01*
X63075346Y-41295024D01*
X63060930Y-41310930D01*
X63045024Y-41325346D01*
X63027781Y-41338134D01*
X63009368Y-41349170D01*
X62989962Y-41358349D01*
X62969750Y-41365581D01*
X62948926Y-41370797D01*
X62927691Y-41373947D01*
X62906250Y-41375000D01*
X62468750Y-41375000D01*
X62447309Y-41373947D01*
X62426074Y-41370797D01*
X62405250Y-41365581D01*
X62385038Y-41358349D01*
X62365632Y-41349170D01*
X62347219Y-41338134D01*
X62329976Y-41325346D01*
X62314070Y-41310930D01*
X62299654Y-41295024D01*
X62286866Y-41277781D01*
X62275830Y-41259368D01*
X62266651Y-41239962D01*
X62259419Y-41219750D01*
X62254203Y-41198926D01*
X62251053Y-41177691D01*
X62250000Y-41156250D01*
X62250000Y-40643750D01*
X62251053Y-40622309D01*
X62254203Y-40601074D01*
X62259419Y-40580250D01*
X62266651Y-40560038D01*
X62275830Y-40540632D01*
X62286866Y-40522219D01*
X62299654Y-40504976D01*
X62314070Y-40489070D01*
X62329976Y-40474654D01*
X62347219Y-40461866D01*
X62365632Y-40450830D01*
X62385038Y-40441651D01*
X62405250Y-40434419D01*
X62426074Y-40429203D01*
X62447309Y-40426053D01*
X62468750Y-40425000D01*
X62906250Y-40425000D01*
X62927691Y-40426053D01*
G37*
%TD*%
%TO.C,C6*%
G36*
X47299504Y-46726204D02*
G01*
X47323773Y-46729804D01*
X47347571Y-46735765D01*
X47370671Y-46744030D01*
X47392849Y-46754520D01*
X47413893Y-46767133D01*
X47433598Y-46781747D01*
X47451777Y-46798223D01*
X47468253Y-46816402D01*
X47482867Y-46836107D01*
X47495480Y-46857151D01*
X47505970Y-46879329D01*
X47514235Y-46902429D01*
X47520196Y-46926227D01*
X47523796Y-46950496D01*
X47525000Y-46975000D01*
X47525000Y-48225000D01*
X47523796Y-48249504D01*
X47520196Y-48273773D01*
X47514235Y-48297571D01*
X47505970Y-48320671D01*
X47495480Y-48342849D01*
X47482867Y-48363893D01*
X47468253Y-48383598D01*
X47451777Y-48401777D01*
X47433598Y-48418253D01*
X47413893Y-48432867D01*
X47392849Y-48445480D01*
X47370671Y-48455970D01*
X47347571Y-48464235D01*
X47323773Y-48470196D01*
X47299504Y-48473796D01*
X47275000Y-48475000D01*
X46525000Y-48475000D01*
X46500496Y-48473796D01*
X46476227Y-48470196D01*
X46452429Y-48464235D01*
X46429329Y-48455970D01*
X46407151Y-48445480D01*
X46386107Y-48432867D01*
X46366402Y-48418253D01*
X46348223Y-48401777D01*
X46331747Y-48383598D01*
X46317133Y-48363893D01*
X46304520Y-48342849D01*
X46294030Y-48320671D01*
X46285765Y-48297571D01*
X46279804Y-48273773D01*
X46276204Y-48249504D01*
X46275000Y-48225000D01*
X46275000Y-46975000D01*
X46276204Y-46950496D01*
X46279804Y-46926227D01*
X46285765Y-46902429D01*
X46294030Y-46879329D01*
X46304520Y-46857151D01*
X46317133Y-46836107D01*
X46331747Y-46816402D01*
X46348223Y-46798223D01*
X46366402Y-46781747D01*
X46386107Y-46767133D01*
X46407151Y-46754520D01*
X46429329Y-46744030D01*
X46452429Y-46735765D01*
X46476227Y-46729804D01*
X46500496Y-46726204D01*
X46525000Y-46725000D01*
X47275000Y-46725000D01*
X47299504Y-46726204D01*
G37*
G36*
X50099504Y-46726204D02*
G01*
X50123773Y-46729804D01*
X50147571Y-46735765D01*
X50170671Y-46744030D01*
X50192849Y-46754520D01*
X50213893Y-46767133D01*
X50233598Y-46781747D01*
X50251777Y-46798223D01*
X50268253Y-46816402D01*
X50282867Y-46836107D01*
X50295480Y-46857151D01*
X50305970Y-46879329D01*
X50314235Y-46902429D01*
X50320196Y-46926227D01*
X50323796Y-46950496D01*
X50325000Y-46975000D01*
X50325000Y-48225000D01*
X50323796Y-48249504D01*
X50320196Y-48273773D01*
X50314235Y-48297571D01*
X50305970Y-48320671D01*
X50295480Y-48342849D01*
X50282867Y-48363893D01*
X50268253Y-48383598D01*
X50251777Y-48401777D01*
X50233598Y-48418253D01*
X50213893Y-48432867D01*
X50192849Y-48445480D01*
X50170671Y-48455970D01*
X50147571Y-48464235D01*
X50123773Y-48470196D01*
X50099504Y-48473796D01*
X50075000Y-48475000D01*
X49325000Y-48475000D01*
X49300496Y-48473796D01*
X49276227Y-48470196D01*
X49252429Y-48464235D01*
X49229329Y-48455970D01*
X49207151Y-48445480D01*
X49186107Y-48432867D01*
X49166402Y-48418253D01*
X49148223Y-48401777D01*
X49131747Y-48383598D01*
X49117133Y-48363893D01*
X49104520Y-48342849D01*
X49094030Y-48320671D01*
X49085765Y-48297571D01*
X49079804Y-48273773D01*
X49076204Y-48249504D01*
X49075000Y-48225000D01*
X49075000Y-46975000D01*
X49076204Y-46950496D01*
X49079804Y-46926227D01*
X49085765Y-46902429D01*
X49094030Y-46879329D01*
X49104520Y-46857151D01*
X49117133Y-46836107D01*
X49131747Y-46816402D01*
X49148223Y-46798223D01*
X49166402Y-46781747D01*
X49186107Y-46767133D01*
X49207151Y-46754520D01*
X49229329Y-46744030D01*
X49252429Y-46735765D01*
X49276227Y-46729804D01*
X49300496Y-46726204D01*
X49325000Y-46725000D01*
X50075000Y-46725000D01*
X50099504Y-46726204D01*
G37*
%TD*%
%TO.C,C7*%
G36*
X52311691Y-40351053D02*
G01*
X52332926Y-40354203D01*
X52353750Y-40359419D01*
X52373962Y-40366651D01*
X52393368Y-40375830D01*
X52411781Y-40386866D01*
X52429024Y-40399654D01*
X52444930Y-40414070D01*
X52459346Y-40429976D01*
X52472134Y-40447219D01*
X52483170Y-40465632D01*
X52492349Y-40485038D01*
X52499581Y-40505250D01*
X52504797Y-40526074D01*
X52507947Y-40547309D01*
X52509000Y-40568750D01*
X52509000Y-41006250D01*
X52507947Y-41027691D01*
X52504797Y-41048926D01*
X52499581Y-41069750D01*
X52492349Y-41089962D01*
X52483170Y-41109368D01*
X52472134Y-41127781D01*
X52459346Y-41145024D01*
X52444930Y-41160930D01*
X52429024Y-41175346D01*
X52411781Y-41188134D01*
X52393368Y-41199170D01*
X52373962Y-41208349D01*
X52353750Y-41215581D01*
X52332926Y-41220797D01*
X52311691Y-41223947D01*
X52290250Y-41225000D01*
X51777750Y-41225000D01*
X51756309Y-41223947D01*
X51735074Y-41220797D01*
X51714250Y-41215581D01*
X51694038Y-41208349D01*
X51674632Y-41199170D01*
X51656219Y-41188134D01*
X51638976Y-41175346D01*
X51623070Y-41160930D01*
X51608654Y-41145024D01*
X51595866Y-41127781D01*
X51584830Y-41109368D01*
X51575651Y-41089962D01*
X51568419Y-41069750D01*
X51563203Y-41048926D01*
X51560053Y-41027691D01*
X51559000Y-41006250D01*
X51559000Y-40568750D01*
X51560053Y-40547309D01*
X51563203Y-40526074D01*
X51568419Y-40505250D01*
X51575651Y-40485038D01*
X51584830Y-40465632D01*
X51595866Y-40447219D01*
X51608654Y-40429976D01*
X51623070Y-40414070D01*
X51638976Y-40399654D01*
X51656219Y-40386866D01*
X51674632Y-40375830D01*
X51694038Y-40366651D01*
X51714250Y-40359419D01*
X51735074Y-40354203D01*
X51756309Y-40351053D01*
X51777750Y-40350000D01*
X52290250Y-40350000D01*
X52311691Y-40351053D01*
G37*
G36*
X52311691Y-38776053D02*
G01*
X52332926Y-38779203D01*
X52353750Y-38784419D01*
X52373962Y-38791651D01*
X52393368Y-38800830D01*
X52411781Y-38811866D01*
X52429024Y-38824654D01*
X52444930Y-38839070D01*
X52459346Y-38854976D01*
X52472134Y-38872219D01*
X52483170Y-38890632D01*
X52492349Y-38910038D01*
X52499581Y-38930250D01*
X52504797Y-38951074D01*
X52507947Y-38972309D01*
X52509000Y-38993750D01*
X52509000Y-39431250D01*
X52507947Y-39452691D01*
X52504797Y-39473926D01*
X52499581Y-39494750D01*
X52492349Y-39514962D01*
X52483170Y-39534368D01*
X52472134Y-39552781D01*
X52459346Y-39570024D01*
X52444930Y-39585930D01*
X52429024Y-39600346D01*
X52411781Y-39613134D01*
X52393368Y-39624170D01*
X52373962Y-39633349D01*
X52353750Y-39640581D01*
X52332926Y-39645797D01*
X52311691Y-39648947D01*
X52290250Y-39650000D01*
X51777750Y-39650000D01*
X51756309Y-39648947D01*
X51735074Y-39645797D01*
X51714250Y-39640581D01*
X51694038Y-39633349D01*
X51674632Y-39624170D01*
X51656219Y-39613134D01*
X51638976Y-39600346D01*
X51623070Y-39585930D01*
X51608654Y-39570024D01*
X51595866Y-39552781D01*
X51584830Y-39534368D01*
X51575651Y-39514962D01*
X51568419Y-39494750D01*
X51563203Y-39473926D01*
X51560053Y-39452691D01*
X51559000Y-39431250D01*
X51559000Y-38993750D01*
X51560053Y-38972309D01*
X51563203Y-38951074D01*
X51568419Y-38930250D01*
X51575651Y-38910038D01*
X51584830Y-38890632D01*
X51595866Y-38872219D01*
X51608654Y-38854976D01*
X51623070Y-38839070D01*
X51638976Y-38824654D01*
X51656219Y-38811866D01*
X51674632Y-38800830D01*
X51694038Y-38791651D01*
X51714250Y-38784419D01*
X51735074Y-38779203D01*
X51756309Y-38776053D01*
X51777750Y-38775000D01*
X52290250Y-38775000D01*
X52311691Y-38776053D01*
G37*
%TD*%
%TO.C,C8*%
G36*
X37127691Y-45865053D02*
G01*
X37148926Y-45868203D01*
X37169750Y-45873419D01*
X37189962Y-45880651D01*
X37209368Y-45889830D01*
X37227781Y-45900866D01*
X37245024Y-45913654D01*
X37260930Y-45928070D01*
X37275346Y-45943976D01*
X37288134Y-45961219D01*
X37299170Y-45979632D01*
X37308349Y-45999038D01*
X37315581Y-46019250D01*
X37320797Y-46040074D01*
X37323947Y-46061309D01*
X37325000Y-46082750D01*
X37325000Y-46595250D01*
X37323947Y-46616691D01*
X37320797Y-46637926D01*
X37315581Y-46658750D01*
X37308349Y-46678962D01*
X37299170Y-46698368D01*
X37288134Y-46716781D01*
X37275346Y-46734024D01*
X37260930Y-46749930D01*
X37245024Y-46764346D01*
X37227781Y-46777134D01*
X37209368Y-46788170D01*
X37189962Y-46797349D01*
X37169750Y-46804581D01*
X37148926Y-46809797D01*
X37127691Y-46812947D01*
X37106250Y-46814000D01*
X36668750Y-46814000D01*
X36647309Y-46812947D01*
X36626074Y-46809797D01*
X36605250Y-46804581D01*
X36585038Y-46797349D01*
X36565632Y-46788170D01*
X36547219Y-46777134D01*
X36529976Y-46764346D01*
X36514070Y-46749930D01*
X36499654Y-46734024D01*
X36486866Y-46716781D01*
X36475830Y-46698368D01*
X36466651Y-46678962D01*
X36459419Y-46658750D01*
X36454203Y-46637926D01*
X36451053Y-46616691D01*
X36450000Y-46595250D01*
X36450000Y-46082750D01*
X36451053Y-46061309D01*
X36454203Y-46040074D01*
X36459419Y-46019250D01*
X36466651Y-45999038D01*
X36475830Y-45979632D01*
X36486866Y-45961219D01*
X36499654Y-45943976D01*
X36514070Y-45928070D01*
X36529976Y-45913654D01*
X36547219Y-45900866D01*
X36565632Y-45889830D01*
X36585038Y-45880651D01*
X36605250Y-45873419D01*
X36626074Y-45868203D01*
X36647309Y-45865053D01*
X36668750Y-45864000D01*
X37106250Y-45864000D01*
X37127691Y-45865053D01*
G37*
G36*
X35552691Y-45865053D02*
G01*
X35573926Y-45868203D01*
X35594750Y-45873419D01*
X35614962Y-45880651D01*
X35634368Y-45889830D01*
X35652781Y-45900866D01*
X35670024Y-45913654D01*
X35685930Y-45928070D01*
X35700346Y-45943976D01*
X35713134Y-45961219D01*
X35724170Y-45979632D01*
X35733349Y-45999038D01*
X35740581Y-46019250D01*
X35745797Y-46040074D01*
X35748947Y-46061309D01*
X35750000Y-46082750D01*
X35750000Y-46595250D01*
X35748947Y-46616691D01*
X35745797Y-46637926D01*
X35740581Y-46658750D01*
X35733349Y-46678962D01*
X35724170Y-46698368D01*
X35713134Y-46716781D01*
X35700346Y-46734024D01*
X35685930Y-46749930D01*
X35670024Y-46764346D01*
X35652781Y-46777134D01*
X35634368Y-46788170D01*
X35614962Y-46797349D01*
X35594750Y-46804581D01*
X35573926Y-46809797D01*
X35552691Y-46812947D01*
X35531250Y-46814000D01*
X35093750Y-46814000D01*
X35072309Y-46812947D01*
X35051074Y-46809797D01*
X35030250Y-46804581D01*
X35010038Y-46797349D01*
X34990632Y-46788170D01*
X34972219Y-46777134D01*
X34954976Y-46764346D01*
X34939070Y-46749930D01*
X34924654Y-46734024D01*
X34911866Y-46716781D01*
X34900830Y-46698368D01*
X34891651Y-46678962D01*
X34884419Y-46658750D01*
X34879203Y-46637926D01*
X34876053Y-46616691D01*
X34875000Y-46595250D01*
X34875000Y-46082750D01*
X34876053Y-46061309D01*
X34879203Y-46040074D01*
X34884419Y-46019250D01*
X34891651Y-45999038D01*
X34900830Y-45979632D01*
X34911866Y-45961219D01*
X34924654Y-45943976D01*
X34939070Y-45928070D01*
X34954976Y-45913654D01*
X34972219Y-45900866D01*
X34990632Y-45889830D01*
X35010038Y-45880651D01*
X35030250Y-45873419D01*
X35051074Y-45868203D01*
X35072309Y-45865053D01*
X35093750Y-45864000D01*
X35531250Y-45864000D01*
X35552691Y-45865053D01*
G37*
%TD*%
%TO.C,C9*%
G36*
X63253691Y-59782053D02*
G01*
X63274926Y-59785203D01*
X63295750Y-59790419D01*
X63315962Y-59797651D01*
X63335368Y-59806830D01*
X63353781Y-59817866D01*
X63371024Y-59830654D01*
X63386930Y-59845070D01*
X63401346Y-59860976D01*
X63414134Y-59878219D01*
X63425170Y-59896632D01*
X63434349Y-59916038D01*
X63441581Y-59936250D01*
X63446797Y-59957074D01*
X63449947Y-59978309D01*
X63451000Y-59999750D01*
X63451000Y-60437250D01*
X63449947Y-60458691D01*
X63446797Y-60479926D01*
X63441581Y-60500750D01*
X63434349Y-60520962D01*
X63425170Y-60540368D01*
X63414134Y-60558781D01*
X63401346Y-60576024D01*
X63386930Y-60591930D01*
X63371024Y-60606346D01*
X63353781Y-60619134D01*
X63335368Y-60630170D01*
X63315962Y-60639349D01*
X63295750Y-60646581D01*
X63274926Y-60651797D01*
X63253691Y-60654947D01*
X63232250Y-60656000D01*
X62719750Y-60656000D01*
X62698309Y-60654947D01*
X62677074Y-60651797D01*
X62656250Y-60646581D01*
X62636038Y-60639349D01*
X62616632Y-60630170D01*
X62598219Y-60619134D01*
X62580976Y-60606346D01*
X62565070Y-60591930D01*
X62550654Y-60576024D01*
X62537866Y-60558781D01*
X62526830Y-60540368D01*
X62517651Y-60520962D01*
X62510419Y-60500750D01*
X62505203Y-60479926D01*
X62502053Y-60458691D01*
X62501000Y-60437250D01*
X62501000Y-59999750D01*
X62502053Y-59978309D01*
X62505203Y-59957074D01*
X62510419Y-59936250D01*
X62517651Y-59916038D01*
X62526830Y-59896632D01*
X62537866Y-59878219D01*
X62550654Y-59860976D01*
X62565070Y-59845070D01*
X62580976Y-59830654D01*
X62598219Y-59817866D01*
X62616632Y-59806830D01*
X62636038Y-59797651D01*
X62656250Y-59790419D01*
X62677074Y-59785203D01*
X62698309Y-59782053D01*
X62719750Y-59781000D01*
X63232250Y-59781000D01*
X63253691Y-59782053D01*
G37*
G36*
X63253691Y-58207053D02*
G01*
X63274926Y-58210203D01*
X63295750Y-58215419D01*
X63315962Y-58222651D01*
X63335368Y-58231830D01*
X63353781Y-58242866D01*
X63371024Y-58255654D01*
X63386930Y-58270070D01*
X63401346Y-58285976D01*
X63414134Y-58303219D01*
X63425170Y-58321632D01*
X63434349Y-58341038D01*
X63441581Y-58361250D01*
X63446797Y-58382074D01*
X63449947Y-58403309D01*
X63451000Y-58424750D01*
X63451000Y-58862250D01*
X63449947Y-58883691D01*
X63446797Y-58904926D01*
X63441581Y-58925750D01*
X63434349Y-58945962D01*
X63425170Y-58965368D01*
X63414134Y-58983781D01*
X63401346Y-59001024D01*
X63386930Y-59016930D01*
X63371024Y-59031346D01*
X63353781Y-59044134D01*
X63335368Y-59055170D01*
X63315962Y-59064349D01*
X63295750Y-59071581D01*
X63274926Y-59076797D01*
X63253691Y-59079947D01*
X63232250Y-59081000D01*
X62719750Y-59081000D01*
X62698309Y-59079947D01*
X62677074Y-59076797D01*
X62656250Y-59071581D01*
X62636038Y-59064349D01*
X62616632Y-59055170D01*
X62598219Y-59044134D01*
X62580976Y-59031346D01*
X62565070Y-59016930D01*
X62550654Y-59001024D01*
X62537866Y-58983781D01*
X62526830Y-58965368D01*
X62517651Y-58945962D01*
X62510419Y-58925750D01*
X62505203Y-58904926D01*
X62502053Y-58883691D01*
X62501000Y-58862250D01*
X62501000Y-58424750D01*
X62502053Y-58403309D01*
X62505203Y-58382074D01*
X62510419Y-58361250D01*
X62517651Y-58341038D01*
X62526830Y-58321632D01*
X62537866Y-58303219D01*
X62550654Y-58285976D01*
X62565070Y-58270070D01*
X62580976Y-58255654D01*
X62598219Y-58242866D01*
X62616632Y-58231830D01*
X62636038Y-58222651D01*
X62656250Y-58215419D01*
X62677074Y-58210203D01*
X62698309Y-58207053D01*
X62719750Y-58206000D01*
X63232250Y-58206000D01*
X63253691Y-58207053D01*
G37*
%TD*%
%TO.C,C10*%
G36*
X71099691Y-54675053D02*
G01*
X71120926Y-54678203D01*
X71141750Y-54683419D01*
X71161962Y-54690651D01*
X71181368Y-54699830D01*
X71199781Y-54710866D01*
X71217024Y-54723654D01*
X71232930Y-54738070D01*
X71247346Y-54753976D01*
X71260134Y-54771219D01*
X71271170Y-54789632D01*
X71280349Y-54809038D01*
X71287581Y-54829250D01*
X71292797Y-54850074D01*
X71295947Y-54871309D01*
X71297000Y-54892750D01*
X71297000Y-55330250D01*
X71295947Y-55351691D01*
X71292797Y-55372926D01*
X71287581Y-55393750D01*
X71280349Y-55413962D01*
X71271170Y-55433368D01*
X71260134Y-55451781D01*
X71247346Y-55469024D01*
X71232930Y-55484930D01*
X71217024Y-55499346D01*
X71199781Y-55512134D01*
X71181368Y-55523170D01*
X71161962Y-55532349D01*
X71141750Y-55539581D01*
X71120926Y-55544797D01*
X71099691Y-55547947D01*
X71078250Y-55549000D01*
X70565750Y-55549000D01*
X70544309Y-55547947D01*
X70523074Y-55544797D01*
X70502250Y-55539581D01*
X70482038Y-55532349D01*
X70462632Y-55523170D01*
X70444219Y-55512134D01*
X70426976Y-55499346D01*
X70411070Y-55484930D01*
X70396654Y-55469024D01*
X70383866Y-55451781D01*
X70372830Y-55433368D01*
X70363651Y-55413962D01*
X70356419Y-55393750D01*
X70351203Y-55372926D01*
X70348053Y-55351691D01*
X70347000Y-55330250D01*
X70347000Y-54892750D01*
X70348053Y-54871309D01*
X70351203Y-54850074D01*
X70356419Y-54829250D01*
X70363651Y-54809038D01*
X70372830Y-54789632D01*
X70383866Y-54771219D01*
X70396654Y-54753976D01*
X70411070Y-54738070D01*
X70426976Y-54723654D01*
X70444219Y-54710866D01*
X70462632Y-54699830D01*
X70482038Y-54690651D01*
X70502250Y-54683419D01*
X70523074Y-54678203D01*
X70544309Y-54675053D01*
X70565750Y-54674000D01*
X71078250Y-54674000D01*
X71099691Y-54675053D01*
G37*
G36*
X71099691Y-56250053D02*
G01*
X71120926Y-56253203D01*
X71141750Y-56258419D01*
X71161962Y-56265651D01*
X71181368Y-56274830D01*
X71199781Y-56285866D01*
X71217024Y-56298654D01*
X71232930Y-56313070D01*
X71247346Y-56328976D01*
X71260134Y-56346219D01*
X71271170Y-56364632D01*
X71280349Y-56384038D01*
X71287581Y-56404250D01*
X71292797Y-56425074D01*
X71295947Y-56446309D01*
X71297000Y-56467750D01*
X71297000Y-56905250D01*
X71295947Y-56926691D01*
X71292797Y-56947926D01*
X71287581Y-56968750D01*
X71280349Y-56988962D01*
X71271170Y-57008368D01*
X71260134Y-57026781D01*
X71247346Y-57044024D01*
X71232930Y-57059930D01*
X71217024Y-57074346D01*
X71199781Y-57087134D01*
X71181368Y-57098170D01*
X71161962Y-57107349D01*
X71141750Y-57114581D01*
X71120926Y-57119797D01*
X71099691Y-57122947D01*
X71078250Y-57124000D01*
X70565750Y-57124000D01*
X70544309Y-57122947D01*
X70523074Y-57119797D01*
X70502250Y-57114581D01*
X70482038Y-57107349D01*
X70462632Y-57098170D01*
X70444219Y-57087134D01*
X70426976Y-57074346D01*
X70411070Y-57059930D01*
X70396654Y-57044024D01*
X70383866Y-57026781D01*
X70372830Y-57008368D01*
X70363651Y-56988962D01*
X70356419Y-56968750D01*
X70351203Y-56947926D01*
X70348053Y-56926691D01*
X70347000Y-56905250D01*
X70347000Y-56467750D01*
X70348053Y-56446309D01*
X70351203Y-56425074D01*
X70356419Y-56404250D01*
X70363651Y-56384038D01*
X70372830Y-56364632D01*
X70383866Y-56346219D01*
X70396654Y-56328976D01*
X70411070Y-56313070D01*
X70426976Y-56298654D01*
X70444219Y-56285866D01*
X70462632Y-56274830D01*
X70482038Y-56265651D01*
X70502250Y-56258419D01*
X70523074Y-56253203D01*
X70544309Y-56250053D01*
X70565750Y-56249000D01*
X71078250Y-56249000D01*
X71099691Y-56250053D01*
G37*
%TD*%
%TO.C,C11*%
G36*
X31574504Y-48751204D02*
G01*
X31598773Y-48754804D01*
X31622571Y-48760765D01*
X31645671Y-48769030D01*
X31667849Y-48779520D01*
X31688893Y-48792133D01*
X31708598Y-48806747D01*
X31726777Y-48823223D01*
X31743253Y-48841402D01*
X31757867Y-48861107D01*
X31770480Y-48882151D01*
X31780970Y-48904329D01*
X31789235Y-48927429D01*
X31795196Y-48951227D01*
X31798796Y-48975496D01*
X31800000Y-49000000D01*
X31800000Y-52000000D01*
X31798796Y-52024504D01*
X31795196Y-52048773D01*
X31789235Y-52072571D01*
X31780970Y-52095671D01*
X31770480Y-52117849D01*
X31757867Y-52138893D01*
X31743253Y-52158598D01*
X31726777Y-52176777D01*
X31708598Y-52193253D01*
X31688893Y-52207867D01*
X31667849Y-52220480D01*
X31645671Y-52230970D01*
X31622571Y-52239235D01*
X31598773Y-52245196D01*
X31574504Y-52248796D01*
X31550000Y-52250000D01*
X30450000Y-52250000D01*
X30425496Y-52248796D01*
X30401227Y-52245196D01*
X30377429Y-52239235D01*
X30354329Y-52230970D01*
X30332151Y-52220480D01*
X30311107Y-52207867D01*
X30291402Y-52193253D01*
X30273223Y-52176777D01*
X30256747Y-52158598D01*
X30242133Y-52138893D01*
X30229520Y-52117849D01*
X30219030Y-52095671D01*
X30210765Y-52072571D01*
X30204804Y-52048773D01*
X30201204Y-52024504D01*
X30200000Y-52000000D01*
X30200000Y-49000000D01*
X30201204Y-48975496D01*
X30204804Y-48951227D01*
X30210765Y-48927429D01*
X30219030Y-48904329D01*
X30229520Y-48882151D01*
X30242133Y-48861107D01*
X30256747Y-48841402D01*
X30273223Y-48823223D01*
X30291402Y-48806747D01*
X30311107Y-48792133D01*
X30332151Y-48779520D01*
X30354329Y-48769030D01*
X30377429Y-48760765D01*
X30401227Y-48754804D01*
X30425496Y-48751204D01*
X30450000Y-48750000D01*
X31550000Y-48750000D01*
X31574504Y-48751204D01*
G37*
G36*
X31574504Y-54151204D02*
G01*
X31598773Y-54154804D01*
X31622571Y-54160765D01*
X31645671Y-54169030D01*
X31667849Y-54179520D01*
X31688893Y-54192133D01*
X31708598Y-54206747D01*
X31726777Y-54223223D01*
X31743253Y-54241402D01*
X31757867Y-54261107D01*
X31770480Y-54282151D01*
X31780970Y-54304329D01*
X31789235Y-54327429D01*
X31795196Y-54351227D01*
X31798796Y-54375496D01*
X31800000Y-54400000D01*
X31800000Y-57400000D01*
X31798796Y-57424504D01*
X31795196Y-57448773D01*
X31789235Y-57472571D01*
X31780970Y-57495671D01*
X31770480Y-57517849D01*
X31757867Y-57538893D01*
X31743253Y-57558598D01*
X31726777Y-57576777D01*
X31708598Y-57593253D01*
X31688893Y-57607867D01*
X31667849Y-57620480D01*
X31645671Y-57630970D01*
X31622571Y-57639235D01*
X31598773Y-57645196D01*
X31574504Y-57648796D01*
X31550000Y-57650000D01*
X30450000Y-57650000D01*
X30425496Y-57648796D01*
X30401227Y-57645196D01*
X30377429Y-57639235D01*
X30354329Y-57630970D01*
X30332151Y-57620480D01*
X30311107Y-57607867D01*
X30291402Y-57593253D01*
X30273223Y-57576777D01*
X30256747Y-57558598D01*
X30242133Y-57538893D01*
X30229520Y-57517849D01*
X30219030Y-57495671D01*
X30210765Y-57472571D01*
X30204804Y-57448773D01*
X30201204Y-57424504D01*
X30200000Y-57400000D01*
X30200000Y-54400000D01*
X30201204Y-54375496D01*
X30204804Y-54351227D01*
X30210765Y-54327429D01*
X30219030Y-54304329D01*
X30229520Y-54282151D01*
X30242133Y-54261107D01*
X30256747Y-54241402D01*
X30273223Y-54223223D01*
X30291402Y-54206747D01*
X30311107Y-54192133D01*
X30332151Y-54179520D01*
X30354329Y-54169030D01*
X30377429Y-54160765D01*
X30401227Y-54154804D01*
X30425496Y-54151204D01*
X30450000Y-54150000D01*
X31550000Y-54150000D01*
X31574504Y-54151204D01*
G37*
%TD*%
D11*
%TO.C,D1*%
X55550000Y-39400000D03*
X58850000Y-39400000D03*
%TD*%
D12*
%TO.C,D2*%
X43888000Y-41254000D03*
X37088000Y-41254000D03*
%TD*%
D10*
%TO.C,D3*%
G36*
X31852691Y-58726053D02*
G01*
X31873926Y-58729203D01*
X31894750Y-58734419D01*
X31914962Y-58741651D01*
X31934368Y-58750830D01*
X31952781Y-58761866D01*
X31970024Y-58774654D01*
X31985930Y-58789070D01*
X32000346Y-58804976D01*
X32013134Y-58822219D01*
X32024170Y-58840632D01*
X32033349Y-58860038D01*
X32040581Y-58880250D01*
X32045797Y-58901074D01*
X32048947Y-58922309D01*
X32050000Y-58943750D01*
X32050000Y-59456250D01*
X32048947Y-59477691D01*
X32045797Y-59498926D01*
X32040581Y-59519750D01*
X32033349Y-59539962D01*
X32024170Y-59559368D01*
X32013134Y-59577781D01*
X32000346Y-59595024D01*
X31985930Y-59610930D01*
X31970024Y-59625346D01*
X31952781Y-59638134D01*
X31934368Y-59649170D01*
X31914962Y-59658349D01*
X31894750Y-59665581D01*
X31873926Y-59670797D01*
X31852691Y-59673947D01*
X31831250Y-59675000D01*
X31393750Y-59675000D01*
X31372309Y-59673947D01*
X31351074Y-59670797D01*
X31330250Y-59665581D01*
X31310038Y-59658349D01*
X31290632Y-59649170D01*
X31272219Y-59638134D01*
X31254976Y-59625346D01*
X31239070Y-59610930D01*
X31224654Y-59595024D01*
X31211866Y-59577781D01*
X31200830Y-59559368D01*
X31191651Y-59539962D01*
X31184419Y-59519750D01*
X31179203Y-59498926D01*
X31176053Y-59477691D01*
X31175000Y-59456250D01*
X31175000Y-58943750D01*
X31176053Y-58922309D01*
X31179203Y-58901074D01*
X31184419Y-58880250D01*
X31191651Y-58860038D01*
X31200830Y-58840632D01*
X31211866Y-58822219D01*
X31224654Y-58804976D01*
X31239070Y-58789070D01*
X31254976Y-58774654D01*
X31272219Y-58761866D01*
X31290632Y-58750830D01*
X31310038Y-58741651D01*
X31330250Y-58734419D01*
X31351074Y-58729203D01*
X31372309Y-58726053D01*
X31393750Y-58725000D01*
X31831250Y-58725000D01*
X31852691Y-58726053D01*
G37*
G36*
X33427691Y-58726053D02*
G01*
X33448926Y-58729203D01*
X33469750Y-58734419D01*
X33489962Y-58741651D01*
X33509368Y-58750830D01*
X33527781Y-58761866D01*
X33545024Y-58774654D01*
X33560930Y-58789070D01*
X33575346Y-58804976D01*
X33588134Y-58822219D01*
X33599170Y-58840632D01*
X33608349Y-58860038D01*
X33615581Y-58880250D01*
X33620797Y-58901074D01*
X33623947Y-58922309D01*
X33625000Y-58943750D01*
X33625000Y-59456250D01*
X33623947Y-59477691D01*
X33620797Y-59498926D01*
X33615581Y-59519750D01*
X33608349Y-59539962D01*
X33599170Y-59559368D01*
X33588134Y-59577781D01*
X33575346Y-59595024D01*
X33560930Y-59610930D01*
X33545024Y-59625346D01*
X33527781Y-59638134D01*
X33509368Y-59649170D01*
X33489962Y-59658349D01*
X33469750Y-59665581D01*
X33448926Y-59670797D01*
X33427691Y-59673947D01*
X33406250Y-59675000D01*
X32968750Y-59675000D01*
X32947309Y-59673947D01*
X32926074Y-59670797D01*
X32905250Y-59665581D01*
X32885038Y-59658349D01*
X32865632Y-59649170D01*
X32847219Y-59638134D01*
X32829976Y-59625346D01*
X32814070Y-59610930D01*
X32799654Y-59595024D01*
X32786866Y-59577781D01*
X32775830Y-59559368D01*
X32766651Y-59539962D01*
X32759419Y-59519750D01*
X32754203Y-59498926D01*
X32751053Y-59477691D01*
X32750000Y-59456250D01*
X32750000Y-58943750D01*
X32751053Y-58922309D01*
X32754203Y-58901074D01*
X32759419Y-58880250D01*
X32766651Y-58860038D01*
X32775830Y-58840632D01*
X32786866Y-58822219D01*
X32799654Y-58804976D01*
X32814070Y-58789070D01*
X32829976Y-58774654D01*
X32847219Y-58761866D01*
X32865632Y-58750830D01*
X32885038Y-58741651D01*
X32905250Y-58734419D01*
X32926074Y-58729203D01*
X32947309Y-58726053D01*
X32968750Y-58725000D01*
X33406250Y-58725000D01*
X33427691Y-58726053D01*
G37*
%TD*%
%TO.C,F1*%
G36*
X37049504Y-35376204D02*
G01*
X37073773Y-35379804D01*
X37097571Y-35385765D01*
X37120671Y-35394030D01*
X37142849Y-35404520D01*
X37163893Y-35417133D01*
X37183598Y-35431747D01*
X37201777Y-35448223D01*
X37218253Y-35466402D01*
X37232867Y-35486107D01*
X37245480Y-35507151D01*
X37255970Y-35529329D01*
X37264235Y-35552429D01*
X37270196Y-35576227D01*
X37273796Y-35600496D01*
X37275000Y-35625000D01*
X37275000Y-36375000D01*
X37273796Y-36399504D01*
X37270196Y-36423773D01*
X37264235Y-36447571D01*
X37255970Y-36470671D01*
X37245480Y-36492849D01*
X37232867Y-36513893D01*
X37218253Y-36533598D01*
X37201777Y-36551777D01*
X37183598Y-36568253D01*
X37163893Y-36582867D01*
X37142849Y-36595480D01*
X37120671Y-36605970D01*
X37097571Y-36614235D01*
X37073773Y-36620196D01*
X37049504Y-36623796D01*
X37025000Y-36625000D01*
X35775000Y-36625000D01*
X35750496Y-36623796D01*
X35726227Y-36620196D01*
X35702429Y-36614235D01*
X35679329Y-36605970D01*
X35657151Y-36595480D01*
X35636107Y-36582867D01*
X35616402Y-36568253D01*
X35598223Y-36551777D01*
X35581747Y-36533598D01*
X35567133Y-36513893D01*
X35554520Y-36492849D01*
X35544030Y-36470671D01*
X35535765Y-36447571D01*
X35529804Y-36423773D01*
X35526204Y-36399504D01*
X35525000Y-36375000D01*
X35525000Y-35625000D01*
X35526204Y-35600496D01*
X35529804Y-35576227D01*
X35535765Y-35552429D01*
X35544030Y-35529329D01*
X35554520Y-35507151D01*
X35567133Y-35486107D01*
X35581747Y-35466402D01*
X35598223Y-35448223D01*
X35616402Y-35431747D01*
X35636107Y-35417133D01*
X35657151Y-35404520D01*
X35679329Y-35394030D01*
X35702429Y-35385765D01*
X35726227Y-35379804D01*
X35750496Y-35376204D01*
X35775000Y-35375000D01*
X37025000Y-35375000D01*
X37049504Y-35376204D01*
G37*
G36*
X37049504Y-32576204D02*
G01*
X37073773Y-32579804D01*
X37097571Y-32585765D01*
X37120671Y-32594030D01*
X37142849Y-32604520D01*
X37163893Y-32617133D01*
X37183598Y-32631747D01*
X37201777Y-32648223D01*
X37218253Y-32666402D01*
X37232867Y-32686107D01*
X37245480Y-32707151D01*
X37255970Y-32729329D01*
X37264235Y-32752429D01*
X37270196Y-32776227D01*
X37273796Y-32800496D01*
X37275000Y-32825000D01*
X37275000Y-33575000D01*
X37273796Y-33599504D01*
X37270196Y-33623773D01*
X37264235Y-33647571D01*
X37255970Y-33670671D01*
X37245480Y-33692849D01*
X37232867Y-33713893D01*
X37218253Y-33733598D01*
X37201777Y-33751777D01*
X37183598Y-33768253D01*
X37163893Y-33782867D01*
X37142849Y-33795480D01*
X37120671Y-33805970D01*
X37097571Y-33814235D01*
X37073773Y-33820196D01*
X37049504Y-33823796D01*
X37025000Y-33825000D01*
X35775000Y-33825000D01*
X35750496Y-33823796D01*
X35726227Y-33820196D01*
X35702429Y-33814235D01*
X35679329Y-33805970D01*
X35657151Y-33795480D01*
X35636107Y-33782867D01*
X35616402Y-33768253D01*
X35598223Y-33751777D01*
X35581747Y-33733598D01*
X35567133Y-33713893D01*
X35554520Y-33692849D01*
X35544030Y-33670671D01*
X35535765Y-33647571D01*
X35529804Y-33623773D01*
X35526204Y-33599504D01*
X35525000Y-33575000D01*
X35525000Y-32825000D01*
X35526204Y-32800496D01*
X35529804Y-32776227D01*
X35535765Y-32752429D01*
X35544030Y-32729329D01*
X35554520Y-32707151D01*
X35567133Y-32686107D01*
X35581747Y-32666402D01*
X35598223Y-32648223D01*
X35616402Y-32631747D01*
X35636107Y-32617133D01*
X35657151Y-32604520D01*
X35679329Y-32594030D01*
X35702429Y-32585765D01*
X35726227Y-32579804D01*
X35750496Y-32576204D01*
X35775000Y-32575000D01*
X37025000Y-32575000D01*
X37049504Y-32576204D01*
G37*
%TD*%
%TO.C,FB1*%
G36*
X39480142Y-33723174D02*
G01*
X39503803Y-33726684D01*
X39527007Y-33732496D01*
X39549529Y-33740554D01*
X39571153Y-33750782D01*
X39591670Y-33763079D01*
X39610883Y-33777329D01*
X39628607Y-33793393D01*
X39644671Y-33811117D01*
X39658921Y-33830330D01*
X39671218Y-33850847D01*
X39681446Y-33872471D01*
X39689504Y-33894993D01*
X39695316Y-33918197D01*
X39698826Y-33941858D01*
X39700000Y-33965750D01*
X39700000Y-34453250D01*
X39698826Y-34477142D01*
X39695316Y-34500803D01*
X39689504Y-34524007D01*
X39681446Y-34546529D01*
X39671218Y-34568153D01*
X39658921Y-34588670D01*
X39644671Y-34607883D01*
X39628607Y-34625607D01*
X39610883Y-34641671D01*
X39591670Y-34655921D01*
X39571153Y-34668218D01*
X39549529Y-34678446D01*
X39527007Y-34686504D01*
X39503803Y-34692316D01*
X39480142Y-34695826D01*
X39456250Y-34697000D01*
X38543750Y-34697000D01*
X38519858Y-34695826D01*
X38496197Y-34692316D01*
X38472993Y-34686504D01*
X38450471Y-34678446D01*
X38428847Y-34668218D01*
X38408330Y-34655921D01*
X38389117Y-34641671D01*
X38371393Y-34625607D01*
X38355329Y-34607883D01*
X38341079Y-34588670D01*
X38328782Y-34568153D01*
X38318554Y-34546529D01*
X38310496Y-34524007D01*
X38304684Y-34500803D01*
X38301174Y-34477142D01*
X38300000Y-34453250D01*
X38300000Y-33965750D01*
X38301174Y-33941858D01*
X38304684Y-33918197D01*
X38310496Y-33894993D01*
X38318554Y-33872471D01*
X38328782Y-33850847D01*
X38341079Y-33830330D01*
X38355329Y-33811117D01*
X38371393Y-33793393D01*
X38389117Y-33777329D01*
X38408330Y-33763079D01*
X38428847Y-33750782D01*
X38450471Y-33740554D01*
X38472993Y-33732496D01*
X38496197Y-33726684D01*
X38519858Y-33723174D01*
X38543750Y-33722000D01*
X39456250Y-33722000D01*
X39480142Y-33723174D01*
G37*
G36*
X39480142Y-35598174D02*
G01*
X39503803Y-35601684D01*
X39527007Y-35607496D01*
X39549529Y-35615554D01*
X39571153Y-35625782D01*
X39591670Y-35638079D01*
X39610883Y-35652329D01*
X39628607Y-35668393D01*
X39644671Y-35686117D01*
X39658921Y-35705330D01*
X39671218Y-35725847D01*
X39681446Y-35747471D01*
X39689504Y-35769993D01*
X39695316Y-35793197D01*
X39698826Y-35816858D01*
X39700000Y-35840750D01*
X39700000Y-36328250D01*
X39698826Y-36352142D01*
X39695316Y-36375803D01*
X39689504Y-36399007D01*
X39681446Y-36421529D01*
X39671218Y-36443153D01*
X39658921Y-36463670D01*
X39644671Y-36482883D01*
X39628607Y-36500607D01*
X39610883Y-36516671D01*
X39591670Y-36530921D01*
X39571153Y-36543218D01*
X39549529Y-36553446D01*
X39527007Y-36561504D01*
X39503803Y-36567316D01*
X39480142Y-36570826D01*
X39456250Y-36572000D01*
X38543750Y-36572000D01*
X38519858Y-36570826D01*
X38496197Y-36567316D01*
X38472993Y-36561504D01*
X38450471Y-36553446D01*
X38428847Y-36543218D01*
X38408330Y-36530921D01*
X38389117Y-36516671D01*
X38371393Y-36500607D01*
X38355329Y-36482883D01*
X38341079Y-36463670D01*
X38328782Y-36443153D01*
X38318554Y-36421529D01*
X38310496Y-36399007D01*
X38304684Y-36375803D01*
X38301174Y-36352142D01*
X38300000Y-36328250D01*
X38300000Y-35840750D01*
X38301174Y-35816858D01*
X38304684Y-35793197D01*
X38310496Y-35769993D01*
X38318554Y-35747471D01*
X38328782Y-35725847D01*
X38341079Y-35705330D01*
X38355329Y-35686117D01*
X38371393Y-35668393D01*
X38389117Y-35652329D01*
X38408330Y-35638079D01*
X38428847Y-35625782D01*
X38450471Y-35615554D01*
X38472993Y-35607496D01*
X38496197Y-35601684D01*
X38519858Y-35598174D01*
X38543750Y-35597000D01*
X39456250Y-35597000D01*
X39480142Y-35598174D01*
G37*
%TD*%
D13*
%TO.C,J1*%
X46780000Y-57675000D03*
X46780000Y-62725000D03*
X44240000Y-57675000D03*
X44240000Y-62725000D03*
X41700000Y-57675000D03*
X41700000Y-62725000D03*
X39160000Y-57675000D03*
X39160000Y-62725000D03*
X36620000Y-57675000D03*
X36620000Y-62725000D03*
%TD*%
D14*
%TO.C,L1*%
X31000000Y-40804000D03*
X31000000Y-46254000D03*
%TD*%
D15*
%TO.C,Q1*%
X32050000Y-36000000D03*
X33950000Y-36000000D03*
X33000000Y-34000000D03*
%TD*%
D10*
%TO.C,R1*%
G36*
X69877691Y-50176053D02*
G01*
X69898926Y-50179203D01*
X69919750Y-50184419D01*
X69939962Y-50191651D01*
X69959368Y-50200830D01*
X69977781Y-50211866D01*
X69995024Y-50224654D01*
X70010930Y-50239070D01*
X70025346Y-50254976D01*
X70038134Y-50272219D01*
X70049170Y-50290632D01*
X70058349Y-50310038D01*
X70065581Y-50330250D01*
X70070797Y-50351074D01*
X70073947Y-50372309D01*
X70075000Y-50393750D01*
X70075000Y-50831250D01*
X70073947Y-50852691D01*
X70070797Y-50873926D01*
X70065581Y-50894750D01*
X70058349Y-50914962D01*
X70049170Y-50934368D01*
X70038134Y-50952781D01*
X70025346Y-50970024D01*
X70010930Y-50985930D01*
X69995024Y-51000346D01*
X69977781Y-51013134D01*
X69959368Y-51024170D01*
X69939962Y-51033349D01*
X69919750Y-51040581D01*
X69898926Y-51045797D01*
X69877691Y-51048947D01*
X69856250Y-51050000D01*
X69343750Y-51050000D01*
X69322309Y-51048947D01*
X69301074Y-51045797D01*
X69280250Y-51040581D01*
X69260038Y-51033349D01*
X69240632Y-51024170D01*
X69222219Y-51013134D01*
X69204976Y-51000346D01*
X69189070Y-50985930D01*
X69174654Y-50970024D01*
X69161866Y-50952781D01*
X69150830Y-50934368D01*
X69141651Y-50914962D01*
X69134419Y-50894750D01*
X69129203Y-50873926D01*
X69126053Y-50852691D01*
X69125000Y-50831250D01*
X69125000Y-50393750D01*
X69126053Y-50372309D01*
X69129203Y-50351074D01*
X69134419Y-50330250D01*
X69141651Y-50310038D01*
X69150830Y-50290632D01*
X69161866Y-50272219D01*
X69174654Y-50254976D01*
X69189070Y-50239070D01*
X69204976Y-50224654D01*
X69222219Y-50211866D01*
X69240632Y-50200830D01*
X69260038Y-50191651D01*
X69280250Y-50184419D01*
X69301074Y-50179203D01*
X69322309Y-50176053D01*
X69343750Y-50175000D01*
X69856250Y-50175000D01*
X69877691Y-50176053D01*
G37*
G36*
X69877691Y-51751053D02*
G01*
X69898926Y-51754203D01*
X69919750Y-51759419D01*
X69939962Y-51766651D01*
X69959368Y-51775830D01*
X69977781Y-51786866D01*
X69995024Y-51799654D01*
X70010930Y-51814070D01*
X70025346Y-51829976D01*
X70038134Y-51847219D01*
X70049170Y-51865632D01*
X70058349Y-51885038D01*
X70065581Y-51905250D01*
X70070797Y-51926074D01*
X70073947Y-51947309D01*
X70075000Y-51968750D01*
X70075000Y-52406250D01*
X70073947Y-52427691D01*
X70070797Y-52448926D01*
X70065581Y-52469750D01*
X70058349Y-52489962D01*
X70049170Y-52509368D01*
X70038134Y-52527781D01*
X70025346Y-52545024D01*
X70010930Y-52560930D01*
X69995024Y-52575346D01*
X69977781Y-52588134D01*
X69959368Y-52599170D01*
X69939962Y-52608349D01*
X69919750Y-52615581D01*
X69898926Y-52620797D01*
X69877691Y-52623947D01*
X69856250Y-52625000D01*
X69343750Y-52625000D01*
X69322309Y-52623947D01*
X69301074Y-52620797D01*
X69280250Y-52615581D01*
X69260038Y-52608349D01*
X69240632Y-52599170D01*
X69222219Y-52588134D01*
X69204976Y-52575346D01*
X69189070Y-52560930D01*
X69174654Y-52545024D01*
X69161866Y-52527781D01*
X69150830Y-52509368D01*
X69141651Y-52489962D01*
X69134419Y-52469750D01*
X69129203Y-52448926D01*
X69126053Y-52427691D01*
X69125000Y-52406250D01*
X69125000Y-51968750D01*
X69126053Y-51947309D01*
X69129203Y-51926074D01*
X69134419Y-51905250D01*
X69141651Y-51885038D01*
X69150830Y-51865632D01*
X69161866Y-51847219D01*
X69174654Y-51829976D01*
X69189070Y-51814070D01*
X69204976Y-51799654D01*
X69222219Y-51786866D01*
X69240632Y-51775830D01*
X69260038Y-51766651D01*
X69280250Y-51759419D01*
X69301074Y-51754203D01*
X69322309Y-51751053D01*
X69343750Y-51750000D01*
X69856250Y-51750000D01*
X69877691Y-51751053D01*
G37*
%TD*%
%TO.C,R2*%
G36*
X62927691Y-38726053D02*
G01*
X62948926Y-38729203D01*
X62969750Y-38734419D01*
X62989962Y-38741651D01*
X63009368Y-38750830D01*
X63027781Y-38761866D01*
X63045024Y-38774654D01*
X63060930Y-38789070D01*
X63075346Y-38804976D01*
X63088134Y-38822219D01*
X63099170Y-38840632D01*
X63108349Y-38860038D01*
X63115581Y-38880250D01*
X63120797Y-38901074D01*
X63123947Y-38922309D01*
X63125000Y-38943750D01*
X63125000Y-39456250D01*
X63123947Y-39477691D01*
X63120797Y-39498926D01*
X63115581Y-39519750D01*
X63108349Y-39539962D01*
X63099170Y-39559368D01*
X63088134Y-39577781D01*
X63075346Y-39595024D01*
X63060930Y-39610930D01*
X63045024Y-39625346D01*
X63027781Y-39638134D01*
X63009368Y-39649170D01*
X62989962Y-39658349D01*
X62969750Y-39665581D01*
X62948926Y-39670797D01*
X62927691Y-39673947D01*
X62906250Y-39675000D01*
X62468750Y-39675000D01*
X62447309Y-39673947D01*
X62426074Y-39670797D01*
X62405250Y-39665581D01*
X62385038Y-39658349D01*
X62365632Y-39649170D01*
X62347219Y-39638134D01*
X62329976Y-39625346D01*
X62314070Y-39610930D01*
X62299654Y-39595024D01*
X62286866Y-39577781D01*
X62275830Y-39559368D01*
X62266651Y-39539962D01*
X62259419Y-39519750D01*
X62254203Y-39498926D01*
X62251053Y-39477691D01*
X62250000Y-39456250D01*
X62250000Y-38943750D01*
X62251053Y-38922309D01*
X62254203Y-38901074D01*
X62259419Y-38880250D01*
X62266651Y-38860038D01*
X62275830Y-38840632D01*
X62286866Y-38822219D01*
X62299654Y-38804976D01*
X62314070Y-38789070D01*
X62329976Y-38774654D01*
X62347219Y-38761866D01*
X62365632Y-38750830D01*
X62385038Y-38741651D01*
X62405250Y-38734419D01*
X62426074Y-38729203D01*
X62447309Y-38726053D01*
X62468750Y-38725000D01*
X62906250Y-38725000D01*
X62927691Y-38726053D01*
G37*
G36*
X61352691Y-38726053D02*
G01*
X61373926Y-38729203D01*
X61394750Y-38734419D01*
X61414962Y-38741651D01*
X61434368Y-38750830D01*
X61452781Y-38761866D01*
X61470024Y-38774654D01*
X61485930Y-38789070D01*
X61500346Y-38804976D01*
X61513134Y-38822219D01*
X61524170Y-38840632D01*
X61533349Y-38860038D01*
X61540581Y-38880250D01*
X61545797Y-38901074D01*
X61548947Y-38922309D01*
X61550000Y-38943750D01*
X61550000Y-39456250D01*
X61548947Y-39477691D01*
X61545797Y-39498926D01*
X61540581Y-39519750D01*
X61533349Y-39539962D01*
X61524170Y-39559368D01*
X61513134Y-39577781D01*
X61500346Y-39595024D01*
X61485930Y-39610930D01*
X61470024Y-39625346D01*
X61452781Y-39638134D01*
X61434368Y-39649170D01*
X61414962Y-39658349D01*
X61394750Y-39665581D01*
X61373926Y-39670797D01*
X61352691Y-39673947D01*
X61331250Y-39675000D01*
X60893750Y-39675000D01*
X60872309Y-39673947D01*
X60851074Y-39670797D01*
X60830250Y-39665581D01*
X60810038Y-39658349D01*
X60790632Y-39649170D01*
X60772219Y-39638134D01*
X60754976Y-39625346D01*
X60739070Y-39610930D01*
X60724654Y-39595024D01*
X60711866Y-39577781D01*
X60700830Y-39559368D01*
X60691651Y-39539962D01*
X60684419Y-39519750D01*
X60679203Y-39498926D01*
X60676053Y-39477691D01*
X60675000Y-39456250D01*
X60675000Y-38943750D01*
X60676053Y-38922309D01*
X60679203Y-38901074D01*
X60684419Y-38880250D01*
X60691651Y-38860038D01*
X60700830Y-38840632D01*
X60711866Y-38822219D01*
X60724654Y-38804976D01*
X60739070Y-38789070D01*
X60754976Y-38774654D01*
X60772219Y-38761866D01*
X60790632Y-38750830D01*
X60810038Y-38741651D01*
X60830250Y-38734419D01*
X60851074Y-38729203D01*
X60872309Y-38726053D01*
X60893750Y-38725000D01*
X61331250Y-38725000D01*
X61352691Y-38726053D01*
G37*
%TD*%
%TO.C,R3*%
G36*
X47827691Y-50726053D02*
G01*
X47848926Y-50729203D01*
X47869750Y-50734419D01*
X47889962Y-50741651D01*
X47909368Y-50750830D01*
X47927781Y-50761866D01*
X47945024Y-50774654D01*
X47960930Y-50789070D01*
X47975346Y-50804976D01*
X47988134Y-50822219D01*
X47999170Y-50840632D01*
X48008349Y-50860038D01*
X48015581Y-50880250D01*
X48020797Y-50901074D01*
X48023947Y-50922309D01*
X48025000Y-50943750D01*
X48025000Y-51456250D01*
X48023947Y-51477691D01*
X48020797Y-51498926D01*
X48015581Y-51519750D01*
X48008349Y-51539962D01*
X47999170Y-51559368D01*
X47988134Y-51577781D01*
X47975346Y-51595024D01*
X47960930Y-51610930D01*
X47945024Y-51625346D01*
X47927781Y-51638134D01*
X47909368Y-51649170D01*
X47889962Y-51658349D01*
X47869750Y-51665581D01*
X47848926Y-51670797D01*
X47827691Y-51673947D01*
X47806250Y-51675000D01*
X47368750Y-51675000D01*
X47347309Y-51673947D01*
X47326074Y-51670797D01*
X47305250Y-51665581D01*
X47285038Y-51658349D01*
X47265632Y-51649170D01*
X47247219Y-51638134D01*
X47229976Y-51625346D01*
X47214070Y-51610930D01*
X47199654Y-51595024D01*
X47186866Y-51577781D01*
X47175830Y-51559368D01*
X47166651Y-51539962D01*
X47159419Y-51519750D01*
X47154203Y-51498926D01*
X47151053Y-51477691D01*
X47150000Y-51456250D01*
X47150000Y-50943750D01*
X47151053Y-50922309D01*
X47154203Y-50901074D01*
X47159419Y-50880250D01*
X47166651Y-50860038D01*
X47175830Y-50840632D01*
X47186866Y-50822219D01*
X47199654Y-50804976D01*
X47214070Y-50789070D01*
X47229976Y-50774654D01*
X47247219Y-50761866D01*
X47265632Y-50750830D01*
X47285038Y-50741651D01*
X47305250Y-50734419D01*
X47326074Y-50729203D01*
X47347309Y-50726053D01*
X47368750Y-50725000D01*
X47806250Y-50725000D01*
X47827691Y-50726053D01*
G37*
G36*
X46252691Y-50726053D02*
G01*
X46273926Y-50729203D01*
X46294750Y-50734419D01*
X46314962Y-50741651D01*
X46334368Y-50750830D01*
X46352781Y-50761866D01*
X46370024Y-50774654D01*
X46385930Y-50789070D01*
X46400346Y-50804976D01*
X46413134Y-50822219D01*
X46424170Y-50840632D01*
X46433349Y-50860038D01*
X46440581Y-50880250D01*
X46445797Y-50901074D01*
X46448947Y-50922309D01*
X46450000Y-50943750D01*
X46450000Y-51456250D01*
X46448947Y-51477691D01*
X46445797Y-51498926D01*
X46440581Y-51519750D01*
X46433349Y-51539962D01*
X46424170Y-51559368D01*
X46413134Y-51577781D01*
X46400346Y-51595024D01*
X46385930Y-51610930D01*
X46370024Y-51625346D01*
X46352781Y-51638134D01*
X46334368Y-51649170D01*
X46314962Y-51658349D01*
X46294750Y-51665581D01*
X46273926Y-51670797D01*
X46252691Y-51673947D01*
X46231250Y-51675000D01*
X45793750Y-51675000D01*
X45772309Y-51673947D01*
X45751074Y-51670797D01*
X45730250Y-51665581D01*
X45710038Y-51658349D01*
X45690632Y-51649170D01*
X45672219Y-51638134D01*
X45654976Y-51625346D01*
X45639070Y-51610930D01*
X45624654Y-51595024D01*
X45611866Y-51577781D01*
X45600830Y-51559368D01*
X45591651Y-51539962D01*
X45584419Y-51519750D01*
X45579203Y-51498926D01*
X45576053Y-51477691D01*
X45575000Y-51456250D01*
X45575000Y-50943750D01*
X45576053Y-50922309D01*
X45579203Y-50901074D01*
X45584419Y-50880250D01*
X45591651Y-50860038D01*
X45600830Y-50840632D01*
X45611866Y-50822219D01*
X45624654Y-50804976D01*
X45639070Y-50789070D01*
X45654976Y-50774654D01*
X45672219Y-50761866D01*
X45690632Y-50750830D01*
X45710038Y-50741651D01*
X45730250Y-50734419D01*
X45751074Y-50729203D01*
X45772309Y-50726053D01*
X45793750Y-50725000D01*
X46231250Y-50725000D01*
X46252691Y-50726053D01*
G37*
%TD*%
%TO.C,R4*%
G36*
X47827691Y-52326053D02*
G01*
X47848926Y-52329203D01*
X47869750Y-52334419D01*
X47889962Y-52341651D01*
X47909368Y-52350830D01*
X47927781Y-52361866D01*
X47945024Y-52374654D01*
X47960930Y-52389070D01*
X47975346Y-52404976D01*
X47988134Y-52422219D01*
X47999170Y-52440632D01*
X48008349Y-52460038D01*
X48015581Y-52480250D01*
X48020797Y-52501074D01*
X48023947Y-52522309D01*
X48025000Y-52543750D01*
X48025000Y-53056250D01*
X48023947Y-53077691D01*
X48020797Y-53098926D01*
X48015581Y-53119750D01*
X48008349Y-53139962D01*
X47999170Y-53159368D01*
X47988134Y-53177781D01*
X47975346Y-53195024D01*
X47960930Y-53210930D01*
X47945024Y-53225346D01*
X47927781Y-53238134D01*
X47909368Y-53249170D01*
X47889962Y-53258349D01*
X47869750Y-53265581D01*
X47848926Y-53270797D01*
X47827691Y-53273947D01*
X47806250Y-53275000D01*
X47368750Y-53275000D01*
X47347309Y-53273947D01*
X47326074Y-53270797D01*
X47305250Y-53265581D01*
X47285038Y-53258349D01*
X47265632Y-53249170D01*
X47247219Y-53238134D01*
X47229976Y-53225346D01*
X47214070Y-53210930D01*
X47199654Y-53195024D01*
X47186866Y-53177781D01*
X47175830Y-53159368D01*
X47166651Y-53139962D01*
X47159419Y-53119750D01*
X47154203Y-53098926D01*
X47151053Y-53077691D01*
X47150000Y-53056250D01*
X47150000Y-52543750D01*
X47151053Y-52522309D01*
X47154203Y-52501074D01*
X47159419Y-52480250D01*
X47166651Y-52460038D01*
X47175830Y-52440632D01*
X47186866Y-52422219D01*
X47199654Y-52404976D01*
X47214070Y-52389070D01*
X47229976Y-52374654D01*
X47247219Y-52361866D01*
X47265632Y-52350830D01*
X47285038Y-52341651D01*
X47305250Y-52334419D01*
X47326074Y-52329203D01*
X47347309Y-52326053D01*
X47368750Y-52325000D01*
X47806250Y-52325000D01*
X47827691Y-52326053D01*
G37*
G36*
X46252691Y-52326053D02*
G01*
X46273926Y-52329203D01*
X46294750Y-52334419D01*
X46314962Y-52341651D01*
X46334368Y-52350830D01*
X46352781Y-52361866D01*
X46370024Y-52374654D01*
X46385930Y-52389070D01*
X46400346Y-52404976D01*
X46413134Y-52422219D01*
X46424170Y-52440632D01*
X46433349Y-52460038D01*
X46440581Y-52480250D01*
X46445797Y-52501074D01*
X46448947Y-52522309D01*
X46450000Y-52543750D01*
X46450000Y-53056250D01*
X46448947Y-53077691D01*
X46445797Y-53098926D01*
X46440581Y-53119750D01*
X46433349Y-53139962D01*
X46424170Y-53159368D01*
X46413134Y-53177781D01*
X46400346Y-53195024D01*
X46385930Y-53210930D01*
X46370024Y-53225346D01*
X46352781Y-53238134D01*
X46334368Y-53249170D01*
X46314962Y-53258349D01*
X46294750Y-53265581D01*
X46273926Y-53270797D01*
X46252691Y-53273947D01*
X46231250Y-53275000D01*
X45793750Y-53275000D01*
X45772309Y-53273947D01*
X45751074Y-53270797D01*
X45730250Y-53265581D01*
X45710038Y-53258349D01*
X45690632Y-53249170D01*
X45672219Y-53238134D01*
X45654976Y-53225346D01*
X45639070Y-53210930D01*
X45624654Y-53195024D01*
X45611866Y-53177781D01*
X45600830Y-53159368D01*
X45591651Y-53139962D01*
X45584419Y-53119750D01*
X45579203Y-53098926D01*
X45576053Y-53077691D01*
X45575000Y-53056250D01*
X45575000Y-52543750D01*
X45576053Y-52522309D01*
X45579203Y-52501074D01*
X45584419Y-52480250D01*
X45591651Y-52460038D01*
X45600830Y-52440632D01*
X45611866Y-52422219D01*
X45624654Y-52404976D01*
X45639070Y-52389070D01*
X45654976Y-52374654D01*
X45672219Y-52361866D01*
X45690632Y-52350830D01*
X45710038Y-52341651D01*
X45730250Y-52334419D01*
X45751074Y-52329203D01*
X45772309Y-52326053D01*
X45793750Y-52325000D01*
X46231250Y-52325000D01*
X46252691Y-52326053D01*
G37*
%TD*%
%TO.C,R5*%
G36*
X64777691Y-61534553D02*
G01*
X64798926Y-61537703D01*
X64819750Y-61542919D01*
X64839962Y-61550151D01*
X64859368Y-61559330D01*
X64877781Y-61570366D01*
X64895024Y-61583154D01*
X64910930Y-61597570D01*
X64925346Y-61613476D01*
X64938134Y-61630719D01*
X64949170Y-61649132D01*
X64958349Y-61668538D01*
X64965581Y-61688750D01*
X64970797Y-61709574D01*
X64973947Y-61730809D01*
X64975000Y-61752250D01*
X64975000Y-62189750D01*
X64973947Y-62211191D01*
X64970797Y-62232426D01*
X64965581Y-62253250D01*
X64958349Y-62273462D01*
X64949170Y-62292868D01*
X64938134Y-62311281D01*
X64925346Y-62328524D01*
X64910930Y-62344430D01*
X64895024Y-62358846D01*
X64877781Y-62371634D01*
X64859368Y-62382670D01*
X64839962Y-62391849D01*
X64819750Y-62399081D01*
X64798926Y-62404297D01*
X64777691Y-62407447D01*
X64756250Y-62408500D01*
X64243750Y-62408500D01*
X64222309Y-62407447D01*
X64201074Y-62404297D01*
X64180250Y-62399081D01*
X64160038Y-62391849D01*
X64140632Y-62382670D01*
X64122219Y-62371634D01*
X64104976Y-62358846D01*
X64089070Y-62344430D01*
X64074654Y-62328524D01*
X64061866Y-62311281D01*
X64050830Y-62292868D01*
X64041651Y-62273462D01*
X64034419Y-62253250D01*
X64029203Y-62232426D01*
X64026053Y-62211191D01*
X64025000Y-62189750D01*
X64025000Y-61752250D01*
X64026053Y-61730809D01*
X64029203Y-61709574D01*
X64034419Y-61688750D01*
X64041651Y-61668538D01*
X64050830Y-61649132D01*
X64061866Y-61630719D01*
X64074654Y-61613476D01*
X64089070Y-61597570D01*
X64104976Y-61583154D01*
X64122219Y-61570366D01*
X64140632Y-61559330D01*
X64160038Y-61550151D01*
X64180250Y-61542919D01*
X64201074Y-61537703D01*
X64222309Y-61534553D01*
X64243750Y-61533500D01*
X64756250Y-61533500D01*
X64777691Y-61534553D01*
G37*
G36*
X64777691Y-63109553D02*
G01*
X64798926Y-63112703D01*
X64819750Y-63117919D01*
X64839962Y-63125151D01*
X64859368Y-63134330D01*
X64877781Y-63145366D01*
X64895024Y-63158154D01*
X64910930Y-63172570D01*
X64925346Y-63188476D01*
X64938134Y-63205719D01*
X64949170Y-63224132D01*
X64958349Y-63243538D01*
X64965581Y-63263750D01*
X64970797Y-63284574D01*
X64973947Y-63305809D01*
X64975000Y-63327250D01*
X64975000Y-63764750D01*
X64973947Y-63786191D01*
X64970797Y-63807426D01*
X64965581Y-63828250D01*
X64958349Y-63848462D01*
X64949170Y-63867868D01*
X64938134Y-63886281D01*
X64925346Y-63903524D01*
X64910930Y-63919430D01*
X64895024Y-63933846D01*
X64877781Y-63946634D01*
X64859368Y-63957670D01*
X64839962Y-63966849D01*
X64819750Y-63974081D01*
X64798926Y-63979297D01*
X64777691Y-63982447D01*
X64756250Y-63983500D01*
X64243750Y-63983500D01*
X64222309Y-63982447D01*
X64201074Y-63979297D01*
X64180250Y-63974081D01*
X64160038Y-63966849D01*
X64140632Y-63957670D01*
X64122219Y-63946634D01*
X64104976Y-63933846D01*
X64089070Y-63919430D01*
X64074654Y-63903524D01*
X64061866Y-63886281D01*
X64050830Y-63867868D01*
X64041651Y-63848462D01*
X64034419Y-63828250D01*
X64029203Y-63807426D01*
X64026053Y-63786191D01*
X64025000Y-63764750D01*
X64025000Y-63327250D01*
X64026053Y-63305809D01*
X64029203Y-63284574D01*
X64034419Y-63263750D01*
X64041651Y-63243538D01*
X64050830Y-63224132D01*
X64061866Y-63205719D01*
X64074654Y-63188476D01*
X64089070Y-63172570D01*
X64104976Y-63158154D01*
X64122219Y-63145366D01*
X64140632Y-63134330D01*
X64160038Y-63125151D01*
X64180250Y-63117919D01*
X64201074Y-63112703D01*
X64222309Y-63109553D01*
X64243750Y-63108500D01*
X64756250Y-63108500D01*
X64777691Y-63109553D01*
G37*
%TD*%
%TO.C,R6*%
G36*
X72623691Y-57977053D02*
G01*
X72644926Y-57980203D01*
X72665750Y-57985419D01*
X72685962Y-57992651D01*
X72705368Y-58001830D01*
X72723781Y-58012866D01*
X72741024Y-58025654D01*
X72756930Y-58040070D01*
X72771346Y-58055976D01*
X72784134Y-58073219D01*
X72795170Y-58091632D01*
X72804349Y-58111038D01*
X72811581Y-58131250D01*
X72816797Y-58152074D01*
X72819947Y-58173309D01*
X72821000Y-58194750D01*
X72821000Y-58632250D01*
X72819947Y-58653691D01*
X72816797Y-58674926D01*
X72811581Y-58695750D01*
X72804349Y-58715962D01*
X72795170Y-58735368D01*
X72784134Y-58753781D01*
X72771346Y-58771024D01*
X72756930Y-58786930D01*
X72741024Y-58801346D01*
X72723781Y-58814134D01*
X72705368Y-58825170D01*
X72685962Y-58834349D01*
X72665750Y-58841581D01*
X72644926Y-58846797D01*
X72623691Y-58849947D01*
X72602250Y-58851000D01*
X72089750Y-58851000D01*
X72068309Y-58849947D01*
X72047074Y-58846797D01*
X72026250Y-58841581D01*
X72006038Y-58834349D01*
X71986632Y-58825170D01*
X71968219Y-58814134D01*
X71950976Y-58801346D01*
X71935070Y-58786930D01*
X71920654Y-58771024D01*
X71907866Y-58753781D01*
X71896830Y-58735368D01*
X71887651Y-58715962D01*
X71880419Y-58695750D01*
X71875203Y-58674926D01*
X71872053Y-58653691D01*
X71871000Y-58632250D01*
X71871000Y-58194750D01*
X71872053Y-58173309D01*
X71875203Y-58152074D01*
X71880419Y-58131250D01*
X71887651Y-58111038D01*
X71896830Y-58091632D01*
X71907866Y-58073219D01*
X71920654Y-58055976D01*
X71935070Y-58040070D01*
X71950976Y-58025654D01*
X71968219Y-58012866D01*
X71986632Y-58001830D01*
X72006038Y-57992651D01*
X72026250Y-57985419D01*
X72047074Y-57980203D01*
X72068309Y-57977053D01*
X72089750Y-57976000D01*
X72602250Y-57976000D01*
X72623691Y-57977053D01*
G37*
G36*
X72623691Y-59552053D02*
G01*
X72644926Y-59555203D01*
X72665750Y-59560419D01*
X72685962Y-59567651D01*
X72705368Y-59576830D01*
X72723781Y-59587866D01*
X72741024Y-59600654D01*
X72756930Y-59615070D01*
X72771346Y-59630976D01*
X72784134Y-59648219D01*
X72795170Y-59666632D01*
X72804349Y-59686038D01*
X72811581Y-59706250D01*
X72816797Y-59727074D01*
X72819947Y-59748309D01*
X72821000Y-59769750D01*
X72821000Y-60207250D01*
X72819947Y-60228691D01*
X72816797Y-60249926D01*
X72811581Y-60270750D01*
X72804349Y-60290962D01*
X72795170Y-60310368D01*
X72784134Y-60328781D01*
X72771346Y-60346024D01*
X72756930Y-60361930D01*
X72741024Y-60376346D01*
X72723781Y-60389134D01*
X72705368Y-60400170D01*
X72685962Y-60409349D01*
X72665750Y-60416581D01*
X72644926Y-60421797D01*
X72623691Y-60424947D01*
X72602250Y-60426000D01*
X72089750Y-60426000D01*
X72068309Y-60424947D01*
X72047074Y-60421797D01*
X72026250Y-60416581D01*
X72006038Y-60409349D01*
X71986632Y-60400170D01*
X71968219Y-60389134D01*
X71950976Y-60376346D01*
X71935070Y-60361930D01*
X71920654Y-60346024D01*
X71907866Y-60328781D01*
X71896830Y-60310368D01*
X71887651Y-60290962D01*
X71880419Y-60270750D01*
X71875203Y-60249926D01*
X71872053Y-60228691D01*
X71871000Y-60207250D01*
X71871000Y-59769750D01*
X71872053Y-59748309D01*
X71875203Y-59727074D01*
X71880419Y-59706250D01*
X71887651Y-59686038D01*
X71896830Y-59666632D01*
X71907866Y-59648219D01*
X71920654Y-59630976D01*
X71935070Y-59615070D01*
X71950976Y-59600654D01*
X71968219Y-59587866D01*
X71986632Y-59576830D01*
X72006038Y-59567651D01*
X72026250Y-59560419D01*
X72047074Y-59555203D01*
X72068309Y-59552053D01*
X72089750Y-59551000D01*
X72602250Y-59551000D01*
X72623691Y-59552053D01*
G37*
%TD*%
%TO.C,R7*%
G36*
X63253691Y-63084053D02*
G01*
X63274926Y-63087203D01*
X63295750Y-63092419D01*
X63315962Y-63099651D01*
X63335368Y-63108830D01*
X63353781Y-63119866D01*
X63371024Y-63132654D01*
X63386930Y-63147070D01*
X63401346Y-63162976D01*
X63414134Y-63180219D01*
X63425170Y-63198632D01*
X63434349Y-63218038D01*
X63441581Y-63238250D01*
X63446797Y-63259074D01*
X63449947Y-63280309D01*
X63451000Y-63301750D01*
X63451000Y-63739250D01*
X63449947Y-63760691D01*
X63446797Y-63781926D01*
X63441581Y-63802750D01*
X63434349Y-63822962D01*
X63425170Y-63842368D01*
X63414134Y-63860781D01*
X63401346Y-63878024D01*
X63386930Y-63893930D01*
X63371024Y-63908346D01*
X63353781Y-63921134D01*
X63335368Y-63932170D01*
X63315962Y-63941349D01*
X63295750Y-63948581D01*
X63274926Y-63953797D01*
X63253691Y-63956947D01*
X63232250Y-63958000D01*
X62719750Y-63958000D01*
X62698309Y-63956947D01*
X62677074Y-63953797D01*
X62656250Y-63948581D01*
X62636038Y-63941349D01*
X62616632Y-63932170D01*
X62598219Y-63921134D01*
X62580976Y-63908346D01*
X62565070Y-63893930D01*
X62550654Y-63878024D01*
X62537866Y-63860781D01*
X62526830Y-63842368D01*
X62517651Y-63822962D01*
X62510419Y-63802750D01*
X62505203Y-63781926D01*
X62502053Y-63760691D01*
X62501000Y-63739250D01*
X62501000Y-63301750D01*
X62502053Y-63280309D01*
X62505203Y-63259074D01*
X62510419Y-63238250D01*
X62517651Y-63218038D01*
X62526830Y-63198632D01*
X62537866Y-63180219D01*
X62550654Y-63162976D01*
X62565070Y-63147070D01*
X62580976Y-63132654D01*
X62598219Y-63119866D01*
X62616632Y-63108830D01*
X62636038Y-63099651D01*
X62656250Y-63092419D01*
X62677074Y-63087203D01*
X62698309Y-63084053D01*
X62719750Y-63083000D01*
X63232250Y-63083000D01*
X63253691Y-63084053D01*
G37*
G36*
X63253691Y-61509053D02*
G01*
X63274926Y-61512203D01*
X63295750Y-61517419D01*
X63315962Y-61524651D01*
X63335368Y-61533830D01*
X63353781Y-61544866D01*
X63371024Y-61557654D01*
X63386930Y-61572070D01*
X63401346Y-61587976D01*
X63414134Y-61605219D01*
X63425170Y-61623632D01*
X63434349Y-61643038D01*
X63441581Y-61663250D01*
X63446797Y-61684074D01*
X63449947Y-61705309D01*
X63451000Y-61726750D01*
X63451000Y-62164250D01*
X63449947Y-62185691D01*
X63446797Y-62206926D01*
X63441581Y-62227750D01*
X63434349Y-62247962D01*
X63425170Y-62267368D01*
X63414134Y-62285781D01*
X63401346Y-62303024D01*
X63386930Y-62318930D01*
X63371024Y-62333346D01*
X63353781Y-62346134D01*
X63335368Y-62357170D01*
X63315962Y-62366349D01*
X63295750Y-62373581D01*
X63274926Y-62378797D01*
X63253691Y-62381947D01*
X63232250Y-62383000D01*
X62719750Y-62383000D01*
X62698309Y-62381947D01*
X62677074Y-62378797D01*
X62656250Y-62373581D01*
X62636038Y-62366349D01*
X62616632Y-62357170D01*
X62598219Y-62346134D01*
X62580976Y-62333346D01*
X62565070Y-62318930D01*
X62550654Y-62303024D01*
X62537866Y-62285781D01*
X62526830Y-62267368D01*
X62517651Y-62247962D01*
X62510419Y-62227750D01*
X62505203Y-62206926D01*
X62502053Y-62185691D01*
X62501000Y-62164250D01*
X62501000Y-61726750D01*
X62502053Y-61705309D01*
X62505203Y-61684074D01*
X62510419Y-61663250D01*
X62517651Y-61643038D01*
X62526830Y-61623632D01*
X62537866Y-61605219D01*
X62550654Y-61587976D01*
X62565070Y-61572070D01*
X62580976Y-61557654D01*
X62598219Y-61544866D01*
X62616632Y-61533830D01*
X62636038Y-61524651D01*
X62656250Y-61517419D01*
X62677074Y-61512203D01*
X62698309Y-61509053D01*
X62719750Y-61508000D01*
X63232250Y-61508000D01*
X63253691Y-61509053D01*
G37*
%TD*%
%TO.C,R8*%
G36*
X71099691Y-59552053D02*
G01*
X71120926Y-59555203D01*
X71141750Y-59560419D01*
X71161962Y-59567651D01*
X71181368Y-59576830D01*
X71199781Y-59587866D01*
X71217024Y-59600654D01*
X71232930Y-59615070D01*
X71247346Y-59630976D01*
X71260134Y-59648219D01*
X71271170Y-59666632D01*
X71280349Y-59686038D01*
X71287581Y-59706250D01*
X71292797Y-59727074D01*
X71295947Y-59748309D01*
X71297000Y-59769750D01*
X71297000Y-60207250D01*
X71295947Y-60228691D01*
X71292797Y-60249926D01*
X71287581Y-60270750D01*
X71280349Y-60290962D01*
X71271170Y-60310368D01*
X71260134Y-60328781D01*
X71247346Y-60346024D01*
X71232930Y-60361930D01*
X71217024Y-60376346D01*
X71199781Y-60389134D01*
X71181368Y-60400170D01*
X71161962Y-60409349D01*
X71141750Y-60416581D01*
X71120926Y-60421797D01*
X71099691Y-60424947D01*
X71078250Y-60426000D01*
X70565750Y-60426000D01*
X70544309Y-60424947D01*
X70523074Y-60421797D01*
X70502250Y-60416581D01*
X70482038Y-60409349D01*
X70462632Y-60400170D01*
X70444219Y-60389134D01*
X70426976Y-60376346D01*
X70411070Y-60361930D01*
X70396654Y-60346024D01*
X70383866Y-60328781D01*
X70372830Y-60310368D01*
X70363651Y-60290962D01*
X70356419Y-60270750D01*
X70351203Y-60249926D01*
X70348053Y-60228691D01*
X70347000Y-60207250D01*
X70347000Y-59769750D01*
X70348053Y-59748309D01*
X70351203Y-59727074D01*
X70356419Y-59706250D01*
X70363651Y-59686038D01*
X70372830Y-59666632D01*
X70383866Y-59648219D01*
X70396654Y-59630976D01*
X70411070Y-59615070D01*
X70426976Y-59600654D01*
X70444219Y-59587866D01*
X70462632Y-59576830D01*
X70482038Y-59567651D01*
X70502250Y-59560419D01*
X70523074Y-59555203D01*
X70544309Y-59552053D01*
X70565750Y-59551000D01*
X71078250Y-59551000D01*
X71099691Y-59552053D01*
G37*
G36*
X71099691Y-57977053D02*
G01*
X71120926Y-57980203D01*
X71141750Y-57985419D01*
X71161962Y-57992651D01*
X71181368Y-58001830D01*
X71199781Y-58012866D01*
X71217024Y-58025654D01*
X71232930Y-58040070D01*
X71247346Y-58055976D01*
X71260134Y-58073219D01*
X71271170Y-58091632D01*
X71280349Y-58111038D01*
X71287581Y-58131250D01*
X71292797Y-58152074D01*
X71295947Y-58173309D01*
X71297000Y-58194750D01*
X71297000Y-58632250D01*
X71295947Y-58653691D01*
X71292797Y-58674926D01*
X71287581Y-58695750D01*
X71280349Y-58715962D01*
X71271170Y-58735368D01*
X71260134Y-58753781D01*
X71247346Y-58771024D01*
X71232930Y-58786930D01*
X71217024Y-58801346D01*
X71199781Y-58814134D01*
X71181368Y-58825170D01*
X71161962Y-58834349D01*
X71141750Y-58841581D01*
X71120926Y-58846797D01*
X71099691Y-58849947D01*
X71078250Y-58851000D01*
X70565750Y-58851000D01*
X70544309Y-58849947D01*
X70523074Y-58846797D01*
X70502250Y-58841581D01*
X70482038Y-58834349D01*
X70462632Y-58825170D01*
X70444219Y-58814134D01*
X70426976Y-58801346D01*
X70411070Y-58786930D01*
X70396654Y-58771024D01*
X70383866Y-58753781D01*
X70372830Y-58735368D01*
X70363651Y-58715962D01*
X70356419Y-58695750D01*
X70351203Y-58674926D01*
X70348053Y-58653691D01*
X70347000Y-58632250D01*
X70347000Y-58194750D01*
X70348053Y-58173309D01*
X70351203Y-58152074D01*
X70356419Y-58131250D01*
X70363651Y-58111038D01*
X70372830Y-58091632D01*
X70383866Y-58073219D01*
X70396654Y-58055976D01*
X70411070Y-58040070D01*
X70426976Y-58025654D01*
X70444219Y-58012866D01*
X70462632Y-58001830D01*
X70482038Y-57992651D01*
X70502250Y-57985419D01*
X70523074Y-57980203D01*
X70544309Y-57977053D01*
X70565750Y-57976000D01*
X71078250Y-57976000D01*
X71099691Y-57977053D01*
G37*
%TD*%
%TO.C,R9*%
G36*
X50677691Y-40351053D02*
G01*
X50698926Y-40354203D01*
X50719750Y-40359419D01*
X50739962Y-40366651D01*
X50759368Y-40375830D01*
X50777781Y-40386866D01*
X50795024Y-40399654D01*
X50810930Y-40414070D01*
X50825346Y-40429976D01*
X50838134Y-40447219D01*
X50849170Y-40465632D01*
X50858349Y-40485038D01*
X50865581Y-40505250D01*
X50870797Y-40526074D01*
X50873947Y-40547309D01*
X50875000Y-40568750D01*
X50875000Y-41006250D01*
X50873947Y-41027691D01*
X50870797Y-41048926D01*
X50865581Y-41069750D01*
X50858349Y-41089962D01*
X50849170Y-41109368D01*
X50838134Y-41127781D01*
X50825346Y-41145024D01*
X50810930Y-41160930D01*
X50795024Y-41175346D01*
X50777781Y-41188134D01*
X50759368Y-41199170D01*
X50739962Y-41208349D01*
X50719750Y-41215581D01*
X50698926Y-41220797D01*
X50677691Y-41223947D01*
X50656250Y-41225000D01*
X50143750Y-41225000D01*
X50122309Y-41223947D01*
X50101074Y-41220797D01*
X50080250Y-41215581D01*
X50060038Y-41208349D01*
X50040632Y-41199170D01*
X50022219Y-41188134D01*
X50004976Y-41175346D01*
X49989070Y-41160930D01*
X49974654Y-41145024D01*
X49961866Y-41127781D01*
X49950830Y-41109368D01*
X49941651Y-41089962D01*
X49934419Y-41069750D01*
X49929203Y-41048926D01*
X49926053Y-41027691D01*
X49925000Y-41006250D01*
X49925000Y-40568750D01*
X49926053Y-40547309D01*
X49929203Y-40526074D01*
X49934419Y-40505250D01*
X49941651Y-40485038D01*
X49950830Y-40465632D01*
X49961866Y-40447219D01*
X49974654Y-40429976D01*
X49989070Y-40414070D01*
X50004976Y-40399654D01*
X50022219Y-40386866D01*
X50040632Y-40375830D01*
X50060038Y-40366651D01*
X50080250Y-40359419D01*
X50101074Y-40354203D01*
X50122309Y-40351053D01*
X50143750Y-40350000D01*
X50656250Y-40350000D01*
X50677691Y-40351053D01*
G37*
G36*
X50677691Y-38776053D02*
G01*
X50698926Y-38779203D01*
X50719750Y-38784419D01*
X50739962Y-38791651D01*
X50759368Y-38800830D01*
X50777781Y-38811866D01*
X50795024Y-38824654D01*
X50810930Y-38839070D01*
X50825346Y-38854976D01*
X50838134Y-38872219D01*
X50849170Y-38890632D01*
X50858349Y-38910038D01*
X50865581Y-38930250D01*
X50870797Y-38951074D01*
X50873947Y-38972309D01*
X50875000Y-38993750D01*
X50875000Y-39431250D01*
X50873947Y-39452691D01*
X50870797Y-39473926D01*
X50865581Y-39494750D01*
X50858349Y-39514962D01*
X50849170Y-39534368D01*
X50838134Y-39552781D01*
X50825346Y-39570024D01*
X50810930Y-39585930D01*
X50795024Y-39600346D01*
X50777781Y-39613134D01*
X50759368Y-39624170D01*
X50739962Y-39633349D01*
X50719750Y-39640581D01*
X50698926Y-39645797D01*
X50677691Y-39648947D01*
X50656250Y-39650000D01*
X50143750Y-39650000D01*
X50122309Y-39648947D01*
X50101074Y-39645797D01*
X50080250Y-39640581D01*
X50060038Y-39633349D01*
X50040632Y-39624170D01*
X50022219Y-39613134D01*
X50004976Y-39600346D01*
X49989070Y-39585930D01*
X49974654Y-39570024D01*
X49961866Y-39552781D01*
X49950830Y-39534368D01*
X49941651Y-39514962D01*
X49934419Y-39494750D01*
X49929203Y-39473926D01*
X49926053Y-39452691D01*
X49925000Y-39431250D01*
X49925000Y-38993750D01*
X49926053Y-38972309D01*
X49929203Y-38951074D01*
X49934419Y-38930250D01*
X49941651Y-38910038D01*
X49950830Y-38890632D01*
X49961866Y-38872219D01*
X49974654Y-38854976D01*
X49989070Y-38839070D01*
X50004976Y-38824654D01*
X50022219Y-38811866D01*
X50040632Y-38800830D01*
X50060038Y-38791651D01*
X50080250Y-38784419D01*
X50101074Y-38779203D01*
X50122309Y-38776053D01*
X50143750Y-38775000D01*
X50656250Y-38775000D01*
X50677691Y-38776053D01*
G37*
%TD*%
%TO.C,R10*%
G36*
X53977691Y-40351053D02*
G01*
X53998926Y-40354203D01*
X54019750Y-40359419D01*
X54039962Y-40366651D01*
X54059368Y-40375830D01*
X54077781Y-40386866D01*
X54095024Y-40399654D01*
X54110930Y-40414070D01*
X54125346Y-40429976D01*
X54138134Y-40447219D01*
X54149170Y-40465632D01*
X54158349Y-40485038D01*
X54165581Y-40505250D01*
X54170797Y-40526074D01*
X54173947Y-40547309D01*
X54175000Y-40568750D01*
X54175000Y-41006250D01*
X54173947Y-41027691D01*
X54170797Y-41048926D01*
X54165581Y-41069750D01*
X54158349Y-41089962D01*
X54149170Y-41109368D01*
X54138134Y-41127781D01*
X54125346Y-41145024D01*
X54110930Y-41160930D01*
X54095024Y-41175346D01*
X54077781Y-41188134D01*
X54059368Y-41199170D01*
X54039962Y-41208349D01*
X54019750Y-41215581D01*
X53998926Y-41220797D01*
X53977691Y-41223947D01*
X53956250Y-41225000D01*
X53443750Y-41225000D01*
X53422309Y-41223947D01*
X53401074Y-41220797D01*
X53380250Y-41215581D01*
X53360038Y-41208349D01*
X53340632Y-41199170D01*
X53322219Y-41188134D01*
X53304976Y-41175346D01*
X53289070Y-41160930D01*
X53274654Y-41145024D01*
X53261866Y-41127781D01*
X53250830Y-41109368D01*
X53241651Y-41089962D01*
X53234419Y-41069750D01*
X53229203Y-41048926D01*
X53226053Y-41027691D01*
X53225000Y-41006250D01*
X53225000Y-40568750D01*
X53226053Y-40547309D01*
X53229203Y-40526074D01*
X53234419Y-40505250D01*
X53241651Y-40485038D01*
X53250830Y-40465632D01*
X53261866Y-40447219D01*
X53274654Y-40429976D01*
X53289070Y-40414070D01*
X53304976Y-40399654D01*
X53322219Y-40386866D01*
X53340632Y-40375830D01*
X53360038Y-40366651D01*
X53380250Y-40359419D01*
X53401074Y-40354203D01*
X53422309Y-40351053D01*
X53443750Y-40350000D01*
X53956250Y-40350000D01*
X53977691Y-40351053D01*
G37*
G36*
X53977691Y-38776053D02*
G01*
X53998926Y-38779203D01*
X54019750Y-38784419D01*
X54039962Y-38791651D01*
X54059368Y-38800830D01*
X54077781Y-38811866D01*
X54095024Y-38824654D01*
X54110930Y-38839070D01*
X54125346Y-38854976D01*
X54138134Y-38872219D01*
X54149170Y-38890632D01*
X54158349Y-38910038D01*
X54165581Y-38930250D01*
X54170797Y-38951074D01*
X54173947Y-38972309D01*
X54175000Y-38993750D01*
X54175000Y-39431250D01*
X54173947Y-39452691D01*
X54170797Y-39473926D01*
X54165581Y-39494750D01*
X54158349Y-39514962D01*
X54149170Y-39534368D01*
X54138134Y-39552781D01*
X54125346Y-39570024D01*
X54110930Y-39585930D01*
X54095024Y-39600346D01*
X54077781Y-39613134D01*
X54059368Y-39624170D01*
X54039962Y-39633349D01*
X54019750Y-39640581D01*
X53998926Y-39645797D01*
X53977691Y-39648947D01*
X53956250Y-39650000D01*
X53443750Y-39650000D01*
X53422309Y-39648947D01*
X53401074Y-39645797D01*
X53380250Y-39640581D01*
X53360038Y-39633349D01*
X53340632Y-39624170D01*
X53322219Y-39613134D01*
X53304976Y-39600346D01*
X53289070Y-39585930D01*
X53274654Y-39570024D01*
X53261866Y-39552781D01*
X53250830Y-39534368D01*
X53241651Y-39514962D01*
X53234419Y-39494750D01*
X53229203Y-39473926D01*
X53226053Y-39452691D01*
X53225000Y-39431250D01*
X53225000Y-38993750D01*
X53226053Y-38972309D01*
X53229203Y-38951074D01*
X53234419Y-38930250D01*
X53241651Y-38910038D01*
X53250830Y-38890632D01*
X53261866Y-38872219D01*
X53274654Y-38854976D01*
X53289070Y-38839070D01*
X53304976Y-38824654D01*
X53322219Y-38811866D01*
X53340632Y-38800830D01*
X53360038Y-38791651D01*
X53380250Y-38784419D01*
X53401074Y-38779203D01*
X53422309Y-38776053D01*
X53443750Y-38775000D01*
X53956250Y-38775000D01*
X53977691Y-38776053D01*
G37*
%TD*%
%TO.C,R11*%
G36*
X37127691Y-48126053D02*
G01*
X37148926Y-48129203D01*
X37169750Y-48134419D01*
X37189962Y-48141651D01*
X37209368Y-48150830D01*
X37227781Y-48161866D01*
X37245024Y-48174654D01*
X37260930Y-48189070D01*
X37275346Y-48204976D01*
X37288134Y-48222219D01*
X37299170Y-48240632D01*
X37308349Y-48260038D01*
X37315581Y-48280250D01*
X37320797Y-48301074D01*
X37323947Y-48322309D01*
X37325000Y-48343750D01*
X37325000Y-48856250D01*
X37323947Y-48877691D01*
X37320797Y-48898926D01*
X37315581Y-48919750D01*
X37308349Y-48939962D01*
X37299170Y-48959368D01*
X37288134Y-48977781D01*
X37275346Y-48995024D01*
X37260930Y-49010930D01*
X37245024Y-49025346D01*
X37227781Y-49038134D01*
X37209368Y-49049170D01*
X37189962Y-49058349D01*
X37169750Y-49065581D01*
X37148926Y-49070797D01*
X37127691Y-49073947D01*
X37106250Y-49075000D01*
X36668750Y-49075000D01*
X36647309Y-49073947D01*
X36626074Y-49070797D01*
X36605250Y-49065581D01*
X36585038Y-49058349D01*
X36565632Y-49049170D01*
X36547219Y-49038134D01*
X36529976Y-49025346D01*
X36514070Y-49010930D01*
X36499654Y-48995024D01*
X36486866Y-48977781D01*
X36475830Y-48959368D01*
X36466651Y-48939962D01*
X36459419Y-48919750D01*
X36454203Y-48898926D01*
X36451053Y-48877691D01*
X36450000Y-48856250D01*
X36450000Y-48343750D01*
X36451053Y-48322309D01*
X36454203Y-48301074D01*
X36459419Y-48280250D01*
X36466651Y-48260038D01*
X36475830Y-48240632D01*
X36486866Y-48222219D01*
X36499654Y-48204976D01*
X36514070Y-48189070D01*
X36529976Y-48174654D01*
X36547219Y-48161866D01*
X36565632Y-48150830D01*
X36585038Y-48141651D01*
X36605250Y-48134419D01*
X36626074Y-48129203D01*
X36647309Y-48126053D01*
X36668750Y-48125000D01*
X37106250Y-48125000D01*
X37127691Y-48126053D01*
G37*
G36*
X35552691Y-48126053D02*
G01*
X35573926Y-48129203D01*
X35594750Y-48134419D01*
X35614962Y-48141651D01*
X35634368Y-48150830D01*
X35652781Y-48161866D01*
X35670024Y-48174654D01*
X35685930Y-48189070D01*
X35700346Y-48204976D01*
X35713134Y-48222219D01*
X35724170Y-48240632D01*
X35733349Y-48260038D01*
X35740581Y-48280250D01*
X35745797Y-48301074D01*
X35748947Y-48322309D01*
X35750000Y-48343750D01*
X35750000Y-48856250D01*
X35748947Y-48877691D01*
X35745797Y-48898926D01*
X35740581Y-48919750D01*
X35733349Y-48939962D01*
X35724170Y-48959368D01*
X35713134Y-48977781D01*
X35700346Y-48995024D01*
X35685930Y-49010930D01*
X35670024Y-49025346D01*
X35652781Y-49038134D01*
X35634368Y-49049170D01*
X35614962Y-49058349D01*
X35594750Y-49065581D01*
X35573926Y-49070797D01*
X35552691Y-49073947D01*
X35531250Y-49075000D01*
X35093750Y-49075000D01*
X35072309Y-49073947D01*
X35051074Y-49070797D01*
X35030250Y-49065581D01*
X35010038Y-49058349D01*
X34990632Y-49049170D01*
X34972219Y-49038134D01*
X34954976Y-49025346D01*
X34939070Y-49010930D01*
X34924654Y-48995024D01*
X34911866Y-48977781D01*
X34900830Y-48959368D01*
X34891651Y-48939962D01*
X34884419Y-48919750D01*
X34879203Y-48898926D01*
X34876053Y-48877691D01*
X34875000Y-48856250D01*
X34875000Y-48343750D01*
X34876053Y-48322309D01*
X34879203Y-48301074D01*
X34884419Y-48280250D01*
X34891651Y-48260038D01*
X34900830Y-48240632D01*
X34911866Y-48222219D01*
X34924654Y-48204976D01*
X34939070Y-48189070D01*
X34954976Y-48174654D01*
X34972219Y-48161866D01*
X34990632Y-48150830D01*
X35010038Y-48141651D01*
X35030250Y-48134419D01*
X35051074Y-48129203D01*
X35072309Y-48126053D01*
X35093750Y-48125000D01*
X35531250Y-48125000D01*
X35552691Y-48126053D01*
G37*
%TD*%
%TO.C,R12*%
G36*
X37127691Y-49675053D02*
G01*
X37148926Y-49678203D01*
X37169750Y-49683419D01*
X37189962Y-49690651D01*
X37209368Y-49699830D01*
X37227781Y-49710866D01*
X37245024Y-49723654D01*
X37260930Y-49738070D01*
X37275346Y-49753976D01*
X37288134Y-49771219D01*
X37299170Y-49789632D01*
X37308349Y-49809038D01*
X37315581Y-49829250D01*
X37320797Y-49850074D01*
X37323947Y-49871309D01*
X37325000Y-49892750D01*
X37325000Y-50405250D01*
X37323947Y-50426691D01*
X37320797Y-50447926D01*
X37315581Y-50468750D01*
X37308349Y-50488962D01*
X37299170Y-50508368D01*
X37288134Y-50526781D01*
X37275346Y-50544024D01*
X37260930Y-50559930D01*
X37245024Y-50574346D01*
X37227781Y-50587134D01*
X37209368Y-50598170D01*
X37189962Y-50607349D01*
X37169750Y-50614581D01*
X37148926Y-50619797D01*
X37127691Y-50622947D01*
X37106250Y-50624000D01*
X36668750Y-50624000D01*
X36647309Y-50622947D01*
X36626074Y-50619797D01*
X36605250Y-50614581D01*
X36585038Y-50607349D01*
X36565632Y-50598170D01*
X36547219Y-50587134D01*
X36529976Y-50574346D01*
X36514070Y-50559930D01*
X36499654Y-50544024D01*
X36486866Y-50526781D01*
X36475830Y-50508368D01*
X36466651Y-50488962D01*
X36459419Y-50468750D01*
X36454203Y-50447926D01*
X36451053Y-50426691D01*
X36450000Y-50405250D01*
X36450000Y-49892750D01*
X36451053Y-49871309D01*
X36454203Y-49850074D01*
X36459419Y-49829250D01*
X36466651Y-49809038D01*
X36475830Y-49789632D01*
X36486866Y-49771219D01*
X36499654Y-49753976D01*
X36514070Y-49738070D01*
X36529976Y-49723654D01*
X36547219Y-49710866D01*
X36565632Y-49699830D01*
X36585038Y-49690651D01*
X36605250Y-49683419D01*
X36626074Y-49678203D01*
X36647309Y-49675053D01*
X36668750Y-49674000D01*
X37106250Y-49674000D01*
X37127691Y-49675053D01*
G37*
G36*
X35552691Y-49675053D02*
G01*
X35573926Y-49678203D01*
X35594750Y-49683419D01*
X35614962Y-49690651D01*
X35634368Y-49699830D01*
X35652781Y-49710866D01*
X35670024Y-49723654D01*
X35685930Y-49738070D01*
X35700346Y-49753976D01*
X35713134Y-49771219D01*
X35724170Y-49789632D01*
X35733349Y-49809038D01*
X35740581Y-49829250D01*
X35745797Y-49850074D01*
X35748947Y-49871309D01*
X35750000Y-49892750D01*
X35750000Y-50405250D01*
X35748947Y-50426691D01*
X35745797Y-50447926D01*
X35740581Y-50468750D01*
X35733349Y-50488962D01*
X35724170Y-50508368D01*
X35713134Y-50526781D01*
X35700346Y-50544024D01*
X35685930Y-50559930D01*
X35670024Y-50574346D01*
X35652781Y-50587134D01*
X35634368Y-50598170D01*
X35614962Y-50607349D01*
X35594750Y-50614581D01*
X35573926Y-50619797D01*
X35552691Y-50622947D01*
X35531250Y-50624000D01*
X35093750Y-50624000D01*
X35072309Y-50622947D01*
X35051074Y-50619797D01*
X35030250Y-50614581D01*
X35010038Y-50607349D01*
X34990632Y-50598170D01*
X34972219Y-50587134D01*
X34954976Y-50574346D01*
X34939070Y-50559930D01*
X34924654Y-50544024D01*
X34911866Y-50526781D01*
X34900830Y-50508368D01*
X34891651Y-50488962D01*
X34884419Y-50468750D01*
X34879203Y-50447926D01*
X34876053Y-50426691D01*
X34875000Y-50405250D01*
X34875000Y-49892750D01*
X34876053Y-49871309D01*
X34879203Y-49850074D01*
X34884419Y-49829250D01*
X34891651Y-49809038D01*
X34900830Y-49789632D01*
X34911866Y-49771219D01*
X34924654Y-49753976D01*
X34939070Y-49738070D01*
X34954976Y-49723654D01*
X34972219Y-49710866D01*
X34990632Y-49699830D01*
X35010038Y-49690651D01*
X35030250Y-49683419D01*
X35051074Y-49678203D01*
X35072309Y-49675053D01*
X35093750Y-49674000D01*
X35531250Y-49674000D01*
X35552691Y-49675053D01*
G37*
%TD*%
%TO.C,R13*%
G36*
X33427691Y-60326053D02*
G01*
X33448926Y-60329203D01*
X33469750Y-60334419D01*
X33489962Y-60341651D01*
X33509368Y-60350830D01*
X33527781Y-60361866D01*
X33545024Y-60374654D01*
X33560930Y-60389070D01*
X33575346Y-60404976D01*
X33588134Y-60422219D01*
X33599170Y-60440632D01*
X33608349Y-60460038D01*
X33615581Y-60480250D01*
X33620797Y-60501074D01*
X33623947Y-60522309D01*
X33625000Y-60543750D01*
X33625000Y-61056250D01*
X33623947Y-61077691D01*
X33620797Y-61098926D01*
X33615581Y-61119750D01*
X33608349Y-61139962D01*
X33599170Y-61159368D01*
X33588134Y-61177781D01*
X33575346Y-61195024D01*
X33560930Y-61210930D01*
X33545024Y-61225346D01*
X33527781Y-61238134D01*
X33509368Y-61249170D01*
X33489962Y-61258349D01*
X33469750Y-61265581D01*
X33448926Y-61270797D01*
X33427691Y-61273947D01*
X33406250Y-61275000D01*
X32968750Y-61275000D01*
X32947309Y-61273947D01*
X32926074Y-61270797D01*
X32905250Y-61265581D01*
X32885038Y-61258349D01*
X32865632Y-61249170D01*
X32847219Y-61238134D01*
X32829976Y-61225346D01*
X32814070Y-61210930D01*
X32799654Y-61195024D01*
X32786866Y-61177781D01*
X32775830Y-61159368D01*
X32766651Y-61139962D01*
X32759419Y-61119750D01*
X32754203Y-61098926D01*
X32751053Y-61077691D01*
X32750000Y-61056250D01*
X32750000Y-60543750D01*
X32751053Y-60522309D01*
X32754203Y-60501074D01*
X32759419Y-60480250D01*
X32766651Y-60460038D01*
X32775830Y-60440632D01*
X32786866Y-60422219D01*
X32799654Y-60404976D01*
X32814070Y-60389070D01*
X32829976Y-60374654D01*
X32847219Y-60361866D01*
X32865632Y-60350830D01*
X32885038Y-60341651D01*
X32905250Y-60334419D01*
X32926074Y-60329203D01*
X32947309Y-60326053D01*
X32968750Y-60325000D01*
X33406250Y-60325000D01*
X33427691Y-60326053D01*
G37*
G36*
X31852691Y-60326053D02*
G01*
X31873926Y-60329203D01*
X31894750Y-60334419D01*
X31914962Y-60341651D01*
X31934368Y-60350830D01*
X31952781Y-60361866D01*
X31970024Y-60374654D01*
X31985930Y-60389070D01*
X32000346Y-60404976D01*
X32013134Y-60422219D01*
X32024170Y-60440632D01*
X32033349Y-60460038D01*
X32040581Y-60480250D01*
X32045797Y-60501074D01*
X32048947Y-60522309D01*
X32050000Y-60543750D01*
X32050000Y-61056250D01*
X32048947Y-61077691D01*
X32045797Y-61098926D01*
X32040581Y-61119750D01*
X32033349Y-61139962D01*
X32024170Y-61159368D01*
X32013134Y-61177781D01*
X32000346Y-61195024D01*
X31985930Y-61210930D01*
X31970024Y-61225346D01*
X31952781Y-61238134D01*
X31934368Y-61249170D01*
X31914962Y-61258349D01*
X31894750Y-61265581D01*
X31873926Y-61270797D01*
X31852691Y-61273947D01*
X31831250Y-61275000D01*
X31393750Y-61275000D01*
X31372309Y-61273947D01*
X31351074Y-61270797D01*
X31330250Y-61265581D01*
X31310038Y-61258349D01*
X31290632Y-61249170D01*
X31272219Y-61238134D01*
X31254976Y-61225346D01*
X31239070Y-61210930D01*
X31224654Y-61195024D01*
X31211866Y-61177781D01*
X31200830Y-61159368D01*
X31191651Y-61139962D01*
X31184419Y-61119750D01*
X31179203Y-61098926D01*
X31176053Y-61077691D01*
X31175000Y-61056250D01*
X31175000Y-60543750D01*
X31176053Y-60522309D01*
X31179203Y-60501074D01*
X31184419Y-60480250D01*
X31191651Y-60460038D01*
X31200830Y-60440632D01*
X31211866Y-60422219D01*
X31224654Y-60404976D01*
X31239070Y-60389070D01*
X31254976Y-60374654D01*
X31272219Y-60361866D01*
X31290632Y-60350830D01*
X31310038Y-60341651D01*
X31330250Y-60334419D01*
X31351074Y-60329203D01*
X31372309Y-60326053D01*
X31393750Y-60325000D01*
X31831250Y-60325000D01*
X31852691Y-60326053D01*
G37*
%TD*%
%TO.C,R14*%
G36*
X50577691Y-34251053D02*
G01*
X50598926Y-34254203D01*
X50619750Y-34259419D01*
X50639962Y-34266651D01*
X50659368Y-34275830D01*
X50677781Y-34286866D01*
X50695024Y-34299654D01*
X50710930Y-34314070D01*
X50725346Y-34329976D01*
X50738134Y-34347219D01*
X50749170Y-34365632D01*
X50758349Y-34385038D01*
X50765581Y-34405250D01*
X50770797Y-34426074D01*
X50773947Y-34447309D01*
X50775000Y-34468750D01*
X50775000Y-34906250D01*
X50773947Y-34927691D01*
X50770797Y-34948926D01*
X50765581Y-34969750D01*
X50758349Y-34989962D01*
X50749170Y-35009368D01*
X50738134Y-35027781D01*
X50725346Y-35045024D01*
X50710930Y-35060930D01*
X50695024Y-35075346D01*
X50677781Y-35088134D01*
X50659368Y-35099170D01*
X50639962Y-35108349D01*
X50619750Y-35115581D01*
X50598926Y-35120797D01*
X50577691Y-35123947D01*
X50556250Y-35125000D01*
X50043750Y-35125000D01*
X50022309Y-35123947D01*
X50001074Y-35120797D01*
X49980250Y-35115581D01*
X49960038Y-35108349D01*
X49940632Y-35099170D01*
X49922219Y-35088134D01*
X49904976Y-35075346D01*
X49889070Y-35060930D01*
X49874654Y-35045024D01*
X49861866Y-35027781D01*
X49850830Y-35009368D01*
X49841651Y-34989962D01*
X49834419Y-34969750D01*
X49829203Y-34948926D01*
X49826053Y-34927691D01*
X49825000Y-34906250D01*
X49825000Y-34468750D01*
X49826053Y-34447309D01*
X49829203Y-34426074D01*
X49834419Y-34405250D01*
X49841651Y-34385038D01*
X49850830Y-34365632D01*
X49861866Y-34347219D01*
X49874654Y-34329976D01*
X49889070Y-34314070D01*
X49904976Y-34299654D01*
X49922219Y-34286866D01*
X49940632Y-34275830D01*
X49960038Y-34266651D01*
X49980250Y-34259419D01*
X50001074Y-34254203D01*
X50022309Y-34251053D01*
X50043750Y-34250000D01*
X50556250Y-34250000D01*
X50577691Y-34251053D01*
G37*
G36*
X50577691Y-32676053D02*
G01*
X50598926Y-32679203D01*
X50619750Y-32684419D01*
X50639962Y-32691651D01*
X50659368Y-32700830D01*
X50677781Y-32711866D01*
X50695024Y-32724654D01*
X50710930Y-32739070D01*
X50725346Y-32754976D01*
X50738134Y-32772219D01*
X50749170Y-32790632D01*
X50758349Y-32810038D01*
X50765581Y-32830250D01*
X50770797Y-32851074D01*
X50773947Y-32872309D01*
X50775000Y-32893750D01*
X50775000Y-33331250D01*
X50773947Y-33352691D01*
X50770797Y-33373926D01*
X50765581Y-33394750D01*
X50758349Y-33414962D01*
X50749170Y-33434368D01*
X50738134Y-33452781D01*
X50725346Y-33470024D01*
X50710930Y-33485930D01*
X50695024Y-33500346D01*
X50677781Y-33513134D01*
X50659368Y-33524170D01*
X50639962Y-33533349D01*
X50619750Y-33540581D01*
X50598926Y-33545797D01*
X50577691Y-33548947D01*
X50556250Y-33550000D01*
X50043750Y-33550000D01*
X50022309Y-33548947D01*
X50001074Y-33545797D01*
X49980250Y-33540581D01*
X49960038Y-33533349D01*
X49940632Y-33524170D01*
X49922219Y-33513134D01*
X49904976Y-33500346D01*
X49889070Y-33485930D01*
X49874654Y-33470024D01*
X49861866Y-33452781D01*
X49850830Y-33434368D01*
X49841651Y-33414962D01*
X49834419Y-33394750D01*
X49829203Y-33373926D01*
X49826053Y-33352691D01*
X49825000Y-33331250D01*
X49825000Y-32893750D01*
X49826053Y-32872309D01*
X49829203Y-32851074D01*
X49834419Y-32830250D01*
X49841651Y-32810038D01*
X49850830Y-32790632D01*
X49861866Y-32772219D01*
X49874654Y-32754976D01*
X49889070Y-32739070D01*
X49904976Y-32724654D01*
X49922219Y-32711866D01*
X49940632Y-32700830D01*
X49960038Y-32691651D01*
X49980250Y-32684419D01*
X50001074Y-32679203D01*
X50022309Y-32676053D01*
X50043750Y-32675000D01*
X50556250Y-32675000D01*
X50577691Y-32676053D01*
G37*
%TD*%
%TO.C,R15*%
G36*
X52077691Y-32676053D02*
G01*
X52098926Y-32679203D01*
X52119750Y-32684419D01*
X52139962Y-32691651D01*
X52159368Y-32700830D01*
X52177781Y-32711866D01*
X52195024Y-32724654D01*
X52210930Y-32739070D01*
X52225346Y-32754976D01*
X52238134Y-32772219D01*
X52249170Y-32790632D01*
X52258349Y-32810038D01*
X52265581Y-32830250D01*
X52270797Y-32851074D01*
X52273947Y-32872309D01*
X52275000Y-32893750D01*
X52275000Y-33331250D01*
X52273947Y-33352691D01*
X52270797Y-33373926D01*
X52265581Y-33394750D01*
X52258349Y-33414962D01*
X52249170Y-33434368D01*
X52238134Y-33452781D01*
X52225346Y-33470024D01*
X52210930Y-33485930D01*
X52195024Y-33500346D01*
X52177781Y-33513134D01*
X52159368Y-33524170D01*
X52139962Y-33533349D01*
X52119750Y-33540581D01*
X52098926Y-33545797D01*
X52077691Y-33548947D01*
X52056250Y-33550000D01*
X51543750Y-33550000D01*
X51522309Y-33548947D01*
X51501074Y-33545797D01*
X51480250Y-33540581D01*
X51460038Y-33533349D01*
X51440632Y-33524170D01*
X51422219Y-33513134D01*
X51404976Y-33500346D01*
X51389070Y-33485930D01*
X51374654Y-33470024D01*
X51361866Y-33452781D01*
X51350830Y-33434368D01*
X51341651Y-33414962D01*
X51334419Y-33394750D01*
X51329203Y-33373926D01*
X51326053Y-33352691D01*
X51325000Y-33331250D01*
X51325000Y-32893750D01*
X51326053Y-32872309D01*
X51329203Y-32851074D01*
X51334419Y-32830250D01*
X51341651Y-32810038D01*
X51350830Y-32790632D01*
X51361866Y-32772219D01*
X51374654Y-32754976D01*
X51389070Y-32739070D01*
X51404976Y-32724654D01*
X51422219Y-32711866D01*
X51440632Y-32700830D01*
X51460038Y-32691651D01*
X51480250Y-32684419D01*
X51501074Y-32679203D01*
X51522309Y-32676053D01*
X51543750Y-32675000D01*
X52056250Y-32675000D01*
X52077691Y-32676053D01*
G37*
G36*
X52077691Y-34251053D02*
G01*
X52098926Y-34254203D01*
X52119750Y-34259419D01*
X52139962Y-34266651D01*
X52159368Y-34275830D01*
X52177781Y-34286866D01*
X52195024Y-34299654D01*
X52210930Y-34314070D01*
X52225346Y-34329976D01*
X52238134Y-34347219D01*
X52249170Y-34365632D01*
X52258349Y-34385038D01*
X52265581Y-34405250D01*
X52270797Y-34426074D01*
X52273947Y-34447309D01*
X52275000Y-34468750D01*
X52275000Y-34906250D01*
X52273947Y-34927691D01*
X52270797Y-34948926D01*
X52265581Y-34969750D01*
X52258349Y-34989962D01*
X52249170Y-35009368D01*
X52238134Y-35027781D01*
X52225346Y-35045024D01*
X52210930Y-35060930D01*
X52195024Y-35075346D01*
X52177781Y-35088134D01*
X52159368Y-35099170D01*
X52139962Y-35108349D01*
X52119750Y-35115581D01*
X52098926Y-35120797D01*
X52077691Y-35123947D01*
X52056250Y-35125000D01*
X51543750Y-35125000D01*
X51522309Y-35123947D01*
X51501074Y-35120797D01*
X51480250Y-35115581D01*
X51460038Y-35108349D01*
X51440632Y-35099170D01*
X51422219Y-35088134D01*
X51404976Y-35075346D01*
X51389070Y-35060930D01*
X51374654Y-35045024D01*
X51361866Y-35027781D01*
X51350830Y-35009368D01*
X51341651Y-34989962D01*
X51334419Y-34969750D01*
X51329203Y-34948926D01*
X51326053Y-34927691D01*
X51325000Y-34906250D01*
X51325000Y-34468750D01*
X51326053Y-34447309D01*
X51329203Y-34426074D01*
X51334419Y-34405250D01*
X51341651Y-34385038D01*
X51350830Y-34365632D01*
X51361866Y-34347219D01*
X51374654Y-34329976D01*
X51389070Y-34314070D01*
X51404976Y-34299654D01*
X51422219Y-34286866D01*
X51440632Y-34275830D01*
X51460038Y-34266651D01*
X51480250Y-34259419D01*
X51501074Y-34254203D01*
X51522309Y-34251053D01*
X51543750Y-34250000D01*
X52056250Y-34250000D01*
X52077691Y-34251053D01*
G37*
%TD*%
%TO.C,R16*%
G36*
X53577691Y-34251053D02*
G01*
X53598926Y-34254203D01*
X53619750Y-34259419D01*
X53639962Y-34266651D01*
X53659368Y-34275830D01*
X53677781Y-34286866D01*
X53695024Y-34299654D01*
X53710930Y-34314070D01*
X53725346Y-34329976D01*
X53738134Y-34347219D01*
X53749170Y-34365632D01*
X53758349Y-34385038D01*
X53765581Y-34405250D01*
X53770797Y-34426074D01*
X53773947Y-34447309D01*
X53775000Y-34468750D01*
X53775000Y-34906250D01*
X53773947Y-34927691D01*
X53770797Y-34948926D01*
X53765581Y-34969750D01*
X53758349Y-34989962D01*
X53749170Y-35009368D01*
X53738134Y-35027781D01*
X53725346Y-35045024D01*
X53710930Y-35060930D01*
X53695024Y-35075346D01*
X53677781Y-35088134D01*
X53659368Y-35099170D01*
X53639962Y-35108349D01*
X53619750Y-35115581D01*
X53598926Y-35120797D01*
X53577691Y-35123947D01*
X53556250Y-35125000D01*
X53043750Y-35125000D01*
X53022309Y-35123947D01*
X53001074Y-35120797D01*
X52980250Y-35115581D01*
X52960038Y-35108349D01*
X52940632Y-35099170D01*
X52922219Y-35088134D01*
X52904976Y-35075346D01*
X52889070Y-35060930D01*
X52874654Y-35045024D01*
X52861866Y-35027781D01*
X52850830Y-35009368D01*
X52841651Y-34989962D01*
X52834419Y-34969750D01*
X52829203Y-34948926D01*
X52826053Y-34927691D01*
X52825000Y-34906250D01*
X52825000Y-34468750D01*
X52826053Y-34447309D01*
X52829203Y-34426074D01*
X52834419Y-34405250D01*
X52841651Y-34385038D01*
X52850830Y-34365632D01*
X52861866Y-34347219D01*
X52874654Y-34329976D01*
X52889070Y-34314070D01*
X52904976Y-34299654D01*
X52922219Y-34286866D01*
X52940632Y-34275830D01*
X52960038Y-34266651D01*
X52980250Y-34259419D01*
X53001074Y-34254203D01*
X53022309Y-34251053D01*
X53043750Y-34250000D01*
X53556250Y-34250000D01*
X53577691Y-34251053D01*
G37*
G36*
X53577691Y-32676053D02*
G01*
X53598926Y-32679203D01*
X53619750Y-32684419D01*
X53639962Y-32691651D01*
X53659368Y-32700830D01*
X53677781Y-32711866D01*
X53695024Y-32724654D01*
X53710930Y-32739070D01*
X53725346Y-32754976D01*
X53738134Y-32772219D01*
X53749170Y-32790632D01*
X53758349Y-32810038D01*
X53765581Y-32830250D01*
X53770797Y-32851074D01*
X53773947Y-32872309D01*
X53775000Y-32893750D01*
X53775000Y-33331250D01*
X53773947Y-33352691D01*
X53770797Y-33373926D01*
X53765581Y-33394750D01*
X53758349Y-33414962D01*
X53749170Y-33434368D01*
X53738134Y-33452781D01*
X53725346Y-33470024D01*
X53710930Y-33485930D01*
X53695024Y-33500346D01*
X53677781Y-33513134D01*
X53659368Y-33524170D01*
X53639962Y-33533349D01*
X53619750Y-33540581D01*
X53598926Y-33545797D01*
X53577691Y-33548947D01*
X53556250Y-33550000D01*
X53043750Y-33550000D01*
X53022309Y-33548947D01*
X53001074Y-33545797D01*
X52980250Y-33540581D01*
X52960038Y-33533349D01*
X52940632Y-33524170D01*
X52922219Y-33513134D01*
X52904976Y-33500346D01*
X52889070Y-33485930D01*
X52874654Y-33470024D01*
X52861866Y-33452781D01*
X52850830Y-33434368D01*
X52841651Y-33414962D01*
X52834419Y-33394750D01*
X52829203Y-33373926D01*
X52826053Y-33352691D01*
X52825000Y-33331250D01*
X52825000Y-32893750D01*
X52826053Y-32872309D01*
X52829203Y-32851074D01*
X52834419Y-32830250D01*
X52841651Y-32810038D01*
X52850830Y-32790632D01*
X52861866Y-32772219D01*
X52874654Y-32754976D01*
X52889070Y-32739070D01*
X52904976Y-32724654D01*
X52922219Y-32711866D01*
X52940632Y-32700830D01*
X52960038Y-32691651D01*
X52980250Y-32684419D01*
X53001074Y-32679203D01*
X53022309Y-32676053D01*
X53043750Y-32675000D01*
X53556250Y-32675000D01*
X53577691Y-32676053D01*
G37*
%TD*%
%TO.C,R17*%
G36*
X55077691Y-32676053D02*
G01*
X55098926Y-32679203D01*
X55119750Y-32684419D01*
X55139962Y-32691651D01*
X55159368Y-32700830D01*
X55177781Y-32711866D01*
X55195024Y-32724654D01*
X55210930Y-32739070D01*
X55225346Y-32754976D01*
X55238134Y-32772219D01*
X55249170Y-32790632D01*
X55258349Y-32810038D01*
X55265581Y-32830250D01*
X55270797Y-32851074D01*
X55273947Y-32872309D01*
X55275000Y-32893750D01*
X55275000Y-33331250D01*
X55273947Y-33352691D01*
X55270797Y-33373926D01*
X55265581Y-33394750D01*
X55258349Y-33414962D01*
X55249170Y-33434368D01*
X55238134Y-33452781D01*
X55225346Y-33470024D01*
X55210930Y-33485930D01*
X55195024Y-33500346D01*
X55177781Y-33513134D01*
X55159368Y-33524170D01*
X55139962Y-33533349D01*
X55119750Y-33540581D01*
X55098926Y-33545797D01*
X55077691Y-33548947D01*
X55056250Y-33550000D01*
X54543750Y-33550000D01*
X54522309Y-33548947D01*
X54501074Y-33545797D01*
X54480250Y-33540581D01*
X54460038Y-33533349D01*
X54440632Y-33524170D01*
X54422219Y-33513134D01*
X54404976Y-33500346D01*
X54389070Y-33485930D01*
X54374654Y-33470024D01*
X54361866Y-33452781D01*
X54350830Y-33434368D01*
X54341651Y-33414962D01*
X54334419Y-33394750D01*
X54329203Y-33373926D01*
X54326053Y-33352691D01*
X54325000Y-33331250D01*
X54325000Y-32893750D01*
X54326053Y-32872309D01*
X54329203Y-32851074D01*
X54334419Y-32830250D01*
X54341651Y-32810038D01*
X54350830Y-32790632D01*
X54361866Y-32772219D01*
X54374654Y-32754976D01*
X54389070Y-32739070D01*
X54404976Y-32724654D01*
X54422219Y-32711866D01*
X54440632Y-32700830D01*
X54460038Y-32691651D01*
X54480250Y-32684419D01*
X54501074Y-32679203D01*
X54522309Y-32676053D01*
X54543750Y-32675000D01*
X55056250Y-32675000D01*
X55077691Y-32676053D01*
G37*
G36*
X55077691Y-34251053D02*
G01*
X55098926Y-34254203D01*
X55119750Y-34259419D01*
X55139962Y-34266651D01*
X55159368Y-34275830D01*
X55177781Y-34286866D01*
X55195024Y-34299654D01*
X55210930Y-34314070D01*
X55225346Y-34329976D01*
X55238134Y-34347219D01*
X55249170Y-34365632D01*
X55258349Y-34385038D01*
X55265581Y-34405250D01*
X55270797Y-34426074D01*
X55273947Y-34447309D01*
X55275000Y-34468750D01*
X55275000Y-34906250D01*
X55273947Y-34927691D01*
X55270797Y-34948926D01*
X55265581Y-34969750D01*
X55258349Y-34989962D01*
X55249170Y-35009368D01*
X55238134Y-35027781D01*
X55225346Y-35045024D01*
X55210930Y-35060930D01*
X55195024Y-35075346D01*
X55177781Y-35088134D01*
X55159368Y-35099170D01*
X55139962Y-35108349D01*
X55119750Y-35115581D01*
X55098926Y-35120797D01*
X55077691Y-35123947D01*
X55056250Y-35125000D01*
X54543750Y-35125000D01*
X54522309Y-35123947D01*
X54501074Y-35120797D01*
X54480250Y-35115581D01*
X54460038Y-35108349D01*
X54440632Y-35099170D01*
X54422219Y-35088134D01*
X54404976Y-35075346D01*
X54389070Y-35060930D01*
X54374654Y-35045024D01*
X54361866Y-35027781D01*
X54350830Y-35009368D01*
X54341651Y-34989962D01*
X54334419Y-34969750D01*
X54329203Y-34948926D01*
X54326053Y-34927691D01*
X54325000Y-34906250D01*
X54325000Y-34468750D01*
X54326053Y-34447309D01*
X54329203Y-34426074D01*
X54334419Y-34405250D01*
X54341651Y-34385038D01*
X54350830Y-34365632D01*
X54361866Y-34347219D01*
X54374654Y-34329976D01*
X54389070Y-34314070D01*
X54404976Y-34299654D01*
X54422219Y-34286866D01*
X54440632Y-34275830D01*
X54460038Y-34266651D01*
X54480250Y-34259419D01*
X54501074Y-34254203D01*
X54522309Y-34251053D01*
X54543750Y-34250000D01*
X55056250Y-34250000D01*
X55077691Y-34251053D01*
G37*
%TD*%
%TO.C,R18*%
G36*
X56577691Y-32676053D02*
G01*
X56598926Y-32679203D01*
X56619750Y-32684419D01*
X56639962Y-32691651D01*
X56659368Y-32700830D01*
X56677781Y-32711866D01*
X56695024Y-32724654D01*
X56710930Y-32739070D01*
X56725346Y-32754976D01*
X56738134Y-32772219D01*
X56749170Y-32790632D01*
X56758349Y-32810038D01*
X56765581Y-32830250D01*
X56770797Y-32851074D01*
X56773947Y-32872309D01*
X56775000Y-32893750D01*
X56775000Y-33331250D01*
X56773947Y-33352691D01*
X56770797Y-33373926D01*
X56765581Y-33394750D01*
X56758349Y-33414962D01*
X56749170Y-33434368D01*
X56738134Y-33452781D01*
X56725346Y-33470024D01*
X56710930Y-33485930D01*
X56695024Y-33500346D01*
X56677781Y-33513134D01*
X56659368Y-33524170D01*
X56639962Y-33533349D01*
X56619750Y-33540581D01*
X56598926Y-33545797D01*
X56577691Y-33548947D01*
X56556250Y-33550000D01*
X56043750Y-33550000D01*
X56022309Y-33548947D01*
X56001074Y-33545797D01*
X55980250Y-33540581D01*
X55960038Y-33533349D01*
X55940632Y-33524170D01*
X55922219Y-33513134D01*
X55904976Y-33500346D01*
X55889070Y-33485930D01*
X55874654Y-33470024D01*
X55861866Y-33452781D01*
X55850830Y-33434368D01*
X55841651Y-33414962D01*
X55834419Y-33394750D01*
X55829203Y-33373926D01*
X55826053Y-33352691D01*
X55825000Y-33331250D01*
X55825000Y-32893750D01*
X55826053Y-32872309D01*
X55829203Y-32851074D01*
X55834419Y-32830250D01*
X55841651Y-32810038D01*
X55850830Y-32790632D01*
X55861866Y-32772219D01*
X55874654Y-32754976D01*
X55889070Y-32739070D01*
X55904976Y-32724654D01*
X55922219Y-32711866D01*
X55940632Y-32700830D01*
X55960038Y-32691651D01*
X55980250Y-32684419D01*
X56001074Y-32679203D01*
X56022309Y-32676053D01*
X56043750Y-32675000D01*
X56556250Y-32675000D01*
X56577691Y-32676053D01*
G37*
G36*
X56577691Y-34251053D02*
G01*
X56598926Y-34254203D01*
X56619750Y-34259419D01*
X56639962Y-34266651D01*
X56659368Y-34275830D01*
X56677781Y-34286866D01*
X56695024Y-34299654D01*
X56710930Y-34314070D01*
X56725346Y-34329976D01*
X56738134Y-34347219D01*
X56749170Y-34365632D01*
X56758349Y-34385038D01*
X56765581Y-34405250D01*
X56770797Y-34426074D01*
X56773947Y-34447309D01*
X56775000Y-34468750D01*
X56775000Y-34906250D01*
X56773947Y-34927691D01*
X56770797Y-34948926D01*
X56765581Y-34969750D01*
X56758349Y-34989962D01*
X56749170Y-35009368D01*
X56738134Y-35027781D01*
X56725346Y-35045024D01*
X56710930Y-35060930D01*
X56695024Y-35075346D01*
X56677781Y-35088134D01*
X56659368Y-35099170D01*
X56639962Y-35108349D01*
X56619750Y-35115581D01*
X56598926Y-35120797D01*
X56577691Y-35123947D01*
X56556250Y-35125000D01*
X56043750Y-35125000D01*
X56022309Y-35123947D01*
X56001074Y-35120797D01*
X55980250Y-35115581D01*
X55960038Y-35108349D01*
X55940632Y-35099170D01*
X55922219Y-35088134D01*
X55904976Y-35075346D01*
X55889070Y-35060930D01*
X55874654Y-35045024D01*
X55861866Y-35027781D01*
X55850830Y-35009368D01*
X55841651Y-34989962D01*
X55834419Y-34969750D01*
X55829203Y-34948926D01*
X55826053Y-34927691D01*
X55825000Y-34906250D01*
X55825000Y-34468750D01*
X55826053Y-34447309D01*
X55829203Y-34426074D01*
X55834419Y-34405250D01*
X55841651Y-34385038D01*
X55850830Y-34365632D01*
X55861866Y-34347219D01*
X55874654Y-34329976D01*
X55889070Y-34314070D01*
X55904976Y-34299654D01*
X55922219Y-34286866D01*
X55940632Y-34275830D01*
X55960038Y-34266651D01*
X55980250Y-34259419D01*
X56001074Y-34254203D01*
X56022309Y-34251053D01*
X56043750Y-34250000D01*
X56556250Y-34250000D01*
X56577691Y-34251053D01*
G37*
%TD*%
%TO.C,R19*%
G36*
X58077691Y-34251053D02*
G01*
X58098926Y-34254203D01*
X58119750Y-34259419D01*
X58139962Y-34266651D01*
X58159368Y-34275830D01*
X58177781Y-34286866D01*
X58195024Y-34299654D01*
X58210930Y-34314070D01*
X58225346Y-34329976D01*
X58238134Y-34347219D01*
X58249170Y-34365632D01*
X58258349Y-34385038D01*
X58265581Y-34405250D01*
X58270797Y-34426074D01*
X58273947Y-34447309D01*
X58275000Y-34468750D01*
X58275000Y-34906250D01*
X58273947Y-34927691D01*
X58270797Y-34948926D01*
X58265581Y-34969750D01*
X58258349Y-34989962D01*
X58249170Y-35009368D01*
X58238134Y-35027781D01*
X58225346Y-35045024D01*
X58210930Y-35060930D01*
X58195024Y-35075346D01*
X58177781Y-35088134D01*
X58159368Y-35099170D01*
X58139962Y-35108349D01*
X58119750Y-35115581D01*
X58098926Y-35120797D01*
X58077691Y-35123947D01*
X58056250Y-35125000D01*
X57543750Y-35125000D01*
X57522309Y-35123947D01*
X57501074Y-35120797D01*
X57480250Y-35115581D01*
X57460038Y-35108349D01*
X57440632Y-35099170D01*
X57422219Y-35088134D01*
X57404976Y-35075346D01*
X57389070Y-35060930D01*
X57374654Y-35045024D01*
X57361866Y-35027781D01*
X57350830Y-35009368D01*
X57341651Y-34989962D01*
X57334419Y-34969750D01*
X57329203Y-34948926D01*
X57326053Y-34927691D01*
X57325000Y-34906250D01*
X57325000Y-34468750D01*
X57326053Y-34447309D01*
X57329203Y-34426074D01*
X57334419Y-34405250D01*
X57341651Y-34385038D01*
X57350830Y-34365632D01*
X57361866Y-34347219D01*
X57374654Y-34329976D01*
X57389070Y-34314070D01*
X57404976Y-34299654D01*
X57422219Y-34286866D01*
X57440632Y-34275830D01*
X57460038Y-34266651D01*
X57480250Y-34259419D01*
X57501074Y-34254203D01*
X57522309Y-34251053D01*
X57543750Y-34250000D01*
X58056250Y-34250000D01*
X58077691Y-34251053D01*
G37*
G36*
X58077691Y-32676053D02*
G01*
X58098926Y-32679203D01*
X58119750Y-32684419D01*
X58139962Y-32691651D01*
X58159368Y-32700830D01*
X58177781Y-32711866D01*
X58195024Y-32724654D01*
X58210930Y-32739070D01*
X58225346Y-32754976D01*
X58238134Y-32772219D01*
X58249170Y-32790632D01*
X58258349Y-32810038D01*
X58265581Y-32830250D01*
X58270797Y-32851074D01*
X58273947Y-32872309D01*
X58275000Y-32893750D01*
X58275000Y-33331250D01*
X58273947Y-33352691D01*
X58270797Y-33373926D01*
X58265581Y-33394750D01*
X58258349Y-33414962D01*
X58249170Y-33434368D01*
X58238134Y-33452781D01*
X58225346Y-33470024D01*
X58210930Y-33485930D01*
X58195024Y-33500346D01*
X58177781Y-33513134D01*
X58159368Y-33524170D01*
X58139962Y-33533349D01*
X58119750Y-33540581D01*
X58098926Y-33545797D01*
X58077691Y-33548947D01*
X58056250Y-33550000D01*
X57543750Y-33550000D01*
X57522309Y-33548947D01*
X57501074Y-33545797D01*
X57480250Y-33540581D01*
X57460038Y-33533349D01*
X57440632Y-33524170D01*
X57422219Y-33513134D01*
X57404976Y-33500346D01*
X57389070Y-33485930D01*
X57374654Y-33470024D01*
X57361866Y-33452781D01*
X57350830Y-33434368D01*
X57341651Y-33414962D01*
X57334419Y-33394750D01*
X57329203Y-33373926D01*
X57326053Y-33352691D01*
X57325000Y-33331250D01*
X57325000Y-32893750D01*
X57326053Y-32872309D01*
X57329203Y-32851074D01*
X57334419Y-32830250D01*
X57341651Y-32810038D01*
X57350830Y-32790632D01*
X57361866Y-32772219D01*
X57374654Y-32754976D01*
X57389070Y-32739070D01*
X57404976Y-32724654D01*
X57422219Y-32711866D01*
X57440632Y-32700830D01*
X57460038Y-32691651D01*
X57480250Y-32684419D01*
X57501074Y-32679203D01*
X57522309Y-32676053D01*
X57543750Y-32675000D01*
X58056250Y-32675000D01*
X58077691Y-32676053D01*
G37*
%TD*%
%TO.C,R20*%
G36*
X59577691Y-32676053D02*
G01*
X59598926Y-32679203D01*
X59619750Y-32684419D01*
X59639962Y-32691651D01*
X59659368Y-32700830D01*
X59677781Y-32711866D01*
X59695024Y-32724654D01*
X59710930Y-32739070D01*
X59725346Y-32754976D01*
X59738134Y-32772219D01*
X59749170Y-32790632D01*
X59758349Y-32810038D01*
X59765581Y-32830250D01*
X59770797Y-32851074D01*
X59773947Y-32872309D01*
X59775000Y-32893750D01*
X59775000Y-33331250D01*
X59773947Y-33352691D01*
X59770797Y-33373926D01*
X59765581Y-33394750D01*
X59758349Y-33414962D01*
X59749170Y-33434368D01*
X59738134Y-33452781D01*
X59725346Y-33470024D01*
X59710930Y-33485930D01*
X59695024Y-33500346D01*
X59677781Y-33513134D01*
X59659368Y-33524170D01*
X59639962Y-33533349D01*
X59619750Y-33540581D01*
X59598926Y-33545797D01*
X59577691Y-33548947D01*
X59556250Y-33550000D01*
X59043750Y-33550000D01*
X59022309Y-33548947D01*
X59001074Y-33545797D01*
X58980250Y-33540581D01*
X58960038Y-33533349D01*
X58940632Y-33524170D01*
X58922219Y-33513134D01*
X58904976Y-33500346D01*
X58889070Y-33485930D01*
X58874654Y-33470024D01*
X58861866Y-33452781D01*
X58850830Y-33434368D01*
X58841651Y-33414962D01*
X58834419Y-33394750D01*
X58829203Y-33373926D01*
X58826053Y-33352691D01*
X58825000Y-33331250D01*
X58825000Y-32893750D01*
X58826053Y-32872309D01*
X58829203Y-32851074D01*
X58834419Y-32830250D01*
X58841651Y-32810038D01*
X58850830Y-32790632D01*
X58861866Y-32772219D01*
X58874654Y-32754976D01*
X58889070Y-32739070D01*
X58904976Y-32724654D01*
X58922219Y-32711866D01*
X58940632Y-32700830D01*
X58960038Y-32691651D01*
X58980250Y-32684419D01*
X59001074Y-32679203D01*
X59022309Y-32676053D01*
X59043750Y-32675000D01*
X59556250Y-32675000D01*
X59577691Y-32676053D01*
G37*
G36*
X59577691Y-34251053D02*
G01*
X59598926Y-34254203D01*
X59619750Y-34259419D01*
X59639962Y-34266651D01*
X59659368Y-34275830D01*
X59677781Y-34286866D01*
X59695024Y-34299654D01*
X59710930Y-34314070D01*
X59725346Y-34329976D01*
X59738134Y-34347219D01*
X59749170Y-34365632D01*
X59758349Y-34385038D01*
X59765581Y-34405250D01*
X59770797Y-34426074D01*
X59773947Y-34447309D01*
X59775000Y-34468750D01*
X59775000Y-34906250D01*
X59773947Y-34927691D01*
X59770797Y-34948926D01*
X59765581Y-34969750D01*
X59758349Y-34989962D01*
X59749170Y-35009368D01*
X59738134Y-35027781D01*
X59725346Y-35045024D01*
X59710930Y-35060930D01*
X59695024Y-35075346D01*
X59677781Y-35088134D01*
X59659368Y-35099170D01*
X59639962Y-35108349D01*
X59619750Y-35115581D01*
X59598926Y-35120797D01*
X59577691Y-35123947D01*
X59556250Y-35125000D01*
X59043750Y-35125000D01*
X59022309Y-35123947D01*
X59001074Y-35120797D01*
X58980250Y-35115581D01*
X58960038Y-35108349D01*
X58940632Y-35099170D01*
X58922219Y-35088134D01*
X58904976Y-35075346D01*
X58889070Y-35060930D01*
X58874654Y-35045024D01*
X58861866Y-35027781D01*
X58850830Y-35009368D01*
X58841651Y-34989962D01*
X58834419Y-34969750D01*
X58829203Y-34948926D01*
X58826053Y-34927691D01*
X58825000Y-34906250D01*
X58825000Y-34468750D01*
X58826053Y-34447309D01*
X58829203Y-34426074D01*
X58834419Y-34405250D01*
X58841651Y-34385038D01*
X58850830Y-34365632D01*
X58861866Y-34347219D01*
X58874654Y-34329976D01*
X58889070Y-34314070D01*
X58904976Y-34299654D01*
X58922219Y-34286866D01*
X58940632Y-34275830D01*
X58960038Y-34266651D01*
X58980250Y-34259419D01*
X59001074Y-34254203D01*
X59022309Y-34251053D01*
X59043750Y-34250000D01*
X59556250Y-34250000D01*
X59577691Y-34251053D01*
G37*
%TD*%
%TO.C,R21*%
G36*
X61077691Y-34251053D02*
G01*
X61098926Y-34254203D01*
X61119750Y-34259419D01*
X61139962Y-34266651D01*
X61159368Y-34275830D01*
X61177781Y-34286866D01*
X61195024Y-34299654D01*
X61210930Y-34314070D01*
X61225346Y-34329976D01*
X61238134Y-34347219D01*
X61249170Y-34365632D01*
X61258349Y-34385038D01*
X61265581Y-34405250D01*
X61270797Y-34426074D01*
X61273947Y-34447309D01*
X61275000Y-34468750D01*
X61275000Y-34906250D01*
X61273947Y-34927691D01*
X61270797Y-34948926D01*
X61265581Y-34969750D01*
X61258349Y-34989962D01*
X61249170Y-35009368D01*
X61238134Y-35027781D01*
X61225346Y-35045024D01*
X61210930Y-35060930D01*
X61195024Y-35075346D01*
X61177781Y-35088134D01*
X61159368Y-35099170D01*
X61139962Y-35108349D01*
X61119750Y-35115581D01*
X61098926Y-35120797D01*
X61077691Y-35123947D01*
X61056250Y-35125000D01*
X60543750Y-35125000D01*
X60522309Y-35123947D01*
X60501074Y-35120797D01*
X60480250Y-35115581D01*
X60460038Y-35108349D01*
X60440632Y-35099170D01*
X60422219Y-35088134D01*
X60404976Y-35075346D01*
X60389070Y-35060930D01*
X60374654Y-35045024D01*
X60361866Y-35027781D01*
X60350830Y-35009368D01*
X60341651Y-34989962D01*
X60334419Y-34969750D01*
X60329203Y-34948926D01*
X60326053Y-34927691D01*
X60325000Y-34906250D01*
X60325000Y-34468750D01*
X60326053Y-34447309D01*
X60329203Y-34426074D01*
X60334419Y-34405250D01*
X60341651Y-34385038D01*
X60350830Y-34365632D01*
X60361866Y-34347219D01*
X60374654Y-34329976D01*
X60389070Y-34314070D01*
X60404976Y-34299654D01*
X60422219Y-34286866D01*
X60440632Y-34275830D01*
X60460038Y-34266651D01*
X60480250Y-34259419D01*
X60501074Y-34254203D01*
X60522309Y-34251053D01*
X60543750Y-34250000D01*
X61056250Y-34250000D01*
X61077691Y-34251053D01*
G37*
G36*
X61077691Y-32676053D02*
G01*
X61098926Y-32679203D01*
X61119750Y-32684419D01*
X61139962Y-32691651D01*
X61159368Y-32700830D01*
X61177781Y-32711866D01*
X61195024Y-32724654D01*
X61210930Y-32739070D01*
X61225346Y-32754976D01*
X61238134Y-32772219D01*
X61249170Y-32790632D01*
X61258349Y-32810038D01*
X61265581Y-32830250D01*
X61270797Y-32851074D01*
X61273947Y-32872309D01*
X61275000Y-32893750D01*
X61275000Y-33331250D01*
X61273947Y-33352691D01*
X61270797Y-33373926D01*
X61265581Y-33394750D01*
X61258349Y-33414962D01*
X61249170Y-33434368D01*
X61238134Y-33452781D01*
X61225346Y-33470024D01*
X61210930Y-33485930D01*
X61195024Y-33500346D01*
X61177781Y-33513134D01*
X61159368Y-33524170D01*
X61139962Y-33533349D01*
X61119750Y-33540581D01*
X61098926Y-33545797D01*
X61077691Y-33548947D01*
X61056250Y-33550000D01*
X60543750Y-33550000D01*
X60522309Y-33548947D01*
X60501074Y-33545797D01*
X60480250Y-33540581D01*
X60460038Y-33533349D01*
X60440632Y-33524170D01*
X60422219Y-33513134D01*
X60404976Y-33500346D01*
X60389070Y-33485930D01*
X60374654Y-33470024D01*
X60361866Y-33452781D01*
X60350830Y-33434368D01*
X60341651Y-33414962D01*
X60334419Y-33394750D01*
X60329203Y-33373926D01*
X60326053Y-33352691D01*
X60325000Y-33331250D01*
X60325000Y-32893750D01*
X60326053Y-32872309D01*
X60329203Y-32851074D01*
X60334419Y-32830250D01*
X60341651Y-32810038D01*
X60350830Y-32790632D01*
X60361866Y-32772219D01*
X60374654Y-32754976D01*
X60389070Y-32739070D01*
X60404976Y-32724654D01*
X60422219Y-32711866D01*
X60440632Y-32700830D01*
X60460038Y-32691651D01*
X60480250Y-32684419D01*
X60501074Y-32679203D01*
X60522309Y-32676053D01*
X60543750Y-32675000D01*
X61056250Y-32675000D01*
X61077691Y-32676053D01*
G37*
%TD*%
D16*
%TO.C,SW1*%
X52200000Y-55400000D03*
X52200000Y-63200000D03*
%TD*%
%TO.C,SW2*%
X60000000Y-55400000D03*
X60000000Y-63200000D03*
%TD*%
%TO.C,SW3*%
X67800000Y-55400000D03*
X67800000Y-63200000D03*
%TD*%
D17*
%TO.C,U2*%
X41488000Y-48254000D03*
D18*
X38788000Y-46349000D03*
X38788000Y-47619000D03*
X38788000Y-48889000D03*
X38788000Y-50159000D03*
X44188000Y-50159000D03*
X44188000Y-48889000D03*
X44188000Y-47619000D03*
X44188000Y-46349000D03*
%TD*%
D10*
%TO.C,C4*%
G36*
X55377691Y-48976053D02*
G01*
X55398926Y-48979203D01*
X55419750Y-48984419D01*
X55439962Y-48991651D01*
X55459368Y-49000830D01*
X55477781Y-49011866D01*
X55495024Y-49024654D01*
X55510930Y-49039070D01*
X55525346Y-49054976D01*
X55538134Y-49072219D01*
X55549170Y-49090632D01*
X55558349Y-49110038D01*
X55565581Y-49130250D01*
X55570797Y-49151074D01*
X55573947Y-49172309D01*
X55575000Y-49193750D01*
X55575000Y-49631250D01*
X55573947Y-49652691D01*
X55570797Y-49673926D01*
X55565581Y-49694750D01*
X55558349Y-49714962D01*
X55549170Y-49734368D01*
X55538134Y-49752781D01*
X55525346Y-49770024D01*
X55510930Y-49785930D01*
X55495024Y-49800346D01*
X55477781Y-49813134D01*
X55459368Y-49824170D01*
X55439962Y-49833349D01*
X55419750Y-49840581D01*
X55398926Y-49845797D01*
X55377691Y-49848947D01*
X55356250Y-49850000D01*
X54843750Y-49850000D01*
X54822309Y-49848947D01*
X54801074Y-49845797D01*
X54780250Y-49840581D01*
X54760038Y-49833349D01*
X54740632Y-49824170D01*
X54722219Y-49813134D01*
X54704976Y-49800346D01*
X54689070Y-49785930D01*
X54674654Y-49770024D01*
X54661866Y-49752781D01*
X54650830Y-49734368D01*
X54641651Y-49714962D01*
X54634419Y-49694750D01*
X54629203Y-49673926D01*
X54626053Y-49652691D01*
X54625000Y-49631250D01*
X54625000Y-49193750D01*
X54626053Y-49172309D01*
X54629203Y-49151074D01*
X54634419Y-49130250D01*
X54641651Y-49110038D01*
X54650830Y-49090632D01*
X54661866Y-49072219D01*
X54674654Y-49054976D01*
X54689070Y-49039070D01*
X54704976Y-49024654D01*
X54722219Y-49011866D01*
X54740632Y-49000830D01*
X54760038Y-48991651D01*
X54780250Y-48984419D01*
X54801074Y-48979203D01*
X54822309Y-48976053D01*
X54843750Y-48975000D01*
X55356250Y-48975000D01*
X55377691Y-48976053D01*
G37*
G36*
X55377691Y-50551053D02*
G01*
X55398926Y-50554203D01*
X55419750Y-50559419D01*
X55439962Y-50566651D01*
X55459368Y-50575830D01*
X55477781Y-50586866D01*
X55495024Y-50599654D01*
X55510930Y-50614070D01*
X55525346Y-50629976D01*
X55538134Y-50647219D01*
X55549170Y-50665632D01*
X55558349Y-50685038D01*
X55565581Y-50705250D01*
X55570797Y-50726074D01*
X55573947Y-50747309D01*
X55575000Y-50768750D01*
X55575000Y-51206250D01*
X55573947Y-51227691D01*
X55570797Y-51248926D01*
X55565581Y-51269750D01*
X55558349Y-51289962D01*
X55549170Y-51309368D01*
X55538134Y-51327781D01*
X55525346Y-51345024D01*
X55510930Y-51360930D01*
X55495024Y-51375346D01*
X55477781Y-51388134D01*
X55459368Y-51399170D01*
X55439962Y-51408349D01*
X55419750Y-51415581D01*
X55398926Y-51420797D01*
X55377691Y-51423947D01*
X55356250Y-51425000D01*
X54843750Y-51425000D01*
X54822309Y-51423947D01*
X54801074Y-51420797D01*
X54780250Y-51415581D01*
X54760038Y-51408349D01*
X54740632Y-51399170D01*
X54722219Y-51388134D01*
X54704976Y-51375346D01*
X54689070Y-51360930D01*
X54674654Y-51345024D01*
X54661866Y-51327781D01*
X54650830Y-51309368D01*
X54641651Y-51289962D01*
X54634419Y-51269750D01*
X54629203Y-51248926D01*
X54626053Y-51227691D01*
X54625000Y-51206250D01*
X54625000Y-50768750D01*
X54626053Y-50747309D01*
X54629203Y-50726074D01*
X54634419Y-50705250D01*
X54641651Y-50685038D01*
X54650830Y-50665632D01*
X54661866Y-50647219D01*
X54674654Y-50629976D01*
X54689070Y-50614070D01*
X54704976Y-50599654D01*
X54722219Y-50586866D01*
X54740632Y-50575830D01*
X54760038Y-50566651D01*
X54780250Y-50559419D01*
X54801074Y-50554203D01*
X54822309Y-50551053D01*
X54843750Y-50550000D01*
X55356250Y-50550000D01*
X55377691Y-50551053D01*
G37*
%TD*%
D19*
%TO.C,U1*%
X57250000Y-45400000D03*
X57250000Y-46200000D03*
X57250000Y-47000000D03*
X57250000Y-47800000D03*
X57250000Y-48600000D03*
X57250000Y-49400000D03*
X57250000Y-50200000D03*
X57250000Y-51000000D03*
D20*
X58700000Y-52450000D03*
X59500000Y-52450000D03*
X60300000Y-52450000D03*
X61100000Y-52450000D03*
X61900000Y-52450000D03*
X62700000Y-52450000D03*
X63500000Y-52450000D03*
X64300000Y-52450000D03*
D19*
X65750000Y-51000000D03*
X65750000Y-50200000D03*
X65750000Y-49400000D03*
X65750000Y-48600000D03*
X65750000Y-47800000D03*
X65750000Y-47000000D03*
X65750000Y-46200000D03*
X65750000Y-45400000D03*
D20*
X64300000Y-43950000D03*
X63500000Y-43950000D03*
X62700000Y-43950000D03*
X61900000Y-43950000D03*
X61100000Y-43950000D03*
X60300000Y-43950000D03*
X59500000Y-43950000D03*
X58700000Y-43950000D03*
%TD*%
M02*
