%TF.GenerationSoftware,KiCad,Pcbnew,(5.1.5)-3*%
%TF.CreationDate,2021-03-30T18:15:46+02:00*%
%TF.ProjectId,rpm_meter_arduino,72706d5f-6d65-4746-9572-5f6172647569,rev?*%
%TF.SameCoordinates,Original*%
%TF.FileFunction,Soldermask,Top*%
%TF.FilePolarity,Negative*%
%FSLAX46Y46*%
G04 Gerber Fmt 4.6, Leading zero omitted, Abs format (unit mm)*
G04 Created by KiCad (PCBNEW (5.1.5)-3) date 2021-03-30 18:15:46*
%MOMM*%
%LPD*%
G04 APERTURE LIST*
%ADD10C,0.100000*%
G04 APERTURE END LIST*
D10*
G36*
X73275880Y-62759776D02*
G01*
X73656593Y-62835504D01*
X74066249Y-63005189D01*
X74434929Y-63251534D01*
X74748466Y-63565071D01*
X74994811Y-63933751D01*
X75164496Y-64343407D01*
X75251000Y-64778296D01*
X75251000Y-65221704D01*
X75164496Y-65656593D01*
X74994811Y-66066249D01*
X74748466Y-66434929D01*
X74434929Y-66748466D01*
X74066249Y-66994811D01*
X73656593Y-67164496D01*
X73275880Y-67240224D01*
X73221705Y-67251000D01*
X72778295Y-67251000D01*
X72724120Y-67240224D01*
X72343407Y-67164496D01*
X71933751Y-66994811D01*
X71565071Y-66748466D01*
X71251534Y-66434929D01*
X71005189Y-66066249D01*
X70835504Y-65656593D01*
X70749000Y-65221704D01*
X70749000Y-64778296D01*
X70835504Y-64343407D01*
X71005189Y-63933751D01*
X71251534Y-63565071D01*
X71565071Y-63251534D01*
X71933751Y-63005189D01*
X72343407Y-62835504D01*
X72724120Y-62759776D01*
X72778295Y-62749000D01*
X73221705Y-62749000D01*
X73275880Y-62759776D01*
G37*
G36*
X29275880Y-62759776D02*
G01*
X29656593Y-62835504D01*
X30066249Y-63005189D01*
X30434929Y-63251534D01*
X30748466Y-63565071D01*
X30994811Y-63933751D01*
X31164496Y-64343407D01*
X31251000Y-64778296D01*
X31251000Y-65221704D01*
X31164496Y-65656593D01*
X30994811Y-66066249D01*
X30748466Y-66434929D01*
X30434929Y-66748466D01*
X30066249Y-66994811D01*
X29656593Y-67164496D01*
X29275880Y-67240224D01*
X29221705Y-67251000D01*
X28778295Y-67251000D01*
X28724120Y-67240224D01*
X28343407Y-67164496D01*
X27933751Y-66994811D01*
X27565071Y-66748466D01*
X27251534Y-66434929D01*
X27005189Y-66066249D01*
X26835504Y-65656593D01*
X26749000Y-65221704D01*
X26749000Y-64778296D01*
X26835504Y-64343407D01*
X27005189Y-63933751D01*
X27251534Y-63565071D01*
X27565071Y-63251534D01*
X27933751Y-63005189D01*
X28343407Y-62835504D01*
X28724120Y-62759776D01*
X28778295Y-62749000D01*
X29221705Y-62749000D01*
X29275880Y-62759776D01*
G37*
G36*
X42251000Y-64351000D02*
G01*
X41149000Y-64351000D01*
X41149000Y-61099000D01*
X42251000Y-61099000D01*
X42251000Y-64351000D01*
G37*
G36*
X47331000Y-64351000D02*
G01*
X46229000Y-64351000D01*
X46229000Y-61099000D01*
X47331000Y-61099000D01*
X47331000Y-64351000D01*
G37*
G36*
X37171000Y-64351000D02*
G01*
X36069000Y-64351000D01*
X36069000Y-61099000D01*
X37171000Y-61099000D01*
X37171000Y-64351000D01*
G37*
G36*
X44791000Y-64351000D02*
G01*
X43689000Y-64351000D01*
X43689000Y-61099000D01*
X44791000Y-61099000D01*
X44791000Y-64351000D01*
G37*
G36*
X39711000Y-64351000D02*
G01*
X38609000Y-64351000D01*
X38609000Y-61099000D01*
X39711000Y-61099000D01*
X39711000Y-64351000D01*
G37*
G36*
X64879591Y-63061585D02*
G01*
X64913569Y-63071893D01*
X64944890Y-63088634D01*
X64972339Y-63111161D01*
X64994866Y-63138610D01*
X65011607Y-63169931D01*
X65021915Y-63203909D01*
X65026000Y-63245390D01*
X65026000Y-63846610D01*
X65021915Y-63888091D01*
X65011607Y-63922069D01*
X64994866Y-63953390D01*
X64972339Y-63980839D01*
X64944890Y-64003366D01*
X64913569Y-64020107D01*
X64879591Y-64030415D01*
X64838110Y-64034500D01*
X64161890Y-64034500D01*
X64120409Y-64030415D01*
X64086431Y-64020107D01*
X64055110Y-64003366D01*
X64027661Y-63980839D01*
X64005134Y-63953390D01*
X63988393Y-63922069D01*
X63978085Y-63888091D01*
X63974000Y-63846610D01*
X63974000Y-63245390D01*
X63978085Y-63203909D01*
X63988393Y-63169931D01*
X64005134Y-63138610D01*
X64027661Y-63111161D01*
X64055110Y-63088634D01*
X64086431Y-63071893D01*
X64120409Y-63061585D01*
X64161890Y-63057500D01*
X64838110Y-63057500D01*
X64879591Y-63061585D01*
G37*
G36*
X63355591Y-63036085D02*
G01*
X63389569Y-63046393D01*
X63420890Y-63063134D01*
X63448339Y-63085661D01*
X63470866Y-63113110D01*
X63487607Y-63144431D01*
X63497915Y-63178409D01*
X63502000Y-63219890D01*
X63502000Y-63821110D01*
X63497915Y-63862591D01*
X63487607Y-63896569D01*
X63470866Y-63927890D01*
X63448339Y-63955339D01*
X63420890Y-63977866D01*
X63389569Y-63994607D01*
X63355591Y-64004915D01*
X63314110Y-64009000D01*
X62637890Y-64009000D01*
X62596409Y-64004915D01*
X62562431Y-63994607D01*
X62531110Y-63977866D01*
X62503661Y-63955339D01*
X62481134Y-63927890D01*
X62464393Y-63896569D01*
X62454085Y-63862591D01*
X62450000Y-63821110D01*
X62450000Y-63219890D01*
X62454085Y-63178409D01*
X62464393Y-63144431D01*
X62481134Y-63113110D01*
X62503661Y-63085661D01*
X62531110Y-63063134D01*
X62562431Y-63046393D01*
X62596409Y-63036085D01*
X62637890Y-63032000D01*
X63314110Y-63032000D01*
X63355591Y-63036085D01*
G37*
G36*
X68601000Y-64001000D02*
G01*
X66999000Y-64001000D01*
X66999000Y-62399000D01*
X68601000Y-62399000D01*
X68601000Y-64001000D01*
G37*
G36*
X60801000Y-64001000D02*
G01*
X59199000Y-64001000D01*
X59199000Y-62399000D01*
X60801000Y-62399000D01*
X60801000Y-64001000D01*
G37*
G36*
X53001000Y-64001000D02*
G01*
X51399000Y-64001000D01*
X51399000Y-62399000D01*
X53001000Y-62399000D01*
X53001000Y-64001000D01*
G37*
G36*
X64879591Y-61486585D02*
G01*
X64913569Y-61496893D01*
X64944890Y-61513634D01*
X64972339Y-61536161D01*
X64994866Y-61563610D01*
X65011607Y-61594931D01*
X65021915Y-61628909D01*
X65026000Y-61670390D01*
X65026000Y-62271610D01*
X65021915Y-62313091D01*
X65011607Y-62347069D01*
X64994866Y-62378390D01*
X64972339Y-62405839D01*
X64944890Y-62428366D01*
X64913569Y-62445107D01*
X64879591Y-62455415D01*
X64838110Y-62459500D01*
X64161890Y-62459500D01*
X64120409Y-62455415D01*
X64086431Y-62445107D01*
X64055110Y-62428366D01*
X64027661Y-62405839D01*
X64005134Y-62378390D01*
X63988393Y-62347069D01*
X63978085Y-62313091D01*
X63974000Y-62271610D01*
X63974000Y-61670390D01*
X63978085Y-61628909D01*
X63988393Y-61594931D01*
X64005134Y-61563610D01*
X64027661Y-61536161D01*
X64055110Y-61513634D01*
X64086431Y-61496893D01*
X64120409Y-61486585D01*
X64161890Y-61482500D01*
X64838110Y-61482500D01*
X64879591Y-61486585D01*
G37*
G36*
X63355591Y-61461085D02*
G01*
X63389569Y-61471393D01*
X63420890Y-61488134D01*
X63448339Y-61510661D01*
X63470866Y-61538110D01*
X63487607Y-61569431D01*
X63497915Y-61603409D01*
X63502000Y-61644890D01*
X63502000Y-62246110D01*
X63497915Y-62287591D01*
X63487607Y-62321569D01*
X63470866Y-62352890D01*
X63448339Y-62380339D01*
X63420890Y-62402866D01*
X63389569Y-62419607D01*
X63355591Y-62429915D01*
X63314110Y-62434000D01*
X62637890Y-62434000D01*
X62596409Y-62429915D01*
X62562431Y-62419607D01*
X62531110Y-62402866D01*
X62503661Y-62380339D01*
X62481134Y-62352890D01*
X62464393Y-62321569D01*
X62454085Y-62287591D01*
X62450000Y-62246110D01*
X62450000Y-61644890D01*
X62454085Y-61603409D01*
X62464393Y-61569431D01*
X62481134Y-61538110D01*
X62503661Y-61510661D01*
X62531110Y-61488134D01*
X62562431Y-61471393D01*
X62596409Y-61461085D01*
X62637890Y-61457000D01*
X63314110Y-61457000D01*
X63355591Y-61461085D01*
G37*
G36*
X31954591Y-60278085D02*
G01*
X31988569Y-60288393D01*
X32019890Y-60305134D01*
X32047339Y-60327661D01*
X32069866Y-60355110D01*
X32086607Y-60386431D01*
X32096915Y-60420409D01*
X32101000Y-60461890D01*
X32101000Y-61138110D01*
X32096915Y-61179591D01*
X32086607Y-61213569D01*
X32069866Y-61244890D01*
X32047339Y-61272339D01*
X32019890Y-61294866D01*
X31988569Y-61311607D01*
X31954591Y-61321915D01*
X31913110Y-61326000D01*
X31311890Y-61326000D01*
X31270409Y-61321915D01*
X31236431Y-61311607D01*
X31205110Y-61294866D01*
X31177661Y-61272339D01*
X31155134Y-61244890D01*
X31138393Y-61213569D01*
X31128085Y-61179591D01*
X31124000Y-61138110D01*
X31124000Y-60461890D01*
X31128085Y-60420409D01*
X31138393Y-60386431D01*
X31155134Y-60355110D01*
X31177661Y-60327661D01*
X31205110Y-60305134D01*
X31236431Y-60288393D01*
X31270409Y-60278085D01*
X31311890Y-60274000D01*
X31913110Y-60274000D01*
X31954591Y-60278085D01*
G37*
G36*
X33529591Y-60278085D02*
G01*
X33563569Y-60288393D01*
X33594890Y-60305134D01*
X33622339Y-60327661D01*
X33644866Y-60355110D01*
X33661607Y-60386431D01*
X33671915Y-60420409D01*
X33676000Y-60461890D01*
X33676000Y-61138110D01*
X33671915Y-61179591D01*
X33661607Y-61213569D01*
X33644866Y-61244890D01*
X33622339Y-61272339D01*
X33594890Y-61294866D01*
X33563569Y-61311607D01*
X33529591Y-61321915D01*
X33488110Y-61326000D01*
X32886890Y-61326000D01*
X32845409Y-61321915D01*
X32811431Y-61311607D01*
X32780110Y-61294866D01*
X32752661Y-61272339D01*
X32730134Y-61244890D01*
X32713393Y-61213569D01*
X32703085Y-61179591D01*
X32699000Y-61138110D01*
X32699000Y-60461890D01*
X32703085Y-60420409D01*
X32713393Y-60386431D01*
X32730134Y-60355110D01*
X32752661Y-60327661D01*
X32780110Y-60305134D01*
X32811431Y-60288393D01*
X32845409Y-60278085D01*
X32886890Y-60274000D01*
X33488110Y-60274000D01*
X33529591Y-60278085D01*
G37*
G36*
X63355591Y-59734085D02*
G01*
X63389569Y-59744393D01*
X63420890Y-59761134D01*
X63448339Y-59783661D01*
X63470866Y-59811110D01*
X63487607Y-59842431D01*
X63497915Y-59876409D01*
X63502000Y-59917890D01*
X63502000Y-60519110D01*
X63497915Y-60560591D01*
X63487607Y-60594569D01*
X63470866Y-60625890D01*
X63448339Y-60653339D01*
X63420890Y-60675866D01*
X63389569Y-60692607D01*
X63355591Y-60702915D01*
X63314110Y-60707000D01*
X62637890Y-60707000D01*
X62596409Y-60702915D01*
X62562431Y-60692607D01*
X62531110Y-60675866D01*
X62503661Y-60653339D01*
X62481134Y-60625890D01*
X62464393Y-60594569D01*
X62454085Y-60560591D01*
X62450000Y-60519110D01*
X62450000Y-59917890D01*
X62454085Y-59876409D01*
X62464393Y-59842431D01*
X62481134Y-59811110D01*
X62503661Y-59783661D01*
X62531110Y-59761134D01*
X62562431Y-59744393D01*
X62596409Y-59734085D01*
X62637890Y-59730000D01*
X63314110Y-59730000D01*
X63355591Y-59734085D01*
G37*
G36*
X72725591Y-59504085D02*
G01*
X72759569Y-59514393D01*
X72790890Y-59531134D01*
X72818339Y-59553661D01*
X72840866Y-59581110D01*
X72857607Y-59612431D01*
X72867915Y-59646409D01*
X72872000Y-59687890D01*
X72872000Y-60289110D01*
X72867915Y-60330591D01*
X72857607Y-60364569D01*
X72840866Y-60395890D01*
X72818339Y-60423339D01*
X72790890Y-60445866D01*
X72759569Y-60462607D01*
X72725591Y-60472915D01*
X72684110Y-60477000D01*
X72007890Y-60477000D01*
X71966409Y-60472915D01*
X71932431Y-60462607D01*
X71901110Y-60445866D01*
X71873661Y-60423339D01*
X71851134Y-60395890D01*
X71834393Y-60364569D01*
X71824085Y-60330591D01*
X71820000Y-60289110D01*
X71820000Y-59687890D01*
X71824085Y-59646409D01*
X71834393Y-59612431D01*
X71851134Y-59581110D01*
X71873661Y-59553661D01*
X71901110Y-59531134D01*
X71932431Y-59514393D01*
X71966409Y-59504085D01*
X72007890Y-59500000D01*
X72684110Y-59500000D01*
X72725591Y-59504085D01*
G37*
G36*
X71201591Y-59504085D02*
G01*
X71235569Y-59514393D01*
X71266890Y-59531134D01*
X71294339Y-59553661D01*
X71316866Y-59581110D01*
X71333607Y-59612431D01*
X71343915Y-59646409D01*
X71348000Y-59687890D01*
X71348000Y-60289110D01*
X71343915Y-60330591D01*
X71333607Y-60364569D01*
X71316866Y-60395890D01*
X71294339Y-60423339D01*
X71266890Y-60445866D01*
X71235569Y-60462607D01*
X71201591Y-60472915D01*
X71160110Y-60477000D01*
X70483890Y-60477000D01*
X70442409Y-60472915D01*
X70408431Y-60462607D01*
X70377110Y-60445866D01*
X70349661Y-60423339D01*
X70327134Y-60395890D01*
X70310393Y-60364569D01*
X70300085Y-60330591D01*
X70296000Y-60289110D01*
X70296000Y-59687890D01*
X70300085Y-59646409D01*
X70310393Y-59612431D01*
X70327134Y-59581110D01*
X70349661Y-59553661D01*
X70377110Y-59531134D01*
X70408431Y-59514393D01*
X70442409Y-59504085D01*
X70483890Y-59500000D01*
X71160110Y-59500000D01*
X71201591Y-59504085D01*
G37*
G36*
X31954591Y-58678085D02*
G01*
X31988569Y-58688393D01*
X32019890Y-58705134D01*
X32047339Y-58727661D01*
X32069866Y-58755110D01*
X32086607Y-58786431D01*
X32096915Y-58820409D01*
X32101000Y-58861890D01*
X32101000Y-59538110D01*
X32096915Y-59579591D01*
X32086607Y-59613569D01*
X32069866Y-59644890D01*
X32047339Y-59672339D01*
X32019890Y-59694866D01*
X31988569Y-59711607D01*
X31954591Y-59721915D01*
X31913110Y-59726000D01*
X31311890Y-59726000D01*
X31270409Y-59721915D01*
X31236431Y-59711607D01*
X31205110Y-59694866D01*
X31177661Y-59672339D01*
X31155134Y-59644890D01*
X31138393Y-59613569D01*
X31128085Y-59579591D01*
X31124000Y-59538110D01*
X31124000Y-58861890D01*
X31128085Y-58820409D01*
X31138393Y-58786431D01*
X31155134Y-58755110D01*
X31177661Y-58727661D01*
X31205110Y-58705134D01*
X31236431Y-58688393D01*
X31270409Y-58678085D01*
X31311890Y-58674000D01*
X31913110Y-58674000D01*
X31954591Y-58678085D01*
G37*
G36*
X33529591Y-58678085D02*
G01*
X33563569Y-58688393D01*
X33594890Y-58705134D01*
X33622339Y-58727661D01*
X33644866Y-58755110D01*
X33661607Y-58786431D01*
X33671915Y-58820409D01*
X33676000Y-58861890D01*
X33676000Y-59538110D01*
X33671915Y-59579591D01*
X33661607Y-59613569D01*
X33644866Y-59644890D01*
X33622339Y-59672339D01*
X33594890Y-59694866D01*
X33563569Y-59711607D01*
X33529591Y-59721915D01*
X33488110Y-59726000D01*
X32886890Y-59726000D01*
X32845409Y-59721915D01*
X32811431Y-59711607D01*
X32780110Y-59694866D01*
X32752661Y-59672339D01*
X32730134Y-59644890D01*
X32713393Y-59613569D01*
X32703085Y-59579591D01*
X32699000Y-59538110D01*
X32699000Y-58861890D01*
X32703085Y-58820409D01*
X32713393Y-58786431D01*
X32730134Y-58755110D01*
X32752661Y-58727661D01*
X32780110Y-58705134D01*
X32811431Y-58688393D01*
X32845409Y-58678085D01*
X32886890Y-58674000D01*
X33488110Y-58674000D01*
X33529591Y-58678085D01*
G37*
G36*
X47331000Y-59301000D02*
G01*
X46229000Y-59301000D01*
X46229000Y-56049000D01*
X47331000Y-56049000D01*
X47331000Y-59301000D01*
G37*
G36*
X37171000Y-59301000D02*
G01*
X36069000Y-59301000D01*
X36069000Y-56049000D01*
X37171000Y-56049000D01*
X37171000Y-59301000D01*
G37*
G36*
X39711000Y-59301000D02*
G01*
X38609000Y-59301000D01*
X38609000Y-56049000D01*
X39711000Y-56049000D01*
X39711000Y-59301000D01*
G37*
G36*
X44791000Y-59301000D02*
G01*
X43689000Y-59301000D01*
X43689000Y-56049000D01*
X44791000Y-56049000D01*
X44791000Y-59301000D01*
G37*
G36*
X42251000Y-59301000D02*
G01*
X41149000Y-59301000D01*
X41149000Y-56049000D01*
X42251000Y-56049000D01*
X42251000Y-59301000D01*
G37*
G36*
X63355591Y-58159085D02*
G01*
X63389569Y-58169393D01*
X63420890Y-58186134D01*
X63448339Y-58208661D01*
X63470866Y-58236110D01*
X63487607Y-58267431D01*
X63497915Y-58301409D01*
X63502000Y-58342890D01*
X63502000Y-58944110D01*
X63497915Y-58985591D01*
X63487607Y-59019569D01*
X63470866Y-59050890D01*
X63448339Y-59078339D01*
X63420890Y-59100866D01*
X63389569Y-59117607D01*
X63355591Y-59127915D01*
X63314110Y-59132000D01*
X62637890Y-59132000D01*
X62596409Y-59127915D01*
X62562431Y-59117607D01*
X62531110Y-59100866D01*
X62503661Y-59078339D01*
X62481134Y-59050890D01*
X62464393Y-59019569D01*
X62454085Y-58985591D01*
X62450000Y-58944110D01*
X62450000Y-58342890D01*
X62454085Y-58301409D01*
X62464393Y-58267431D01*
X62481134Y-58236110D01*
X62503661Y-58208661D01*
X62531110Y-58186134D01*
X62562431Y-58169393D01*
X62596409Y-58159085D01*
X62637890Y-58155000D01*
X63314110Y-58155000D01*
X63355591Y-58159085D01*
G37*
G36*
X72725591Y-57929085D02*
G01*
X72759569Y-57939393D01*
X72790890Y-57956134D01*
X72818339Y-57978661D01*
X72840866Y-58006110D01*
X72857607Y-58037431D01*
X72867915Y-58071409D01*
X72872000Y-58112890D01*
X72872000Y-58714110D01*
X72867915Y-58755591D01*
X72857607Y-58789569D01*
X72840866Y-58820890D01*
X72818339Y-58848339D01*
X72790890Y-58870866D01*
X72759569Y-58887607D01*
X72725591Y-58897915D01*
X72684110Y-58902000D01*
X72007890Y-58902000D01*
X71966409Y-58897915D01*
X71932431Y-58887607D01*
X71901110Y-58870866D01*
X71873661Y-58848339D01*
X71851134Y-58820890D01*
X71834393Y-58789569D01*
X71824085Y-58755591D01*
X71820000Y-58714110D01*
X71820000Y-58112890D01*
X71824085Y-58071409D01*
X71834393Y-58037431D01*
X71851134Y-58006110D01*
X71873661Y-57978661D01*
X71901110Y-57956134D01*
X71932431Y-57939393D01*
X71966409Y-57929085D01*
X72007890Y-57925000D01*
X72684110Y-57925000D01*
X72725591Y-57929085D01*
G37*
G36*
X71201591Y-57929085D02*
G01*
X71235569Y-57939393D01*
X71266890Y-57956134D01*
X71294339Y-57978661D01*
X71316866Y-58006110D01*
X71333607Y-58037431D01*
X71343915Y-58071409D01*
X71348000Y-58112890D01*
X71348000Y-58714110D01*
X71343915Y-58755591D01*
X71333607Y-58789569D01*
X71316866Y-58820890D01*
X71294339Y-58848339D01*
X71266890Y-58870866D01*
X71235569Y-58887607D01*
X71201591Y-58897915D01*
X71160110Y-58902000D01*
X70483890Y-58902000D01*
X70442409Y-58897915D01*
X70408431Y-58887607D01*
X70377110Y-58870866D01*
X70349661Y-58848339D01*
X70327134Y-58820890D01*
X70310393Y-58789569D01*
X70300085Y-58755591D01*
X70296000Y-58714110D01*
X70296000Y-58112890D01*
X70300085Y-58071409D01*
X70310393Y-58037431D01*
X70327134Y-58006110D01*
X70349661Y-57978661D01*
X70377110Y-57956134D01*
X70408431Y-57939393D01*
X70442409Y-57929085D01*
X70483890Y-57925000D01*
X71160110Y-57925000D01*
X71201591Y-57929085D01*
G37*
G36*
X31705997Y-54103051D02*
G01*
X31739652Y-54113261D01*
X31770665Y-54129838D01*
X31797851Y-54152149D01*
X31820162Y-54179335D01*
X31836739Y-54210348D01*
X31846949Y-54244003D01*
X31851000Y-54285138D01*
X31851000Y-57514862D01*
X31846949Y-57555997D01*
X31836739Y-57589652D01*
X31820162Y-57620665D01*
X31797851Y-57647851D01*
X31770665Y-57670162D01*
X31739652Y-57686739D01*
X31705997Y-57696949D01*
X31664862Y-57701000D01*
X30335138Y-57701000D01*
X30294003Y-57696949D01*
X30260348Y-57686739D01*
X30229335Y-57670162D01*
X30202149Y-57647851D01*
X30179838Y-57620665D01*
X30163261Y-57589652D01*
X30153051Y-57555997D01*
X30149000Y-57514862D01*
X30149000Y-54285138D01*
X30153051Y-54244003D01*
X30163261Y-54210348D01*
X30179838Y-54179335D01*
X30202149Y-54152149D01*
X30229335Y-54129838D01*
X30260348Y-54113261D01*
X30294003Y-54103051D01*
X30335138Y-54099000D01*
X31664862Y-54099000D01*
X31705997Y-54103051D01*
G37*
G36*
X71201591Y-56202085D02*
G01*
X71235569Y-56212393D01*
X71266890Y-56229134D01*
X71294339Y-56251661D01*
X71316866Y-56279110D01*
X71333607Y-56310431D01*
X71343915Y-56344409D01*
X71348000Y-56385890D01*
X71348000Y-56987110D01*
X71343915Y-57028591D01*
X71333607Y-57062569D01*
X71316866Y-57093890D01*
X71294339Y-57121339D01*
X71266890Y-57143866D01*
X71235569Y-57160607D01*
X71201591Y-57170915D01*
X71160110Y-57175000D01*
X70483890Y-57175000D01*
X70442409Y-57170915D01*
X70408431Y-57160607D01*
X70377110Y-57143866D01*
X70349661Y-57121339D01*
X70327134Y-57093890D01*
X70310393Y-57062569D01*
X70300085Y-57028591D01*
X70296000Y-56987110D01*
X70296000Y-56385890D01*
X70300085Y-56344409D01*
X70310393Y-56310431D01*
X70327134Y-56279110D01*
X70349661Y-56251661D01*
X70377110Y-56229134D01*
X70408431Y-56212393D01*
X70442409Y-56202085D01*
X70483890Y-56198000D01*
X71160110Y-56198000D01*
X71201591Y-56202085D01*
G37*
G36*
X60801000Y-56201000D02*
G01*
X59199000Y-56201000D01*
X59199000Y-54599000D01*
X60801000Y-54599000D01*
X60801000Y-56201000D01*
G37*
G36*
X53001000Y-56201000D02*
G01*
X51399000Y-56201000D01*
X51399000Y-54599000D01*
X53001000Y-54599000D01*
X53001000Y-56201000D01*
G37*
G36*
X68601000Y-56201000D02*
G01*
X66999000Y-56201000D01*
X66999000Y-54599000D01*
X68601000Y-54599000D01*
X68601000Y-56201000D01*
G37*
G36*
X71201591Y-54627085D02*
G01*
X71235569Y-54637393D01*
X71266890Y-54654134D01*
X71294339Y-54676661D01*
X71316866Y-54704110D01*
X71333607Y-54735431D01*
X71343915Y-54769409D01*
X71348000Y-54810890D01*
X71348000Y-55412110D01*
X71343915Y-55453591D01*
X71333607Y-55487569D01*
X71316866Y-55518890D01*
X71294339Y-55546339D01*
X71266890Y-55568866D01*
X71235569Y-55585607D01*
X71201591Y-55595915D01*
X71160110Y-55600000D01*
X70483890Y-55600000D01*
X70442409Y-55595915D01*
X70408431Y-55585607D01*
X70377110Y-55568866D01*
X70349661Y-55546339D01*
X70327134Y-55518890D01*
X70310393Y-55487569D01*
X70300085Y-55453591D01*
X70296000Y-55412110D01*
X70296000Y-54810890D01*
X70300085Y-54769409D01*
X70310393Y-54735431D01*
X70327134Y-54704110D01*
X70349661Y-54676661D01*
X70377110Y-54654134D01*
X70408431Y-54637393D01*
X70442409Y-54627085D01*
X70483890Y-54623000D01*
X71160110Y-54623000D01*
X71201591Y-54627085D01*
G37*
G36*
X46354591Y-52278085D02*
G01*
X46388569Y-52288393D01*
X46419890Y-52305134D01*
X46447339Y-52327661D01*
X46469866Y-52355110D01*
X46486607Y-52386431D01*
X46496915Y-52420409D01*
X46501000Y-52461890D01*
X46501000Y-53138110D01*
X46496915Y-53179591D01*
X46486607Y-53213569D01*
X46469866Y-53244890D01*
X46447339Y-53272339D01*
X46419890Y-53294866D01*
X46388569Y-53311607D01*
X46354591Y-53321915D01*
X46313110Y-53326000D01*
X45711890Y-53326000D01*
X45670409Y-53321915D01*
X45636431Y-53311607D01*
X45605110Y-53294866D01*
X45577661Y-53272339D01*
X45555134Y-53244890D01*
X45538393Y-53213569D01*
X45528085Y-53179591D01*
X45524000Y-53138110D01*
X45524000Y-52461890D01*
X45528085Y-52420409D01*
X45538393Y-52386431D01*
X45555134Y-52355110D01*
X45577661Y-52327661D01*
X45605110Y-52305134D01*
X45636431Y-52288393D01*
X45670409Y-52278085D01*
X45711890Y-52274000D01*
X46313110Y-52274000D01*
X46354591Y-52278085D01*
G37*
G36*
X47929591Y-52278085D02*
G01*
X47963569Y-52288393D01*
X47994890Y-52305134D01*
X48022339Y-52327661D01*
X48044866Y-52355110D01*
X48061607Y-52386431D01*
X48071915Y-52420409D01*
X48076000Y-52461890D01*
X48076000Y-53138110D01*
X48071915Y-53179591D01*
X48061607Y-53213569D01*
X48044866Y-53244890D01*
X48022339Y-53272339D01*
X47994890Y-53294866D01*
X47963569Y-53311607D01*
X47929591Y-53321915D01*
X47888110Y-53326000D01*
X47286890Y-53326000D01*
X47245409Y-53321915D01*
X47211431Y-53311607D01*
X47180110Y-53294866D01*
X47152661Y-53272339D01*
X47130134Y-53244890D01*
X47113393Y-53213569D01*
X47103085Y-53179591D01*
X47099000Y-53138110D01*
X47099000Y-52461890D01*
X47103085Y-52420409D01*
X47113393Y-52386431D01*
X47130134Y-52355110D01*
X47152661Y-52327661D01*
X47180110Y-52305134D01*
X47211431Y-52288393D01*
X47245409Y-52278085D01*
X47286890Y-52274000D01*
X47888110Y-52274000D01*
X47929591Y-52278085D01*
G37*
G36*
X64626000Y-53301000D02*
G01*
X58374000Y-53301000D01*
X58374000Y-51599000D01*
X64626000Y-51599000D01*
X64626000Y-53301000D01*
G37*
G36*
X69979591Y-51703085D02*
G01*
X70013569Y-51713393D01*
X70044890Y-51730134D01*
X70072339Y-51752661D01*
X70094866Y-51780110D01*
X70111607Y-51811431D01*
X70121915Y-51845409D01*
X70126000Y-51886890D01*
X70126000Y-52488110D01*
X70121915Y-52529591D01*
X70111607Y-52563569D01*
X70094866Y-52594890D01*
X70072339Y-52622339D01*
X70044890Y-52644866D01*
X70013569Y-52661607D01*
X69979591Y-52671915D01*
X69938110Y-52676000D01*
X69261890Y-52676000D01*
X69220409Y-52671915D01*
X69186431Y-52661607D01*
X69155110Y-52644866D01*
X69127661Y-52622339D01*
X69105134Y-52594890D01*
X69088393Y-52563569D01*
X69078085Y-52529591D01*
X69074000Y-52488110D01*
X69074000Y-51886890D01*
X69078085Y-51845409D01*
X69088393Y-51811431D01*
X69105134Y-51780110D01*
X69127661Y-51752661D01*
X69155110Y-51730134D01*
X69186431Y-51713393D01*
X69220409Y-51703085D01*
X69261890Y-51699000D01*
X69938110Y-51699000D01*
X69979591Y-51703085D01*
G37*
G36*
X68379591Y-51703085D02*
G01*
X68413569Y-51713393D01*
X68444890Y-51730134D01*
X68472339Y-51752661D01*
X68494866Y-51780110D01*
X68511607Y-51811431D01*
X68521915Y-51845409D01*
X68526000Y-51886890D01*
X68526000Y-52488110D01*
X68521915Y-52529591D01*
X68511607Y-52563569D01*
X68494866Y-52594890D01*
X68472339Y-52622339D01*
X68444890Y-52644866D01*
X68413569Y-52661607D01*
X68379591Y-52671915D01*
X68338110Y-52676000D01*
X67661890Y-52676000D01*
X67620409Y-52671915D01*
X67586431Y-52661607D01*
X67555110Y-52644866D01*
X67527661Y-52622339D01*
X67505134Y-52594890D01*
X67488393Y-52563569D01*
X67478085Y-52529591D01*
X67474000Y-52488110D01*
X67474000Y-51886890D01*
X67478085Y-51845409D01*
X67488393Y-51811431D01*
X67505134Y-51780110D01*
X67527661Y-51752661D01*
X67555110Y-51730134D01*
X67586431Y-51713393D01*
X67620409Y-51703085D01*
X67661890Y-51699000D01*
X68338110Y-51699000D01*
X68379591Y-51703085D01*
G37*
G36*
X31705997Y-48703051D02*
G01*
X31739652Y-48713261D01*
X31770665Y-48729838D01*
X31797851Y-48752149D01*
X31820162Y-48779335D01*
X31836739Y-48810348D01*
X31846949Y-48844003D01*
X31851000Y-48885138D01*
X31851000Y-52114862D01*
X31846949Y-52155997D01*
X31836739Y-52189652D01*
X31820162Y-52220665D01*
X31797851Y-52247851D01*
X31770665Y-52270162D01*
X31739652Y-52286739D01*
X31705997Y-52296949D01*
X31664862Y-52301000D01*
X30335138Y-52301000D01*
X30294003Y-52296949D01*
X30260348Y-52286739D01*
X30229335Y-52270162D01*
X30202149Y-52247851D01*
X30179838Y-52220665D01*
X30163261Y-52189652D01*
X30153051Y-52155997D01*
X30149000Y-52114862D01*
X30149000Y-48885138D01*
X30153051Y-48844003D01*
X30163261Y-48810348D01*
X30179838Y-48779335D01*
X30202149Y-48752149D01*
X30229335Y-48729838D01*
X30260348Y-48713261D01*
X30294003Y-48703051D01*
X30335138Y-48699000D01*
X31664862Y-48699000D01*
X31705997Y-48703051D01*
G37*
G36*
X47929591Y-50678085D02*
G01*
X47963569Y-50688393D01*
X47994890Y-50705134D01*
X48022339Y-50727661D01*
X48044866Y-50755110D01*
X48061607Y-50786431D01*
X48071915Y-50820409D01*
X48076000Y-50861890D01*
X48076000Y-51538110D01*
X48071915Y-51579591D01*
X48061607Y-51613569D01*
X48044866Y-51644890D01*
X48022339Y-51672339D01*
X47994890Y-51694866D01*
X47963569Y-51711607D01*
X47929591Y-51721915D01*
X47888110Y-51726000D01*
X47286890Y-51726000D01*
X47245409Y-51721915D01*
X47211431Y-51711607D01*
X47180110Y-51694866D01*
X47152661Y-51672339D01*
X47130134Y-51644890D01*
X47113393Y-51613569D01*
X47103085Y-51579591D01*
X47099000Y-51538110D01*
X47099000Y-50861890D01*
X47103085Y-50820409D01*
X47113393Y-50786431D01*
X47130134Y-50755110D01*
X47152661Y-50727661D01*
X47180110Y-50705134D01*
X47211431Y-50688393D01*
X47245409Y-50678085D01*
X47286890Y-50674000D01*
X47888110Y-50674000D01*
X47929591Y-50678085D01*
G37*
G36*
X46354591Y-50678085D02*
G01*
X46388569Y-50688393D01*
X46419890Y-50705134D01*
X46447339Y-50727661D01*
X46469866Y-50755110D01*
X46486607Y-50786431D01*
X46496915Y-50820409D01*
X46501000Y-50861890D01*
X46501000Y-51538110D01*
X46496915Y-51579591D01*
X46486607Y-51613569D01*
X46469866Y-51644890D01*
X46447339Y-51672339D01*
X46419890Y-51694866D01*
X46388569Y-51711607D01*
X46354591Y-51721915D01*
X46313110Y-51726000D01*
X45711890Y-51726000D01*
X45670409Y-51721915D01*
X45636431Y-51711607D01*
X45605110Y-51694866D01*
X45577661Y-51672339D01*
X45555134Y-51644890D01*
X45538393Y-51613569D01*
X45528085Y-51579591D01*
X45524000Y-51538110D01*
X45524000Y-50861890D01*
X45528085Y-50820409D01*
X45538393Y-50786431D01*
X45555134Y-50755110D01*
X45577661Y-50727661D01*
X45605110Y-50705134D01*
X45636431Y-50688393D01*
X45670409Y-50678085D01*
X45711890Y-50674000D01*
X46313110Y-50674000D01*
X46354591Y-50678085D01*
G37*
G36*
X55479591Y-50503085D02*
G01*
X55513569Y-50513393D01*
X55544890Y-50530134D01*
X55572339Y-50552661D01*
X55594866Y-50580110D01*
X55611607Y-50611431D01*
X55621915Y-50645409D01*
X55626000Y-50686890D01*
X55626000Y-51288110D01*
X55621915Y-51329591D01*
X55611607Y-51363569D01*
X55594866Y-51394890D01*
X55572339Y-51422339D01*
X55544890Y-51444866D01*
X55513569Y-51461607D01*
X55479591Y-51471915D01*
X55438110Y-51476000D01*
X54761890Y-51476000D01*
X54720409Y-51471915D01*
X54686431Y-51461607D01*
X54655110Y-51444866D01*
X54627661Y-51422339D01*
X54605134Y-51394890D01*
X54588393Y-51363569D01*
X54578085Y-51329591D01*
X54574000Y-51288110D01*
X54574000Y-50686890D01*
X54578085Y-50645409D01*
X54588393Y-50611431D01*
X54605134Y-50580110D01*
X54627661Y-50552661D01*
X54655110Y-50530134D01*
X54686431Y-50513393D01*
X54720409Y-50503085D01*
X54761890Y-50499000D01*
X55438110Y-50499000D01*
X55479591Y-50503085D01*
G37*
G36*
X66601000Y-51326000D02*
G01*
X64899000Y-51326000D01*
X64899000Y-45074000D01*
X66601000Y-45074000D01*
X66601000Y-51326000D01*
G37*
G36*
X58101000Y-51326000D02*
G01*
X56399000Y-51326000D01*
X56399000Y-45074000D01*
X58101000Y-45074000D01*
X58101000Y-51326000D01*
G37*
G36*
X68379591Y-50128085D02*
G01*
X68413569Y-50138393D01*
X68444890Y-50155134D01*
X68472339Y-50177661D01*
X68494866Y-50205110D01*
X68511607Y-50236431D01*
X68521915Y-50270409D01*
X68526000Y-50311890D01*
X68526000Y-50913110D01*
X68521915Y-50954591D01*
X68511607Y-50988569D01*
X68494866Y-51019890D01*
X68472339Y-51047339D01*
X68444890Y-51069866D01*
X68413569Y-51086607D01*
X68379591Y-51096915D01*
X68338110Y-51101000D01*
X67661890Y-51101000D01*
X67620409Y-51096915D01*
X67586431Y-51086607D01*
X67555110Y-51069866D01*
X67527661Y-51047339D01*
X67505134Y-51019890D01*
X67488393Y-50988569D01*
X67478085Y-50954591D01*
X67474000Y-50913110D01*
X67474000Y-50311890D01*
X67478085Y-50270409D01*
X67488393Y-50236431D01*
X67505134Y-50205110D01*
X67527661Y-50177661D01*
X67555110Y-50155134D01*
X67586431Y-50138393D01*
X67620409Y-50128085D01*
X67661890Y-50124000D01*
X68338110Y-50124000D01*
X68379591Y-50128085D01*
G37*
G36*
X69979591Y-50128085D02*
G01*
X70013569Y-50138393D01*
X70044890Y-50155134D01*
X70072339Y-50177661D01*
X70094866Y-50205110D01*
X70111607Y-50236431D01*
X70121915Y-50270409D01*
X70126000Y-50311890D01*
X70126000Y-50913110D01*
X70121915Y-50954591D01*
X70111607Y-50988569D01*
X70094866Y-51019890D01*
X70072339Y-51047339D01*
X70044890Y-51069866D01*
X70013569Y-51086607D01*
X69979591Y-51096915D01*
X69938110Y-51101000D01*
X69261890Y-51101000D01*
X69220409Y-51096915D01*
X69186431Y-51086607D01*
X69155110Y-51069866D01*
X69127661Y-51047339D01*
X69105134Y-51019890D01*
X69088393Y-50988569D01*
X69078085Y-50954591D01*
X69074000Y-50913110D01*
X69074000Y-50311890D01*
X69078085Y-50270409D01*
X69088393Y-50236431D01*
X69105134Y-50205110D01*
X69127661Y-50177661D01*
X69155110Y-50155134D01*
X69186431Y-50138393D01*
X69220409Y-50128085D01*
X69261890Y-50124000D01*
X69938110Y-50124000D01*
X69979591Y-50128085D01*
G37*
G36*
X35654591Y-49627085D02*
G01*
X35688569Y-49637393D01*
X35719890Y-49654134D01*
X35747339Y-49676661D01*
X35769866Y-49704110D01*
X35786607Y-49735431D01*
X35796915Y-49769409D01*
X35801000Y-49810890D01*
X35801000Y-50487110D01*
X35796915Y-50528591D01*
X35786607Y-50562569D01*
X35769866Y-50593890D01*
X35747339Y-50621339D01*
X35719890Y-50643866D01*
X35688569Y-50660607D01*
X35654591Y-50670915D01*
X35613110Y-50675000D01*
X35011890Y-50675000D01*
X34970409Y-50670915D01*
X34936431Y-50660607D01*
X34905110Y-50643866D01*
X34877661Y-50621339D01*
X34855134Y-50593890D01*
X34838393Y-50562569D01*
X34828085Y-50528591D01*
X34824000Y-50487110D01*
X34824000Y-49810890D01*
X34828085Y-49769409D01*
X34838393Y-49735431D01*
X34855134Y-49704110D01*
X34877661Y-49676661D01*
X34905110Y-49654134D01*
X34936431Y-49637393D01*
X34970409Y-49627085D01*
X35011890Y-49623000D01*
X35613110Y-49623000D01*
X35654591Y-49627085D01*
G37*
G36*
X37229591Y-49627085D02*
G01*
X37263569Y-49637393D01*
X37294890Y-49654134D01*
X37322339Y-49676661D01*
X37344866Y-49704110D01*
X37361607Y-49735431D01*
X37371915Y-49769409D01*
X37376000Y-49810890D01*
X37376000Y-50487110D01*
X37371915Y-50528591D01*
X37361607Y-50562569D01*
X37344866Y-50593890D01*
X37322339Y-50621339D01*
X37294890Y-50643866D01*
X37263569Y-50660607D01*
X37229591Y-50670915D01*
X37188110Y-50675000D01*
X36586890Y-50675000D01*
X36545409Y-50670915D01*
X36511431Y-50660607D01*
X36480110Y-50643866D01*
X36452661Y-50621339D01*
X36430134Y-50593890D01*
X36413393Y-50562569D01*
X36403085Y-50528591D01*
X36399000Y-50487110D01*
X36399000Y-49810890D01*
X36403085Y-49769409D01*
X36413393Y-49735431D01*
X36430134Y-49704110D01*
X36452661Y-49676661D01*
X36480110Y-49654134D01*
X36511431Y-49637393D01*
X36545409Y-49627085D01*
X36586890Y-49623000D01*
X37188110Y-49623000D01*
X37229591Y-49627085D01*
G37*
G36*
X39614000Y-50510000D02*
G01*
X37962000Y-50510000D01*
X37962000Y-49808000D01*
X39614000Y-49808000D01*
X39614000Y-50510000D01*
G37*
G36*
X45014000Y-50510000D02*
G01*
X43362000Y-50510000D01*
X43362000Y-49808000D01*
X45014000Y-49808000D01*
X45014000Y-50510000D01*
G37*
G36*
X55479591Y-48928085D02*
G01*
X55513569Y-48938393D01*
X55544890Y-48955134D01*
X55572339Y-48977661D01*
X55594866Y-49005110D01*
X55611607Y-49036431D01*
X55621915Y-49070409D01*
X55626000Y-49111890D01*
X55626000Y-49713110D01*
X55621915Y-49754591D01*
X55611607Y-49788569D01*
X55594866Y-49819890D01*
X55572339Y-49847339D01*
X55544890Y-49869866D01*
X55513569Y-49886607D01*
X55479591Y-49896915D01*
X55438110Y-49901000D01*
X54761890Y-49901000D01*
X54720409Y-49896915D01*
X54686431Y-49886607D01*
X54655110Y-49869866D01*
X54627661Y-49847339D01*
X54605134Y-49819890D01*
X54588393Y-49788569D01*
X54578085Y-49754591D01*
X54574000Y-49713110D01*
X54574000Y-49111890D01*
X54578085Y-49070409D01*
X54588393Y-49036431D01*
X54605134Y-49005110D01*
X54627661Y-48977661D01*
X54655110Y-48955134D01*
X54686431Y-48938393D01*
X54720409Y-48928085D01*
X54761890Y-48924000D01*
X55438110Y-48924000D01*
X55479591Y-48928085D01*
G37*
G36*
X42839000Y-49855000D02*
G01*
X40137000Y-49855000D01*
X40137000Y-46653000D01*
X42839000Y-46653000D01*
X42839000Y-49855000D01*
G37*
G36*
X39614000Y-49240000D02*
G01*
X37962000Y-49240000D01*
X37962000Y-48538000D01*
X39614000Y-48538000D01*
X39614000Y-49240000D01*
G37*
G36*
X45014000Y-49240000D02*
G01*
X43362000Y-49240000D01*
X43362000Y-48538000D01*
X45014000Y-48538000D01*
X45014000Y-49240000D01*
G37*
G36*
X37229591Y-48078085D02*
G01*
X37263569Y-48088393D01*
X37294890Y-48105134D01*
X37322339Y-48127661D01*
X37344866Y-48155110D01*
X37361607Y-48186431D01*
X37371915Y-48220409D01*
X37376000Y-48261890D01*
X37376000Y-48938110D01*
X37371915Y-48979591D01*
X37361607Y-49013569D01*
X37344866Y-49044890D01*
X37322339Y-49072339D01*
X37294890Y-49094866D01*
X37263569Y-49111607D01*
X37229591Y-49121915D01*
X37188110Y-49126000D01*
X36586890Y-49126000D01*
X36545409Y-49121915D01*
X36511431Y-49111607D01*
X36480110Y-49094866D01*
X36452661Y-49072339D01*
X36430134Y-49044890D01*
X36413393Y-49013569D01*
X36403085Y-48979591D01*
X36399000Y-48938110D01*
X36399000Y-48261890D01*
X36403085Y-48220409D01*
X36413393Y-48186431D01*
X36430134Y-48155110D01*
X36452661Y-48127661D01*
X36480110Y-48105134D01*
X36511431Y-48088393D01*
X36545409Y-48078085D01*
X36586890Y-48074000D01*
X37188110Y-48074000D01*
X37229591Y-48078085D01*
G37*
G36*
X35654591Y-48078085D02*
G01*
X35688569Y-48088393D01*
X35719890Y-48105134D01*
X35747339Y-48127661D01*
X35769866Y-48155110D01*
X35786607Y-48186431D01*
X35796915Y-48220409D01*
X35801000Y-48261890D01*
X35801000Y-48938110D01*
X35796915Y-48979591D01*
X35786607Y-49013569D01*
X35769866Y-49044890D01*
X35747339Y-49072339D01*
X35719890Y-49094866D01*
X35688569Y-49111607D01*
X35654591Y-49121915D01*
X35613110Y-49126000D01*
X35011890Y-49126000D01*
X34970409Y-49121915D01*
X34936431Y-49111607D01*
X34905110Y-49094866D01*
X34877661Y-49072339D01*
X34855134Y-49044890D01*
X34838393Y-49013569D01*
X34828085Y-48979591D01*
X34824000Y-48938110D01*
X34824000Y-48261890D01*
X34828085Y-48220409D01*
X34838393Y-48186431D01*
X34855134Y-48155110D01*
X34877661Y-48127661D01*
X34905110Y-48105134D01*
X34936431Y-48088393D01*
X34970409Y-48078085D01*
X35011890Y-48074000D01*
X35613110Y-48074000D01*
X35654591Y-48078085D01*
G37*
G36*
X68379591Y-48103085D02*
G01*
X68413569Y-48113393D01*
X68444890Y-48130134D01*
X68472339Y-48152661D01*
X68494866Y-48180110D01*
X68511607Y-48211431D01*
X68521915Y-48245409D01*
X68526000Y-48286890D01*
X68526000Y-48888110D01*
X68521915Y-48929591D01*
X68511607Y-48963569D01*
X68494866Y-48994890D01*
X68472339Y-49022339D01*
X68444890Y-49044866D01*
X68413569Y-49061607D01*
X68379591Y-49071915D01*
X68338110Y-49076000D01*
X67661890Y-49076000D01*
X67620409Y-49071915D01*
X67586431Y-49061607D01*
X67555110Y-49044866D01*
X67527661Y-49022339D01*
X67505134Y-48994890D01*
X67488393Y-48963569D01*
X67478085Y-48929591D01*
X67474000Y-48888110D01*
X67474000Y-48286890D01*
X67478085Y-48245409D01*
X67488393Y-48211431D01*
X67505134Y-48180110D01*
X67527661Y-48152661D01*
X67555110Y-48130134D01*
X67586431Y-48113393D01*
X67620409Y-48103085D01*
X67661890Y-48099000D01*
X68338110Y-48099000D01*
X68379591Y-48103085D01*
G37*
G36*
X73338410Y-48055525D02*
G01*
X73423426Y-48081314D01*
X73501775Y-48123193D01*
X73570449Y-48179551D01*
X73626807Y-48248225D01*
X73668686Y-48326574D01*
X73694475Y-48411590D01*
X73703182Y-48500000D01*
X73694475Y-48588410D01*
X73668686Y-48673426D01*
X73626807Y-48751775D01*
X73570449Y-48820449D01*
X73501775Y-48876807D01*
X73423426Y-48918686D01*
X73338410Y-48944475D01*
X73272158Y-48951000D01*
X72727842Y-48951000D01*
X72661590Y-48944475D01*
X72576574Y-48918686D01*
X72498225Y-48876807D01*
X72429551Y-48820449D01*
X72373193Y-48751775D01*
X72331314Y-48673426D01*
X72305525Y-48588410D01*
X72296818Y-48500000D01*
X72305525Y-48411590D01*
X72331314Y-48326574D01*
X72373193Y-48248225D01*
X72429551Y-48179551D01*
X72498225Y-48123193D01*
X72576574Y-48081314D01*
X72661590Y-48055525D01*
X72727842Y-48049000D01*
X73272158Y-48049000D01*
X73338410Y-48055525D01*
G37*
G36*
X50218604Y-46678347D02*
G01*
X50255144Y-46689432D01*
X50288821Y-46707433D01*
X50318341Y-46731659D01*
X50342567Y-46761179D01*
X50360568Y-46794856D01*
X50371653Y-46831396D01*
X50376000Y-46875538D01*
X50376000Y-48324462D01*
X50371653Y-48368604D01*
X50360568Y-48405144D01*
X50342567Y-48438821D01*
X50318341Y-48468341D01*
X50288821Y-48492567D01*
X50255144Y-48510568D01*
X50218604Y-48521653D01*
X50174462Y-48526000D01*
X49225538Y-48526000D01*
X49181396Y-48521653D01*
X49144856Y-48510568D01*
X49111179Y-48492567D01*
X49081659Y-48468341D01*
X49057433Y-48438821D01*
X49039432Y-48405144D01*
X49028347Y-48368604D01*
X49024000Y-48324462D01*
X49024000Y-46875538D01*
X49028347Y-46831396D01*
X49039432Y-46794856D01*
X49057433Y-46761179D01*
X49081659Y-46731659D01*
X49111179Y-46707433D01*
X49144856Y-46689432D01*
X49181396Y-46678347D01*
X49225538Y-46674000D01*
X50174462Y-46674000D01*
X50218604Y-46678347D01*
G37*
G36*
X47418604Y-46678347D02*
G01*
X47455144Y-46689432D01*
X47488821Y-46707433D01*
X47518341Y-46731659D01*
X47542567Y-46761179D01*
X47560568Y-46794856D01*
X47571653Y-46831396D01*
X47576000Y-46875538D01*
X47576000Y-48324462D01*
X47571653Y-48368604D01*
X47560568Y-48405144D01*
X47542567Y-48438821D01*
X47518341Y-48468341D01*
X47488821Y-48492567D01*
X47455144Y-48510568D01*
X47418604Y-48521653D01*
X47374462Y-48526000D01*
X46425538Y-48526000D01*
X46381396Y-48521653D01*
X46344856Y-48510568D01*
X46311179Y-48492567D01*
X46281659Y-48468341D01*
X46257433Y-48438821D01*
X46239432Y-48405144D01*
X46228347Y-48368604D01*
X46224000Y-48324462D01*
X46224000Y-46875538D01*
X46228347Y-46831396D01*
X46239432Y-46794856D01*
X46257433Y-46761179D01*
X46281659Y-46731659D01*
X46311179Y-46707433D01*
X46344856Y-46689432D01*
X46381396Y-46678347D01*
X46425538Y-46674000D01*
X47374462Y-46674000D01*
X47418604Y-46678347D01*
G37*
G36*
X55479591Y-47203085D02*
G01*
X55513569Y-47213393D01*
X55544890Y-47230134D01*
X55572339Y-47252661D01*
X55594866Y-47280110D01*
X55611607Y-47311431D01*
X55621915Y-47345409D01*
X55626000Y-47386890D01*
X55626000Y-47988110D01*
X55621915Y-48029591D01*
X55611607Y-48063569D01*
X55594866Y-48094890D01*
X55572339Y-48122339D01*
X55544890Y-48144866D01*
X55513569Y-48161607D01*
X55479591Y-48171915D01*
X55438110Y-48176000D01*
X54761890Y-48176000D01*
X54720409Y-48171915D01*
X54686431Y-48161607D01*
X54655110Y-48144866D01*
X54627661Y-48122339D01*
X54605134Y-48094890D01*
X54588393Y-48063569D01*
X54578085Y-48029591D01*
X54574000Y-47988110D01*
X54574000Y-47386890D01*
X54578085Y-47345409D01*
X54588393Y-47311431D01*
X54605134Y-47280110D01*
X54627661Y-47252661D01*
X54655110Y-47230134D01*
X54686431Y-47213393D01*
X54720409Y-47203085D01*
X54761890Y-47199000D01*
X55438110Y-47199000D01*
X55479591Y-47203085D01*
G37*
G36*
X39614000Y-47970000D02*
G01*
X37962000Y-47970000D01*
X37962000Y-47268000D01*
X39614000Y-47268000D01*
X39614000Y-47970000D01*
G37*
G36*
X45014000Y-47970000D02*
G01*
X43362000Y-47970000D01*
X43362000Y-47268000D01*
X45014000Y-47268000D01*
X45014000Y-47970000D01*
G37*
G36*
X32801000Y-47780000D02*
G01*
X29199000Y-47780000D01*
X29199000Y-44728000D01*
X32801000Y-44728000D01*
X32801000Y-47780000D01*
G37*
G36*
X73338410Y-46805525D02*
G01*
X73423426Y-46831314D01*
X73501775Y-46873193D01*
X73570449Y-46929551D01*
X73626807Y-46998225D01*
X73668686Y-47076574D01*
X73694475Y-47161590D01*
X73703182Y-47250000D01*
X73694475Y-47338410D01*
X73668686Y-47423426D01*
X73626807Y-47501775D01*
X73570449Y-47570449D01*
X73501775Y-47626807D01*
X73423426Y-47668686D01*
X73338410Y-47694475D01*
X73272158Y-47701000D01*
X72727842Y-47701000D01*
X72661590Y-47694475D01*
X72576574Y-47668686D01*
X72498225Y-47626807D01*
X72429551Y-47570449D01*
X72373193Y-47501775D01*
X72331314Y-47423426D01*
X72305525Y-47338410D01*
X72296818Y-47250000D01*
X72305525Y-47161590D01*
X72331314Y-47076574D01*
X72373193Y-46998225D01*
X72429551Y-46929551D01*
X72498225Y-46873193D01*
X72576574Y-46831314D01*
X72661590Y-46805525D01*
X72727842Y-46799000D01*
X73272158Y-46799000D01*
X73338410Y-46805525D01*
G37*
G36*
X68379591Y-46528085D02*
G01*
X68413569Y-46538393D01*
X68444890Y-46555134D01*
X68472339Y-46577661D01*
X68494866Y-46605110D01*
X68511607Y-46636431D01*
X68521915Y-46670409D01*
X68526000Y-46711890D01*
X68526000Y-47313110D01*
X68521915Y-47354591D01*
X68511607Y-47388569D01*
X68494866Y-47419890D01*
X68472339Y-47447339D01*
X68444890Y-47469866D01*
X68413569Y-47486607D01*
X68379591Y-47496915D01*
X68338110Y-47501000D01*
X67661890Y-47501000D01*
X67620409Y-47496915D01*
X67586431Y-47486607D01*
X67555110Y-47469866D01*
X67527661Y-47447339D01*
X67505134Y-47419890D01*
X67488393Y-47388569D01*
X67478085Y-47354591D01*
X67474000Y-47313110D01*
X67474000Y-46711890D01*
X67478085Y-46670409D01*
X67488393Y-46636431D01*
X67505134Y-46605110D01*
X67527661Y-46577661D01*
X67555110Y-46555134D01*
X67586431Y-46538393D01*
X67620409Y-46528085D01*
X67661890Y-46524000D01*
X68338110Y-46524000D01*
X68379591Y-46528085D01*
G37*
G36*
X35654591Y-45817085D02*
G01*
X35688569Y-45827393D01*
X35719890Y-45844134D01*
X35747339Y-45866661D01*
X35769866Y-45894110D01*
X35786607Y-45925431D01*
X35796915Y-45959409D01*
X35801000Y-46000890D01*
X35801000Y-46677110D01*
X35796915Y-46718591D01*
X35786607Y-46752569D01*
X35769866Y-46783890D01*
X35747339Y-46811339D01*
X35719890Y-46833866D01*
X35688569Y-46850607D01*
X35654591Y-46860915D01*
X35613110Y-46865000D01*
X35011890Y-46865000D01*
X34970409Y-46860915D01*
X34936431Y-46850607D01*
X34905110Y-46833866D01*
X34877661Y-46811339D01*
X34855134Y-46783890D01*
X34838393Y-46752569D01*
X34828085Y-46718591D01*
X34824000Y-46677110D01*
X34824000Y-46000890D01*
X34828085Y-45959409D01*
X34838393Y-45925431D01*
X34855134Y-45894110D01*
X34877661Y-45866661D01*
X34905110Y-45844134D01*
X34936431Y-45827393D01*
X34970409Y-45817085D01*
X35011890Y-45813000D01*
X35613110Y-45813000D01*
X35654591Y-45817085D01*
G37*
G36*
X37229591Y-45817085D02*
G01*
X37263569Y-45827393D01*
X37294890Y-45844134D01*
X37322339Y-45866661D01*
X37344866Y-45894110D01*
X37361607Y-45925431D01*
X37371915Y-45959409D01*
X37376000Y-46000890D01*
X37376000Y-46677110D01*
X37371915Y-46718591D01*
X37361607Y-46752569D01*
X37344866Y-46783890D01*
X37322339Y-46811339D01*
X37294890Y-46833866D01*
X37263569Y-46850607D01*
X37229591Y-46860915D01*
X37188110Y-46865000D01*
X36586890Y-46865000D01*
X36545409Y-46860915D01*
X36511431Y-46850607D01*
X36480110Y-46833866D01*
X36452661Y-46811339D01*
X36430134Y-46783890D01*
X36413393Y-46752569D01*
X36403085Y-46718591D01*
X36399000Y-46677110D01*
X36399000Y-46000890D01*
X36403085Y-45959409D01*
X36413393Y-45925431D01*
X36430134Y-45894110D01*
X36452661Y-45866661D01*
X36480110Y-45844134D01*
X36511431Y-45827393D01*
X36545409Y-45817085D01*
X36586890Y-45813000D01*
X37188110Y-45813000D01*
X37229591Y-45817085D01*
G37*
G36*
X45014000Y-46700000D02*
G01*
X43362000Y-46700000D01*
X43362000Y-45998000D01*
X45014000Y-45998000D01*
X45014000Y-46700000D01*
G37*
G36*
X39614000Y-46700000D02*
G01*
X37962000Y-46700000D01*
X37962000Y-45998000D01*
X39614000Y-45998000D01*
X39614000Y-46700000D01*
G37*
G36*
X55479591Y-45628085D02*
G01*
X55513569Y-45638393D01*
X55544890Y-45655134D01*
X55572339Y-45677661D01*
X55594866Y-45705110D01*
X55611607Y-45736431D01*
X55621915Y-45770409D01*
X55626000Y-45811890D01*
X55626000Y-46413110D01*
X55621915Y-46454591D01*
X55611607Y-46488569D01*
X55594866Y-46519890D01*
X55572339Y-46547339D01*
X55544890Y-46569866D01*
X55513569Y-46586607D01*
X55479591Y-46596915D01*
X55438110Y-46601000D01*
X54761890Y-46601000D01*
X54720409Y-46596915D01*
X54686431Y-46586607D01*
X54655110Y-46569866D01*
X54627661Y-46547339D01*
X54605134Y-46519890D01*
X54588393Y-46488569D01*
X54578085Y-46454591D01*
X54574000Y-46413110D01*
X54574000Y-45811890D01*
X54578085Y-45770409D01*
X54588393Y-45736431D01*
X54605134Y-45705110D01*
X54627661Y-45677661D01*
X54655110Y-45655134D01*
X54686431Y-45638393D01*
X54720409Y-45628085D01*
X54761890Y-45624000D01*
X55438110Y-45624000D01*
X55479591Y-45628085D01*
G37*
G36*
X73569683Y-45552725D02*
G01*
X73600143Y-45561966D01*
X73628223Y-45576974D01*
X73652831Y-45597169D01*
X73673026Y-45621777D01*
X73688034Y-45649857D01*
X73697275Y-45680317D01*
X73701000Y-45718140D01*
X73701000Y-46281860D01*
X73697275Y-46319683D01*
X73688034Y-46350143D01*
X73673026Y-46378223D01*
X73652831Y-46402831D01*
X73628223Y-46423026D01*
X73600143Y-46438034D01*
X73569683Y-46447275D01*
X73531860Y-46451000D01*
X72468140Y-46451000D01*
X72430317Y-46447275D01*
X72399857Y-46438034D01*
X72371777Y-46423026D01*
X72347169Y-46402831D01*
X72326974Y-46378223D01*
X72311966Y-46350143D01*
X72302725Y-46319683D01*
X72299000Y-46281860D01*
X72299000Y-45718140D01*
X72302725Y-45680317D01*
X72311966Y-45649857D01*
X72326974Y-45621777D01*
X72347169Y-45597169D01*
X72371777Y-45576974D01*
X72399857Y-45561966D01*
X72430317Y-45552725D01*
X72468140Y-45549000D01*
X73531860Y-45549000D01*
X73569683Y-45552725D01*
G37*
G36*
X64626000Y-44801000D02*
G01*
X58374000Y-44801000D01*
X58374000Y-43099000D01*
X64626000Y-43099000D01*
X64626000Y-44801000D01*
G37*
G36*
X45189000Y-42955000D02*
G01*
X42587000Y-42955000D01*
X42587000Y-39553000D01*
X45189000Y-39553000D01*
X45189000Y-42955000D01*
G37*
G36*
X38389000Y-42955000D02*
G01*
X35787000Y-42955000D01*
X35787000Y-39553000D01*
X38389000Y-39553000D01*
X38389000Y-42955000D01*
G37*
G36*
X32801000Y-42330000D02*
G01*
X29199000Y-42330000D01*
X29199000Y-39278000D01*
X32801000Y-39278000D01*
X32801000Y-42330000D01*
G37*
G36*
X63029591Y-40378085D02*
G01*
X63063569Y-40388393D01*
X63094890Y-40405134D01*
X63122339Y-40427661D01*
X63144866Y-40455110D01*
X63161607Y-40486431D01*
X63171915Y-40520409D01*
X63176000Y-40561890D01*
X63176000Y-41238110D01*
X63171915Y-41279591D01*
X63161607Y-41313569D01*
X63144866Y-41344890D01*
X63122339Y-41372339D01*
X63094890Y-41394866D01*
X63063569Y-41411607D01*
X63029591Y-41421915D01*
X62988110Y-41426000D01*
X62386890Y-41426000D01*
X62345409Y-41421915D01*
X62311431Y-41411607D01*
X62280110Y-41394866D01*
X62252661Y-41372339D01*
X62230134Y-41344890D01*
X62213393Y-41313569D01*
X62203085Y-41279591D01*
X62199000Y-41238110D01*
X62199000Y-40561890D01*
X62203085Y-40520409D01*
X62213393Y-40486431D01*
X62230134Y-40455110D01*
X62252661Y-40427661D01*
X62280110Y-40405134D01*
X62311431Y-40388393D01*
X62345409Y-40378085D01*
X62386890Y-40374000D01*
X62988110Y-40374000D01*
X63029591Y-40378085D01*
G37*
G36*
X61454591Y-40378085D02*
G01*
X61488569Y-40388393D01*
X61519890Y-40405134D01*
X61547339Y-40427661D01*
X61569866Y-40455110D01*
X61586607Y-40486431D01*
X61596915Y-40520409D01*
X61601000Y-40561890D01*
X61601000Y-41238110D01*
X61596915Y-41279591D01*
X61586607Y-41313569D01*
X61569866Y-41344890D01*
X61547339Y-41372339D01*
X61519890Y-41394866D01*
X61488569Y-41411607D01*
X61454591Y-41421915D01*
X61413110Y-41426000D01*
X60811890Y-41426000D01*
X60770409Y-41421915D01*
X60736431Y-41411607D01*
X60705110Y-41394866D01*
X60677661Y-41372339D01*
X60655134Y-41344890D01*
X60638393Y-41313569D01*
X60628085Y-41279591D01*
X60624000Y-41238110D01*
X60624000Y-40561890D01*
X60628085Y-40520409D01*
X60638393Y-40486431D01*
X60655134Y-40455110D01*
X60677661Y-40427661D01*
X60705110Y-40405134D01*
X60736431Y-40388393D01*
X60770409Y-40378085D01*
X60811890Y-40374000D01*
X61413110Y-40374000D01*
X61454591Y-40378085D01*
G37*
G36*
X54079591Y-40303085D02*
G01*
X54113569Y-40313393D01*
X54144890Y-40330134D01*
X54172339Y-40352661D01*
X54194866Y-40380110D01*
X54211607Y-40411431D01*
X54221915Y-40445409D01*
X54226000Y-40486890D01*
X54226000Y-41088110D01*
X54221915Y-41129591D01*
X54211607Y-41163569D01*
X54194866Y-41194890D01*
X54172339Y-41222339D01*
X54144890Y-41244866D01*
X54113569Y-41261607D01*
X54079591Y-41271915D01*
X54038110Y-41276000D01*
X53361890Y-41276000D01*
X53320409Y-41271915D01*
X53286431Y-41261607D01*
X53255110Y-41244866D01*
X53227661Y-41222339D01*
X53205134Y-41194890D01*
X53188393Y-41163569D01*
X53178085Y-41129591D01*
X53174000Y-41088110D01*
X53174000Y-40486890D01*
X53178085Y-40445409D01*
X53188393Y-40411431D01*
X53205134Y-40380110D01*
X53227661Y-40352661D01*
X53255110Y-40330134D01*
X53286431Y-40313393D01*
X53320409Y-40303085D01*
X53361890Y-40299000D01*
X54038110Y-40299000D01*
X54079591Y-40303085D01*
G37*
G36*
X50779591Y-40303085D02*
G01*
X50813569Y-40313393D01*
X50844890Y-40330134D01*
X50872339Y-40352661D01*
X50894866Y-40380110D01*
X50911607Y-40411431D01*
X50921915Y-40445409D01*
X50926000Y-40486890D01*
X50926000Y-41088110D01*
X50921915Y-41129591D01*
X50911607Y-41163569D01*
X50894866Y-41194890D01*
X50872339Y-41222339D01*
X50844890Y-41244866D01*
X50813569Y-41261607D01*
X50779591Y-41271915D01*
X50738110Y-41276000D01*
X50061890Y-41276000D01*
X50020409Y-41271915D01*
X49986431Y-41261607D01*
X49955110Y-41244866D01*
X49927661Y-41222339D01*
X49905134Y-41194890D01*
X49888393Y-41163569D01*
X49878085Y-41129591D01*
X49874000Y-41088110D01*
X49874000Y-40486890D01*
X49878085Y-40445409D01*
X49888393Y-40411431D01*
X49905134Y-40380110D01*
X49927661Y-40352661D01*
X49955110Y-40330134D01*
X49986431Y-40313393D01*
X50020409Y-40303085D01*
X50061890Y-40299000D01*
X50738110Y-40299000D01*
X50779591Y-40303085D01*
G37*
G36*
X52413591Y-40303085D02*
G01*
X52447569Y-40313393D01*
X52478890Y-40330134D01*
X52506339Y-40352661D01*
X52528866Y-40380110D01*
X52545607Y-40411431D01*
X52555915Y-40445409D01*
X52560000Y-40486890D01*
X52560000Y-41088110D01*
X52555915Y-41129591D01*
X52545607Y-41163569D01*
X52528866Y-41194890D01*
X52506339Y-41222339D01*
X52478890Y-41244866D01*
X52447569Y-41261607D01*
X52413591Y-41271915D01*
X52372110Y-41276000D01*
X51695890Y-41276000D01*
X51654409Y-41271915D01*
X51620431Y-41261607D01*
X51589110Y-41244866D01*
X51561661Y-41222339D01*
X51539134Y-41194890D01*
X51522393Y-41163569D01*
X51512085Y-41129591D01*
X51508000Y-41088110D01*
X51508000Y-40486890D01*
X51512085Y-40445409D01*
X51522393Y-40411431D01*
X51539134Y-40380110D01*
X51561661Y-40352661D01*
X51589110Y-40330134D01*
X51620431Y-40313393D01*
X51654409Y-40303085D01*
X51695890Y-40299000D01*
X52372110Y-40299000D01*
X52413591Y-40303085D01*
G37*
G36*
X59351000Y-40051000D02*
G01*
X58349000Y-40051000D01*
X58349000Y-38749000D01*
X59351000Y-38749000D01*
X59351000Y-40051000D01*
G37*
G36*
X56051000Y-40051000D02*
G01*
X55049000Y-40051000D01*
X55049000Y-38749000D01*
X56051000Y-38749000D01*
X56051000Y-40051000D01*
G37*
G36*
X63029591Y-38678085D02*
G01*
X63063569Y-38688393D01*
X63094890Y-38705134D01*
X63122339Y-38727661D01*
X63144866Y-38755110D01*
X63161607Y-38786431D01*
X63171915Y-38820409D01*
X63176000Y-38861890D01*
X63176000Y-39538110D01*
X63171915Y-39579591D01*
X63161607Y-39613569D01*
X63144866Y-39644890D01*
X63122339Y-39672339D01*
X63094890Y-39694866D01*
X63063569Y-39711607D01*
X63029591Y-39721915D01*
X62988110Y-39726000D01*
X62386890Y-39726000D01*
X62345409Y-39721915D01*
X62311431Y-39711607D01*
X62280110Y-39694866D01*
X62252661Y-39672339D01*
X62230134Y-39644890D01*
X62213393Y-39613569D01*
X62203085Y-39579591D01*
X62199000Y-39538110D01*
X62199000Y-38861890D01*
X62203085Y-38820409D01*
X62213393Y-38786431D01*
X62230134Y-38755110D01*
X62252661Y-38727661D01*
X62280110Y-38705134D01*
X62311431Y-38688393D01*
X62345409Y-38678085D01*
X62386890Y-38674000D01*
X62988110Y-38674000D01*
X63029591Y-38678085D01*
G37*
G36*
X61454591Y-38678085D02*
G01*
X61488569Y-38688393D01*
X61519890Y-38705134D01*
X61547339Y-38727661D01*
X61569866Y-38755110D01*
X61586607Y-38786431D01*
X61596915Y-38820409D01*
X61601000Y-38861890D01*
X61601000Y-39538110D01*
X61596915Y-39579591D01*
X61586607Y-39613569D01*
X61569866Y-39644890D01*
X61547339Y-39672339D01*
X61519890Y-39694866D01*
X61488569Y-39711607D01*
X61454591Y-39721915D01*
X61413110Y-39726000D01*
X60811890Y-39726000D01*
X60770409Y-39721915D01*
X60736431Y-39711607D01*
X60705110Y-39694866D01*
X60677661Y-39672339D01*
X60655134Y-39644890D01*
X60638393Y-39613569D01*
X60628085Y-39579591D01*
X60624000Y-39538110D01*
X60624000Y-38861890D01*
X60628085Y-38820409D01*
X60638393Y-38786431D01*
X60655134Y-38755110D01*
X60677661Y-38727661D01*
X60705110Y-38705134D01*
X60736431Y-38688393D01*
X60770409Y-38678085D01*
X60811890Y-38674000D01*
X61413110Y-38674000D01*
X61454591Y-38678085D01*
G37*
G36*
X52413591Y-38728085D02*
G01*
X52447569Y-38738393D01*
X52478890Y-38755134D01*
X52506339Y-38777661D01*
X52528866Y-38805110D01*
X52545607Y-38836431D01*
X52555915Y-38870409D01*
X52560000Y-38911890D01*
X52560000Y-39513110D01*
X52555915Y-39554591D01*
X52545607Y-39588569D01*
X52528866Y-39619890D01*
X52506339Y-39647339D01*
X52478890Y-39669866D01*
X52447569Y-39686607D01*
X52413591Y-39696915D01*
X52372110Y-39701000D01*
X51695890Y-39701000D01*
X51654409Y-39696915D01*
X51620431Y-39686607D01*
X51589110Y-39669866D01*
X51561661Y-39647339D01*
X51539134Y-39619890D01*
X51522393Y-39588569D01*
X51512085Y-39554591D01*
X51508000Y-39513110D01*
X51508000Y-38911890D01*
X51512085Y-38870409D01*
X51522393Y-38836431D01*
X51539134Y-38805110D01*
X51561661Y-38777661D01*
X51589110Y-38755134D01*
X51620431Y-38738393D01*
X51654409Y-38728085D01*
X51695890Y-38724000D01*
X52372110Y-38724000D01*
X52413591Y-38728085D01*
G37*
G36*
X54079591Y-38728085D02*
G01*
X54113569Y-38738393D01*
X54144890Y-38755134D01*
X54172339Y-38777661D01*
X54194866Y-38805110D01*
X54211607Y-38836431D01*
X54221915Y-38870409D01*
X54226000Y-38911890D01*
X54226000Y-39513110D01*
X54221915Y-39554591D01*
X54211607Y-39588569D01*
X54194866Y-39619890D01*
X54172339Y-39647339D01*
X54144890Y-39669866D01*
X54113569Y-39686607D01*
X54079591Y-39696915D01*
X54038110Y-39701000D01*
X53361890Y-39701000D01*
X53320409Y-39696915D01*
X53286431Y-39686607D01*
X53255110Y-39669866D01*
X53227661Y-39647339D01*
X53205134Y-39619890D01*
X53188393Y-39588569D01*
X53178085Y-39554591D01*
X53174000Y-39513110D01*
X53174000Y-38911890D01*
X53178085Y-38870409D01*
X53188393Y-38836431D01*
X53205134Y-38805110D01*
X53227661Y-38777661D01*
X53255110Y-38755134D01*
X53286431Y-38738393D01*
X53320409Y-38728085D01*
X53361890Y-38724000D01*
X54038110Y-38724000D01*
X54079591Y-38728085D01*
G37*
G36*
X50779591Y-38728085D02*
G01*
X50813569Y-38738393D01*
X50844890Y-38755134D01*
X50872339Y-38777661D01*
X50894866Y-38805110D01*
X50911607Y-38836431D01*
X50921915Y-38870409D01*
X50926000Y-38911890D01*
X50926000Y-39513110D01*
X50921915Y-39554591D01*
X50911607Y-39588569D01*
X50894866Y-39619890D01*
X50872339Y-39647339D01*
X50844890Y-39669866D01*
X50813569Y-39686607D01*
X50779591Y-39696915D01*
X50738110Y-39701000D01*
X50061890Y-39701000D01*
X50020409Y-39696915D01*
X49986431Y-39686607D01*
X49955110Y-39669866D01*
X49927661Y-39647339D01*
X49905134Y-39619890D01*
X49888393Y-39588569D01*
X49878085Y-39554591D01*
X49874000Y-39513110D01*
X49874000Y-38911890D01*
X49878085Y-38870409D01*
X49888393Y-38836431D01*
X49905134Y-38805110D01*
X49927661Y-38777661D01*
X49955110Y-38755134D01*
X49986431Y-38738393D01*
X50020409Y-38728085D01*
X50061890Y-38724000D01*
X50738110Y-38724000D01*
X50779591Y-38728085D01*
G37*
G36*
X37168604Y-35328347D02*
G01*
X37205144Y-35339432D01*
X37238821Y-35357433D01*
X37268341Y-35381659D01*
X37292567Y-35411179D01*
X37310568Y-35444856D01*
X37321653Y-35481396D01*
X37326000Y-35525538D01*
X37326000Y-36474462D01*
X37321653Y-36518604D01*
X37310568Y-36555144D01*
X37292567Y-36588821D01*
X37268341Y-36618341D01*
X37238821Y-36642567D01*
X37205144Y-36660568D01*
X37168604Y-36671653D01*
X37124462Y-36676000D01*
X35675538Y-36676000D01*
X35631396Y-36671653D01*
X35594856Y-36660568D01*
X35561179Y-36642567D01*
X35531659Y-36618341D01*
X35507433Y-36588821D01*
X35489432Y-36555144D01*
X35478347Y-36518604D01*
X35474000Y-36474462D01*
X35474000Y-35525538D01*
X35478347Y-35481396D01*
X35489432Y-35444856D01*
X35507433Y-35411179D01*
X35531659Y-35381659D01*
X35561179Y-35357433D01*
X35594856Y-35339432D01*
X35631396Y-35328347D01*
X35675538Y-35324000D01*
X37124462Y-35324000D01*
X37168604Y-35328347D01*
G37*
G36*
X39584468Y-35550565D02*
G01*
X39623138Y-35562296D01*
X39658777Y-35581346D01*
X39690017Y-35606983D01*
X39715654Y-35638223D01*
X39734704Y-35673862D01*
X39746435Y-35712532D01*
X39751000Y-35758888D01*
X39751000Y-36410112D01*
X39746435Y-36456468D01*
X39734704Y-36495138D01*
X39715654Y-36530777D01*
X39690017Y-36562017D01*
X39658777Y-36587654D01*
X39623138Y-36606704D01*
X39584468Y-36618435D01*
X39538112Y-36623000D01*
X38461888Y-36623000D01*
X38415532Y-36618435D01*
X38376862Y-36606704D01*
X38341223Y-36587654D01*
X38309983Y-36562017D01*
X38284346Y-36530777D01*
X38265296Y-36495138D01*
X38253565Y-36456468D01*
X38249000Y-36410112D01*
X38249000Y-35758888D01*
X38253565Y-35712532D01*
X38265296Y-35673862D01*
X38284346Y-35638223D01*
X38309983Y-35606983D01*
X38341223Y-35581346D01*
X38376862Y-35562296D01*
X38415532Y-35550565D01*
X38461888Y-35546000D01*
X39538112Y-35546000D01*
X39584468Y-35550565D01*
G37*
G36*
X32501000Y-36501000D02*
G01*
X31599000Y-36501000D01*
X31599000Y-35499000D01*
X32501000Y-35499000D01*
X32501000Y-36501000D01*
G37*
G36*
X34401000Y-36501000D02*
G01*
X33499000Y-36501000D01*
X33499000Y-35499000D01*
X34401000Y-35499000D01*
X34401000Y-36501000D01*
G37*
G36*
X58179591Y-34203085D02*
G01*
X58213569Y-34213393D01*
X58244890Y-34230134D01*
X58272339Y-34252661D01*
X58294866Y-34280110D01*
X58311607Y-34311431D01*
X58321915Y-34345409D01*
X58326000Y-34386890D01*
X58326000Y-34988110D01*
X58321915Y-35029591D01*
X58311607Y-35063569D01*
X58294866Y-35094890D01*
X58272339Y-35122339D01*
X58244890Y-35144866D01*
X58213569Y-35161607D01*
X58179591Y-35171915D01*
X58138110Y-35176000D01*
X57461890Y-35176000D01*
X57420409Y-35171915D01*
X57386431Y-35161607D01*
X57355110Y-35144866D01*
X57327661Y-35122339D01*
X57305134Y-35094890D01*
X57288393Y-35063569D01*
X57278085Y-35029591D01*
X57274000Y-34988110D01*
X57274000Y-34386890D01*
X57278085Y-34345409D01*
X57288393Y-34311431D01*
X57305134Y-34280110D01*
X57327661Y-34252661D01*
X57355110Y-34230134D01*
X57386431Y-34213393D01*
X57420409Y-34203085D01*
X57461890Y-34199000D01*
X58138110Y-34199000D01*
X58179591Y-34203085D01*
G37*
G36*
X56679591Y-34203085D02*
G01*
X56713569Y-34213393D01*
X56744890Y-34230134D01*
X56772339Y-34252661D01*
X56794866Y-34280110D01*
X56811607Y-34311431D01*
X56821915Y-34345409D01*
X56826000Y-34386890D01*
X56826000Y-34988110D01*
X56821915Y-35029591D01*
X56811607Y-35063569D01*
X56794866Y-35094890D01*
X56772339Y-35122339D01*
X56744890Y-35144866D01*
X56713569Y-35161607D01*
X56679591Y-35171915D01*
X56638110Y-35176000D01*
X55961890Y-35176000D01*
X55920409Y-35171915D01*
X55886431Y-35161607D01*
X55855110Y-35144866D01*
X55827661Y-35122339D01*
X55805134Y-35094890D01*
X55788393Y-35063569D01*
X55778085Y-35029591D01*
X55774000Y-34988110D01*
X55774000Y-34386890D01*
X55778085Y-34345409D01*
X55788393Y-34311431D01*
X55805134Y-34280110D01*
X55827661Y-34252661D01*
X55855110Y-34230134D01*
X55886431Y-34213393D01*
X55920409Y-34203085D01*
X55961890Y-34199000D01*
X56638110Y-34199000D01*
X56679591Y-34203085D01*
G37*
G36*
X55179591Y-34203085D02*
G01*
X55213569Y-34213393D01*
X55244890Y-34230134D01*
X55272339Y-34252661D01*
X55294866Y-34280110D01*
X55311607Y-34311431D01*
X55321915Y-34345409D01*
X55326000Y-34386890D01*
X55326000Y-34988110D01*
X55321915Y-35029591D01*
X55311607Y-35063569D01*
X55294866Y-35094890D01*
X55272339Y-35122339D01*
X55244890Y-35144866D01*
X55213569Y-35161607D01*
X55179591Y-35171915D01*
X55138110Y-35176000D01*
X54461890Y-35176000D01*
X54420409Y-35171915D01*
X54386431Y-35161607D01*
X54355110Y-35144866D01*
X54327661Y-35122339D01*
X54305134Y-35094890D01*
X54288393Y-35063569D01*
X54278085Y-35029591D01*
X54274000Y-34988110D01*
X54274000Y-34386890D01*
X54278085Y-34345409D01*
X54288393Y-34311431D01*
X54305134Y-34280110D01*
X54327661Y-34252661D01*
X54355110Y-34230134D01*
X54386431Y-34213393D01*
X54420409Y-34203085D01*
X54461890Y-34199000D01*
X55138110Y-34199000D01*
X55179591Y-34203085D01*
G37*
G36*
X59679591Y-34203085D02*
G01*
X59713569Y-34213393D01*
X59744890Y-34230134D01*
X59772339Y-34252661D01*
X59794866Y-34280110D01*
X59811607Y-34311431D01*
X59821915Y-34345409D01*
X59826000Y-34386890D01*
X59826000Y-34988110D01*
X59821915Y-35029591D01*
X59811607Y-35063569D01*
X59794866Y-35094890D01*
X59772339Y-35122339D01*
X59744890Y-35144866D01*
X59713569Y-35161607D01*
X59679591Y-35171915D01*
X59638110Y-35176000D01*
X58961890Y-35176000D01*
X58920409Y-35171915D01*
X58886431Y-35161607D01*
X58855110Y-35144866D01*
X58827661Y-35122339D01*
X58805134Y-35094890D01*
X58788393Y-35063569D01*
X58778085Y-35029591D01*
X58774000Y-34988110D01*
X58774000Y-34386890D01*
X58778085Y-34345409D01*
X58788393Y-34311431D01*
X58805134Y-34280110D01*
X58827661Y-34252661D01*
X58855110Y-34230134D01*
X58886431Y-34213393D01*
X58920409Y-34203085D01*
X58961890Y-34199000D01*
X59638110Y-34199000D01*
X59679591Y-34203085D01*
G37*
G36*
X52179591Y-34203085D02*
G01*
X52213569Y-34213393D01*
X52244890Y-34230134D01*
X52272339Y-34252661D01*
X52294866Y-34280110D01*
X52311607Y-34311431D01*
X52321915Y-34345409D01*
X52326000Y-34386890D01*
X52326000Y-34988110D01*
X52321915Y-35029591D01*
X52311607Y-35063569D01*
X52294866Y-35094890D01*
X52272339Y-35122339D01*
X52244890Y-35144866D01*
X52213569Y-35161607D01*
X52179591Y-35171915D01*
X52138110Y-35176000D01*
X51461890Y-35176000D01*
X51420409Y-35171915D01*
X51386431Y-35161607D01*
X51355110Y-35144866D01*
X51327661Y-35122339D01*
X51305134Y-35094890D01*
X51288393Y-35063569D01*
X51278085Y-35029591D01*
X51274000Y-34988110D01*
X51274000Y-34386890D01*
X51278085Y-34345409D01*
X51288393Y-34311431D01*
X51305134Y-34280110D01*
X51327661Y-34252661D01*
X51355110Y-34230134D01*
X51386431Y-34213393D01*
X51420409Y-34203085D01*
X51461890Y-34199000D01*
X52138110Y-34199000D01*
X52179591Y-34203085D01*
G37*
G36*
X61179591Y-34203085D02*
G01*
X61213569Y-34213393D01*
X61244890Y-34230134D01*
X61272339Y-34252661D01*
X61294866Y-34280110D01*
X61311607Y-34311431D01*
X61321915Y-34345409D01*
X61326000Y-34386890D01*
X61326000Y-34988110D01*
X61321915Y-35029591D01*
X61311607Y-35063569D01*
X61294866Y-35094890D01*
X61272339Y-35122339D01*
X61244890Y-35144866D01*
X61213569Y-35161607D01*
X61179591Y-35171915D01*
X61138110Y-35176000D01*
X60461890Y-35176000D01*
X60420409Y-35171915D01*
X60386431Y-35161607D01*
X60355110Y-35144866D01*
X60327661Y-35122339D01*
X60305134Y-35094890D01*
X60288393Y-35063569D01*
X60278085Y-35029591D01*
X60274000Y-34988110D01*
X60274000Y-34386890D01*
X60278085Y-34345409D01*
X60288393Y-34311431D01*
X60305134Y-34280110D01*
X60327661Y-34252661D01*
X60355110Y-34230134D01*
X60386431Y-34213393D01*
X60420409Y-34203085D01*
X60461890Y-34199000D01*
X61138110Y-34199000D01*
X61179591Y-34203085D01*
G37*
G36*
X50679591Y-34203085D02*
G01*
X50713569Y-34213393D01*
X50744890Y-34230134D01*
X50772339Y-34252661D01*
X50794866Y-34280110D01*
X50811607Y-34311431D01*
X50821915Y-34345409D01*
X50826000Y-34386890D01*
X50826000Y-34988110D01*
X50821915Y-35029591D01*
X50811607Y-35063569D01*
X50794866Y-35094890D01*
X50772339Y-35122339D01*
X50744890Y-35144866D01*
X50713569Y-35161607D01*
X50679591Y-35171915D01*
X50638110Y-35176000D01*
X49961890Y-35176000D01*
X49920409Y-35171915D01*
X49886431Y-35161607D01*
X49855110Y-35144866D01*
X49827661Y-35122339D01*
X49805134Y-35094890D01*
X49788393Y-35063569D01*
X49778085Y-35029591D01*
X49774000Y-34988110D01*
X49774000Y-34386890D01*
X49778085Y-34345409D01*
X49788393Y-34311431D01*
X49805134Y-34280110D01*
X49827661Y-34252661D01*
X49855110Y-34230134D01*
X49886431Y-34213393D01*
X49920409Y-34203085D01*
X49961890Y-34199000D01*
X50638110Y-34199000D01*
X50679591Y-34203085D01*
G37*
G36*
X53679591Y-34203085D02*
G01*
X53713569Y-34213393D01*
X53744890Y-34230134D01*
X53772339Y-34252661D01*
X53794866Y-34280110D01*
X53811607Y-34311431D01*
X53821915Y-34345409D01*
X53826000Y-34386890D01*
X53826000Y-34988110D01*
X53821915Y-35029591D01*
X53811607Y-35063569D01*
X53794866Y-35094890D01*
X53772339Y-35122339D01*
X53744890Y-35144866D01*
X53713569Y-35161607D01*
X53679591Y-35171915D01*
X53638110Y-35176000D01*
X52961890Y-35176000D01*
X52920409Y-35171915D01*
X52886431Y-35161607D01*
X52855110Y-35144866D01*
X52827661Y-35122339D01*
X52805134Y-35094890D01*
X52788393Y-35063569D01*
X52778085Y-35029591D01*
X52774000Y-34988110D01*
X52774000Y-34386890D01*
X52778085Y-34345409D01*
X52788393Y-34311431D01*
X52805134Y-34280110D01*
X52827661Y-34252661D01*
X52855110Y-34230134D01*
X52886431Y-34213393D01*
X52920409Y-34203085D01*
X52961890Y-34199000D01*
X53638110Y-34199000D01*
X53679591Y-34203085D01*
G37*
G36*
X39584468Y-33675565D02*
G01*
X39623138Y-33687296D01*
X39658777Y-33706346D01*
X39690017Y-33731983D01*
X39715654Y-33763223D01*
X39734704Y-33798862D01*
X39746435Y-33837532D01*
X39751000Y-33883888D01*
X39751000Y-34535112D01*
X39746435Y-34581468D01*
X39734704Y-34620138D01*
X39715654Y-34655777D01*
X39690017Y-34687017D01*
X39658777Y-34712654D01*
X39623138Y-34731704D01*
X39584468Y-34743435D01*
X39538112Y-34748000D01*
X38461888Y-34748000D01*
X38415532Y-34743435D01*
X38376862Y-34731704D01*
X38341223Y-34712654D01*
X38309983Y-34687017D01*
X38284346Y-34655777D01*
X38265296Y-34620138D01*
X38253565Y-34581468D01*
X38249000Y-34535112D01*
X38249000Y-33883888D01*
X38253565Y-33837532D01*
X38265296Y-33798862D01*
X38284346Y-33763223D01*
X38309983Y-33731983D01*
X38341223Y-33706346D01*
X38376862Y-33687296D01*
X38415532Y-33675565D01*
X38461888Y-33671000D01*
X39538112Y-33671000D01*
X39584468Y-33675565D01*
G37*
G36*
X33451000Y-34501000D02*
G01*
X32549000Y-34501000D01*
X32549000Y-33499000D01*
X33451000Y-33499000D01*
X33451000Y-34501000D01*
G37*
G36*
X37168604Y-32528347D02*
G01*
X37205144Y-32539432D01*
X37238821Y-32557433D01*
X37268341Y-32581659D01*
X37292567Y-32611179D01*
X37310568Y-32644856D01*
X37321653Y-32681396D01*
X37326000Y-32725538D01*
X37326000Y-33674462D01*
X37321653Y-33718604D01*
X37310568Y-33755144D01*
X37292567Y-33788821D01*
X37268341Y-33818341D01*
X37238821Y-33842567D01*
X37205144Y-33860568D01*
X37168604Y-33871653D01*
X37124462Y-33876000D01*
X35675538Y-33876000D01*
X35631396Y-33871653D01*
X35594856Y-33860568D01*
X35561179Y-33842567D01*
X35531659Y-33818341D01*
X35507433Y-33788821D01*
X35489432Y-33755144D01*
X35478347Y-33718604D01*
X35474000Y-33674462D01*
X35474000Y-32725538D01*
X35478347Y-32681396D01*
X35489432Y-32644856D01*
X35507433Y-32611179D01*
X35531659Y-32581659D01*
X35561179Y-32557433D01*
X35594856Y-32539432D01*
X35631396Y-32528347D01*
X35675538Y-32524000D01*
X37124462Y-32524000D01*
X37168604Y-32528347D01*
G37*
G36*
X50679591Y-32628085D02*
G01*
X50713569Y-32638393D01*
X50744890Y-32655134D01*
X50772339Y-32677661D01*
X50794866Y-32705110D01*
X50811607Y-32736431D01*
X50821915Y-32770409D01*
X50826000Y-32811890D01*
X50826000Y-33413110D01*
X50821915Y-33454591D01*
X50811607Y-33488569D01*
X50794866Y-33519890D01*
X50772339Y-33547339D01*
X50744890Y-33569866D01*
X50713569Y-33586607D01*
X50679591Y-33596915D01*
X50638110Y-33601000D01*
X49961890Y-33601000D01*
X49920409Y-33596915D01*
X49886431Y-33586607D01*
X49855110Y-33569866D01*
X49827661Y-33547339D01*
X49805134Y-33519890D01*
X49788393Y-33488569D01*
X49778085Y-33454591D01*
X49774000Y-33413110D01*
X49774000Y-32811890D01*
X49778085Y-32770409D01*
X49788393Y-32736431D01*
X49805134Y-32705110D01*
X49827661Y-32677661D01*
X49855110Y-32655134D01*
X49886431Y-32638393D01*
X49920409Y-32628085D01*
X49961890Y-32624000D01*
X50638110Y-32624000D01*
X50679591Y-32628085D01*
G37*
G36*
X58179591Y-32628085D02*
G01*
X58213569Y-32638393D01*
X58244890Y-32655134D01*
X58272339Y-32677661D01*
X58294866Y-32705110D01*
X58311607Y-32736431D01*
X58321915Y-32770409D01*
X58326000Y-32811890D01*
X58326000Y-33413110D01*
X58321915Y-33454591D01*
X58311607Y-33488569D01*
X58294866Y-33519890D01*
X58272339Y-33547339D01*
X58244890Y-33569866D01*
X58213569Y-33586607D01*
X58179591Y-33596915D01*
X58138110Y-33601000D01*
X57461890Y-33601000D01*
X57420409Y-33596915D01*
X57386431Y-33586607D01*
X57355110Y-33569866D01*
X57327661Y-33547339D01*
X57305134Y-33519890D01*
X57288393Y-33488569D01*
X57278085Y-33454591D01*
X57274000Y-33413110D01*
X57274000Y-32811890D01*
X57278085Y-32770409D01*
X57288393Y-32736431D01*
X57305134Y-32705110D01*
X57327661Y-32677661D01*
X57355110Y-32655134D01*
X57386431Y-32638393D01*
X57420409Y-32628085D01*
X57461890Y-32624000D01*
X58138110Y-32624000D01*
X58179591Y-32628085D01*
G37*
G36*
X59679591Y-32628085D02*
G01*
X59713569Y-32638393D01*
X59744890Y-32655134D01*
X59772339Y-32677661D01*
X59794866Y-32705110D01*
X59811607Y-32736431D01*
X59821915Y-32770409D01*
X59826000Y-32811890D01*
X59826000Y-33413110D01*
X59821915Y-33454591D01*
X59811607Y-33488569D01*
X59794866Y-33519890D01*
X59772339Y-33547339D01*
X59744890Y-33569866D01*
X59713569Y-33586607D01*
X59679591Y-33596915D01*
X59638110Y-33601000D01*
X58961890Y-33601000D01*
X58920409Y-33596915D01*
X58886431Y-33586607D01*
X58855110Y-33569866D01*
X58827661Y-33547339D01*
X58805134Y-33519890D01*
X58788393Y-33488569D01*
X58778085Y-33454591D01*
X58774000Y-33413110D01*
X58774000Y-32811890D01*
X58778085Y-32770409D01*
X58788393Y-32736431D01*
X58805134Y-32705110D01*
X58827661Y-32677661D01*
X58855110Y-32655134D01*
X58886431Y-32638393D01*
X58920409Y-32628085D01*
X58961890Y-32624000D01*
X59638110Y-32624000D01*
X59679591Y-32628085D01*
G37*
G36*
X61179591Y-32628085D02*
G01*
X61213569Y-32638393D01*
X61244890Y-32655134D01*
X61272339Y-32677661D01*
X61294866Y-32705110D01*
X61311607Y-32736431D01*
X61321915Y-32770409D01*
X61326000Y-32811890D01*
X61326000Y-33413110D01*
X61321915Y-33454591D01*
X61311607Y-33488569D01*
X61294866Y-33519890D01*
X61272339Y-33547339D01*
X61244890Y-33569866D01*
X61213569Y-33586607D01*
X61179591Y-33596915D01*
X61138110Y-33601000D01*
X60461890Y-33601000D01*
X60420409Y-33596915D01*
X60386431Y-33586607D01*
X60355110Y-33569866D01*
X60327661Y-33547339D01*
X60305134Y-33519890D01*
X60288393Y-33488569D01*
X60278085Y-33454591D01*
X60274000Y-33413110D01*
X60274000Y-32811890D01*
X60278085Y-32770409D01*
X60288393Y-32736431D01*
X60305134Y-32705110D01*
X60327661Y-32677661D01*
X60355110Y-32655134D01*
X60386431Y-32638393D01*
X60420409Y-32628085D01*
X60461890Y-32624000D01*
X61138110Y-32624000D01*
X61179591Y-32628085D01*
G37*
G36*
X52179591Y-32628085D02*
G01*
X52213569Y-32638393D01*
X52244890Y-32655134D01*
X52272339Y-32677661D01*
X52294866Y-32705110D01*
X52311607Y-32736431D01*
X52321915Y-32770409D01*
X52326000Y-32811890D01*
X52326000Y-33413110D01*
X52321915Y-33454591D01*
X52311607Y-33488569D01*
X52294866Y-33519890D01*
X52272339Y-33547339D01*
X52244890Y-33569866D01*
X52213569Y-33586607D01*
X52179591Y-33596915D01*
X52138110Y-33601000D01*
X51461890Y-33601000D01*
X51420409Y-33596915D01*
X51386431Y-33586607D01*
X51355110Y-33569866D01*
X51327661Y-33547339D01*
X51305134Y-33519890D01*
X51288393Y-33488569D01*
X51278085Y-33454591D01*
X51274000Y-33413110D01*
X51274000Y-32811890D01*
X51278085Y-32770409D01*
X51288393Y-32736431D01*
X51305134Y-32705110D01*
X51327661Y-32677661D01*
X51355110Y-32655134D01*
X51386431Y-32638393D01*
X51420409Y-32628085D01*
X51461890Y-32624000D01*
X52138110Y-32624000D01*
X52179591Y-32628085D01*
G37*
G36*
X53679591Y-32628085D02*
G01*
X53713569Y-32638393D01*
X53744890Y-32655134D01*
X53772339Y-32677661D01*
X53794866Y-32705110D01*
X53811607Y-32736431D01*
X53821915Y-32770409D01*
X53826000Y-32811890D01*
X53826000Y-33413110D01*
X53821915Y-33454591D01*
X53811607Y-33488569D01*
X53794866Y-33519890D01*
X53772339Y-33547339D01*
X53744890Y-33569866D01*
X53713569Y-33586607D01*
X53679591Y-33596915D01*
X53638110Y-33601000D01*
X52961890Y-33601000D01*
X52920409Y-33596915D01*
X52886431Y-33586607D01*
X52855110Y-33569866D01*
X52827661Y-33547339D01*
X52805134Y-33519890D01*
X52788393Y-33488569D01*
X52778085Y-33454591D01*
X52774000Y-33413110D01*
X52774000Y-32811890D01*
X52778085Y-32770409D01*
X52788393Y-32736431D01*
X52805134Y-32705110D01*
X52827661Y-32677661D01*
X52855110Y-32655134D01*
X52886431Y-32638393D01*
X52920409Y-32628085D01*
X52961890Y-32624000D01*
X53638110Y-32624000D01*
X53679591Y-32628085D01*
G37*
G36*
X55179591Y-32628085D02*
G01*
X55213569Y-32638393D01*
X55244890Y-32655134D01*
X55272339Y-32677661D01*
X55294866Y-32705110D01*
X55311607Y-32736431D01*
X55321915Y-32770409D01*
X55326000Y-32811890D01*
X55326000Y-33413110D01*
X55321915Y-33454591D01*
X55311607Y-33488569D01*
X55294866Y-33519890D01*
X55272339Y-33547339D01*
X55244890Y-33569866D01*
X55213569Y-33586607D01*
X55179591Y-33596915D01*
X55138110Y-33601000D01*
X54461890Y-33601000D01*
X54420409Y-33596915D01*
X54386431Y-33586607D01*
X54355110Y-33569866D01*
X54327661Y-33547339D01*
X54305134Y-33519890D01*
X54288393Y-33488569D01*
X54278085Y-33454591D01*
X54274000Y-33413110D01*
X54274000Y-32811890D01*
X54278085Y-32770409D01*
X54288393Y-32736431D01*
X54305134Y-32705110D01*
X54327661Y-32677661D01*
X54355110Y-32655134D01*
X54386431Y-32638393D01*
X54420409Y-32628085D01*
X54461890Y-32624000D01*
X55138110Y-32624000D01*
X55179591Y-32628085D01*
G37*
G36*
X56679591Y-32628085D02*
G01*
X56713569Y-32638393D01*
X56744890Y-32655134D01*
X56772339Y-32677661D01*
X56794866Y-32705110D01*
X56811607Y-32736431D01*
X56821915Y-32770409D01*
X56826000Y-32811890D01*
X56826000Y-33413110D01*
X56821915Y-33454591D01*
X56811607Y-33488569D01*
X56794866Y-33519890D01*
X56772339Y-33547339D01*
X56744890Y-33569866D01*
X56713569Y-33586607D01*
X56679591Y-33596915D01*
X56638110Y-33601000D01*
X55961890Y-33601000D01*
X55920409Y-33596915D01*
X55886431Y-33586607D01*
X55855110Y-33569866D01*
X55827661Y-33547339D01*
X55805134Y-33519890D01*
X55788393Y-33488569D01*
X55778085Y-33454591D01*
X55774000Y-33413110D01*
X55774000Y-32811890D01*
X55778085Y-32770409D01*
X55788393Y-32736431D01*
X55805134Y-32705110D01*
X55827661Y-32677661D01*
X55855110Y-32655134D01*
X55886431Y-32638393D01*
X55920409Y-32628085D01*
X55961890Y-32624000D01*
X56638110Y-32624000D01*
X56679591Y-32628085D01*
G37*
G36*
X29275880Y-28759776D02*
G01*
X29656593Y-28835504D01*
X30066249Y-29005189D01*
X30434929Y-29251534D01*
X30748466Y-29565071D01*
X30994811Y-29933751D01*
X31164496Y-30343407D01*
X31251000Y-30778296D01*
X31251000Y-31221704D01*
X31164496Y-31656593D01*
X30994811Y-32066249D01*
X30748466Y-32434929D01*
X30434929Y-32748466D01*
X30066249Y-32994811D01*
X29656593Y-33164496D01*
X29275880Y-33240224D01*
X29221705Y-33251000D01*
X28778295Y-33251000D01*
X28724120Y-33240224D01*
X28343407Y-33164496D01*
X27933751Y-32994811D01*
X27565071Y-32748466D01*
X27251534Y-32434929D01*
X27005189Y-32066249D01*
X26835504Y-31656593D01*
X26749000Y-31221704D01*
X26749000Y-30778296D01*
X26835504Y-30343407D01*
X27005189Y-29933751D01*
X27251534Y-29565071D01*
X27565071Y-29251534D01*
X27933751Y-29005189D01*
X28343407Y-28835504D01*
X28724120Y-28759776D01*
X28778295Y-28749000D01*
X29221705Y-28749000D01*
X29275880Y-28759776D01*
G37*
G36*
X73275880Y-28759776D02*
G01*
X73656593Y-28835504D01*
X74066249Y-29005189D01*
X74434929Y-29251534D01*
X74748466Y-29565071D01*
X74994811Y-29933751D01*
X75164496Y-30343407D01*
X75251000Y-30778296D01*
X75251000Y-31221704D01*
X75164496Y-31656593D01*
X74994811Y-32066249D01*
X74748466Y-32434929D01*
X74434929Y-32748466D01*
X74066249Y-32994811D01*
X73656593Y-33164496D01*
X73275880Y-33240224D01*
X73221705Y-33251000D01*
X72778295Y-33251000D01*
X72724120Y-33240224D01*
X72343407Y-33164496D01*
X71933751Y-32994811D01*
X71565071Y-32748466D01*
X71251534Y-32434929D01*
X71005189Y-32066249D01*
X70835504Y-31656593D01*
X70749000Y-31221704D01*
X70749000Y-30778296D01*
X70835504Y-30343407D01*
X71005189Y-29933751D01*
X71251534Y-29565071D01*
X71565071Y-29251534D01*
X71933751Y-29005189D01*
X72343407Y-28835504D01*
X72724120Y-28759776D01*
X72778295Y-28749000D01*
X73221705Y-28749000D01*
X73275880Y-28759776D01*
G37*
G36*
X36838409Y-29805525D02*
G01*
X36923425Y-29831314D01*
X37001774Y-29873193D01*
X37070449Y-29929552D01*
X37126807Y-29998225D01*
X37168686Y-30076574D01*
X37194475Y-30161590D01*
X37201000Y-30227842D01*
X37201000Y-30772158D01*
X37194475Y-30838410D01*
X37168686Y-30923426D01*
X37126807Y-31001775D01*
X37070449Y-31070449D01*
X37001775Y-31126807D01*
X36923426Y-31168686D01*
X36838410Y-31194475D01*
X36750000Y-31203182D01*
X36661591Y-31194475D01*
X36576575Y-31168686D01*
X36498226Y-31126807D01*
X36429552Y-31070449D01*
X36373195Y-31001776D01*
X36331313Y-30923423D01*
X36305525Y-30838410D01*
X36299000Y-30772158D01*
X36299000Y-30227843D01*
X36305525Y-30161591D01*
X36331314Y-30076575D01*
X36373193Y-29998226D01*
X36429552Y-29929551D01*
X36498225Y-29873193D01*
X36576574Y-29831314D01*
X36661590Y-29805525D01*
X36750000Y-29796818D01*
X36838409Y-29805525D01*
G37*
G36*
X45138409Y-29805525D02*
G01*
X45223425Y-29831314D01*
X45301774Y-29873193D01*
X45370449Y-29929552D01*
X45426807Y-29998225D01*
X45468686Y-30076574D01*
X45494475Y-30161590D01*
X45501000Y-30227842D01*
X45501000Y-30772158D01*
X45494475Y-30838410D01*
X45468686Y-30923426D01*
X45426807Y-31001775D01*
X45370449Y-31070449D01*
X45301775Y-31126807D01*
X45223426Y-31168686D01*
X45138410Y-31194475D01*
X45050000Y-31203182D01*
X44961591Y-31194475D01*
X44876575Y-31168686D01*
X44798226Y-31126807D01*
X44729552Y-31070449D01*
X44673195Y-31001776D01*
X44631313Y-30923423D01*
X44605525Y-30838410D01*
X44599000Y-30772158D01*
X44599000Y-30227843D01*
X44605525Y-30161591D01*
X44631314Y-30076575D01*
X44673193Y-29998226D01*
X44729552Y-29929551D01*
X44798225Y-29873193D01*
X44876574Y-29831314D01*
X44961590Y-29805525D01*
X45050000Y-29796818D01*
X45138409Y-29805525D01*
G37*
G36*
X67638409Y-29805525D02*
G01*
X67723425Y-29831314D01*
X67801774Y-29873193D01*
X67870449Y-29929552D01*
X67926807Y-29998225D01*
X67968686Y-30076574D01*
X67994475Y-30161590D01*
X68001000Y-30227842D01*
X68001000Y-30772158D01*
X67994475Y-30838410D01*
X67968686Y-30923426D01*
X67926807Y-31001775D01*
X67870449Y-31070449D01*
X67801775Y-31126807D01*
X67723426Y-31168686D01*
X67638410Y-31194475D01*
X67550000Y-31203182D01*
X67461591Y-31194475D01*
X67376575Y-31168686D01*
X67298226Y-31126807D01*
X67229552Y-31070449D01*
X67173195Y-31001776D01*
X67131313Y-30923423D01*
X67105525Y-30838410D01*
X67099000Y-30772158D01*
X67099000Y-30227843D01*
X67105525Y-30161591D01*
X67131314Y-30076575D01*
X67173193Y-29998226D01*
X67229552Y-29929551D01*
X67298225Y-29873193D01*
X67376574Y-29831314D01*
X67461590Y-29805525D01*
X67550000Y-29796818D01*
X67638409Y-29805525D01*
G37*
G36*
X52338409Y-29805525D02*
G01*
X52423425Y-29831314D01*
X52501774Y-29873193D01*
X52570449Y-29929552D01*
X52626807Y-29998225D01*
X52668686Y-30076574D01*
X52694475Y-30161590D01*
X52701000Y-30227842D01*
X52701000Y-30772158D01*
X52694475Y-30838410D01*
X52668686Y-30923426D01*
X52626807Y-31001775D01*
X52570449Y-31070449D01*
X52501775Y-31126807D01*
X52423426Y-31168686D01*
X52338410Y-31194475D01*
X52250000Y-31203182D01*
X52161591Y-31194475D01*
X52076575Y-31168686D01*
X51998226Y-31126807D01*
X51929552Y-31070449D01*
X51873195Y-31001776D01*
X51831313Y-30923423D01*
X51805525Y-30838410D01*
X51799000Y-30772158D01*
X51799000Y-30227843D01*
X51805525Y-30161591D01*
X51831314Y-30076575D01*
X51873193Y-29998226D01*
X51929552Y-29929551D01*
X51998225Y-29873193D01*
X52076574Y-29831314D01*
X52161590Y-29805525D01*
X52250000Y-29796818D01*
X52338409Y-29805525D01*
G37*
G36*
X53588409Y-29805525D02*
G01*
X53673425Y-29831314D01*
X53751774Y-29873193D01*
X53820449Y-29929552D01*
X53876807Y-29998225D01*
X53918686Y-30076574D01*
X53944475Y-30161590D01*
X53951000Y-30227842D01*
X53951000Y-30772158D01*
X53944475Y-30838410D01*
X53918686Y-30923426D01*
X53876807Y-31001775D01*
X53820449Y-31070449D01*
X53751775Y-31126807D01*
X53673426Y-31168686D01*
X53588410Y-31194475D01*
X53500000Y-31203182D01*
X53411591Y-31194475D01*
X53326575Y-31168686D01*
X53248226Y-31126807D01*
X53179552Y-31070449D01*
X53123195Y-31001776D01*
X53081313Y-30923423D01*
X53055525Y-30838410D01*
X53049000Y-30772158D01*
X53049000Y-30227843D01*
X53055525Y-30161591D01*
X53081314Y-30076575D01*
X53123193Y-29998226D01*
X53179552Y-29929551D01*
X53248225Y-29873193D01*
X53326574Y-29831314D01*
X53411590Y-29805525D01*
X53500000Y-29796818D01*
X53588409Y-29805525D01*
G37*
G36*
X54838409Y-29805525D02*
G01*
X54923425Y-29831314D01*
X55001774Y-29873193D01*
X55070449Y-29929552D01*
X55126807Y-29998225D01*
X55168686Y-30076574D01*
X55194475Y-30161590D01*
X55201000Y-30227842D01*
X55201000Y-30772158D01*
X55194475Y-30838410D01*
X55168686Y-30923426D01*
X55126807Y-31001775D01*
X55070449Y-31070449D01*
X55001775Y-31126807D01*
X54923426Y-31168686D01*
X54838410Y-31194475D01*
X54750000Y-31203182D01*
X54661591Y-31194475D01*
X54576575Y-31168686D01*
X54498226Y-31126807D01*
X54429552Y-31070449D01*
X54373195Y-31001776D01*
X54331313Y-30923423D01*
X54305525Y-30838410D01*
X54299000Y-30772158D01*
X54299000Y-30227843D01*
X54305525Y-30161591D01*
X54331314Y-30076575D01*
X54373193Y-29998226D01*
X54429552Y-29929551D01*
X54498225Y-29873193D01*
X54576574Y-29831314D01*
X54661590Y-29805525D01*
X54750000Y-29796818D01*
X54838409Y-29805525D01*
G37*
G36*
X56088409Y-29805525D02*
G01*
X56173425Y-29831314D01*
X56251774Y-29873193D01*
X56320449Y-29929552D01*
X56376807Y-29998225D01*
X56418686Y-30076574D01*
X56444475Y-30161590D01*
X56451000Y-30227842D01*
X56451000Y-30772158D01*
X56444475Y-30838410D01*
X56418686Y-30923426D01*
X56376807Y-31001775D01*
X56320449Y-31070449D01*
X56251775Y-31126807D01*
X56173426Y-31168686D01*
X56088410Y-31194475D01*
X56000000Y-31203182D01*
X55911591Y-31194475D01*
X55826575Y-31168686D01*
X55748226Y-31126807D01*
X55679552Y-31070449D01*
X55623195Y-31001776D01*
X55581313Y-30923423D01*
X55555525Y-30838410D01*
X55549000Y-30772158D01*
X55549000Y-30227843D01*
X55555525Y-30161591D01*
X55581314Y-30076575D01*
X55623193Y-29998226D01*
X55679552Y-29929551D01*
X55748225Y-29873193D01*
X55826574Y-29831314D01*
X55911590Y-29805525D01*
X56000000Y-29796818D01*
X56088409Y-29805525D01*
G37*
G36*
X57338409Y-29805525D02*
G01*
X57423425Y-29831314D01*
X57501774Y-29873193D01*
X57570449Y-29929552D01*
X57626807Y-29998225D01*
X57668686Y-30076574D01*
X57694475Y-30161590D01*
X57701000Y-30227842D01*
X57701000Y-30772158D01*
X57694475Y-30838410D01*
X57668686Y-30923426D01*
X57626807Y-31001775D01*
X57570449Y-31070449D01*
X57501775Y-31126807D01*
X57423426Y-31168686D01*
X57338410Y-31194475D01*
X57250000Y-31203182D01*
X57161591Y-31194475D01*
X57076575Y-31168686D01*
X56998226Y-31126807D01*
X56929552Y-31070449D01*
X56873195Y-31001776D01*
X56831313Y-30923423D01*
X56805525Y-30838410D01*
X56799000Y-30772158D01*
X56799000Y-30227843D01*
X56805525Y-30161591D01*
X56831314Y-30076575D01*
X56873193Y-29998226D01*
X56929552Y-29929551D01*
X56998225Y-29873193D01*
X57076574Y-29831314D01*
X57161590Y-29805525D01*
X57250000Y-29796818D01*
X57338409Y-29805525D01*
G37*
G36*
X59838409Y-29805525D02*
G01*
X59923425Y-29831314D01*
X60001774Y-29873193D01*
X60070449Y-29929552D01*
X60126807Y-29998225D01*
X60168686Y-30076574D01*
X60194475Y-30161590D01*
X60201000Y-30227842D01*
X60201000Y-30772158D01*
X60194475Y-30838410D01*
X60168686Y-30923426D01*
X60126807Y-31001775D01*
X60070449Y-31070449D01*
X60001775Y-31126807D01*
X59923426Y-31168686D01*
X59838410Y-31194475D01*
X59750000Y-31203182D01*
X59661591Y-31194475D01*
X59576575Y-31168686D01*
X59498226Y-31126807D01*
X59429552Y-31070449D01*
X59373195Y-31001776D01*
X59331313Y-30923423D01*
X59305525Y-30838410D01*
X59299000Y-30772158D01*
X59299000Y-30227843D01*
X59305525Y-30161591D01*
X59331314Y-30076575D01*
X59373193Y-29998226D01*
X59429552Y-29929551D01*
X59498225Y-29873193D01*
X59576574Y-29831314D01*
X59661590Y-29805525D01*
X59750000Y-29796818D01*
X59838409Y-29805525D01*
G37*
G36*
X61088409Y-29805525D02*
G01*
X61173425Y-29831314D01*
X61251774Y-29873193D01*
X61320449Y-29929552D01*
X61376807Y-29998225D01*
X61418686Y-30076574D01*
X61444475Y-30161590D01*
X61451000Y-30227842D01*
X61451000Y-30772158D01*
X61444475Y-30838410D01*
X61418686Y-30923426D01*
X61376807Y-31001775D01*
X61320449Y-31070449D01*
X61251775Y-31126807D01*
X61173426Y-31168686D01*
X61088410Y-31194475D01*
X61000000Y-31203182D01*
X60911591Y-31194475D01*
X60826575Y-31168686D01*
X60748226Y-31126807D01*
X60679552Y-31070449D01*
X60623195Y-31001776D01*
X60581313Y-30923423D01*
X60555525Y-30838410D01*
X60549000Y-30772158D01*
X60549000Y-30227843D01*
X60555525Y-30161591D01*
X60581314Y-30076575D01*
X60623193Y-29998226D01*
X60679552Y-29929551D01*
X60748225Y-29873193D01*
X60826574Y-29831314D01*
X60911590Y-29805525D01*
X61000000Y-29796818D01*
X61088409Y-29805525D01*
G37*
G36*
X58588409Y-29805525D02*
G01*
X58673425Y-29831314D01*
X58751774Y-29873193D01*
X58820449Y-29929552D01*
X58876807Y-29998225D01*
X58918686Y-30076574D01*
X58944475Y-30161590D01*
X58951000Y-30227842D01*
X58951000Y-30772158D01*
X58944475Y-30838410D01*
X58918686Y-30923426D01*
X58876807Y-31001775D01*
X58820449Y-31070449D01*
X58751775Y-31126807D01*
X58673426Y-31168686D01*
X58588410Y-31194475D01*
X58500000Y-31203182D01*
X58411591Y-31194475D01*
X58326575Y-31168686D01*
X58248226Y-31126807D01*
X58179552Y-31070449D01*
X58123195Y-31001776D01*
X58081313Y-30923423D01*
X58055525Y-30838410D01*
X58049000Y-30772158D01*
X58049000Y-30227843D01*
X58055525Y-30161591D01*
X58081314Y-30076575D01*
X58123193Y-29998226D01*
X58179552Y-29929551D01*
X58248225Y-29873193D01*
X58326574Y-29831314D01*
X58411590Y-29805525D01*
X58500000Y-29796818D01*
X58588409Y-29805525D01*
G37*
G36*
X35819683Y-29802725D02*
G01*
X35850143Y-29811966D01*
X35878223Y-29826974D01*
X35902831Y-29847169D01*
X35923026Y-29871777D01*
X35938034Y-29899857D01*
X35947275Y-29930317D01*
X35951000Y-29968140D01*
X35951000Y-31031860D01*
X35947275Y-31069683D01*
X35938034Y-31100143D01*
X35923026Y-31128223D01*
X35902831Y-31152831D01*
X35878223Y-31173026D01*
X35850143Y-31188034D01*
X35819683Y-31197275D01*
X35781860Y-31201000D01*
X35218140Y-31201000D01*
X35180317Y-31197275D01*
X35149857Y-31188034D01*
X35121777Y-31173026D01*
X35097169Y-31152831D01*
X35076974Y-31128223D01*
X35061966Y-31100143D01*
X35052725Y-31069683D01*
X35049000Y-31031860D01*
X35049000Y-29968140D01*
X35052725Y-29930317D01*
X35061966Y-29899857D01*
X35076974Y-29871777D01*
X35097169Y-29847169D01*
X35121777Y-29826974D01*
X35149857Y-29811966D01*
X35180317Y-29802725D01*
X35218140Y-29799000D01*
X35781860Y-29799000D01*
X35819683Y-29802725D01*
G37*
G36*
X44119683Y-29802725D02*
G01*
X44150143Y-29811966D01*
X44178223Y-29826974D01*
X44202831Y-29847169D01*
X44223026Y-29871777D01*
X44238034Y-29899857D01*
X44247275Y-29930317D01*
X44251000Y-29968140D01*
X44251000Y-31031860D01*
X44247275Y-31069683D01*
X44238034Y-31100143D01*
X44223026Y-31128223D01*
X44202831Y-31152831D01*
X44178223Y-31173026D01*
X44150143Y-31188034D01*
X44119683Y-31197275D01*
X44081860Y-31201000D01*
X43518140Y-31201000D01*
X43480317Y-31197275D01*
X43449857Y-31188034D01*
X43421777Y-31173026D01*
X43397169Y-31152831D01*
X43376974Y-31128223D01*
X43361966Y-31100143D01*
X43352725Y-31069683D01*
X43349000Y-31031860D01*
X43349000Y-29968140D01*
X43352725Y-29930317D01*
X43361966Y-29899857D01*
X43376974Y-29871777D01*
X43397169Y-29847169D01*
X43421777Y-29826974D01*
X43449857Y-29811966D01*
X43480317Y-29802725D01*
X43518140Y-29799000D01*
X44081860Y-29799000D01*
X44119683Y-29802725D01*
G37*
G36*
X66619683Y-29802725D02*
G01*
X66650143Y-29811966D01*
X66678223Y-29826974D01*
X66702831Y-29847169D01*
X66723026Y-29871777D01*
X66738034Y-29899857D01*
X66747275Y-29930317D01*
X66751000Y-29968140D01*
X66751000Y-31031860D01*
X66747275Y-31069683D01*
X66738034Y-31100143D01*
X66723026Y-31128223D01*
X66702831Y-31152831D01*
X66678223Y-31173026D01*
X66650143Y-31188034D01*
X66619683Y-31197275D01*
X66581860Y-31201000D01*
X66018140Y-31201000D01*
X65980317Y-31197275D01*
X65949857Y-31188034D01*
X65921777Y-31173026D01*
X65897169Y-31152831D01*
X65876974Y-31128223D01*
X65861966Y-31100143D01*
X65852725Y-31069683D01*
X65849000Y-31031860D01*
X65849000Y-29968140D01*
X65852725Y-29930317D01*
X65861966Y-29899857D01*
X65876974Y-29871777D01*
X65897169Y-29847169D01*
X65921777Y-29826974D01*
X65949857Y-29811966D01*
X65980317Y-29802725D01*
X66018140Y-29799000D01*
X66581860Y-29799000D01*
X66619683Y-29802725D01*
G37*
G36*
X51319683Y-29802725D02*
G01*
X51350143Y-29811966D01*
X51378223Y-29826974D01*
X51402831Y-29847169D01*
X51423026Y-29871777D01*
X51438034Y-29899857D01*
X51447275Y-29930317D01*
X51451000Y-29968140D01*
X51451000Y-31031860D01*
X51447275Y-31069683D01*
X51438034Y-31100143D01*
X51423026Y-31128223D01*
X51402831Y-31152831D01*
X51378223Y-31173026D01*
X51350143Y-31188034D01*
X51319683Y-31197275D01*
X51281860Y-31201000D01*
X50718140Y-31201000D01*
X50680317Y-31197275D01*
X50649857Y-31188034D01*
X50621777Y-31173026D01*
X50597169Y-31152831D01*
X50576974Y-31128223D01*
X50561966Y-31100143D01*
X50552725Y-31069683D01*
X50549000Y-31031860D01*
X50549000Y-29968140D01*
X50552725Y-29930317D01*
X50561966Y-29899857D01*
X50576974Y-29871777D01*
X50597169Y-29847169D01*
X50621777Y-29826974D01*
X50649857Y-29811966D01*
X50680317Y-29802725D01*
X50718140Y-29799000D01*
X51281860Y-29799000D01*
X51319683Y-29802725D01*
G37*
M02*
