%TF.GenerationSoftware,KiCad,Pcbnew,(5.1.5)-3*%
%TF.CreationDate,2021-03-30T18:15:46+02:00*%
%TF.ProjectId,rpm_meter_arduino,72706d5f-6d65-4746-9572-5f6172647569,rev?*%
%TF.SameCoordinates,Original*%
%TF.FileFunction,Copper,L4,Bot*%
%TF.FilePolarity,Positive*%
%FSLAX46Y46*%
G04 Gerber Fmt 4.6, Leading zero omitted, Abs format (unit mm)*
G04 Created by KiCad (PCBNEW (5.1.5)-3) date 2021-03-30 18:15:46*
%MOMM*%
%LPD*%
G04 APERTURE LIST*
%TA.AperFunction,ComponentPad*%
%ADD10C,0.700000*%
%TD*%
%TA.AperFunction,ComponentPad*%
%ADD11C,4.400000*%
%TD*%
%TA.AperFunction,ComponentPad*%
%ADD12O,0.800000X1.300000*%
%TD*%
%TA.AperFunction,ComponentPad*%
%ADD13C,0.100000*%
%TD*%
%TA.AperFunction,ComponentPad*%
%ADD14O,1.300000X0.800000*%
%TD*%
%TA.AperFunction,Conductor*%
%ADD15R,2.950000X4.500000*%
%TD*%
%TA.AperFunction,ViaPad*%
%ADD16C,0.600000*%
%TD*%
%TA.AperFunction,ViaPad*%
%ADD17C,0.800000*%
%TD*%
%TA.AperFunction,Conductor*%
%ADD18C,0.300000*%
%TD*%
G04 APERTURE END LIST*
D10*
%TO.P,H1,1*%
%TO.N,GND*%
X30166726Y-29833274D03*
X29000000Y-29350000D03*
X27833274Y-29833274D03*
X27350000Y-31000000D03*
X27833274Y-32166726D03*
X29000000Y-32650000D03*
X30166726Y-32166726D03*
X30650000Y-31000000D03*
D11*
X29000000Y-31000000D03*
%TD*%
%TO.P,H2,1*%
%TO.N,GND*%
X29000000Y-65000000D03*
D10*
X30650000Y-65000000D03*
X30166726Y-66166726D03*
X29000000Y-66650000D03*
X27833274Y-66166726D03*
X27350000Y-65000000D03*
X27833274Y-63833274D03*
X29000000Y-63350000D03*
X30166726Y-63833274D03*
%TD*%
%TO.P,H3,1*%
%TO.N,GND*%
X74166726Y-63833274D03*
X73000000Y-63350000D03*
X71833274Y-63833274D03*
X71350000Y-65000000D03*
X71833274Y-66166726D03*
X73000000Y-66650000D03*
X74166726Y-66166726D03*
X74650000Y-65000000D03*
D11*
X73000000Y-65000000D03*
%TD*%
%TO.P,H4,1*%
%TO.N,GND*%
X73000000Y-31000000D03*
D10*
X74650000Y-31000000D03*
X74166726Y-32166726D03*
X73000000Y-32650000D03*
X71833274Y-32166726D03*
X71350000Y-31000000D03*
X71833274Y-29833274D03*
X73000000Y-29350000D03*
X74166726Y-29833274D03*
%TD*%
D12*
%TO.P,J3,2*%
%TO.N,GND*%
X36750000Y-30500000D03*
%TA.AperFunction,ComponentPad*%
D13*
%TO.P,J3,1*%
%TO.N,+12V*%
G36*
X35719603Y-29850963D02*
G01*
X35739018Y-29853843D01*
X35758057Y-29858612D01*
X35776537Y-29865224D01*
X35794279Y-29873616D01*
X35811114Y-29883706D01*
X35826879Y-29895398D01*
X35841421Y-29908579D01*
X35854602Y-29923121D01*
X35866294Y-29938886D01*
X35876384Y-29955721D01*
X35884776Y-29973463D01*
X35891388Y-29991943D01*
X35896157Y-30010982D01*
X35899037Y-30030397D01*
X35900000Y-30050000D01*
X35900000Y-30950000D01*
X35899037Y-30969603D01*
X35896157Y-30989018D01*
X35891388Y-31008057D01*
X35884776Y-31026537D01*
X35876384Y-31044279D01*
X35866294Y-31061114D01*
X35854602Y-31076879D01*
X35841421Y-31091421D01*
X35826879Y-31104602D01*
X35811114Y-31116294D01*
X35794279Y-31126384D01*
X35776537Y-31134776D01*
X35758057Y-31141388D01*
X35739018Y-31146157D01*
X35719603Y-31149037D01*
X35700000Y-31150000D01*
X35300000Y-31150000D01*
X35280397Y-31149037D01*
X35260982Y-31146157D01*
X35241943Y-31141388D01*
X35223463Y-31134776D01*
X35205721Y-31126384D01*
X35188886Y-31116294D01*
X35173121Y-31104602D01*
X35158579Y-31091421D01*
X35145398Y-31076879D01*
X35133706Y-31061114D01*
X35123616Y-31044279D01*
X35115224Y-31026537D01*
X35108612Y-31008057D01*
X35103843Y-30989018D01*
X35100963Y-30969603D01*
X35100000Y-30950000D01*
X35100000Y-30050000D01*
X35100963Y-30030397D01*
X35103843Y-30010982D01*
X35108612Y-29991943D01*
X35115224Y-29973463D01*
X35123616Y-29955721D01*
X35133706Y-29938886D01*
X35145398Y-29923121D01*
X35158579Y-29908579D01*
X35173121Y-29895398D01*
X35188886Y-29883706D01*
X35205721Y-29873616D01*
X35223463Y-29865224D01*
X35241943Y-29858612D01*
X35260982Y-29853843D01*
X35280397Y-29850963D01*
X35300000Y-29850000D01*
X35700000Y-29850000D01*
X35719603Y-29850963D01*
G37*
%TD.AperFunction*%
%TD*%
%TA.AperFunction,ComponentPad*%
%TO.P,J4,1*%
%TO.N,RPM_Sense*%
G36*
X44019603Y-29850963D02*
G01*
X44039018Y-29853843D01*
X44058057Y-29858612D01*
X44076537Y-29865224D01*
X44094279Y-29873616D01*
X44111114Y-29883706D01*
X44126879Y-29895398D01*
X44141421Y-29908579D01*
X44154602Y-29923121D01*
X44166294Y-29938886D01*
X44176384Y-29955721D01*
X44184776Y-29973463D01*
X44191388Y-29991943D01*
X44196157Y-30010982D01*
X44199037Y-30030397D01*
X44200000Y-30050000D01*
X44200000Y-30950000D01*
X44199037Y-30969603D01*
X44196157Y-30989018D01*
X44191388Y-31008057D01*
X44184776Y-31026537D01*
X44176384Y-31044279D01*
X44166294Y-31061114D01*
X44154602Y-31076879D01*
X44141421Y-31091421D01*
X44126879Y-31104602D01*
X44111114Y-31116294D01*
X44094279Y-31126384D01*
X44076537Y-31134776D01*
X44058057Y-31141388D01*
X44039018Y-31146157D01*
X44019603Y-31149037D01*
X44000000Y-31150000D01*
X43600000Y-31150000D01*
X43580397Y-31149037D01*
X43560982Y-31146157D01*
X43541943Y-31141388D01*
X43523463Y-31134776D01*
X43505721Y-31126384D01*
X43488886Y-31116294D01*
X43473121Y-31104602D01*
X43458579Y-31091421D01*
X43445398Y-31076879D01*
X43433706Y-31061114D01*
X43423616Y-31044279D01*
X43415224Y-31026537D01*
X43408612Y-31008057D01*
X43403843Y-30989018D01*
X43400963Y-30969603D01*
X43400000Y-30950000D01*
X43400000Y-30050000D01*
X43400963Y-30030397D01*
X43403843Y-30010982D01*
X43408612Y-29991943D01*
X43415224Y-29973463D01*
X43423616Y-29955721D01*
X43433706Y-29938886D01*
X43445398Y-29923121D01*
X43458579Y-29908579D01*
X43473121Y-29895398D01*
X43488886Y-29883706D01*
X43505721Y-29873616D01*
X43523463Y-29865224D01*
X43541943Y-29858612D01*
X43560982Y-29853843D01*
X43580397Y-29850963D01*
X43600000Y-29850000D01*
X44000000Y-29850000D01*
X44019603Y-29850963D01*
G37*
%TD.AperFunction*%
D12*
%TO.P,J4,2*%
%TO.N,GND*%
X45050000Y-30500000D03*
%TD*%
%TA.AperFunction,ComponentPad*%
D13*
%TO.P,J5,1*%
%TO.N,+5V*%
G36*
X73469603Y-45600963D02*
G01*
X73489018Y-45603843D01*
X73508057Y-45608612D01*
X73526537Y-45615224D01*
X73544279Y-45623616D01*
X73561114Y-45633706D01*
X73576879Y-45645398D01*
X73591421Y-45658579D01*
X73604602Y-45673121D01*
X73616294Y-45688886D01*
X73626384Y-45705721D01*
X73634776Y-45723463D01*
X73641388Y-45741943D01*
X73646157Y-45760982D01*
X73649037Y-45780397D01*
X73650000Y-45800000D01*
X73650000Y-46200000D01*
X73649037Y-46219603D01*
X73646157Y-46239018D01*
X73641388Y-46258057D01*
X73634776Y-46276537D01*
X73626384Y-46294279D01*
X73616294Y-46311114D01*
X73604602Y-46326879D01*
X73591421Y-46341421D01*
X73576879Y-46354602D01*
X73561114Y-46366294D01*
X73544279Y-46376384D01*
X73526537Y-46384776D01*
X73508057Y-46391388D01*
X73489018Y-46396157D01*
X73469603Y-46399037D01*
X73450000Y-46400000D01*
X72550000Y-46400000D01*
X72530397Y-46399037D01*
X72510982Y-46396157D01*
X72491943Y-46391388D01*
X72473463Y-46384776D01*
X72455721Y-46376384D01*
X72438886Y-46366294D01*
X72423121Y-46354602D01*
X72408579Y-46341421D01*
X72395398Y-46326879D01*
X72383706Y-46311114D01*
X72373616Y-46294279D01*
X72365224Y-46276537D01*
X72358612Y-46258057D01*
X72353843Y-46239018D01*
X72350963Y-46219603D01*
X72350000Y-46200000D01*
X72350000Y-45800000D01*
X72350963Y-45780397D01*
X72353843Y-45760982D01*
X72358612Y-45741943D01*
X72365224Y-45723463D01*
X72373616Y-45705721D01*
X72383706Y-45688886D01*
X72395398Y-45673121D01*
X72408579Y-45658579D01*
X72423121Y-45645398D01*
X72438886Y-45633706D01*
X72455721Y-45623616D01*
X72473463Y-45615224D01*
X72491943Y-45608612D01*
X72510982Y-45603843D01*
X72530397Y-45600963D01*
X72550000Y-45600000D01*
X73450000Y-45600000D01*
X73469603Y-45600963D01*
G37*
%TD.AperFunction*%
D14*
%TO.P,J5,2*%
%TO.N,RGB_Data*%
X73000000Y-47250000D03*
%TO.P,J5,3*%
%TO.N,GND*%
X73000000Y-48500000D03*
%TD*%
%TA.AperFunction,ComponentPad*%
D13*
%TO.P,J6,1*%
%TO.N,NTC_A*%
G36*
X66519603Y-29850963D02*
G01*
X66539018Y-29853843D01*
X66558057Y-29858612D01*
X66576537Y-29865224D01*
X66594279Y-29873616D01*
X66611114Y-29883706D01*
X66626879Y-29895398D01*
X66641421Y-29908579D01*
X66654602Y-29923121D01*
X66666294Y-29938886D01*
X66676384Y-29955721D01*
X66684776Y-29973463D01*
X66691388Y-29991943D01*
X66696157Y-30010982D01*
X66699037Y-30030397D01*
X66700000Y-30050000D01*
X66700000Y-30950000D01*
X66699037Y-30969603D01*
X66696157Y-30989018D01*
X66691388Y-31008057D01*
X66684776Y-31026537D01*
X66676384Y-31044279D01*
X66666294Y-31061114D01*
X66654602Y-31076879D01*
X66641421Y-31091421D01*
X66626879Y-31104602D01*
X66611114Y-31116294D01*
X66594279Y-31126384D01*
X66576537Y-31134776D01*
X66558057Y-31141388D01*
X66539018Y-31146157D01*
X66519603Y-31149037D01*
X66500000Y-31150000D01*
X66100000Y-31150000D01*
X66080397Y-31149037D01*
X66060982Y-31146157D01*
X66041943Y-31141388D01*
X66023463Y-31134776D01*
X66005721Y-31126384D01*
X65988886Y-31116294D01*
X65973121Y-31104602D01*
X65958579Y-31091421D01*
X65945398Y-31076879D01*
X65933706Y-31061114D01*
X65923616Y-31044279D01*
X65915224Y-31026537D01*
X65908612Y-31008057D01*
X65903843Y-30989018D01*
X65900963Y-30969603D01*
X65900000Y-30950000D01*
X65900000Y-30050000D01*
X65900963Y-30030397D01*
X65903843Y-30010982D01*
X65908612Y-29991943D01*
X65915224Y-29973463D01*
X65923616Y-29955721D01*
X65933706Y-29938886D01*
X65945398Y-29923121D01*
X65958579Y-29908579D01*
X65973121Y-29895398D01*
X65988886Y-29883706D01*
X66005721Y-29873616D01*
X66023463Y-29865224D01*
X66041943Y-29858612D01*
X66060982Y-29853843D01*
X66080397Y-29850963D01*
X66100000Y-29850000D01*
X66500000Y-29850000D01*
X66519603Y-29850963D01*
G37*
%TD.AperFunction*%
D12*
%TO.P,J6,2*%
%TO.N,GND*%
X67550000Y-30500000D03*
%TD*%
%TA.AperFunction,ComponentPad*%
D13*
%TO.P,J7,1*%
%TO.N,Net-(J7-Pad1)*%
G36*
X51219603Y-29850963D02*
G01*
X51239018Y-29853843D01*
X51258057Y-29858612D01*
X51276537Y-29865224D01*
X51294279Y-29873616D01*
X51311114Y-29883706D01*
X51326879Y-29895398D01*
X51341421Y-29908579D01*
X51354602Y-29923121D01*
X51366294Y-29938886D01*
X51376384Y-29955721D01*
X51384776Y-29973463D01*
X51391388Y-29991943D01*
X51396157Y-30010982D01*
X51399037Y-30030397D01*
X51400000Y-30050000D01*
X51400000Y-30950000D01*
X51399037Y-30969603D01*
X51396157Y-30989018D01*
X51391388Y-31008057D01*
X51384776Y-31026537D01*
X51376384Y-31044279D01*
X51366294Y-31061114D01*
X51354602Y-31076879D01*
X51341421Y-31091421D01*
X51326879Y-31104602D01*
X51311114Y-31116294D01*
X51294279Y-31126384D01*
X51276537Y-31134776D01*
X51258057Y-31141388D01*
X51239018Y-31146157D01*
X51219603Y-31149037D01*
X51200000Y-31150000D01*
X50800000Y-31150000D01*
X50780397Y-31149037D01*
X50760982Y-31146157D01*
X50741943Y-31141388D01*
X50723463Y-31134776D01*
X50705721Y-31126384D01*
X50688886Y-31116294D01*
X50673121Y-31104602D01*
X50658579Y-31091421D01*
X50645398Y-31076879D01*
X50633706Y-31061114D01*
X50623616Y-31044279D01*
X50615224Y-31026537D01*
X50608612Y-31008057D01*
X50603843Y-30989018D01*
X50600963Y-30969603D01*
X50600000Y-30950000D01*
X50600000Y-30050000D01*
X50600963Y-30030397D01*
X50603843Y-30010982D01*
X50608612Y-29991943D01*
X50615224Y-29973463D01*
X50623616Y-29955721D01*
X50633706Y-29938886D01*
X50645398Y-29923121D01*
X50658579Y-29908579D01*
X50673121Y-29895398D01*
X50688886Y-29883706D01*
X50705721Y-29873616D01*
X50723463Y-29865224D01*
X50741943Y-29858612D01*
X50760982Y-29853843D01*
X50780397Y-29850963D01*
X50800000Y-29850000D01*
X51200000Y-29850000D01*
X51219603Y-29850963D01*
G37*
%TD.AperFunction*%
D12*
%TO.P,J7,2*%
%TO.N,Net-(J7-Pad2)*%
X52250000Y-30500000D03*
%TO.P,J7,3*%
%TO.N,Net-(J7-Pad3)*%
X53500000Y-30500000D03*
%TO.P,J7,4*%
%TO.N,Net-(J7-Pad4)*%
X54750000Y-30500000D03*
%TO.P,J7,5*%
%TO.N,Net-(J7-Pad5)*%
X56000000Y-30500000D03*
%TO.P,J7,6*%
%TO.N,Net-(J7-Pad6)*%
X57250000Y-30500000D03*
%TO.P,J7,7*%
%TO.N,Net-(J7-Pad7)*%
X58500000Y-30500000D03*
%TO.P,J7,8*%
%TO.N,Net-(J7-Pad8)*%
X59750000Y-30500000D03*
%TO.P,J7,9*%
%TO.N,GND*%
X61000000Y-30500000D03*
%TD*%
D15*
%TO.N,GND*%
%TO.C,U2*%
X41488000Y-48254000D03*
D16*
X40888000Y-46454000D03*
X40888000Y-47654000D03*
X42088000Y-47654000D03*
X42088000Y-46454000D03*
X40888000Y-50054000D03*
X40888000Y-48954000D03*
X42088000Y-48954000D03*
X42088000Y-50054000D03*
%TD*%
D17*
%TO.N,+5V*%
X63300000Y-47600000D03*
X64200000Y-47600000D03*
X64100000Y-39200000D03*
X65100000Y-39200000D03*
X37000000Y-65000000D03*
X36000000Y-65000000D03*
X36000000Y-66000000D03*
X37000000Y-66000000D03*
X27000000Y-49000000D03*
X28000000Y-49000000D03*
X27000000Y-50000000D03*
X28000000Y-50000000D03*
X27000000Y-51000000D03*
X28000000Y-51000000D03*
X27000000Y-48000000D03*
X28000000Y-48000000D03*
X73700000Y-57400000D03*
X73700000Y-58400000D03*
X64500000Y-61000000D03*
X64500000Y-60000000D03*
X31600000Y-62100000D03*
X63300000Y-48600000D03*
X64200000Y-48600000D03*
X73000000Y-41000000D03*
X73000000Y-42000000D03*
X73000000Y-43000000D03*
%TO.N,RPM*%
X55600000Y-41100000D03*
X57700000Y-43900000D03*
%TO.N,BUTTON_1*%
X58700000Y-45400000D03*
X61700000Y-60200000D03*
%TO.N,BUTTON_2*%
X59500000Y-46200000D03*
X69400000Y-56700000D03*
%TO.N,RGB_Data*%
X62400000Y-54100000D03*
%TO.N,LED0*%
X50300000Y-36000000D03*
X60300000Y-50300000D03*
%TO.N,LED1*%
X51800000Y-36000000D03*
X61100000Y-49400000D03*
%TO.N,LED2*%
X53300000Y-36000000D03*
X62700000Y-50700000D03*
%TO.N,LED3*%
X62800000Y-46200000D03*
X54800000Y-36000000D03*
%TO.N,LED4*%
X64000000Y-45400000D03*
X56300000Y-36000000D03*
%TO.N,GND*%
X39400000Y-29300000D03*
X39400000Y-30200000D03*
X39400000Y-31100000D03*
X40400000Y-29300000D03*
X40400000Y-30200000D03*
X40400000Y-31100000D03*
X39400000Y-32000000D03*
X40400000Y-32000000D03*
X74000000Y-53000000D03*
X72700000Y-53000000D03*
X72700000Y-54100000D03*
X74000000Y-54100000D03*
X74000000Y-55200000D03*
X72700000Y-55200000D03*
X53800000Y-47600000D03*
X53800000Y-46600000D03*
X52100000Y-42300000D03*
X52100000Y-43400000D03*
X53300000Y-42300000D03*
X55500000Y-44600000D03*
X54600000Y-44600000D03*
X58700000Y-37400000D03*
X59700000Y-37400000D03*
X60600000Y-37400000D03*
X61600000Y-37400000D03*
X64100000Y-40900000D03*
X65100000Y-40900000D03*
X27000000Y-37000000D03*
X28000000Y-37000000D03*
X28000000Y-36000000D03*
X27000000Y-36000000D03*
X27000000Y-35000000D03*
X28000000Y-35000000D03*
X29000000Y-35000000D03*
X29000000Y-36000000D03*
X29000000Y-37000000D03*
X61400000Y-55000000D03*
X61400000Y-55900000D03*
X64500000Y-59000000D03*
X64500000Y-58100000D03*
X52200000Y-64900000D03*
X51100000Y-64900000D03*
X53300000Y-64900000D03*
X41700000Y-65400000D03*
X39100000Y-65400000D03*
X40400000Y-65400000D03*
X41700000Y-66600000D03*
X40400000Y-66600000D03*
X39100000Y-66600000D03*
X33900000Y-56700000D03*
X33900000Y-55700000D03*
X33900000Y-54700000D03*
X33900000Y-53800000D03*
X50300000Y-49400000D03*
X50300000Y-50300000D03*
X50300000Y-51200000D03*
X50300000Y-52100000D03*
X67800000Y-65800000D03*
X67800000Y-64800000D03*
X53800000Y-48600000D03*
X68000000Y-44500000D03*
X68000000Y-45600000D03*
X35300000Y-53800000D03*
X35300000Y-54700000D03*
X35300000Y-55700000D03*
X35300000Y-56700000D03*
%TO.N,Net-(C6-Pad1)*%
X48900000Y-51200000D03*
X48900000Y-45200000D03*
%TD*%
D18*
%TO.N,RPM*%
X57700000Y-43900000D02*
X57700000Y-41800000D01*
X57000000Y-41100000D02*
X55600000Y-41100000D01*
X57700000Y-41800000D02*
X57000000Y-41100000D01*
%TO.N,BUTTON_1*%
X57600000Y-51500000D02*
X58700000Y-50400000D01*
X58700000Y-50400000D02*
X58700000Y-45400000D01*
X57600000Y-57200000D02*
X57600000Y-51500000D01*
X61700000Y-60200000D02*
X60600000Y-60200000D01*
X60600000Y-60200000D02*
X57600000Y-57200000D01*
%TO.N,BUTTON_2*%
X59500000Y-46200000D02*
X59500000Y-50800000D01*
X59500000Y-50800000D02*
X58400000Y-51900000D01*
X58400000Y-51900000D02*
X58400000Y-56100000D01*
X58400000Y-56100000D02*
X59000000Y-56700000D01*
X59000000Y-56700000D02*
X69400000Y-56700000D01*
X69400000Y-56700000D02*
X69400000Y-56700000D01*
%TO.N,RGB_Data*%
X71100000Y-48200000D02*
X72050000Y-47250000D01*
X72050000Y-47250000D02*
X73000000Y-47250000D01*
X71100000Y-53800000D02*
X71100000Y-48200000D01*
X70800000Y-54100000D02*
X62400000Y-54100000D01*
X71100000Y-53800000D02*
X70800000Y-54100000D01*
%TO.N,LED0*%
X50300000Y-36000000D02*
X50300000Y-37700000D01*
X50300000Y-37700000D02*
X52500000Y-39900000D01*
X56507120Y-39900000D02*
X60300000Y-43692880D01*
X52500000Y-39900000D02*
X56507120Y-39900000D01*
X60300000Y-43692880D02*
X60300000Y-50300000D01*
X60300000Y-50300000D02*
X60300000Y-50300000D01*
%TO.N,LED1*%
X51800000Y-36000000D02*
X51800000Y-38100000D01*
X56714230Y-39399990D02*
X61100000Y-43785760D01*
X51800000Y-38100000D02*
X53099990Y-39399990D01*
X53099990Y-39399990D02*
X56714230Y-39399990D01*
X61100000Y-43785760D02*
X61100000Y-49400000D01*
%TO.N,LED2*%
X62700000Y-49700000D02*
X62700000Y-50700000D01*
X62400000Y-49400000D02*
X62700000Y-49700000D01*
X53300000Y-37500000D02*
X54699980Y-38899980D01*
X53300000Y-36000000D02*
X53300000Y-37500000D01*
X54699980Y-38899980D02*
X56921340Y-38899980D01*
X56921340Y-38899980D02*
X62000000Y-43978640D01*
X62000000Y-48100000D02*
X62000000Y-43978640D01*
X62400000Y-48500000D02*
X62000000Y-48100000D01*
X62400000Y-49400000D02*
X62400000Y-48500000D01*
%TO.N,LED3*%
X56828480Y-38100000D02*
X55500000Y-38100000D01*
X54800000Y-37400000D02*
X54800000Y-36000000D01*
X62800000Y-46200000D02*
X62800000Y-44071520D01*
X55500000Y-38100000D02*
X54800000Y-37400000D01*
X62800000Y-44071520D02*
X56828480Y-38100000D01*
%TO.N,LED4*%
X64000000Y-45400000D02*
X64000000Y-44564400D01*
X56300000Y-36864400D02*
X56300000Y-36000000D01*
X64000000Y-44564400D02*
X56300000Y-36864400D01*
%TO.N,Net-(C6-Pad1)*%
X48900000Y-45765685D02*
X48900000Y-51200000D01*
X48900000Y-45200000D02*
X48900000Y-45765685D01*
%TD*%
M02*
