%TF.GenerationSoftware,KiCad,Pcbnew,(5.1.5)-3*%
%TF.CreationDate,2021-03-30T18:15:46+02:00*%
%TF.ProjectId,rpm_meter_arduino,72706d5f-6d65-4746-9572-5f6172647569,rev?*%
%TF.SameCoordinates,Original*%
%TF.FileFunction,Copper,L3,Inr*%
%TF.FilePolarity,Positive*%
%FSLAX46Y46*%
G04 Gerber Fmt 4.6, Leading zero omitted, Abs format (unit mm)*
G04 Created by KiCad (PCBNEW (5.1.5)-3) date 2021-03-30 18:15:46*
%MOMM*%
%LPD*%
G04 APERTURE LIST*
%TA.AperFunction,ViaPad*%
%ADD10C,0.700000*%
%TD*%
%TA.AperFunction,ViaPad*%
%ADD11C,4.400000*%
%TD*%
%TA.AperFunction,ViaPad*%
%ADD12O,0.800000X1.300000*%
%TD*%
%TA.AperFunction,ViaPad*%
%ADD13C,0.100000*%
%TD*%
%TA.AperFunction,ViaPad*%
%ADD14O,1.300000X0.800000*%
%TD*%
%TA.AperFunction,ViaPad*%
%ADD15C,0.600000*%
%TD*%
%TA.AperFunction,ViaPad*%
%ADD16C,0.800000*%
%TD*%
%TA.AperFunction,Conductor*%
%ADD17C,0.254000*%
%TD*%
G04 APERTURE END LIST*
D10*
%TO.N,GND*%
%TO.C,H1*%
X30166726Y-29833274D03*
X29000000Y-29350000D03*
X27833274Y-29833274D03*
X27350000Y-31000000D03*
X27833274Y-32166726D03*
X29000000Y-32650000D03*
X30166726Y-32166726D03*
X30650000Y-31000000D03*
D11*
X29000000Y-31000000D03*
%TD*%
%TO.N,GND*%
%TO.C,H2*%
X29000000Y-65000000D03*
D10*
X30650000Y-65000000D03*
X30166726Y-66166726D03*
X29000000Y-66650000D03*
X27833274Y-66166726D03*
X27350000Y-65000000D03*
X27833274Y-63833274D03*
X29000000Y-63350000D03*
X30166726Y-63833274D03*
%TD*%
%TO.N,GND*%
%TO.C,H3*%
X74166726Y-63833274D03*
X73000000Y-63350000D03*
X71833274Y-63833274D03*
X71350000Y-65000000D03*
X71833274Y-66166726D03*
X73000000Y-66650000D03*
X74166726Y-66166726D03*
X74650000Y-65000000D03*
D11*
X73000000Y-65000000D03*
%TD*%
%TO.N,GND*%
%TO.C,H4*%
X73000000Y-31000000D03*
D10*
X74650000Y-31000000D03*
X74166726Y-32166726D03*
X73000000Y-32650000D03*
X71833274Y-32166726D03*
X71350000Y-31000000D03*
X71833274Y-29833274D03*
X73000000Y-29350000D03*
X74166726Y-29833274D03*
%TD*%
D12*
%TO.N,GND*%
%TO.C,J3*%
X36750000Y-30500000D03*
%TA.AperFunction,ViaPad*%
D13*
%TO.N,+12V*%
G36*
X35719603Y-29850963D02*
G01*
X35739018Y-29853843D01*
X35758057Y-29858612D01*
X35776537Y-29865224D01*
X35794279Y-29873616D01*
X35811114Y-29883706D01*
X35826879Y-29895398D01*
X35841421Y-29908579D01*
X35854602Y-29923121D01*
X35866294Y-29938886D01*
X35876384Y-29955721D01*
X35884776Y-29973463D01*
X35891388Y-29991943D01*
X35896157Y-30010982D01*
X35899037Y-30030397D01*
X35900000Y-30050000D01*
X35900000Y-30950000D01*
X35899037Y-30969603D01*
X35896157Y-30989018D01*
X35891388Y-31008057D01*
X35884776Y-31026537D01*
X35876384Y-31044279D01*
X35866294Y-31061114D01*
X35854602Y-31076879D01*
X35841421Y-31091421D01*
X35826879Y-31104602D01*
X35811114Y-31116294D01*
X35794279Y-31126384D01*
X35776537Y-31134776D01*
X35758057Y-31141388D01*
X35739018Y-31146157D01*
X35719603Y-31149037D01*
X35700000Y-31150000D01*
X35300000Y-31150000D01*
X35280397Y-31149037D01*
X35260982Y-31146157D01*
X35241943Y-31141388D01*
X35223463Y-31134776D01*
X35205721Y-31126384D01*
X35188886Y-31116294D01*
X35173121Y-31104602D01*
X35158579Y-31091421D01*
X35145398Y-31076879D01*
X35133706Y-31061114D01*
X35123616Y-31044279D01*
X35115224Y-31026537D01*
X35108612Y-31008057D01*
X35103843Y-30989018D01*
X35100963Y-30969603D01*
X35100000Y-30950000D01*
X35100000Y-30050000D01*
X35100963Y-30030397D01*
X35103843Y-30010982D01*
X35108612Y-29991943D01*
X35115224Y-29973463D01*
X35123616Y-29955721D01*
X35133706Y-29938886D01*
X35145398Y-29923121D01*
X35158579Y-29908579D01*
X35173121Y-29895398D01*
X35188886Y-29883706D01*
X35205721Y-29873616D01*
X35223463Y-29865224D01*
X35241943Y-29858612D01*
X35260982Y-29853843D01*
X35280397Y-29850963D01*
X35300000Y-29850000D01*
X35700000Y-29850000D01*
X35719603Y-29850963D01*
G37*
%TD.AperFunction*%
%TD*%
%TA.AperFunction,ViaPad*%
%TO.N,RPM_Sense*%
%TO.C,J4*%
G36*
X44019603Y-29850963D02*
G01*
X44039018Y-29853843D01*
X44058057Y-29858612D01*
X44076537Y-29865224D01*
X44094279Y-29873616D01*
X44111114Y-29883706D01*
X44126879Y-29895398D01*
X44141421Y-29908579D01*
X44154602Y-29923121D01*
X44166294Y-29938886D01*
X44176384Y-29955721D01*
X44184776Y-29973463D01*
X44191388Y-29991943D01*
X44196157Y-30010982D01*
X44199037Y-30030397D01*
X44200000Y-30050000D01*
X44200000Y-30950000D01*
X44199037Y-30969603D01*
X44196157Y-30989018D01*
X44191388Y-31008057D01*
X44184776Y-31026537D01*
X44176384Y-31044279D01*
X44166294Y-31061114D01*
X44154602Y-31076879D01*
X44141421Y-31091421D01*
X44126879Y-31104602D01*
X44111114Y-31116294D01*
X44094279Y-31126384D01*
X44076537Y-31134776D01*
X44058057Y-31141388D01*
X44039018Y-31146157D01*
X44019603Y-31149037D01*
X44000000Y-31150000D01*
X43600000Y-31150000D01*
X43580397Y-31149037D01*
X43560982Y-31146157D01*
X43541943Y-31141388D01*
X43523463Y-31134776D01*
X43505721Y-31126384D01*
X43488886Y-31116294D01*
X43473121Y-31104602D01*
X43458579Y-31091421D01*
X43445398Y-31076879D01*
X43433706Y-31061114D01*
X43423616Y-31044279D01*
X43415224Y-31026537D01*
X43408612Y-31008057D01*
X43403843Y-30989018D01*
X43400963Y-30969603D01*
X43400000Y-30950000D01*
X43400000Y-30050000D01*
X43400963Y-30030397D01*
X43403843Y-30010982D01*
X43408612Y-29991943D01*
X43415224Y-29973463D01*
X43423616Y-29955721D01*
X43433706Y-29938886D01*
X43445398Y-29923121D01*
X43458579Y-29908579D01*
X43473121Y-29895398D01*
X43488886Y-29883706D01*
X43505721Y-29873616D01*
X43523463Y-29865224D01*
X43541943Y-29858612D01*
X43560982Y-29853843D01*
X43580397Y-29850963D01*
X43600000Y-29850000D01*
X44000000Y-29850000D01*
X44019603Y-29850963D01*
G37*
%TD.AperFunction*%
D12*
%TO.N,GND*%
X45050000Y-30500000D03*
%TD*%
%TA.AperFunction,ViaPad*%
D13*
%TO.N,+5V*%
%TO.C,J5*%
G36*
X73469603Y-45600963D02*
G01*
X73489018Y-45603843D01*
X73508057Y-45608612D01*
X73526537Y-45615224D01*
X73544279Y-45623616D01*
X73561114Y-45633706D01*
X73576879Y-45645398D01*
X73591421Y-45658579D01*
X73604602Y-45673121D01*
X73616294Y-45688886D01*
X73626384Y-45705721D01*
X73634776Y-45723463D01*
X73641388Y-45741943D01*
X73646157Y-45760982D01*
X73649037Y-45780397D01*
X73650000Y-45800000D01*
X73650000Y-46200000D01*
X73649037Y-46219603D01*
X73646157Y-46239018D01*
X73641388Y-46258057D01*
X73634776Y-46276537D01*
X73626384Y-46294279D01*
X73616294Y-46311114D01*
X73604602Y-46326879D01*
X73591421Y-46341421D01*
X73576879Y-46354602D01*
X73561114Y-46366294D01*
X73544279Y-46376384D01*
X73526537Y-46384776D01*
X73508057Y-46391388D01*
X73489018Y-46396157D01*
X73469603Y-46399037D01*
X73450000Y-46400000D01*
X72550000Y-46400000D01*
X72530397Y-46399037D01*
X72510982Y-46396157D01*
X72491943Y-46391388D01*
X72473463Y-46384776D01*
X72455721Y-46376384D01*
X72438886Y-46366294D01*
X72423121Y-46354602D01*
X72408579Y-46341421D01*
X72395398Y-46326879D01*
X72383706Y-46311114D01*
X72373616Y-46294279D01*
X72365224Y-46276537D01*
X72358612Y-46258057D01*
X72353843Y-46239018D01*
X72350963Y-46219603D01*
X72350000Y-46200000D01*
X72350000Y-45800000D01*
X72350963Y-45780397D01*
X72353843Y-45760982D01*
X72358612Y-45741943D01*
X72365224Y-45723463D01*
X72373616Y-45705721D01*
X72383706Y-45688886D01*
X72395398Y-45673121D01*
X72408579Y-45658579D01*
X72423121Y-45645398D01*
X72438886Y-45633706D01*
X72455721Y-45623616D01*
X72473463Y-45615224D01*
X72491943Y-45608612D01*
X72510982Y-45603843D01*
X72530397Y-45600963D01*
X72550000Y-45600000D01*
X73450000Y-45600000D01*
X73469603Y-45600963D01*
G37*
%TD.AperFunction*%
D14*
%TO.N,RGB_Data*%
X73000000Y-47250000D03*
%TO.N,GND*%
X73000000Y-48500000D03*
%TD*%
%TA.AperFunction,ViaPad*%
D13*
%TO.N,NTC_A*%
%TO.C,J6*%
G36*
X66519603Y-29850963D02*
G01*
X66539018Y-29853843D01*
X66558057Y-29858612D01*
X66576537Y-29865224D01*
X66594279Y-29873616D01*
X66611114Y-29883706D01*
X66626879Y-29895398D01*
X66641421Y-29908579D01*
X66654602Y-29923121D01*
X66666294Y-29938886D01*
X66676384Y-29955721D01*
X66684776Y-29973463D01*
X66691388Y-29991943D01*
X66696157Y-30010982D01*
X66699037Y-30030397D01*
X66700000Y-30050000D01*
X66700000Y-30950000D01*
X66699037Y-30969603D01*
X66696157Y-30989018D01*
X66691388Y-31008057D01*
X66684776Y-31026537D01*
X66676384Y-31044279D01*
X66666294Y-31061114D01*
X66654602Y-31076879D01*
X66641421Y-31091421D01*
X66626879Y-31104602D01*
X66611114Y-31116294D01*
X66594279Y-31126384D01*
X66576537Y-31134776D01*
X66558057Y-31141388D01*
X66539018Y-31146157D01*
X66519603Y-31149037D01*
X66500000Y-31150000D01*
X66100000Y-31150000D01*
X66080397Y-31149037D01*
X66060982Y-31146157D01*
X66041943Y-31141388D01*
X66023463Y-31134776D01*
X66005721Y-31126384D01*
X65988886Y-31116294D01*
X65973121Y-31104602D01*
X65958579Y-31091421D01*
X65945398Y-31076879D01*
X65933706Y-31061114D01*
X65923616Y-31044279D01*
X65915224Y-31026537D01*
X65908612Y-31008057D01*
X65903843Y-30989018D01*
X65900963Y-30969603D01*
X65900000Y-30950000D01*
X65900000Y-30050000D01*
X65900963Y-30030397D01*
X65903843Y-30010982D01*
X65908612Y-29991943D01*
X65915224Y-29973463D01*
X65923616Y-29955721D01*
X65933706Y-29938886D01*
X65945398Y-29923121D01*
X65958579Y-29908579D01*
X65973121Y-29895398D01*
X65988886Y-29883706D01*
X66005721Y-29873616D01*
X66023463Y-29865224D01*
X66041943Y-29858612D01*
X66060982Y-29853843D01*
X66080397Y-29850963D01*
X66100000Y-29850000D01*
X66500000Y-29850000D01*
X66519603Y-29850963D01*
G37*
%TD.AperFunction*%
D12*
%TO.N,GND*%
X67550000Y-30500000D03*
%TD*%
%TA.AperFunction,ViaPad*%
D13*
%TO.N,Net-(J7-Pad1)*%
%TO.C,J7*%
G36*
X51219603Y-29850963D02*
G01*
X51239018Y-29853843D01*
X51258057Y-29858612D01*
X51276537Y-29865224D01*
X51294279Y-29873616D01*
X51311114Y-29883706D01*
X51326879Y-29895398D01*
X51341421Y-29908579D01*
X51354602Y-29923121D01*
X51366294Y-29938886D01*
X51376384Y-29955721D01*
X51384776Y-29973463D01*
X51391388Y-29991943D01*
X51396157Y-30010982D01*
X51399037Y-30030397D01*
X51400000Y-30050000D01*
X51400000Y-30950000D01*
X51399037Y-30969603D01*
X51396157Y-30989018D01*
X51391388Y-31008057D01*
X51384776Y-31026537D01*
X51376384Y-31044279D01*
X51366294Y-31061114D01*
X51354602Y-31076879D01*
X51341421Y-31091421D01*
X51326879Y-31104602D01*
X51311114Y-31116294D01*
X51294279Y-31126384D01*
X51276537Y-31134776D01*
X51258057Y-31141388D01*
X51239018Y-31146157D01*
X51219603Y-31149037D01*
X51200000Y-31150000D01*
X50800000Y-31150000D01*
X50780397Y-31149037D01*
X50760982Y-31146157D01*
X50741943Y-31141388D01*
X50723463Y-31134776D01*
X50705721Y-31126384D01*
X50688886Y-31116294D01*
X50673121Y-31104602D01*
X50658579Y-31091421D01*
X50645398Y-31076879D01*
X50633706Y-31061114D01*
X50623616Y-31044279D01*
X50615224Y-31026537D01*
X50608612Y-31008057D01*
X50603843Y-30989018D01*
X50600963Y-30969603D01*
X50600000Y-30950000D01*
X50600000Y-30050000D01*
X50600963Y-30030397D01*
X50603843Y-30010982D01*
X50608612Y-29991943D01*
X50615224Y-29973463D01*
X50623616Y-29955721D01*
X50633706Y-29938886D01*
X50645398Y-29923121D01*
X50658579Y-29908579D01*
X50673121Y-29895398D01*
X50688886Y-29883706D01*
X50705721Y-29873616D01*
X50723463Y-29865224D01*
X50741943Y-29858612D01*
X50760982Y-29853843D01*
X50780397Y-29850963D01*
X50800000Y-29850000D01*
X51200000Y-29850000D01*
X51219603Y-29850963D01*
G37*
%TD.AperFunction*%
D12*
%TO.N,Net-(J7-Pad2)*%
X52250000Y-30500000D03*
%TO.N,Net-(J7-Pad3)*%
X53500000Y-30500000D03*
%TO.N,Net-(J7-Pad4)*%
X54750000Y-30500000D03*
%TO.N,Net-(J7-Pad5)*%
X56000000Y-30500000D03*
%TO.N,Net-(J7-Pad6)*%
X57250000Y-30500000D03*
%TO.N,Net-(J7-Pad7)*%
X58500000Y-30500000D03*
%TO.N,Net-(J7-Pad8)*%
X59750000Y-30500000D03*
%TO.N,GND*%
X61000000Y-30500000D03*
%TD*%
D15*
%TO.N,GND*%
%TO.C,U2*%
X40888000Y-46454000D03*
X40888000Y-47654000D03*
X42088000Y-47654000D03*
X42088000Y-46454000D03*
X40888000Y-50054000D03*
X40888000Y-48954000D03*
X42088000Y-48954000D03*
X42088000Y-50054000D03*
%TD*%
D16*
%TO.N,+5V*%
X63300000Y-47600000D03*
X64200000Y-47600000D03*
X64100000Y-39200000D03*
X65100000Y-39200000D03*
X37000000Y-65000000D03*
X36000000Y-65000000D03*
X36000000Y-66000000D03*
X37000000Y-66000000D03*
X27000000Y-49000000D03*
X28000000Y-49000000D03*
X27000000Y-50000000D03*
X28000000Y-50000000D03*
X27000000Y-51000000D03*
X28000000Y-51000000D03*
X27000000Y-48000000D03*
X28000000Y-48000000D03*
X73700000Y-57400000D03*
X73700000Y-58400000D03*
X64500000Y-61000000D03*
X64500000Y-60000000D03*
X31600000Y-62100000D03*
X63300000Y-48600000D03*
X64200000Y-48600000D03*
X73000000Y-41000000D03*
X73000000Y-42000000D03*
X73000000Y-43000000D03*
%TO.N,RPM*%
X55600000Y-41100000D03*
X57700000Y-43900000D03*
%TO.N,BUTTON_1*%
X58700000Y-45400000D03*
X61700000Y-60200000D03*
%TO.N,BUTTON_2*%
X59500000Y-46200000D03*
X69400000Y-56700000D03*
%TO.N,RGB_Data*%
X62400000Y-54100000D03*
%TO.N,LED0*%
X50300000Y-36000000D03*
X60300000Y-50300000D03*
%TO.N,LED1*%
X51800000Y-36000000D03*
X61100000Y-49400000D03*
%TO.N,LED2*%
X53300000Y-36000000D03*
X62700000Y-50700000D03*
%TO.N,LED3*%
X62800000Y-46200000D03*
X54800000Y-36000000D03*
%TO.N,LED4*%
X64000000Y-45400000D03*
X56300000Y-36000000D03*
%TO.N,GND*%
X39400000Y-29300000D03*
X39400000Y-30200000D03*
X39400000Y-31100000D03*
X40400000Y-29300000D03*
X40400000Y-30200000D03*
X40400000Y-31100000D03*
X39400000Y-32000000D03*
X40400000Y-32000000D03*
X74000000Y-53000000D03*
X72700000Y-53000000D03*
X72700000Y-54100000D03*
X74000000Y-54100000D03*
X74000000Y-55200000D03*
X72700000Y-55200000D03*
X53800000Y-47600000D03*
X53800000Y-46600000D03*
X52100000Y-42300000D03*
X52100000Y-43400000D03*
X53300000Y-42300000D03*
X55500000Y-44600000D03*
X54600000Y-44600000D03*
X58700000Y-37400000D03*
X59700000Y-37400000D03*
X60600000Y-37400000D03*
X61600000Y-37400000D03*
X64100000Y-40900000D03*
X65100000Y-40900000D03*
X27000000Y-37000000D03*
X28000000Y-37000000D03*
X28000000Y-36000000D03*
X27000000Y-36000000D03*
X27000000Y-35000000D03*
X28000000Y-35000000D03*
X29000000Y-35000000D03*
X29000000Y-36000000D03*
X29000000Y-37000000D03*
X61400000Y-55000000D03*
X61400000Y-55900000D03*
X64500000Y-59000000D03*
X64500000Y-58100000D03*
X52200000Y-64900000D03*
X51100000Y-64900000D03*
X53300000Y-64900000D03*
X41700000Y-65400000D03*
X39100000Y-65400000D03*
X40400000Y-65400000D03*
X41700000Y-66600000D03*
X40400000Y-66600000D03*
X39100000Y-66600000D03*
X33900000Y-56700000D03*
X33900000Y-55700000D03*
X33900000Y-54700000D03*
X33900000Y-53800000D03*
X50300000Y-49400000D03*
X50300000Y-50300000D03*
X50300000Y-51200000D03*
X50300000Y-52100000D03*
X67800000Y-65800000D03*
X67800000Y-64800000D03*
X53800000Y-48600000D03*
X68000000Y-44500000D03*
X68000000Y-45600000D03*
X35300000Y-53800000D03*
X35300000Y-54700000D03*
X35300000Y-55700000D03*
X35300000Y-56700000D03*
%TO.N,Net-(C6-Pad1)*%
X48900000Y-51200000D03*
X48900000Y-45200000D03*
%TD*%
D17*
%TO.N,+5V*%
G36*
X38482795Y-28809744D02*
G01*
X38404774Y-28998102D01*
X38365000Y-29198061D01*
X38365000Y-29401939D01*
X38404774Y-29601898D01*
X38466120Y-29750000D01*
X38404774Y-29898102D01*
X38365000Y-30098061D01*
X38365000Y-30301939D01*
X38404774Y-30501898D01*
X38466120Y-30650000D01*
X38404774Y-30798102D01*
X38365000Y-30998061D01*
X38365000Y-31201939D01*
X38404774Y-31401898D01*
X38466120Y-31550000D01*
X38404774Y-31698102D01*
X38365000Y-31898061D01*
X38365000Y-32101939D01*
X38404774Y-32301898D01*
X38482795Y-32490256D01*
X38596063Y-32659774D01*
X38740226Y-32803937D01*
X38909744Y-32917205D01*
X39098102Y-32995226D01*
X39298061Y-33035000D01*
X39501939Y-33035000D01*
X39701898Y-32995226D01*
X39890256Y-32917205D01*
X39900000Y-32910694D01*
X39909744Y-32917205D01*
X40098102Y-32995226D01*
X40298061Y-33035000D01*
X40501939Y-33035000D01*
X40701898Y-32995226D01*
X40890256Y-32917205D01*
X41059774Y-32803937D01*
X41203937Y-32659774D01*
X41317205Y-32490256D01*
X41395226Y-32301898D01*
X41435000Y-32101939D01*
X41435000Y-31898061D01*
X41395226Y-31698102D01*
X41333880Y-31550000D01*
X41395226Y-31401898D01*
X41435000Y-31201939D01*
X41435000Y-30998061D01*
X41395226Y-30798102D01*
X41333880Y-30650000D01*
X41395226Y-30501898D01*
X41435000Y-30301939D01*
X41435000Y-30098061D01*
X41425441Y-30050000D01*
X42761928Y-30050000D01*
X42761928Y-30950000D01*
X42778031Y-31113500D01*
X42825722Y-31270716D01*
X42903169Y-31415608D01*
X43007394Y-31542606D01*
X43134392Y-31646831D01*
X43279284Y-31724278D01*
X43436500Y-31771969D01*
X43600000Y-31788072D01*
X44000000Y-31788072D01*
X44163500Y-31771969D01*
X44320716Y-31724278D01*
X44465608Y-31646831D01*
X44491894Y-31625259D01*
X44652008Y-31710841D01*
X44847106Y-31770024D01*
X45050000Y-31790007D01*
X45252895Y-31770024D01*
X45447993Y-31710841D01*
X45627797Y-31614734D01*
X45785396Y-31485396D01*
X45914734Y-31327797D01*
X46010841Y-31147992D01*
X46070024Y-30952894D01*
X46085000Y-30800837D01*
X46085000Y-30199162D01*
X46070310Y-30050000D01*
X49961928Y-30050000D01*
X49961928Y-30950000D01*
X49978031Y-31113500D01*
X50025722Y-31270716D01*
X50103169Y-31415608D01*
X50207394Y-31542606D01*
X50334392Y-31646831D01*
X50479284Y-31724278D01*
X50636500Y-31771969D01*
X50800000Y-31788072D01*
X51200000Y-31788072D01*
X51363500Y-31771969D01*
X51520716Y-31724278D01*
X51665608Y-31646831D01*
X51691894Y-31625259D01*
X51852008Y-31710841D01*
X52047106Y-31770024D01*
X52250000Y-31790007D01*
X52452895Y-31770024D01*
X52647993Y-31710841D01*
X52827797Y-31614734D01*
X52875001Y-31575995D01*
X52922204Y-31614734D01*
X53102008Y-31710841D01*
X53297106Y-31770024D01*
X53500000Y-31790007D01*
X53702895Y-31770024D01*
X53897993Y-31710841D01*
X54077797Y-31614734D01*
X54125001Y-31575995D01*
X54172204Y-31614734D01*
X54352008Y-31710841D01*
X54547106Y-31770024D01*
X54750000Y-31790007D01*
X54952895Y-31770024D01*
X55147993Y-31710841D01*
X55327797Y-31614734D01*
X55375001Y-31575995D01*
X55422204Y-31614734D01*
X55602008Y-31710841D01*
X55797106Y-31770024D01*
X56000000Y-31790007D01*
X56202895Y-31770024D01*
X56397993Y-31710841D01*
X56577797Y-31614734D01*
X56625001Y-31575995D01*
X56672204Y-31614734D01*
X56852008Y-31710841D01*
X57047106Y-31770024D01*
X57250000Y-31790007D01*
X57452895Y-31770024D01*
X57647993Y-31710841D01*
X57827797Y-31614734D01*
X57875001Y-31575995D01*
X57922204Y-31614734D01*
X58102008Y-31710841D01*
X58297106Y-31770024D01*
X58500000Y-31790007D01*
X58702895Y-31770024D01*
X58897993Y-31710841D01*
X59077797Y-31614734D01*
X59125001Y-31575995D01*
X59172204Y-31614734D01*
X59352008Y-31710841D01*
X59547106Y-31770024D01*
X59750000Y-31790007D01*
X59952895Y-31770024D01*
X60147993Y-31710841D01*
X60327797Y-31614734D01*
X60375001Y-31575995D01*
X60422204Y-31614734D01*
X60602008Y-31710841D01*
X60797106Y-31770024D01*
X61000000Y-31790007D01*
X61202895Y-31770024D01*
X61397993Y-31710841D01*
X61577797Y-31614734D01*
X61735396Y-31485396D01*
X61864734Y-31327797D01*
X61960841Y-31147992D01*
X62020024Y-30952894D01*
X62035000Y-30800837D01*
X62035000Y-30199162D01*
X62020310Y-30050000D01*
X65261928Y-30050000D01*
X65261928Y-30950000D01*
X65278031Y-31113500D01*
X65325722Y-31270716D01*
X65403169Y-31415608D01*
X65507394Y-31542606D01*
X65634392Y-31646831D01*
X65779284Y-31724278D01*
X65936500Y-31771969D01*
X66100000Y-31788072D01*
X66500000Y-31788072D01*
X66663500Y-31771969D01*
X66820716Y-31724278D01*
X66965608Y-31646831D01*
X66991894Y-31625259D01*
X67152008Y-31710841D01*
X67347106Y-31770024D01*
X67550000Y-31790007D01*
X67752895Y-31770024D01*
X67947993Y-31710841D01*
X68127797Y-31614734D01*
X68285396Y-31485396D01*
X68414734Y-31327797D01*
X68510841Y-31147992D01*
X68570024Y-30952894D01*
X68585000Y-30800837D01*
X68585000Y-30199162D01*
X68570024Y-30047105D01*
X68510841Y-29852007D01*
X68414734Y-29672203D01*
X68285396Y-29514604D01*
X68127797Y-29385266D01*
X67947992Y-29289159D01*
X67752894Y-29229976D01*
X67550000Y-29209993D01*
X67347105Y-29229976D01*
X67152007Y-29289159D01*
X66991894Y-29374741D01*
X66965608Y-29353169D01*
X66820716Y-29275722D01*
X66663500Y-29228031D01*
X66500000Y-29211928D01*
X66100000Y-29211928D01*
X65936500Y-29228031D01*
X65779284Y-29275722D01*
X65634392Y-29353169D01*
X65507394Y-29457394D01*
X65403169Y-29584392D01*
X65325722Y-29729284D01*
X65278031Y-29886500D01*
X65261928Y-30050000D01*
X62020310Y-30050000D01*
X62020024Y-30047105D01*
X61960841Y-29852007D01*
X61864734Y-29672203D01*
X61735396Y-29514604D01*
X61577797Y-29385266D01*
X61397992Y-29289159D01*
X61202894Y-29229976D01*
X61000000Y-29209993D01*
X60797105Y-29229976D01*
X60602007Y-29289159D01*
X60422203Y-29385266D01*
X60375000Y-29424004D01*
X60327797Y-29385266D01*
X60147992Y-29289159D01*
X59952894Y-29229976D01*
X59750000Y-29209993D01*
X59547105Y-29229976D01*
X59352007Y-29289159D01*
X59172203Y-29385266D01*
X59125000Y-29424004D01*
X59077797Y-29385266D01*
X58897992Y-29289159D01*
X58702894Y-29229976D01*
X58500000Y-29209993D01*
X58297105Y-29229976D01*
X58102007Y-29289159D01*
X57922203Y-29385266D01*
X57875000Y-29424004D01*
X57827797Y-29385266D01*
X57647992Y-29289159D01*
X57452894Y-29229976D01*
X57250000Y-29209993D01*
X57047105Y-29229976D01*
X56852007Y-29289159D01*
X56672203Y-29385266D01*
X56625000Y-29424004D01*
X56577797Y-29385266D01*
X56397992Y-29289159D01*
X56202894Y-29229976D01*
X56000000Y-29209993D01*
X55797105Y-29229976D01*
X55602007Y-29289159D01*
X55422203Y-29385266D01*
X55375000Y-29424004D01*
X55327797Y-29385266D01*
X55147992Y-29289159D01*
X54952894Y-29229976D01*
X54750000Y-29209993D01*
X54547105Y-29229976D01*
X54352007Y-29289159D01*
X54172203Y-29385266D01*
X54125000Y-29424004D01*
X54077797Y-29385266D01*
X53897992Y-29289159D01*
X53702894Y-29229976D01*
X53500000Y-29209993D01*
X53297105Y-29229976D01*
X53102007Y-29289159D01*
X52922203Y-29385266D01*
X52875000Y-29424004D01*
X52827797Y-29385266D01*
X52647992Y-29289159D01*
X52452894Y-29229976D01*
X52250000Y-29209993D01*
X52047105Y-29229976D01*
X51852007Y-29289159D01*
X51691894Y-29374741D01*
X51665608Y-29353169D01*
X51520716Y-29275722D01*
X51363500Y-29228031D01*
X51200000Y-29211928D01*
X50800000Y-29211928D01*
X50636500Y-29228031D01*
X50479284Y-29275722D01*
X50334392Y-29353169D01*
X50207394Y-29457394D01*
X50103169Y-29584392D01*
X50025722Y-29729284D01*
X49978031Y-29886500D01*
X49961928Y-30050000D01*
X46070310Y-30050000D01*
X46070024Y-30047105D01*
X46010841Y-29852007D01*
X45914734Y-29672203D01*
X45785396Y-29514604D01*
X45627797Y-29385266D01*
X45447992Y-29289159D01*
X45252894Y-29229976D01*
X45050000Y-29209993D01*
X44847105Y-29229976D01*
X44652007Y-29289159D01*
X44491894Y-29374741D01*
X44465608Y-29353169D01*
X44320716Y-29275722D01*
X44163500Y-29228031D01*
X44000000Y-29211928D01*
X43600000Y-29211928D01*
X43436500Y-29228031D01*
X43279284Y-29275722D01*
X43134392Y-29353169D01*
X43007394Y-29457394D01*
X42903169Y-29584392D01*
X42825722Y-29729284D01*
X42778031Y-29886500D01*
X42761928Y-30050000D01*
X41425441Y-30050000D01*
X41395226Y-29898102D01*
X41333880Y-29750000D01*
X41395226Y-29601898D01*
X41435000Y-29401939D01*
X41435000Y-29198061D01*
X41395226Y-28998102D01*
X41317205Y-28809744D01*
X41217150Y-28660000D01*
X71399193Y-28660000D01*
X71192793Y-28797912D01*
X70797912Y-29192793D01*
X70487656Y-29657124D01*
X70273948Y-30173061D01*
X70165000Y-30720777D01*
X70165000Y-31279223D01*
X70273948Y-31826939D01*
X70487656Y-32342876D01*
X70797912Y-32807207D01*
X71192793Y-33202088D01*
X71657124Y-33512344D01*
X72173061Y-33726052D01*
X72720777Y-33835000D01*
X73279223Y-33835000D01*
X73826939Y-33726052D01*
X74342876Y-33512344D01*
X74807207Y-33202088D01*
X75202088Y-32807207D01*
X75340000Y-32600807D01*
X75340001Y-63399194D01*
X75202088Y-63192793D01*
X74807207Y-62797912D01*
X74342876Y-62487656D01*
X73826939Y-62273948D01*
X73279223Y-62165000D01*
X72720777Y-62165000D01*
X72173061Y-62273948D01*
X71657124Y-62487656D01*
X71192793Y-62797912D01*
X70797912Y-63192793D01*
X70487656Y-63657124D01*
X70273948Y-64173061D01*
X70245689Y-64315130D01*
X70170901Y-64203202D01*
X69996798Y-64029099D01*
X69792074Y-63892307D01*
X69564598Y-63798083D01*
X69323110Y-63750048D01*
X69076890Y-63750048D01*
X68835402Y-63798083D01*
X68607926Y-63892307D01*
X68456209Y-63993681D01*
X68290256Y-63882795D01*
X68101898Y-63804774D01*
X67901939Y-63765000D01*
X67698061Y-63765000D01*
X67498102Y-63804774D01*
X67309744Y-63882795D01*
X67140226Y-63996063D01*
X66996063Y-64140226D01*
X66882795Y-64309744D01*
X66804774Y-64498102D01*
X66765000Y-64698061D01*
X66765000Y-64901939D01*
X66804774Y-65101898D01*
X66882795Y-65290256D01*
X66889306Y-65300000D01*
X66882795Y-65309744D01*
X66804774Y-65498102D01*
X66765000Y-65698061D01*
X66765000Y-65901939D01*
X66804774Y-66101898D01*
X66882795Y-66290256D01*
X66996063Y-66459774D01*
X67140226Y-66603937D01*
X67309744Y-66717205D01*
X67498102Y-66795226D01*
X67698061Y-66835000D01*
X67901939Y-66835000D01*
X68101898Y-66795226D01*
X68290256Y-66717205D01*
X68459774Y-66603937D01*
X68603937Y-66459774D01*
X68717205Y-66290256D01*
X68765747Y-66173065D01*
X68835402Y-66201917D01*
X69076890Y-66249952D01*
X69323110Y-66249952D01*
X69564598Y-66201917D01*
X69792074Y-66107693D01*
X69996798Y-65970901D01*
X70170901Y-65796798D01*
X70245689Y-65684870D01*
X70273948Y-65826939D01*
X70487656Y-66342876D01*
X70797912Y-66807207D01*
X71192793Y-67202088D01*
X71399193Y-67340000D01*
X42423711Y-67340000D01*
X42503937Y-67259774D01*
X42617205Y-67090256D01*
X42695226Y-66901898D01*
X42735000Y-66701939D01*
X42735000Y-66498061D01*
X42695226Y-66298102D01*
X42617205Y-66109744D01*
X42543877Y-66000000D01*
X42617205Y-65890256D01*
X42695226Y-65701898D01*
X42735000Y-65501939D01*
X42735000Y-65298061D01*
X42695226Y-65098102D01*
X42617205Y-64909744D01*
X42542582Y-64798061D01*
X50065000Y-64798061D01*
X50065000Y-65001939D01*
X50104774Y-65201898D01*
X50182795Y-65390256D01*
X50296063Y-65559774D01*
X50440226Y-65703937D01*
X50609744Y-65817205D01*
X50798102Y-65895226D01*
X50998061Y-65935000D01*
X51201939Y-65935000D01*
X51401898Y-65895226D01*
X51590256Y-65817205D01*
X51650000Y-65777285D01*
X51709744Y-65817205D01*
X51898102Y-65895226D01*
X52098061Y-65935000D01*
X52301939Y-65935000D01*
X52501898Y-65895226D01*
X52690256Y-65817205D01*
X52750000Y-65777285D01*
X52809744Y-65817205D01*
X52998102Y-65895226D01*
X53198061Y-65935000D01*
X53401939Y-65935000D01*
X53601898Y-65895226D01*
X53790256Y-65817205D01*
X53959774Y-65703937D01*
X54103937Y-65559774D01*
X54217205Y-65390256D01*
X54295226Y-65201898D01*
X54335000Y-65001939D01*
X54335000Y-64798061D01*
X54295226Y-64598102D01*
X54217205Y-64409744D01*
X54103937Y-64240226D01*
X53959774Y-64096063D01*
X53790256Y-63982795D01*
X53601898Y-63904774D01*
X53401939Y-63865000D01*
X53198061Y-63865000D01*
X52998102Y-63904774D01*
X52809744Y-63982795D01*
X52750000Y-64022715D01*
X52690256Y-63982795D01*
X52501898Y-63904774D01*
X52301939Y-63865000D01*
X52098061Y-63865000D01*
X51898102Y-63904774D01*
X51709744Y-63982795D01*
X51650000Y-64022715D01*
X51590256Y-63982795D01*
X51401898Y-63904774D01*
X51201939Y-63865000D01*
X50998061Y-63865000D01*
X50798102Y-63904774D01*
X50609744Y-63982795D01*
X50440226Y-64096063D01*
X50296063Y-64240226D01*
X50182795Y-64409744D01*
X50104774Y-64598102D01*
X50065000Y-64798061D01*
X42542582Y-64798061D01*
X42503937Y-64740226D01*
X42359774Y-64596063D01*
X42190256Y-64482795D01*
X42001898Y-64404774D01*
X41801939Y-64365000D01*
X41598061Y-64365000D01*
X41398102Y-64404774D01*
X41209744Y-64482795D01*
X41050000Y-64589532D01*
X40890256Y-64482795D01*
X40701898Y-64404774D01*
X40501939Y-64365000D01*
X40298061Y-64365000D01*
X40098102Y-64404774D01*
X39909744Y-64482795D01*
X39750000Y-64589532D01*
X39590256Y-64482795D01*
X39401898Y-64404774D01*
X39201939Y-64365000D01*
X38998061Y-64365000D01*
X38798102Y-64404774D01*
X38609744Y-64482795D01*
X38440226Y-64596063D01*
X38296063Y-64740226D01*
X38182795Y-64909744D01*
X38104774Y-65098102D01*
X38065000Y-65298061D01*
X38065000Y-65501939D01*
X38104774Y-65701898D01*
X38182795Y-65890256D01*
X38256123Y-66000000D01*
X38182795Y-66109744D01*
X38104774Y-66298102D01*
X38065000Y-66498061D01*
X38065000Y-66701939D01*
X38104774Y-66901898D01*
X38182795Y-67090256D01*
X38296063Y-67259774D01*
X38376289Y-67340000D01*
X30600807Y-67340000D01*
X30807207Y-67202088D01*
X31202088Y-66807207D01*
X31512344Y-66342876D01*
X31726052Y-65826939D01*
X31811550Y-65397111D01*
X31892307Y-65592074D01*
X32029099Y-65796798D01*
X32203202Y-65970901D01*
X32407926Y-66107693D01*
X32635402Y-66201917D01*
X32876890Y-66249952D01*
X33123110Y-66249952D01*
X33364598Y-66201917D01*
X33592074Y-66107693D01*
X33796798Y-65970901D01*
X33970901Y-65796798D01*
X34107693Y-65592074D01*
X34201917Y-65364598D01*
X34249952Y-65123110D01*
X34249952Y-64876890D01*
X34201917Y-64635402D01*
X34107693Y-64407926D01*
X33970901Y-64203202D01*
X33796798Y-64029099D01*
X33592074Y-63892307D01*
X33364598Y-63798083D01*
X33123110Y-63750048D01*
X32876890Y-63750048D01*
X32635402Y-63798083D01*
X32407926Y-63892307D01*
X32203202Y-64029099D01*
X32029099Y-64203202D01*
X31892307Y-64407926D01*
X31811550Y-64602889D01*
X31726052Y-64173061D01*
X31512344Y-63657124D01*
X31202088Y-63192793D01*
X30807207Y-62797912D01*
X30342876Y-62487656D01*
X29826939Y-62273948D01*
X29279223Y-62165000D01*
X28720777Y-62165000D01*
X28173061Y-62273948D01*
X27657124Y-62487656D01*
X27192793Y-62797912D01*
X26797912Y-63192793D01*
X26660000Y-63399193D01*
X26660000Y-60098061D01*
X60665000Y-60098061D01*
X60665000Y-60301939D01*
X60704774Y-60501898D01*
X60782795Y-60690256D01*
X60896063Y-60859774D01*
X61040226Y-61003937D01*
X61209744Y-61117205D01*
X61398102Y-61195226D01*
X61598061Y-61235000D01*
X61801939Y-61235000D01*
X62001898Y-61195226D01*
X62190256Y-61117205D01*
X62359774Y-61003937D01*
X62503937Y-60859774D01*
X62617205Y-60690256D01*
X62695226Y-60501898D01*
X62735000Y-60301939D01*
X62735000Y-60098061D01*
X62695226Y-59898102D01*
X62617205Y-59709744D01*
X62503937Y-59540226D01*
X62359774Y-59396063D01*
X62190256Y-59282795D01*
X62001898Y-59204774D01*
X61801939Y-59165000D01*
X61598061Y-59165000D01*
X61398102Y-59204774D01*
X61209744Y-59282795D01*
X61040226Y-59396063D01*
X60896063Y-59540226D01*
X60782795Y-59709744D01*
X60704774Y-59898102D01*
X60665000Y-60098061D01*
X26660000Y-60098061D01*
X26660000Y-57998061D01*
X63465000Y-57998061D01*
X63465000Y-58201939D01*
X63504774Y-58401898D01*
X63566120Y-58550000D01*
X63504774Y-58698102D01*
X63465000Y-58898061D01*
X63465000Y-59101939D01*
X63504774Y-59301898D01*
X63582795Y-59490256D01*
X63696063Y-59659774D01*
X63840226Y-59803937D01*
X64009744Y-59917205D01*
X64198102Y-59995226D01*
X64398061Y-60035000D01*
X64601939Y-60035000D01*
X64801898Y-59995226D01*
X64990256Y-59917205D01*
X65159774Y-59803937D01*
X65303937Y-59659774D01*
X65417205Y-59490256D01*
X65495226Y-59301898D01*
X65535000Y-59101939D01*
X65535000Y-58898061D01*
X65495226Y-58698102D01*
X65433880Y-58550000D01*
X65495226Y-58401898D01*
X65535000Y-58201939D01*
X65535000Y-57998061D01*
X65495226Y-57798102D01*
X65417205Y-57609744D01*
X65303937Y-57440226D01*
X65159774Y-57296063D01*
X64990256Y-57182795D01*
X64801898Y-57104774D01*
X64601939Y-57065000D01*
X64398061Y-57065000D01*
X64198102Y-57104774D01*
X64009744Y-57182795D01*
X63840226Y-57296063D01*
X63696063Y-57440226D01*
X63582795Y-57609744D01*
X63504774Y-57798102D01*
X63465000Y-57998061D01*
X26660000Y-57998061D01*
X26660000Y-53698061D01*
X32865000Y-53698061D01*
X32865000Y-53901939D01*
X32904774Y-54101898D01*
X32966120Y-54250000D01*
X32904774Y-54398102D01*
X32865000Y-54598061D01*
X32865000Y-54801939D01*
X32904774Y-55001898D01*
X32982795Y-55190256D01*
X32989306Y-55200000D01*
X32982795Y-55209744D01*
X32904774Y-55398102D01*
X32865000Y-55598061D01*
X32865000Y-55801939D01*
X32904774Y-56001898D01*
X32982795Y-56190256D01*
X32989306Y-56200000D01*
X32982795Y-56209744D01*
X32904774Y-56398102D01*
X32865000Y-56598061D01*
X32865000Y-56801939D01*
X32904774Y-57001898D01*
X32982795Y-57190256D01*
X33096063Y-57359774D01*
X33240226Y-57503937D01*
X33409744Y-57617205D01*
X33598102Y-57695226D01*
X33798061Y-57735000D01*
X34001939Y-57735000D01*
X34201898Y-57695226D01*
X34390256Y-57617205D01*
X34559774Y-57503937D01*
X34600000Y-57463711D01*
X34640226Y-57503937D01*
X34809744Y-57617205D01*
X34998102Y-57695226D01*
X35198061Y-57735000D01*
X35401939Y-57735000D01*
X35601898Y-57695226D01*
X35790256Y-57617205D01*
X35959774Y-57503937D01*
X36103937Y-57359774D01*
X36217205Y-57190256D01*
X36295226Y-57001898D01*
X36335000Y-56801939D01*
X36335000Y-56598061D01*
X36295226Y-56398102D01*
X36217205Y-56209744D01*
X36210694Y-56200000D01*
X36217205Y-56190256D01*
X36295226Y-56001898D01*
X36335000Y-55801939D01*
X36335000Y-55598061D01*
X36295226Y-55398102D01*
X36217205Y-55209744D01*
X36210694Y-55200000D01*
X36217205Y-55190256D01*
X36295226Y-55001898D01*
X36315880Y-54898061D01*
X60365000Y-54898061D01*
X60365000Y-55101939D01*
X60404774Y-55301898D01*
X60466120Y-55450000D01*
X60404774Y-55598102D01*
X60365000Y-55798061D01*
X60365000Y-56001939D01*
X60404774Y-56201898D01*
X60482795Y-56390256D01*
X60596063Y-56559774D01*
X60740226Y-56703937D01*
X60909744Y-56817205D01*
X61098102Y-56895226D01*
X61298061Y-56935000D01*
X61501939Y-56935000D01*
X61701898Y-56895226D01*
X61890256Y-56817205D01*
X62059774Y-56703937D01*
X62165650Y-56598061D01*
X68365000Y-56598061D01*
X68365000Y-56801939D01*
X68404774Y-57001898D01*
X68482795Y-57190256D01*
X68596063Y-57359774D01*
X68740226Y-57503937D01*
X68909744Y-57617205D01*
X69098102Y-57695226D01*
X69298061Y-57735000D01*
X69501939Y-57735000D01*
X69701898Y-57695226D01*
X69890256Y-57617205D01*
X70059774Y-57503937D01*
X70203937Y-57359774D01*
X70317205Y-57190256D01*
X70395226Y-57001898D01*
X70435000Y-56801939D01*
X70435000Y-56598061D01*
X70395226Y-56398102D01*
X70317205Y-56209744D01*
X70203937Y-56040226D01*
X70059774Y-55896063D01*
X69890256Y-55782795D01*
X69701898Y-55704774D01*
X69501939Y-55665000D01*
X69298061Y-55665000D01*
X69098102Y-55704774D01*
X68909744Y-55782795D01*
X68740226Y-55896063D01*
X68596063Y-56040226D01*
X68482795Y-56209744D01*
X68404774Y-56398102D01*
X68365000Y-56598061D01*
X62165650Y-56598061D01*
X62203937Y-56559774D01*
X62317205Y-56390256D01*
X62395226Y-56201898D01*
X62435000Y-56001939D01*
X62435000Y-55798061D01*
X62395226Y-55598102D01*
X62333880Y-55450000D01*
X62395226Y-55301898D01*
X62428424Y-55135000D01*
X62501939Y-55135000D01*
X62701898Y-55095226D01*
X62890256Y-55017205D01*
X63059774Y-54903937D01*
X63203937Y-54759774D01*
X63317205Y-54590256D01*
X63395226Y-54401898D01*
X63435000Y-54201939D01*
X63435000Y-53998061D01*
X63395226Y-53798102D01*
X63317205Y-53609744D01*
X63203937Y-53440226D01*
X63059774Y-53296063D01*
X62890256Y-53182795D01*
X62701898Y-53104774D01*
X62501939Y-53065000D01*
X62298061Y-53065000D01*
X62098102Y-53104774D01*
X61909744Y-53182795D01*
X61740226Y-53296063D01*
X61596063Y-53440226D01*
X61482795Y-53609744D01*
X61404774Y-53798102D01*
X61371576Y-53965000D01*
X61298061Y-53965000D01*
X61098102Y-54004774D01*
X60909744Y-54082795D01*
X60740226Y-54196063D01*
X60596063Y-54340226D01*
X60482795Y-54509744D01*
X60404774Y-54698102D01*
X60365000Y-54898061D01*
X36315880Y-54898061D01*
X36335000Y-54801939D01*
X36335000Y-54598061D01*
X36295226Y-54398102D01*
X36233880Y-54250000D01*
X36295226Y-54101898D01*
X36335000Y-53901939D01*
X36335000Y-53698061D01*
X36295226Y-53498102D01*
X36217205Y-53309744D01*
X36103937Y-53140226D01*
X35959774Y-52996063D01*
X35790256Y-52882795D01*
X35601898Y-52804774D01*
X35401939Y-52765000D01*
X35198061Y-52765000D01*
X34998102Y-52804774D01*
X34809744Y-52882795D01*
X34640226Y-52996063D01*
X34600000Y-53036289D01*
X34559774Y-52996063D01*
X34390256Y-52882795D01*
X34201898Y-52804774D01*
X34001939Y-52765000D01*
X33798061Y-52765000D01*
X33598102Y-52804774D01*
X33409744Y-52882795D01*
X33240226Y-52996063D01*
X33096063Y-53140226D01*
X32982795Y-53309744D01*
X32904774Y-53498102D01*
X32865000Y-53698061D01*
X26660000Y-53698061D01*
X26660000Y-51098061D01*
X47865000Y-51098061D01*
X47865000Y-51301939D01*
X47904774Y-51501898D01*
X47982795Y-51690256D01*
X48096063Y-51859774D01*
X48240226Y-52003937D01*
X48409744Y-52117205D01*
X48598102Y-52195226D01*
X48798061Y-52235000D01*
X49001939Y-52235000D01*
X49201898Y-52195226D01*
X49265000Y-52169088D01*
X49265000Y-52201939D01*
X49304774Y-52401898D01*
X49382795Y-52590256D01*
X49496063Y-52759774D01*
X49640226Y-52903937D01*
X49809744Y-53017205D01*
X49998102Y-53095226D01*
X50198061Y-53135000D01*
X50401939Y-53135000D01*
X50601898Y-53095226D01*
X50790256Y-53017205D01*
X50959774Y-52903937D01*
X50965650Y-52898061D01*
X71665000Y-52898061D01*
X71665000Y-53101939D01*
X71704774Y-53301898D01*
X71782795Y-53490256D01*
X71822715Y-53550000D01*
X71782795Y-53609744D01*
X71704774Y-53798102D01*
X71665000Y-53998061D01*
X71665000Y-54201939D01*
X71704774Y-54401898D01*
X71782795Y-54590256D01*
X71822715Y-54650000D01*
X71782795Y-54709744D01*
X71704774Y-54898102D01*
X71665000Y-55098061D01*
X71665000Y-55301939D01*
X71704774Y-55501898D01*
X71782795Y-55690256D01*
X71896063Y-55859774D01*
X72040226Y-56003937D01*
X72209744Y-56117205D01*
X72398102Y-56195226D01*
X72598061Y-56235000D01*
X72801939Y-56235000D01*
X73001898Y-56195226D01*
X73190256Y-56117205D01*
X73350000Y-56010468D01*
X73509744Y-56117205D01*
X73698102Y-56195226D01*
X73898061Y-56235000D01*
X74101939Y-56235000D01*
X74301898Y-56195226D01*
X74490256Y-56117205D01*
X74659774Y-56003937D01*
X74803937Y-55859774D01*
X74917205Y-55690256D01*
X74995226Y-55501898D01*
X75035000Y-55301939D01*
X75035000Y-55098061D01*
X74995226Y-54898102D01*
X74917205Y-54709744D01*
X74877285Y-54650000D01*
X74917205Y-54590256D01*
X74995226Y-54401898D01*
X75035000Y-54201939D01*
X75035000Y-53998061D01*
X74995226Y-53798102D01*
X74917205Y-53609744D01*
X74877285Y-53550000D01*
X74917205Y-53490256D01*
X74995226Y-53301898D01*
X75035000Y-53101939D01*
X75035000Y-52898061D01*
X74995226Y-52698102D01*
X74917205Y-52509744D01*
X74803937Y-52340226D01*
X74659774Y-52196063D01*
X74490256Y-52082795D01*
X74301898Y-52004774D01*
X74101939Y-51965000D01*
X73898061Y-51965000D01*
X73698102Y-52004774D01*
X73509744Y-52082795D01*
X73350000Y-52189532D01*
X73190256Y-52082795D01*
X73001898Y-52004774D01*
X72801939Y-51965000D01*
X72598061Y-51965000D01*
X72398102Y-52004774D01*
X72209744Y-52082795D01*
X72040226Y-52196063D01*
X71896063Y-52340226D01*
X71782795Y-52509744D01*
X71704774Y-52698102D01*
X71665000Y-52898061D01*
X50965650Y-52898061D01*
X51103937Y-52759774D01*
X51217205Y-52590256D01*
X51295226Y-52401898D01*
X51335000Y-52201939D01*
X51335000Y-51998061D01*
X51295226Y-51798102D01*
X51233880Y-51650000D01*
X51295226Y-51501898D01*
X51335000Y-51301939D01*
X51335000Y-51098061D01*
X51295226Y-50898102D01*
X51233880Y-50750000D01*
X51295226Y-50601898D01*
X51335000Y-50401939D01*
X51335000Y-50198061D01*
X59265000Y-50198061D01*
X59265000Y-50401939D01*
X59304774Y-50601898D01*
X59382795Y-50790256D01*
X59496063Y-50959774D01*
X59640226Y-51103937D01*
X59809744Y-51217205D01*
X59998102Y-51295226D01*
X60198061Y-51335000D01*
X60401939Y-51335000D01*
X60601898Y-51295226D01*
X60790256Y-51217205D01*
X60959774Y-51103937D01*
X61103937Y-50959774D01*
X61217205Y-50790256D01*
X61295226Y-50601898D01*
X61333634Y-50408804D01*
X61401898Y-50395226D01*
X61590256Y-50317205D01*
X61759774Y-50203937D01*
X61840845Y-50122866D01*
X61782795Y-50209744D01*
X61704774Y-50398102D01*
X61665000Y-50598061D01*
X61665000Y-50801939D01*
X61704774Y-51001898D01*
X61782795Y-51190256D01*
X61896063Y-51359774D01*
X62040226Y-51503937D01*
X62209744Y-51617205D01*
X62398102Y-51695226D01*
X62598061Y-51735000D01*
X62801939Y-51735000D01*
X63001898Y-51695226D01*
X63190256Y-51617205D01*
X63359774Y-51503937D01*
X63503937Y-51359774D01*
X63617205Y-51190256D01*
X63695226Y-51001898D01*
X63735000Y-50801939D01*
X63735000Y-50598061D01*
X63695226Y-50398102D01*
X63617205Y-50209744D01*
X63503937Y-50040226D01*
X63359774Y-49896063D01*
X63190256Y-49782795D01*
X63001898Y-49704774D01*
X62801939Y-49665000D01*
X62598061Y-49665000D01*
X62398102Y-49704774D01*
X62209744Y-49782795D01*
X62040226Y-49896063D01*
X61959155Y-49977134D01*
X62017205Y-49890256D01*
X62095226Y-49701898D01*
X62135000Y-49501939D01*
X62135000Y-49298061D01*
X62095226Y-49098102D01*
X62017205Y-48909744D01*
X61903937Y-48740226D01*
X61759774Y-48596063D01*
X61590256Y-48482795D01*
X61401898Y-48404774D01*
X61201939Y-48365000D01*
X60998061Y-48365000D01*
X60798102Y-48404774D01*
X60609744Y-48482795D01*
X60440226Y-48596063D01*
X60296063Y-48740226D01*
X60182795Y-48909744D01*
X60104774Y-49098102D01*
X60066366Y-49291196D01*
X59998102Y-49304774D01*
X59809744Y-49382795D01*
X59640226Y-49496063D01*
X59496063Y-49640226D01*
X59382795Y-49809744D01*
X59304774Y-49998102D01*
X59265000Y-50198061D01*
X51335000Y-50198061D01*
X51295226Y-49998102D01*
X51233880Y-49850000D01*
X51295226Y-49701898D01*
X51335000Y-49501939D01*
X51335000Y-49298061D01*
X51295226Y-49098102D01*
X51217205Y-48909744D01*
X51103937Y-48740226D01*
X50959774Y-48596063D01*
X50790256Y-48482795D01*
X50601898Y-48404774D01*
X50401939Y-48365000D01*
X50198061Y-48365000D01*
X49998102Y-48404774D01*
X49809744Y-48482795D01*
X49640226Y-48596063D01*
X49496063Y-48740226D01*
X49382795Y-48909744D01*
X49304774Y-49098102D01*
X49265000Y-49298061D01*
X49265000Y-49501939D01*
X49304774Y-49701898D01*
X49366120Y-49850000D01*
X49304774Y-49998102D01*
X49265000Y-50198061D01*
X49265000Y-50230912D01*
X49201898Y-50204774D01*
X49001939Y-50165000D01*
X48798061Y-50165000D01*
X48598102Y-50204774D01*
X48409744Y-50282795D01*
X48240226Y-50396063D01*
X48096063Y-50540226D01*
X47982795Y-50709744D01*
X47904774Y-50898102D01*
X47865000Y-51098061D01*
X26660000Y-51098061D01*
X26660000Y-46361911D01*
X39953000Y-46361911D01*
X39953000Y-46546089D01*
X39988932Y-46726729D01*
X40059414Y-46896889D01*
X40161738Y-47050028D01*
X40165710Y-47054000D01*
X40161738Y-47057972D01*
X40059414Y-47211111D01*
X39988932Y-47381271D01*
X39953000Y-47561911D01*
X39953000Y-47746089D01*
X39988932Y-47926729D01*
X40059414Y-48096889D01*
X40161738Y-48250028D01*
X40215710Y-48304000D01*
X40161738Y-48357972D01*
X40059414Y-48511111D01*
X39988932Y-48681271D01*
X39953000Y-48861911D01*
X39953000Y-49046089D01*
X39988932Y-49226729D01*
X40059414Y-49396889D01*
X40130983Y-49504000D01*
X40059414Y-49611111D01*
X39988932Y-49781271D01*
X39953000Y-49961911D01*
X39953000Y-50146089D01*
X39988932Y-50326729D01*
X40059414Y-50496889D01*
X40161738Y-50650028D01*
X40291972Y-50780262D01*
X40445111Y-50882586D01*
X40615271Y-50953068D01*
X40795911Y-50989000D01*
X40980089Y-50989000D01*
X41160729Y-50953068D01*
X41330889Y-50882586D01*
X41484028Y-50780262D01*
X41488000Y-50776290D01*
X41491972Y-50780262D01*
X41645111Y-50882586D01*
X41815271Y-50953068D01*
X41995911Y-50989000D01*
X42180089Y-50989000D01*
X42360729Y-50953068D01*
X42530889Y-50882586D01*
X42684028Y-50780262D01*
X42814262Y-50650028D01*
X42916586Y-50496889D01*
X42987068Y-50326729D01*
X43023000Y-50146089D01*
X43023000Y-49961911D01*
X42987068Y-49781271D01*
X42916586Y-49611111D01*
X42845017Y-49504000D01*
X42916586Y-49396889D01*
X42987068Y-49226729D01*
X43023000Y-49046089D01*
X43023000Y-48861911D01*
X42987068Y-48681271D01*
X42916586Y-48511111D01*
X42814262Y-48357972D01*
X42760290Y-48304000D01*
X42814262Y-48250028D01*
X42916586Y-48096889D01*
X42987068Y-47926729D01*
X43023000Y-47746089D01*
X43023000Y-47561911D01*
X42987068Y-47381271D01*
X42916586Y-47211111D01*
X42814262Y-47057972D01*
X42810290Y-47054000D01*
X42814262Y-47050028D01*
X42916586Y-46896889D01*
X42987068Y-46726729D01*
X43023000Y-46546089D01*
X43023000Y-46498061D01*
X52765000Y-46498061D01*
X52765000Y-46701939D01*
X52804774Y-46901898D01*
X52882795Y-47090256D01*
X52889306Y-47100000D01*
X52882795Y-47109744D01*
X52804774Y-47298102D01*
X52765000Y-47498061D01*
X52765000Y-47701939D01*
X52804774Y-47901898D01*
X52882795Y-48090256D01*
X52889306Y-48100000D01*
X52882795Y-48109744D01*
X52804774Y-48298102D01*
X52765000Y-48498061D01*
X52765000Y-48701939D01*
X52804774Y-48901898D01*
X52882795Y-49090256D01*
X52996063Y-49259774D01*
X53140226Y-49403937D01*
X53309744Y-49517205D01*
X53498102Y-49595226D01*
X53698061Y-49635000D01*
X53901939Y-49635000D01*
X54101898Y-49595226D01*
X54290256Y-49517205D01*
X54459774Y-49403937D01*
X54603937Y-49259774D01*
X54717205Y-49090256D01*
X54795226Y-48901898D01*
X54835000Y-48701939D01*
X54835000Y-48498061D01*
X54795226Y-48298102D01*
X54717205Y-48109744D01*
X54710694Y-48100000D01*
X54717205Y-48090256D01*
X54795226Y-47901898D01*
X54835000Y-47701939D01*
X54835000Y-47498061D01*
X54795226Y-47298102D01*
X54775302Y-47250000D01*
X71709993Y-47250000D01*
X71729976Y-47452895D01*
X71789159Y-47647993D01*
X71885266Y-47827797D01*
X71924004Y-47875000D01*
X71885266Y-47922203D01*
X71789159Y-48102007D01*
X71729976Y-48297105D01*
X71709993Y-48500000D01*
X71729976Y-48702895D01*
X71789159Y-48897993D01*
X71885266Y-49077797D01*
X72014604Y-49235396D01*
X72172203Y-49364734D01*
X72352007Y-49460841D01*
X72547105Y-49520024D01*
X72699162Y-49535000D01*
X73300838Y-49535000D01*
X73452895Y-49520024D01*
X73647993Y-49460841D01*
X73827797Y-49364734D01*
X73985396Y-49235396D01*
X74114734Y-49077797D01*
X74210841Y-48897993D01*
X74270024Y-48702895D01*
X74290007Y-48500000D01*
X74270024Y-48297105D01*
X74210841Y-48102007D01*
X74114734Y-47922203D01*
X74075996Y-47875000D01*
X74114734Y-47827797D01*
X74210841Y-47647993D01*
X74270024Y-47452895D01*
X74290007Y-47250000D01*
X74270024Y-47047105D01*
X74210841Y-46852007D01*
X74167401Y-46770736D01*
X74179298Y-46756342D01*
X74238646Y-46646234D01*
X74275374Y-46526664D01*
X74285000Y-46406750D01*
X74126250Y-46248000D01*
X73512311Y-46248000D01*
X73452895Y-46229976D01*
X73300838Y-46215000D01*
X72699162Y-46215000D01*
X72547105Y-46229976D01*
X72487689Y-46248000D01*
X71873750Y-46248000D01*
X71715000Y-46406750D01*
X71724626Y-46526664D01*
X71761354Y-46646234D01*
X71820702Y-46756342D01*
X71832599Y-46770736D01*
X71789159Y-46852007D01*
X71729976Y-47047105D01*
X71709993Y-47250000D01*
X54775302Y-47250000D01*
X54717205Y-47109744D01*
X54710694Y-47100000D01*
X54717205Y-47090256D01*
X54795226Y-46901898D01*
X54835000Y-46701939D01*
X54835000Y-46498061D01*
X54795226Y-46298102D01*
X54717205Y-46109744D01*
X54603937Y-45940226D01*
X54459774Y-45796063D01*
X54290256Y-45682795D01*
X54101898Y-45604774D01*
X53901939Y-45565000D01*
X53698061Y-45565000D01*
X53498102Y-45604774D01*
X53309744Y-45682795D01*
X53140226Y-45796063D01*
X52996063Y-45940226D01*
X52882795Y-46109744D01*
X52804774Y-46298102D01*
X52765000Y-46498061D01*
X43023000Y-46498061D01*
X43023000Y-46361911D01*
X42987068Y-46181271D01*
X42916586Y-46011111D01*
X42814262Y-45857972D01*
X42684028Y-45727738D01*
X42530889Y-45625414D01*
X42360729Y-45554932D01*
X42180089Y-45519000D01*
X41995911Y-45519000D01*
X41815271Y-45554932D01*
X41645111Y-45625414D01*
X41491972Y-45727738D01*
X41488000Y-45731710D01*
X41484028Y-45727738D01*
X41330889Y-45625414D01*
X41160729Y-45554932D01*
X40980089Y-45519000D01*
X40795911Y-45519000D01*
X40615271Y-45554932D01*
X40445111Y-45625414D01*
X40291972Y-45727738D01*
X40161738Y-45857972D01*
X40059414Y-46011111D01*
X39988932Y-46181271D01*
X39953000Y-46361911D01*
X26660000Y-46361911D01*
X26660000Y-45098061D01*
X47865000Y-45098061D01*
X47865000Y-45301939D01*
X47904774Y-45501898D01*
X47982795Y-45690256D01*
X48096063Y-45859774D01*
X48240226Y-46003937D01*
X48409744Y-46117205D01*
X48598102Y-46195226D01*
X48798061Y-46235000D01*
X49001939Y-46235000D01*
X49201898Y-46195226D01*
X49390256Y-46117205D01*
X49559774Y-46003937D01*
X49703937Y-45859774D01*
X49817205Y-45690256D01*
X49895226Y-45501898D01*
X49935000Y-45301939D01*
X49935000Y-45098061D01*
X49895226Y-44898102D01*
X49817205Y-44709744D01*
X49703937Y-44540226D01*
X49661772Y-44498061D01*
X53565000Y-44498061D01*
X53565000Y-44701939D01*
X53604774Y-44901898D01*
X53682795Y-45090256D01*
X53796063Y-45259774D01*
X53940226Y-45403937D01*
X54109744Y-45517205D01*
X54298102Y-45595226D01*
X54498061Y-45635000D01*
X54701939Y-45635000D01*
X54901898Y-45595226D01*
X55050000Y-45533880D01*
X55198102Y-45595226D01*
X55398061Y-45635000D01*
X55601939Y-45635000D01*
X55801898Y-45595226D01*
X55990256Y-45517205D01*
X56159774Y-45403937D01*
X56303937Y-45259774D01*
X56417205Y-45090256D01*
X56495226Y-44901898D01*
X56535000Y-44701939D01*
X56535000Y-44498061D01*
X56495226Y-44298102D01*
X56417205Y-44109744D01*
X56303937Y-43940226D01*
X56161772Y-43798061D01*
X56665000Y-43798061D01*
X56665000Y-44001939D01*
X56704774Y-44201898D01*
X56782795Y-44390256D01*
X56896063Y-44559774D01*
X57040226Y-44703937D01*
X57209744Y-44817205D01*
X57398102Y-44895226D01*
X57598061Y-44935000D01*
X57772334Y-44935000D01*
X57704774Y-45098102D01*
X57665000Y-45298061D01*
X57665000Y-45501939D01*
X57704774Y-45701898D01*
X57782795Y-45890256D01*
X57896063Y-46059774D01*
X58040226Y-46203937D01*
X58209744Y-46317205D01*
X58398102Y-46395226D01*
X58487076Y-46412924D01*
X58504774Y-46501898D01*
X58582795Y-46690256D01*
X58696063Y-46859774D01*
X58840226Y-47003937D01*
X59009744Y-47117205D01*
X59198102Y-47195226D01*
X59398061Y-47235000D01*
X59601939Y-47235000D01*
X59801898Y-47195226D01*
X59990256Y-47117205D01*
X60159774Y-47003937D01*
X60303937Y-46859774D01*
X60417205Y-46690256D01*
X60495226Y-46501898D01*
X60535000Y-46301939D01*
X60535000Y-46098061D01*
X61765000Y-46098061D01*
X61765000Y-46301939D01*
X61804774Y-46501898D01*
X61882795Y-46690256D01*
X61996063Y-46859774D01*
X62140226Y-47003937D01*
X62309744Y-47117205D01*
X62498102Y-47195226D01*
X62698061Y-47235000D01*
X62901939Y-47235000D01*
X63101898Y-47195226D01*
X63290256Y-47117205D01*
X63459774Y-47003937D01*
X63603937Y-46859774D01*
X63717205Y-46690256D01*
X63795226Y-46501898D01*
X63811940Y-46417870D01*
X63898061Y-46435000D01*
X64101939Y-46435000D01*
X64301898Y-46395226D01*
X64490256Y-46317205D01*
X64659774Y-46203937D01*
X64803937Y-46059774D01*
X64917205Y-45890256D01*
X64995226Y-45701898D01*
X65035000Y-45501939D01*
X65035000Y-45298061D01*
X64995226Y-45098102D01*
X64917205Y-44909744D01*
X64803937Y-44740226D01*
X64659774Y-44596063D01*
X64490256Y-44482795D01*
X64301898Y-44404774D01*
X64268150Y-44398061D01*
X66965000Y-44398061D01*
X66965000Y-44601939D01*
X67004774Y-44801898D01*
X67082795Y-44990256D01*
X67122715Y-45050000D01*
X67082795Y-45109744D01*
X67004774Y-45298102D01*
X66965000Y-45498061D01*
X66965000Y-45701939D01*
X67004774Y-45901898D01*
X67082795Y-46090256D01*
X67196063Y-46259774D01*
X67340226Y-46403937D01*
X67509744Y-46517205D01*
X67698102Y-46595226D01*
X67898061Y-46635000D01*
X68101939Y-46635000D01*
X68301898Y-46595226D01*
X68490256Y-46517205D01*
X68659774Y-46403937D01*
X68803937Y-46259774D01*
X68917205Y-46090256D01*
X68995226Y-45901898D01*
X69035000Y-45701939D01*
X69035000Y-45593250D01*
X71715000Y-45593250D01*
X71873750Y-45752000D01*
X72752000Y-45752000D01*
X72752000Y-45123750D01*
X73248000Y-45123750D01*
X73248000Y-45752000D01*
X74126250Y-45752000D01*
X74285000Y-45593250D01*
X74275374Y-45473336D01*
X74238646Y-45353766D01*
X74179298Y-45243658D01*
X74099608Y-45147244D01*
X74002641Y-45068229D01*
X73892122Y-45009650D01*
X73772298Y-44973758D01*
X73647774Y-44961932D01*
X73406750Y-44965000D01*
X73248000Y-45123750D01*
X72752000Y-45123750D01*
X72593250Y-44965000D01*
X72352226Y-44961932D01*
X72227702Y-44973758D01*
X72107878Y-45009650D01*
X71997359Y-45068229D01*
X71900392Y-45147244D01*
X71820702Y-45243658D01*
X71761354Y-45353766D01*
X71724626Y-45473336D01*
X71715000Y-45593250D01*
X69035000Y-45593250D01*
X69035000Y-45498061D01*
X68995226Y-45298102D01*
X68917205Y-45109744D01*
X68877285Y-45050000D01*
X68917205Y-44990256D01*
X68995226Y-44801898D01*
X69035000Y-44601939D01*
X69035000Y-44398061D01*
X68995226Y-44198102D01*
X68917205Y-44009744D01*
X68803937Y-43840226D01*
X68659774Y-43696063D01*
X68490256Y-43582795D01*
X68301898Y-43504774D01*
X68101939Y-43465000D01*
X67898061Y-43465000D01*
X67698102Y-43504774D01*
X67509744Y-43582795D01*
X67340226Y-43696063D01*
X67196063Y-43840226D01*
X67082795Y-44009744D01*
X67004774Y-44198102D01*
X66965000Y-44398061D01*
X64268150Y-44398061D01*
X64101939Y-44365000D01*
X63898061Y-44365000D01*
X63698102Y-44404774D01*
X63509744Y-44482795D01*
X63340226Y-44596063D01*
X63196063Y-44740226D01*
X63082795Y-44909744D01*
X63004774Y-45098102D01*
X62988060Y-45182130D01*
X62901939Y-45165000D01*
X62698061Y-45165000D01*
X62498102Y-45204774D01*
X62309744Y-45282795D01*
X62140226Y-45396063D01*
X61996063Y-45540226D01*
X61882795Y-45709744D01*
X61804774Y-45898102D01*
X61765000Y-46098061D01*
X60535000Y-46098061D01*
X60495226Y-45898102D01*
X60417205Y-45709744D01*
X60303937Y-45540226D01*
X60159774Y-45396063D01*
X59990256Y-45282795D01*
X59801898Y-45204774D01*
X59712924Y-45187076D01*
X59695226Y-45098102D01*
X59617205Y-44909744D01*
X59503937Y-44740226D01*
X59359774Y-44596063D01*
X59190256Y-44482795D01*
X59001898Y-44404774D01*
X58801939Y-44365000D01*
X58627666Y-44365000D01*
X58695226Y-44201898D01*
X58735000Y-44001939D01*
X58735000Y-43798061D01*
X58695226Y-43598102D01*
X58617205Y-43409744D01*
X58503937Y-43240226D01*
X58359774Y-43096063D01*
X58190256Y-42982795D01*
X58001898Y-42904774D01*
X57801939Y-42865000D01*
X57598061Y-42865000D01*
X57398102Y-42904774D01*
X57209744Y-42982795D01*
X57040226Y-43096063D01*
X56896063Y-43240226D01*
X56782795Y-43409744D01*
X56704774Y-43598102D01*
X56665000Y-43798061D01*
X56161772Y-43798061D01*
X56159774Y-43796063D01*
X55990256Y-43682795D01*
X55801898Y-43604774D01*
X55601939Y-43565000D01*
X55398061Y-43565000D01*
X55198102Y-43604774D01*
X55050000Y-43666120D01*
X54901898Y-43604774D01*
X54701939Y-43565000D01*
X54498061Y-43565000D01*
X54298102Y-43604774D01*
X54109744Y-43682795D01*
X53940226Y-43796063D01*
X53796063Y-43940226D01*
X53682795Y-44109744D01*
X53604774Y-44298102D01*
X53565000Y-44498061D01*
X49661772Y-44498061D01*
X49559774Y-44396063D01*
X49390256Y-44282795D01*
X49201898Y-44204774D01*
X49001939Y-44165000D01*
X48798061Y-44165000D01*
X48598102Y-44204774D01*
X48409744Y-44282795D01*
X48240226Y-44396063D01*
X48096063Y-44540226D01*
X47982795Y-44709744D01*
X47904774Y-44898102D01*
X47865000Y-45098061D01*
X26660000Y-45098061D01*
X26660000Y-42198061D01*
X51065000Y-42198061D01*
X51065000Y-42401939D01*
X51104774Y-42601898D01*
X51182795Y-42790256D01*
X51222715Y-42850000D01*
X51182795Y-42909744D01*
X51104774Y-43098102D01*
X51065000Y-43298061D01*
X51065000Y-43501939D01*
X51104774Y-43701898D01*
X51182795Y-43890256D01*
X51296063Y-44059774D01*
X51440226Y-44203937D01*
X51609744Y-44317205D01*
X51798102Y-44395226D01*
X51998061Y-44435000D01*
X52201939Y-44435000D01*
X52401898Y-44395226D01*
X52590256Y-44317205D01*
X52759774Y-44203937D01*
X52903937Y-44059774D01*
X53017205Y-43890256D01*
X53095226Y-43701898D01*
X53135000Y-43501939D01*
X53135000Y-43322456D01*
X53198061Y-43335000D01*
X53401939Y-43335000D01*
X53601898Y-43295226D01*
X53790256Y-43217205D01*
X53959774Y-43103937D01*
X54103937Y-42959774D01*
X54217205Y-42790256D01*
X54295226Y-42601898D01*
X54335000Y-42401939D01*
X54335000Y-42198061D01*
X54295226Y-41998102D01*
X54217205Y-41809744D01*
X54103937Y-41640226D01*
X53959774Y-41496063D01*
X53790256Y-41382795D01*
X53601898Y-41304774D01*
X53401939Y-41265000D01*
X53198061Y-41265000D01*
X52998102Y-41304774D01*
X52809744Y-41382795D01*
X52700000Y-41456123D01*
X52590256Y-41382795D01*
X52401898Y-41304774D01*
X52201939Y-41265000D01*
X51998061Y-41265000D01*
X51798102Y-41304774D01*
X51609744Y-41382795D01*
X51440226Y-41496063D01*
X51296063Y-41640226D01*
X51182795Y-41809744D01*
X51104774Y-41998102D01*
X51065000Y-42198061D01*
X26660000Y-42198061D01*
X26660000Y-40998061D01*
X54565000Y-40998061D01*
X54565000Y-41201939D01*
X54604774Y-41401898D01*
X54682795Y-41590256D01*
X54796063Y-41759774D01*
X54940226Y-41903937D01*
X55109744Y-42017205D01*
X55298102Y-42095226D01*
X55498061Y-42135000D01*
X55701939Y-42135000D01*
X55901898Y-42095226D01*
X56090256Y-42017205D01*
X56259774Y-41903937D01*
X56403937Y-41759774D01*
X56517205Y-41590256D01*
X56595226Y-41401898D01*
X56635000Y-41201939D01*
X56635000Y-40998061D01*
X56595226Y-40798102D01*
X56595210Y-40798061D01*
X63065000Y-40798061D01*
X63065000Y-41001939D01*
X63104774Y-41201898D01*
X63182795Y-41390256D01*
X63296063Y-41559774D01*
X63440226Y-41703937D01*
X63609744Y-41817205D01*
X63798102Y-41895226D01*
X63998061Y-41935000D01*
X64201939Y-41935000D01*
X64401898Y-41895226D01*
X64590256Y-41817205D01*
X64600000Y-41810694D01*
X64609744Y-41817205D01*
X64798102Y-41895226D01*
X64998061Y-41935000D01*
X65201939Y-41935000D01*
X65401898Y-41895226D01*
X65590256Y-41817205D01*
X65759774Y-41703937D01*
X65903937Y-41559774D01*
X66017205Y-41390256D01*
X66095226Y-41201898D01*
X66135000Y-41001939D01*
X66135000Y-40798061D01*
X66095226Y-40598102D01*
X66017205Y-40409744D01*
X65903937Y-40240226D01*
X65759774Y-40096063D01*
X65590256Y-39982795D01*
X65401898Y-39904774D01*
X65201939Y-39865000D01*
X64998061Y-39865000D01*
X64798102Y-39904774D01*
X64609744Y-39982795D01*
X64600000Y-39989306D01*
X64590256Y-39982795D01*
X64401898Y-39904774D01*
X64201939Y-39865000D01*
X63998061Y-39865000D01*
X63798102Y-39904774D01*
X63609744Y-39982795D01*
X63440226Y-40096063D01*
X63296063Y-40240226D01*
X63182795Y-40409744D01*
X63104774Y-40598102D01*
X63065000Y-40798061D01*
X56595210Y-40798061D01*
X56517205Y-40609744D01*
X56403937Y-40440226D01*
X56259774Y-40296063D01*
X56090256Y-40182795D01*
X55901898Y-40104774D01*
X55701939Y-40065000D01*
X55498061Y-40065000D01*
X55298102Y-40104774D01*
X55109744Y-40182795D01*
X54940226Y-40296063D01*
X54796063Y-40440226D01*
X54682795Y-40609744D01*
X54604774Y-40798102D01*
X54565000Y-40998061D01*
X26660000Y-40998061D01*
X26660000Y-37979444D01*
X26698102Y-37995226D01*
X26898061Y-38035000D01*
X27101939Y-38035000D01*
X27301898Y-37995226D01*
X27490256Y-37917205D01*
X27500000Y-37910694D01*
X27509744Y-37917205D01*
X27698102Y-37995226D01*
X27898061Y-38035000D01*
X28101939Y-38035000D01*
X28301898Y-37995226D01*
X28490256Y-37917205D01*
X28500000Y-37910694D01*
X28509744Y-37917205D01*
X28698102Y-37995226D01*
X28898061Y-38035000D01*
X29101939Y-38035000D01*
X29301898Y-37995226D01*
X29490256Y-37917205D01*
X29659774Y-37803937D01*
X29803937Y-37659774D01*
X29917205Y-37490256D01*
X29995226Y-37301898D01*
X29995989Y-37298061D01*
X57665000Y-37298061D01*
X57665000Y-37501939D01*
X57704774Y-37701898D01*
X57782795Y-37890256D01*
X57896063Y-38059774D01*
X58040226Y-38203937D01*
X58209744Y-38317205D01*
X58398102Y-38395226D01*
X58598061Y-38435000D01*
X58801939Y-38435000D01*
X59001898Y-38395226D01*
X59190256Y-38317205D01*
X59200000Y-38310694D01*
X59209744Y-38317205D01*
X59398102Y-38395226D01*
X59598061Y-38435000D01*
X59801939Y-38435000D01*
X60001898Y-38395226D01*
X60150000Y-38333880D01*
X60298102Y-38395226D01*
X60498061Y-38435000D01*
X60701939Y-38435000D01*
X60901898Y-38395226D01*
X61090256Y-38317205D01*
X61100000Y-38310694D01*
X61109744Y-38317205D01*
X61298102Y-38395226D01*
X61498061Y-38435000D01*
X61701939Y-38435000D01*
X61901898Y-38395226D01*
X62090256Y-38317205D01*
X62259774Y-38203937D01*
X62403937Y-38059774D01*
X62517205Y-37890256D01*
X62595226Y-37701898D01*
X62635000Y-37501939D01*
X62635000Y-37298061D01*
X62595226Y-37098102D01*
X62517205Y-36909744D01*
X62403937Y-36740226D01*
X62259774Y-36596063D01*
X62090256Y-36482795D01*
X61901898Y-36404774D01*
X61701939Y-36365000D01*
X61498061Y-36365000D01*
X61298102Y-36404774D01*
X61109744Y-36482795D01*
X61100000Y-36489306D01*
X61090256Y-36482795D01*
X60901898Y-36404774D01*
X60701939Y-36365000D01*
X60498061Y-36365000D01*
X60298102Y-36404774D01*
X60150000Y-36466120D01*
X60001898Y-36404774D01*
X59801939Y-36365000D01*
X59598061Y-36365000D01*
X59398102Y-36404774D01*
X59209744Y-36482795D01*
X59200000Y-36489306D01*
X59190256Y-36482795D01*
X59001898Y-36404774D01*
X58801939Y-36365000D01*
X58598061Y-36365000D01*
X58398102Y-36404774D01*
X58209744Y-36482795D01*
X58040226Y-36596063D01*
X57896063Y-36740226D01*
X57782795Y-36909744D01*
X57704774Y-37098102D01*
X57665000Y-37298061D01*
X29995989Y-37298061D01*
X30035000Y-37101939D01*
X30035000Y-36898061D01*
X29995226Y-36698102D01*
X29917205Y-36509744D01*
X29910694Y-36500000D01*
X29917205Y-36490256D01*
X29995226Y-36301898D01*
X30035000Y-36101939D01*
X30035000Y-35898061D01*
X49265000Y-35898061D01*
X49265000Y-36101939D01*
X49304774Y-36301898D01*
X49382795Y-36490256D01*
X49496063Y-36659774D01*
X49640226Y-36803937D01*
X49809744Y-36917205D01*
X49998102Y-36995226D01*
X50198061Y-37035000D01*
X50401939Y-37035000D01*
X50601898Y-36995226D01*
X50790256Y-36917205D01*
X50959774Y-36803937D01*
X51050000Y-36713711D01*
X51140226Y-36803937D01*
X51309744Y-36917205D01*
X51498102Y-36995226D01*
X51698061Y-37035000D01*
X51901939Y-37035000D01*
X52101898Y-36995226D01*
X52290256Y-36917205D01*
X52459774Y-36803937D01*
X52550000Y-36713711D01*
X52640226Y-36803937D01*
X52809744Y-36917205D01*
X52998102Y-36995226D01*
X53198061Y-37035000D01*
X53401939Y-37035000D01*
X53601898Y-36995226D01*
X53790256Y-36917205D01*
X53959774Y-36803937D01*
X54050000Y-36713711D01*
X54140226Y-36803937D01*
X54309744Y-36917205D01*
X54498102Y-36995226D01*
X54698061Y-37035000D01*
X54901939Y-37035000D01*
X55101898Y-36995226D01*
X55290256Y-36917205D01*
X55459774Y-36803937D01*
X55550000Y-36713711D01*
X55640226Y-36803937D01*
X55809744Y-36917205D01*
X55998102Y-36995226D01*
X56198061Y-37035000D01*
X56401939Y-37035000D01*
X56601898Y-36995226D01*
X56790256Y-36917205D01*
X56959774Y-36803937D01*
X57103937Y-36659774D01*
X57217205Y-36490256D01*
X57295226Y-36301898D01*
X57335000Y-36101939D01*
X57335000Y-35898061D01*
X57295226Y-35698102D01*
X57217205Y-35509744D01*
X57103937Y-35340226D01*
X56959774Y-35196063D01*
X56790256Y-35082795D01*
X56601898Y-35004774D01*
X56401939Y-34965000D01*
X56198061Y-34965000D01*
X55998102Y-35004774D01*
X55809744Y-35082795D01*
X55640226Y-35196063D01*
X55550000Y-35286289D01*
X55459774Y-35196063D01*
X55290256Y-35082795D01*
X55101898Y-35004774D01*
X54901939Y-34965000D01*
X54698061Y-34965000D01*
X54498102Y-35004774D01*
X54309744Y-35082795D01*
X54140226Y-35196063D01*
X54050000Y-35286289D01*
X53959774Y-35196063D01*
X53790256Y-35082795D01*
X53601898Y-35004774D01*
X53401939Y-34965000D01*
X53198061Y-34965000D01*
X52998102Y-35004774D01*
X52809744Y-35082795D01*
X52640226Y-35196063D01*
X52550000Y-35286289D01*
X52459774Y-35196063D01*
X52290256Y-35082795D01*
X52101898Y-35004774D01*
X51901939Y-34965000D01*
X51698061Y-34965000D01*
X51498102Y-35004774D01*
X51309744Y-35082795D01*
X51140226Y-35196063D01*
X51050000Y-35286289D01*
X50959774Y-35196063D01*
X50790256Y-35082795D01*
X50601898Y-35004774D01*
X50401939Y-34965000D01*
X50198061Y-34965000D01*
X49998102Y-35004774D01*
X49809744Y-35082795D01*
X49640226Y-35196063D01*
X49496063Y-35340226D01*
X49382795Y-35509744D01*
X49304774Y-35698102D01*
X49265000Y-35898061D01*
X30035000Y-35898061D01*
X29995226Y-35698102D01*
X29917205Y-35509744D01*
X29910694Y-35500000D01*
X29917205Y-35490256D01*
X29995226Y-35301898D01*
X30035000Y-35101939D01*
X30035000Y-34898061D01*
X29995226Y-34698102D01*
X29917205Y-34509744D01*
X29803937Y-34340226D01*
X29659774Y-34196063D01*
X29490256Y-34082795D01*
X29301898Y-34004774D01*
X29101939Y-33965000D01*
X28898061Y-33965000D01*
X28698102Y-34004774D01*
X28509744Y-34082795D01*
X28500000Y-34089306D01*
X28490256Y-34082795D01*
X28301898Y-34004774D01*
X28101939Y-33965000D01*
X27898061Y-33965000D01*
X27698102Y-34004774D01*
X27509744Y-34082795D01*
X27500000Y-34089306D01*
X27490256Y-34082795D01*
X27301898Y-34004774D01*
X27101939Y-33965000D01*
X26898061Y-33965000D01*
X26698102Y-34004774D01*
X26660000Y-34020556D01*
X26660000Y-33876890D01*
X67750048Y-33876890D01*
X67750048Y-34123110D01*
X67798083Y-34364598D01*
X67892307Y-34592074D01*
X68029099Y-34796798D01*
X68203202Y-34970901D01*
X68407926Y-35107693D01*
X68635402Y-35201917D01*
X68876890Y-35249952D01*
X69123110Y-35249952D01*
X69364598Y-35201917D01*
X69592074Y-35107693D01*
X69796798Y-34970901D01*
X69970901Y-34796798D01*
X70107693Y-34592074D01*
X70201917Y-34364598D01*
X70249952Y-34123110D01*
X70249952Y-33876890D01*
X70201917Y-33635402D01*
X70107693Y-33407926D01*
X69970901Y-33203202D01*
X69796798Y-33029099D01*
X69592074Y-32892307D01*
X69364598Y-32798083D01*
X69123110Y-32750048D01*
X68876890Y-32750048D01*
X68635402Y-32798083D01*
X68407926Y-32892307D01*
X68203202Y-33029099D01*
X68029099Y-33203202D01*
X67892307Y-33407926D01*
X67798083Y-33635402D01*
X67750048Y-33876890D01*
X26660000Y-33876890D01*
X26660000Y-32600807D01*
X26797912Y-32807207D01*
X27192793Y-33202088D01*
X27657124Y-33512344D01*
X28173061Y-33726052D01*
X28720777Y-33835000D01*
X29279223Y-33835000D01*
X29826939Y-33726052D01*
X30342876Y-33512344D01*
X30807207Y-33202088D01*
X31202088Y-32807207D01*
X31512344Y-32342876D01*
X31726052Y-31826939D01*
X31835000Y-31279223D01*
X31835000Y-31241620D01*
X31876890Y-31249952D01*
X32123110Y-31249952D01*
X32364598Y-31201917D01*
X32592074Y-31107693D01*
X32796798Y-30970901D01*
X32970901Y-30796798D01*
X33107693Y-30592074D01*
X33201917Y-30364598D01*
X33249952Y-30123110D01*
X33249952Y-30050000D01*
X34461928Y-30050000D01*
X34461928Y-30950000D01*
X34478031Y-31113500D01*
X34525722Y-31270716D01*
X34603169Y-31415608D01*
X34707394Y-31542606D01*
X34834392Y-31646831D01*
X34979284Y-31724278D01*
X35136500Y-31771969D01*
X35300000Y-31788072D01*
X35700000Y-31788072D01*
X35863500Y-31771969D01*
X36020716Y-31724278D01*
X36165608Y-31646831D01*
X36191894Y-31625259D01*
X36352008Y-31710841D01*
X36547106Y-31770024D01*
X36750000Y-31790007D01*
X36952895Y-31770024D01*
X37147993Y-31710841D01*
X37327797Y-31614734D01*
X37485396Y-31485396D01*
X37614734Y-31327797D01*
X37710841Y-31147992D01*
X37770024Y-30952894D01*
X37785000Y-30800837D01*
X37785000Y-30199162D01*
X37770024Y-30047105D01*
X37710841Y-29852007D01*
X37614734Y-29672203D01*
X37485396Y-29514604D01*
X37327797Y-29385266D01*
X37147992Y-29289159D01*
X36952894Y-29229976D01*
X36750000Y-29209993D01*
X36547105Y-29229976D01*
X36352007Y-29289159D01*
X36191894Y-29374741D01*
X36165608Y-29353169D01*
X36020716Y-29275722D01*
X35863500Y-29228031D01*
X35700000Y-29211928D01*
X35300000Y-29211928D01*
X35136500Y-29228031D01*
X34979284Y-29275722D01*
X34834392Y-29353169D01*
X34707394Y-29457394D01*
X34603169Y-29584392D01*
X34525722Y-29729284D01*
X34478031Y-29886500D01*
X34461928Y-30050000D01*
X33249952Y-30050000D01*
X33249952Y-29876890D01*
X33201917Y-29635402D01*
X33107693Y-29407926D01*
X32970901Y-29203202D01*
X32796798Y-29029099D01*
X32592074Y-28892307D01*
X32364598Y-28798083D01*
X32123110Y-28750048D01*
X31876890Y-28750048D01*
X31635402Y-28798083D01*
X31407926Y-28892307D01*
X31203202Y-29029099D01*
X31120798Y-29111503D01*
X30807207Y-28797912D01*
X30600807Y-28660000D01*
X38582850Y-28660000D01*
X38482795Y-28809744D01*
G37*
X38482795Y-28809744D02*
X38404774Y-28998102D01*
X38365000Y-29198061D01*
X38365000Y-29401939D01*
X38404774Y-29601898D01*
X38466120Y-29750000D01*
X38404774Y-29898102D01*
X38365000Y-30098061D01*
X38365000Y-30301939D01*
X38404774Y-30501898D01*
X38466120Y-30650000D01*
X38404774Y-30798102D01*
X38365000Y-30998061D01*
X38365000Y-31201939D01*
X38404774Y-31401898D01*
X38466120Y-31550000D01*
X38404774Y-31698102D01*
X38365000Y-31898061D01*
X38365000Y-32101939D01*
X38404774Y-32301898D01*
X38482795Y-32490256D01*
X38596063Y-32659774D01*
X38740226Y-32803937D01*
X38909744Y-32917205D01*
X39098102Y-32995226D01*
X39298061Y-33035000D01*
X39501939Y-33035000D01*
X39701898Y-32995226D01*
X39890256Y-32917205D01*
X39900000Y-32910694D01*
X39909744Y-32917205D01*
X40098102Y-32995226D01*
X40298061Y-33035000D01*
X40501939Y-33035000D01*
X40701898Y-32995226D01*
X40890256Y-32917205D01*
X41059774Y-32803937D01*
X41203937Y-32659774D01*
X41317205Y-32490256D01*
X41395226Y-32301898D01*
X41435000Y-32101939D01*
X41435000Y-31898061D01*
X41395226Y-31698102D01*
X41333880Y-31550000D01*
X41395226Y-31401898D01*
X41435000Y-31201939D01*
X41435000Y-30998061D01*
X41395226Y-30798102D01*
X41333880Y-30650000D01*
X41395226Y-30501898D01*
X41435000Y-30301939D01*
X41435000Y-30098061D01*
X41425441Y-30050000D01*
X42761928Y-30050000D01*
X42761928Y-30950000D01*
X42778031Y-31113500D01*
X42825722Y-31270716D01*
X42903169Y-31415608D01*
X43007394Y-31542606D01*
X43134392Y-31646831D01*
X43279284Y-31724278D01*
X43436500Y-31771969D01*
X43600000Y-31788072D01*
X44000000Y-31788072D01*
X44163500Y-31771969D01*
X44320716Y-31724278D01*
X44465608Y-31646831D01*
X44491894Y-31625259D01*
X44652008Y-31710841D01*
X44847106Y-31770024D01*
X45050000Y-31790007D01*
X45252895Y-31770024D01*
X45447993Y-31710841D01*
X45627797Y-31614734D01*
X45785396Y-31485396D01*
X45914734Y-31327797D01*
X46010841Y-31147992D01*
X46070024Y-30952894D01*
X46085000Y-30800837D01*
X46085000Y-30199162D01*
X46070310Y-30050000D01*
X49961928Y-30050000D01*
X49961928Y-30950000D01*
X49978031Y-31113500D01*
X50025722Y-31270716D01*
X50103169Y-31415608D01*
X50207394Y-31542606D01*
X50334392Y-31646831D01*
X50479284Y-31724278D01*
X50636500Y-31771969D01*
X50800000Y-31788072D01*
X51200000Y-31788072D01*
X51363500Y-31771969D01*
X51520716Y-31724278D01*
X51665608Y-31646831D01*
X51691894Y-31625259D01*
X51852008Y-31710841D01*
X52047106Y-31770024D01*
X52250000Y-31790007D01*
X52452895Y-31770024D01*
X52647993Y-31710841D01*
X52827797Y-31614734D01*
X52875001Y-31575995D01*
X52922204Y-31614734D01*
X53102008Y-31710841D01*
X53297106Y-31770024D01*
X53500000Y-31790007D01*
X53702895Y-31770024D01*
X53897993Y-31710841D01*
X54077797Y-31614734D01*
X54125001Y-31575995D01*
X54172204Y-31614734D01*
X54352008Y-31710841D01*
X54547106Y-31770024D01*
X54750000Y-31790007D01*
X54952895Y-31770024D01*
X55147993Y-31710841D01*
X55327797Y-31614734D01*
X55375001Y-31575995D01*
X55422204Y-31614734D01*
X55602008Y-31710841D01*
X55797106Y-31770024D01*
X56000000Y-31790007D01*
X56202895Y-31770024D01*
X56397993Y-31710841D01*
X56577797Y-31614734D01*
X56625001Y-31575995D01*
X56672204Y-31614734D01*
X56852008Y-31710841D01*
X57047106Y-31770024D01*
X57250000Y-31790007D01*
X57452895Y-31770024D01*
X57647993Y-31710841D01*
X57827797Y-31614734D01*
X57875001Y-31575995D01*
X57922204Y-31614734D01*
X58102008Y-31710841D01*
X58297106Y-31770024D01*
X58500000Y-31790007D01*
X58702895Y-31770024D01*
X58897993Y-31710841D01*
X59077797Y-31614734D01*
X59125001Y-31575995D01*
X59172204Y-31614734D01*
X59352008Y-31710841D01*
X59547106Y-31770024D01*
X59750000Y-31790007D01*
X59952895Y-31770024D01*
X60147993Y-31710841D01*
X60327797Y-31614734D01*
X60375001Y-31575995D01*
X60422204Y-31614734D01*
X60602008Y-31710841D01*
X60797106Y-31770024D01*
X61000000Y-31790007D01*
X61202895Y-31770024D01*
X61397993Y-31710841D01*
X61577797Y-31614734D01*
X61735396Y-31485396D01*
X61864734Y-31327797D01*
X61960841Y-31147992D01*
X62020024Y-30952894D01*
X62035000Y-30800837D01*
X62035000Y-30199162D01*
X62020310Y-30050000D01*
X65261928Y-30050000D01*
X65261928Y-30950000D01*
X65278031Y-31113500D01*
X65325722Y-31270716D01*
X65403169Y-31415608D01*
X65507394Y-31542606D01*
X65634392Y-31646831D01*
X65779284Y-31724278D01*
X65936500Y-31771969D01*
X66100000Y-31788072D01*
X66500000Y-31788072D01*
X66663500Y-31771969D01*
X66820716Y-31724278D01*
X66965608Y-31646831D01*
X66991894Y-31625259D01*
X67152008Y-31710841D01*
X67347106Y-31770024D01*
X67550000Y-31790007D01*
X67752895Y-31770024D01*
X67947993Y-31710841D01*
X68127797Y-31614734D01*
X68285396Y-31485396D01*
X68414734Y-31327797D01*
X68510841Y-31147992D01*
X68570024Y-30952894D01*
X68585000Y-30800837D01*
X68585000Y-30199162D01*
X68570024Y-30047105D01*
X68510841Y-29852007D01*
X68414734Y-29672203D01*
X68285396Y-29514604D01*
X68127797Y-29385266D01*
X67947992Y-29289159D01*
X67752894Y-29229976D01*
X67550000Y-29209993D01*
X67347105Y-29229976D01*
X67152007Y-29289159D01*
X66991894Y-29374741D01*
X66965608Y-29353169D01*
X66820716Y-29275722D01*
X66663500Y-29228031D01*
X66500000Y-29211928D01*
X66100000Y-29211928D01*
X65936500Y-29228031D01*
X65779284Y-29275722D01*
X65634392Y-29353169D01*
X65507394Y-29457394D01*
X65403169Y-29584392D01*
X65325722Y-29729284D01*
X65278031Y-29886500D01*
X65261928Y-30050000D01*
X62020310Y-30050000D01*
X62020024Y-30047105D01*
X61960841Y-29852007D01*
X61864734Y-29672203D01*
X61735396Y-29514604D01*
X61577797Y-29385266D01*
X61397992Y-29289159D01*
X61202894Y-29229976D01*
X61000000Y-29209993D01*
X60797105Y-29229976D01*
X60602007Y-29289159D01*
X60422203Y-29385266D01*
X60375000Y-29424004D01*
X60327797Y-29385266D01*
X60147992Y-29289159D01*
X59952894Y-29229976D01*
X59750000Y-29209993D01*
X59547105Y-29229976D01*
X59352007Y-29289159D01*
X59172203Y-29385266D01*
X59125000Y-29424004D01*
X59077797Y-29385266D01*
X58897992Y-29289159D01*
X58702894Y-29229976D01*
X58500000Y-29209993D01*
X58297105Y-29229976D01*
X58102007Y-29289159D01*
X57922203Y-29385266D01*
X57875000Y-29424004D01*
X57827797Y-29385266D01*
X57647992Y-29289159D01*
X57452894Y-29229976D01*
X57250000Y-29209993D01*
X57047105Y-29229976D01*
X56852007Y-29289159D01*
X56672203Y-29385266D01*
X56625000Y-29424004D01*
X56577797Y-29385266D01*
X56397992Y-29289159D01*
X56202894Y-29229976D01*
X56000000Y-29209993D01*
X55797105Y-29229976D01*
X55602007Y-29289159D01*
X55422203Y-29385266D01*
X55375000Y-29424004D01*
X55327797Y-29385266D01*
X55147992Y-29289159D01*
X54952894Y-29229976D01*
X54750000Y-29209993D01*
X54547105Y-29229976D01*
X54352007Y-29289159D01*
X54172203Y-29385266D01*
X54125000Y-29424004D01*
X54077797Y-29385266D01*
X53897992Y-29289159D01*
X53702894Y-29229976D01*
X53500000Y-29209993D01*
X53297105Y-29229976D01*
X53102007Y-29289159D01*
X52922203Y-29385266D01*
X52875000Y-29424004D01*
X52827797Y-29385266D01*
X52647992Y-29289159D01*
X52452894Y-29229976D01*
X52250000Y-29209993D01*
X52047105Y-29229976D01*
X51852007Y-29289159D01*
X51691894Y-29374741D01*
X51665608Y-29353169D01*
X51520716Y-29275722D01*
X51363500Y-29228031D01*
X51200000Y-29211928D01*
X50800000Y-29211928D01*
X50636500Y-29228031D01*
X50479284Y-29275722D01*
X50334392Y-29353169D01*
X50207394Y-29457394D01*
X50103169Y-29584392D01*
X50025722Y-29729284D01*
X49978031Y-29886500D01*
X49961928Y-30050000D01*
X46070310Y-30050000D01*
X46070024Y-30047105D01*
X46010841Y-29852007D01*
X45914734Y-29672203D01*
X45785396Y-29514604D01*
X45627797Y-29385266D01*
X45447992Y-29289159D01*
X45252894Y-29229976D01*
X45050000Y-29209993D01*
X44847105Y-29229976D01*
X44652007Y-29289159D01*
X44491894Y-29374741D01*
X44465608Y-29353169D01*
X44320716Y-29275722D01*
X44163500Y-29228031D01*
X44000000Y-29211928D01*
X43600000Y-29211928D01*
X43436500Y-29228031D01*
X43279284Y-29275722D01*
X43134392Y-29353169D01*
X43007394Y-29457394D01*
X42903169Y-29584392D01*
X42825722Y-29729284D01*
X42778031Y-29886500D01*
X42761928Y-30050000D01*
X41425441Y-30050000D01*
X41395226Y-29898102D01*
X41333880Y-29750000D01*
X41395226Y-29601898D01*
X41435000Y-29401939D01*
X41435000Y-29198061D01*
X41395226Y-28998102D01*
X41317205Y-28809744D01*
X41217150Y-28660000D01*
X71399193Y-28660000D01*
X71192793Y-28797912D01*
X70797912Y-29192793D01*
X70487656Y-29657124D01*
X70273948Y-30173061D01*
X70165000Y-30720777D01*
X70165000Y-31279223D01*
X70273948Y-31826939D01*
X70487656Y-32342876D01*
X70797912Y-32807207D01*
X71192793Y-33202088D01*
X71657124Y-33512344D01*
X72173061Y-33726052D01*
X72720777Y-33835000D01*
X73279223Y-33835000D01*
X73826939Y-33726052D01*
X74342876Y-33512344D01*
X74807207Y-33202088D01*
X75202088Y-32807207D01*
X75340000Y-32600807D01*
X75340001Y-63399194D01*
X75202088Y-63192793D01*
X74807207Y-62797912D01*
X74342876Y-62487656D01*
X73826939Y-62273948D01*
X73279223Y-62165000D01*
X72720777Y-62165000D01*
X72173061Y-62273948D01*
X71657124Y-62487656D01*
X71192793Y-62797912D01*
X70797912Y-63192793D01*
X70487656Y-63657124D01*
X70273948Y-64173061D01*
X70245689Y-64315130D01*
X70170901Y-64203202D01*
X69996798Y-64029099D01*
X69792074Y-63892307D01*
X69564598Y-63798083D01*
X69323110Y-63750048D01*
X69076890Y-63750048D01*
X68835402Y-63798083D01*
X68607926Y-63892307D01*
X68456209Y-63993681D01*
X68290256Y-63882795D01*
X68101898Y-63804774D01*
X67901939Y-63765000D01*
X67698061Y-63765000D01*
X67498102Y-63804774D01*
X67309744Y-63882795D01*
X67140226Y-63996063D01*
X66996063Y-64140226D01*
X66882795Y-64309744D01*
X66804774Y-64498102D01*
X66765000Y-64698061D01*
X66765000Y-64901939D01*
X66804774Y-65101898D01*
X66882795Y-65290256D01*
X66889306Y-65300000D01*
X66882795Y-65309744D01*
X66804774Y-65498102D01*
X66765000Y-65698061D01*
X66765000Y-65901939D01*
X66804774Y-66101898D01*
X66882795Y-66290256D01*
X66996063Y-66459774D01*
X67140226Y-66603937D01*
X67309744Y-66717205D01*
X67498102Y-66795226D01*
X67698061Y-66835000D01*
X67901939Y-66835000D01*
X68101898Y-66795226D01*
X68290256Y-66717205D01*
X68459774Y-66603937D01*
X68603937Y-66459774D01*
X68717205Y-66290256D01*
X68765747Y-66173065D01*
X68835402Y-66201917D01*
X69076890Y-66249952D01*
X69323110Y-66249952D01*
X69564598Y-66201917D01*
X69792074Y-66107693D01*
X69996798Y-65970901D01*
X70170901Y-65796798D01*
X70245689Y-65684870D01*
X70273948Y-65826939D01*
X70487656Y-66342876D01*
X70797912Y-66807207D01*
X71192793Y-67202088D01*
X71399193Y-67340000D01*
X42423711Y-67340000D01*
X42503937Y-67259774D01*
X42617205Y-67090256D01*
X42695226Y-66901898D01*
X42735000Y-66701939D01*
X42735000Y-66498061D01*
X42695226Y-66298102D01*
X42617205Y-66109744D01*
X42543877Y-66000000D01*
X42617205Y-65890256D01*
X42695226Y-65701898D01*
X42735000Y-65501939D01*
X42735000Y-65298061D01*
X42695226Y-65098102D01*
X42617205Y-64909744D01*
X42542582Y-64798061D01*
X50065000Y-64798061D01*
X50065000Y-65001939D01*
X50104774Y-65201898D01*
X50182795Y-65390256D01*
X50296063Y-65559774D01*
X50440226Y-65703937D01*
X50609744Y-65817205D01*
X50798102Y-65895226D01*
X50998061Y-65935000D01*
X51201939Y-65935000D01*
X51401898Y-65895226D01*
X51590256Y-65817205D01*
X51650000Y-65777285D01*
X51709744Y-65817205D01*
X51898102Y-65895226D01*
X52098061Y-65935000D01*
X52301939Y-65935000D01*
X52501898Y-65895226D01*
X52690256Y-65817205D01*
X52750000Y-65777285D01*
X52809744Y-65817205D01*
X52998102Y-65895226D01*
X53198061Y-65935000D01*
X53401939Y-65935000D01*
X53601898Y-65895226D01*
X53790256Y-65817205D01*
X53959774Y-65703937D01*
X54103937Y-65559774D01*
X54217205Y-65390256D01*
X54295226Y-65201898D01*
X54335000Y-65001939D01*
X54335000Y-64798061D01*
X54295226Y-64598102D01*
X54217205Y-64409744D01*
X54103937Y-64240226D01*
X53959774Y-64096063D01*
X53790256Y-63982795D01*
X53601898Y-63904774D01*
X53401939Y-63865000D01*
X53198061Y-63865000D01*
X52998102Y-63904774D01*
X52809744Y-63982795D01*
X52750000Y-64022715D01*
X52690256Y-63982795D01*
X52501898Y-63904774D01*
X52301939Y-63865000D01*
X52098061Y-63865000D01*
X51898102Y-63904774D01*
X51709744Y-63982795D01*
X51650000Y-64022715D01*
X51590256Y-63982795D01*
X51401898Y-63904774D01*
X51201939Y-63865000D01*
X50998061Y-63865000D01*
X50798102Y-63904774D01*
X50609744Y-63982795D01*
X50440226Y-64096063D01*
X50296063Y-64240226D01*
X50182795Y-64409744D01*
X50104774Y-64598102D01*
X50065000Y-64798061D01*
X42542582Y-64798061D01*
X42503937Y-64740226D01*
X42359774Y-64596063D01*
X42190256Y-64482795D01*
X42001898Y-64404774D01*
X41801939Y-64365000D01*
X41598061Y-64365000D01*
X41398102Y-64404774D01*
X41209744Y-64482795D01*
X41050000Y-64589532D01*
X40890256Y-64482795D01*
X40701898Y-64404774D01*
X40501939Y-64365000D01*
X40298061Y-64365000D01*
X40098102Y-64404774D01*
X39909744Y-64482795D01*
X39750000Y-64589532D01*
X39590256Y-64482795D01*
X39401898Y-64404774D01*
X39201939Y-64365000D01*
X38998061Y-64365000D01*
X38798102Y-64404774D01*
X38609744Y-64482795D01*
X38440226Y-64596063D01*
X38296063Y-64740226D01*
X38182795Y-64909744D01*
X38104774Y-65098102D01*
X38065000Y-65298061D01*
X38065000Y-65501939D01*
X38104774Y-65701898D01*
X38182795Y-65890256D01*
X38256123Y-66000000D01*
X38182795Y-66109744D01*
X38104774Y-66298102D01*
X38065000Y-66498061D01*
X38065000Y-66701939D01*
X38104774Y-66901898D01*
X38182795Y-67090256D01*
X38296063Y-67259774D01*
X38376289Y-67340000D01*
X30600807Y-67340000D01*
X30807207Y-67202088D01*
X31202088Y-66807207D01*
X31512344Y-66342876D01*
X31726052Y-65826939D01*
X31811550Y-65397111D01*
X31892307Y-65592074D01*
X32029099Y-65796798D01*
X32203202Y-65970901D01*
X32407926Y-66107693D01*
X32635402Y-66201917D01*
X32876890Y-66249952D01*
X33123110Y-66249952D01*
X33364598Y-66201917D01*
X33592074Y-66107693D01*
X33796798Y-65970901D01*
X33970901Y-65796798D01*
X34107693Y-65592074D01*
X34201917Y-65364598D01*
X34249952Y-65123110D01*
X34249952Y-64876890D01*
X34201917Y-64635402D01*
X34107693Y-64407926D01*
X33970901Y-64203202D01*
X33796798Y-64029099D01*
X33592074Y-63892307D01*
X33364598Y-63798083D01*
X33123110Y-63750048D01*
X32876890Y-63750048D01*
X32635402Y-63798083D01*
X32407926Y-63892307D01*
X32203202Y-64029099D01*
X32029099Y-64203202D01*
X31892307Y-64407926D01*
X31811550Y-64602889D01*
X31726052Y-64173061D01*
X31512344Y-63657124D01*
X31202088Y-63192793D01*
X30807207Y-62797912D01*
X30342876Y-62487656D01*
X29826939Y-62273948D01*
X29279223Y-62165000D01*
X28720777Y-62165000D01*
X28173061Y-62273948D01*
X27657124Y-62487656D01*
X27192793Y-62797912D01*
X26797912Y-63192793D01*
X26660000Y-63399193D01*
X26660000Y-60098061D01*
X60665000Y-60098061D01*
X60665000Y-60301939D01*
X60704774Y-60501898D01*
X60782795Y-60690256D01*
X60896063Y-60859774D01*
X61040226Y-61003937D01*
X61209744Y-61117205D01*
X61398102Y-61195226D01*
X61598061Y-61235000D01*
X61801939Y-61235000D01*
X62001898Y-61195226D01*
X62190256Y-61117205D01*
X62359774Y-61003937D01*
X62503937Y-60859774D01*
X62617205Y-60690256D01*
X62695226Y-60501898D01*
X62735000Y-60301939D01*
X62735000Y-60098061D01*
X62695226Y-59898102D01*
X62617205Y-59709744D01*
X62503937Y-59540226D01*
X62359774Y-59396063D01*
X62190256Y-59282795D01*
X62001898Y-59204774D01*
X61801939Y-59165000D01*
X61598061Y-59165000D01*
X61398102Y-59204774D01*
X61209744Y-59282795D01*
X61040226Y-59396063D01*
X60896063Y-59540226D01*
X60782795Y-59709744D01*
X60704774Y-59898102D01*
X60665000Y-60098061D01*
X26660000Y-60098061D01*
X26660000Y-57998061D01*
X63465000Y-57998061D01*
X63465000Y-58201939D01*
X63504774Y-58401898D01*
X63566120Y-58550000D01*
X63504774Y-58698102D01*
X63465000Y-58898061D01*
X63465000Y-59101939D01*
X63504774Y-59301898D01*
X63582795Y-59490256D01*
X63696063Y-59659774D01*
X63840226Y-59803937D01*
X64009744Y-59917205D01*
X64198102Y-59995226D01*
X64398061Y-60035000D01*
X64601939Y-60035000D01*
X64801898Y-59995226D01*
X64990256Y-59917205D01*
X65159774Y-59803937D01*
X65303937Y-59659774D01*
X65417205Y-59490256D01*
X65495226Y-59301898D01*
X65535000Y-59101939D01*
X65535000Y-58898061D01*
X65495226Y-58698102D01*
X65433880Y-58550000D01*
X65495226Y-58401898D01*
X65535000Y-58201939D01*
X65535000Y-57998061D01*
X65495226Y-57798102D01*
X65417205Y-57609744D01*
X65303937Y-57440226D01*
X65159774Y-57296063D01*
X64990256Y-57182795D01*
X64801898Y-57104774D01*
X64601939Y-57065000D01*
X64398061Y-57065000D01*
X64198102Y-57104774D01*
X64009744Y-57182795D01*
X63840226Y-57296063D01*
X63696063Y-57440226D01*
X63582795Y-57609744D01*
X63504774Y-57798102D01*
X63465000Y-57998061D01*
X26660000Y-57998061D01*
X26660000Y-53698061D01*
X32865000Y-53698061D01*
X32865000Y-53901939D01*
X32904774Y-54101898D01*
X32966120Y-54250000D01*
X32904774Y-54398102D01*
X32865000Y-54598061D01*
X32865000Y-54801939D01*
X32904774Y-55001898D01*
X32982795Y-55190256D01*
X32989306Y-55200000D01*
X32982795Y-55209744D01*
X32904774Y-55398102D01*
X32865000Y-55598061D01*
X32865000Y-55801939D01*
X32904774Y-56001898D01*
X32982795Y-56190256D01*
X32989306Y-56200000D01*
X32982795Y-56209744D01*
X32904774Y-56398102D01*
X32865000Y-56598061D01*
X32865000Y-56801939D01*
X32904774Y-57001898D01*
X32982795Y-57190256D01*
X33096063Y-57359774D01*
X33240226Y-57503937D01*
X33409744Y-57617205D01*
X33598102Y-57695226D01*
X33798061Y-57735000D01*
X34001939Y-57735000D01*
X34201898Y-57695226D01*
X34390256Y-57617205D01*
X34559774Y-57503937D01*
X34600000Y-57463711D01*
X34640226Y-57503937D01*
X34809744Y-57617205D01*
X34998102Y-57695226D01*
X35198061Y-57735000D01*
X35401939Y-57735000D01*
X35601898Y-57695226D01*
X35790256Y-57617205D01*
X35959774Y-57503937D01*
X36103937Y-57359774D01*
X36217205Y-57190256D01*
X36295226Y-57001898D01*
X36335000Y-56801939D01*
X36335000Y-56598061D01*
X36295226Y-56398102D01*
X36217205Y-56209744D01*
X36210694Y-56200000D01*
X36217205Y-56190256D01*
X36295226Y-56001898D01*
X36335000Y-55801939D01*
X36335000Y-55598061D01*
X36295226Y-55398102D01*
X36217205Y-55209744D01*
X36210694Y-55200000D01*
X36217205Y-55190256D01*
X36295226Y-55001898D01*
X36315880Y-54898061D01*
X60365000Y-54898061D01*
X60365000Y-55101939D01*
X60404774Y-55301898D01*
X60466120Y-55450000D01*
X60404774Y-55598102D01*
X60365000Y-55798061D01*
X60365000Y-56001939D01*
X60404774Y-56201898D01*
X60482795Y-56390256D01*
X60596063Y-56559774D01*
X60740226Y-56703937D01*
X60909744Y-56817205D01*
X61098102Y-56895226D01*
X61298061Y-56935000D01*
X61501939Y-56935000D01*
X61701898Y-56895226D01*
X61890256Y-56817205D01*
X62059774Y-56703937D01*
X62165650Y-56598061D01*
X68365000Y-56598061D01*
X68365000Y-56801939D01*
X68404774Y-57001898D01*
X68482795Y-57190256D01*
X68596063Y-57359774D01*
X68740226Y-57503937D01*
X68909744Y-57617205D01*
X69098102Y-57695226D01*
X69298061Y-57735000D01*
X69501939Y-57735000D01*
X69701898Y-57695226D01*
X69890256Y-57617205D01*
X70059774Y-57503937D01*
X70203937Y-57359774D01*
X70317205Y-57190256D01*
X70395226Y-57001898D01*
X70435000Y-56801939D01*
X70435000Y-56598061D01*
X70395226Y-56398102D01*
X70317205Y-56209744D01*
X70203937Y-56040226D01*
X70059774Y-55896063D01*
X69890256Y-55782795D01*
X69701898Y-55704774D01*
X69501939Y-55665000D01*
X69298061Y-55665000D01*
X69098102Y-55704774D01*
X68909744Y-55782795D01*
X68740226Y-55896063D01*
X68596063Y-56040226D01*
X68482795Y-56209744D01*
X68404774Y-56398102D01*
X68365000Y-56598061D01*
X62165650Y-56598061D01*
X62203937Y-56559774D01*
X62317205Y-56390256D01*
X62395226Y-56201898D01*
X62435000Y-56001939D01*
X62435000Y-55798061D01*
X62395226Y-55598102D01*
X62333880Y-55450000D01*
X62395226Y-55301898D01*
X62428424Y-55135000D01*
X62501939Y-55135000D01*
X62701898Y-55095226D01*
X62890256Y-55017205D01*
X63059774Y-54903937D01*
X63203937Y-54759774D01*
X63317205Y-54590256D01*
X63395226Y-54401898D01*
X63435000Y-54201939D01*
X63435000Y-53998061D01*
X63395226Y-53798102D01*
X63317205Y-53609744D01*
X63203937Y-53440226D01*
X63059774Y-53296063D01*
X62890256Y-53182795D01*
X62701898Y-53104774D01*
X62501939Y-53065000D01*
X62298061Y-53065000D01*
X62098102Y-53104774D01*
X61909744Y-53182795D01*
X61740226Y-53296063D01*
X61596063Y-53440226D01*
X61482795Y-53609744D01*
X61404774Y-53798102D01*
X61371576Y-53965000D01*
X61298061Y-53965000D01*
X61098102Y-54004774D01*
X60909744Y-54082795D01*
X60740226Y-54196063D01*
X60596063Y-54340226D01*
X60482795Y-54509744D01*
X60404774Y-54698102D01*
X60365000Y-54898061D01*
X36315880Y-54898061D01*
X36335000Y-54801939D01*
X36335000Y-54598061D01*
X36295226Y-54398102D01*
X36233880Y-54250000D01*
X36295226Y-54101898D01*
X36335000Y-53901939D01*
X36335000Y-53698061D01*
X36295226Y-53498102D01*
X36217205Y-53309744D01*
X36103937Y-53140226D01*
X35959774Y-52996063D01*
X35790256Y-52882795D01*
X35601898Y-52804774D01*
X35401939Y-52765000D01*
X35198061Y-52765000D01*
X34998102Y-52804774D01*
X34809744Y-52882795D01*
X34640226Y-52996063D01*
X34600000Y-53036289D01*
X34559774Y-52996063D01*
X34390256Y-52882795D01*
X34201898Y-52804774D01*
X34001939Y-52765000D01*
X33798061Y-52765000D01*
X33598102Y-52804774D01*
X33409744Y-52882795D01*
X33240226Y-52996063D01*
X33096063Y-53140226D01*
X32982795Y-53309744D01*
X32904774Y-53498102D01*
X32865000Y-53698061D01*
X26660000Y-53698061D01*
X26660000Y-51098061D01*
X47865000Y-51098061D01*
X47865000Y-51301939D01*
X47904774Y-51501898D01*
X47982795Y-51690256D01*
X48096063Y-51859774D01*
X48240226Y-52003937D01*
X48409744Y-52117205D01*
X48598102Y-52195226D01*
X48798061Y-52235000D01*
X49001939Y-52235000D01*
X49201898Y-52195226D01*
X49265000Y-52169088D01*
X49265000Y-52201939D01*
X49304774Y-52401898D01*
X49382795Y-52590256D01*
X49496063Y-52759774D01*
X49640226Y-52903937D01*
X49809744Y-53017205D01*
X49998102Y-53095226D01*
X50198061Y-53135000D01*
X50401939Y-53135000D01*
X50601898Y-53095226D01*
X50790256Y-53017205D01*
X50959774Y-52903937D01*
X50965650Y-52898061D01*
X71665000Y-52898061D01*
X71665000Y-53101939D01*
X71704774Y-53301898D01*
X71782795Y-53490256D01*
X71822715Y-53550000D01*
X71782795Y-53609744D01*
X71704774Y-53798102D01*
X71665000Y-53998061D01*
X71665000Y-54201939D01*
X71704774Y-54401898D01*
X71782795Y-54590256D01*
X71822715Y-54650000D01*
X71782795Y-54709744D01*
X71704774Y-54898102D01*
X71665000Y-55098061D01*
X71665000Y-55301939D01*
X71704774Y-55501898D01*
X71782795Y-55690256D01*
X71896063Y-55859774D01*
X72040226Y-56003937D01*
X72209744Y-56117205D01*
X72398102Y-56195226D01*
X72598061Y-56235000D01*
X72801939Y-56235000D01*
X73001898Y-56195226D01*
X73190256Y-56117205D01*
X73350000Y-56010468D01*
X73509744Y-56117205D01*
X73698102Y-56195226D01*
X73898061Y-56235000D01*
X74101939Y-56235000D01*
X74301898Y-56195226D01*
X74490256Y-56117205D01*
X74659774Y-56003937D01*
X74803937Y-55859774D01*
X74917205Y-55690256D01*
X74995226Y-55501898D01*
X75035000Y-55301939D01*
X75035000Y-55098061D01*
X74995226Y-54898102D01*
X74917205Y-54709744D01*
X74877285Y-54650000D01*
X74917205Y-54590256D01*
X74995226Y-54401898D01*
X75035000Y-54201939D01*
X75035000Y-53998061D01*
X74995226Y-53798102D01*
X74917205Y-53609744D01*
X74877285Y-53550000D01*
X74917205Y-53490256D01*
X74995226Y-53301898D01*
X75035000Y-53101939D01*
X75035000Y-52898061D01*
X74995226Y-52698102D01*
X74917205Y-52509744D01*
X74803937Y-52340226D01*
X74659774Y-52196063D01*
X74490256Y-52082795D01*
X74301898Y-52004774D01*
X74101939Y-51965000D01*
X73898061Y-51965000D01*
X73698102Y-52004774D01*
X73509744Y-52082795D01*
X73350000Y-52189532D01*
X73190256Y-52082795D01*
X73001898Y-52004774D01*
X72801939Y-51965000D01*
X72598061Y-51965000D01*
X72398102Y-52004774D01*
X72209744Y-52082795D01*
X72040226Y-52196063D01*
X71896063Y-52340226D01*
X71782795Y-52509744D01*
X71704774Y-52698102D01*
X71665000Y-52898061D01*
X50965650Y-52898061D01*
X51103937Y-52759774D01*
X51217205Y-52590256D01*
X51295226Y-52401898D01*
X51335000Y-52201939D01*
X51335000Y-51998061D01*
X51295226Y-51798102D01*
X51233880Y-51650000D01*
X51295226Y-51501898D01*
X51335000Y-51301939D01*
X51335000Y-51098061D01*
X51295226Y-50898102D01*
X51233880Y-50750000D01*
X51295226Y-50601898D01*
X51335000Y-50401939D01*
X51335000Y-50198061D01*
X59265000Y-50198061D01*
X59265000Y-50401939D01*
X59304774Y-50601898D01*
X59382795Y-50790256D01*
X59496063Y-50959774D01*
X59640226Y-51103937D01*
X59809744Y-51217205D01*
X59998102Y-51295226D01*
X60198061Y-51335000D01*
X60401939Y-51335000D01*
X60601898Y-51295226D01*
X60790256Y-51217205D01*
X60959774Y-51103937D01*
X61103937Y-50959774D01*
X61217205Y-50790256D01*
X61295226Y-50601898D01*
X61333634Y-50408804D01*
X61401898Y-50395226D01*
X61590256Y-50317205D01*
X61759774Y-50203937D01*
X61840845Y-50122866D01*
X61782795Y-50209744D01*
X61704774Y-50398102D01*
X61665000Y-50598061D01*
X61665000Y-50801939D01*
X61704774Y-51001898D01*
X61782795Y-51190256D01*
X61896063Y-51359774D01*
X62040226Y-51503937D01*
X62209744Y-51617205D01*
X62398102Y-51695226D01*
X62598061Y-51735000D01*
X62801939Y-51735000D01*
X63001898Y-51695226D01*
X63190256Y-51617205D01*
X63359774Y-51503937D01*
X63503937Y-51359774D01*
X63617205Y-51190256D01*
X63695226Y-51001898D01*
X63735000Y-50801939D01*
X63735000Y-50598061D01*
X63695226Y-50398102D01*
X63617205Y-50209744D01*
X63503937Y-50040226D01*
X63359774Y-49896063D01*
X63190256Y-49782795D01*
X63001898Y-49704774D01*
X62801939Y-49665000D01*
X62598061Y-49665000D01*
X62398102Y-49704774D01*
X62209744Y-49782795D01*
X62040226Y-49896063D01*
X61959155Y-49977134D01*
X62017205Y-49890256D01*
X62095226Y-49701898D01*
X62135000Y-49501939D01*
X62135000Y-49298061D01*
X62095226Y-49098102D01*
X62017205Y-48909744D01*
X61903937Y-48740226D01*
X61759774Y-48596063D01*
X61590256Y-48482795D01*
X61401898Y-48404774D01*
X61201939Y-48365000D01*
X60998061Y-48365000D01*
X60798102Y-48404774D01*
X60609744Y-48482795D01*
X60440226Y-48596063D01*
X60296063Y-48740226D01*
X60182795Y-48909744D01*
X60104774Y-49098102D01*
X60066366Y-49291196D01*
X59998102Y-49304774D01*
X59809744Y-49382795D01*
X59640226Y-49496063D01*
X59496063Y-49640226D01*
X59382795Y-49809744D01*
X59304774Y-49998102D01*
X59265000Y-50198061D01*
X51335000Y-50198061D01*
X51295226Y-49998102D01*
X51233880Y-49850000D01*
X51295226Y-49701898D01*
X51335000Y-49501939D01*
X51335000Y-49298061D01*
X51295226Y-49098102D01*
X51217205Y-48909744D01*
X51103937Y-48740226D01*
X50959774Y-48596063D01*
X50790256Y-48482795D01*
X50601898Y-48404774D01*
X50401939Y-48365000D01*
X50198061Y-48365000D01*
X49998102Y-48404774D01*
X49809744Y-48482795D01*
X49640226Y-48596063D01*
X49496063Y-48740226D01*
X49382795Y-48909744D01*
X49304774Y-49098102D01*
X49265000Y-49298061D01*
X49265000Y-49501939D01*
X49304774Y-49701898D01*
X49366120Y-49850000D01*
X49304774Y-49998102D01*
X49265000Y-50198061D01*
X49265000Y-50230912D01*
X49201898Y-50204774D01*
X49001939Y-50165000D01*
X48798061Y-50165000D01*
X48598102Y-50204774D01*
X48409744Y-50282795D01*
X48240226Y-50396063D01*
X48096063Y-50540226D01*
X47982795Y-50709744D01*
X47904774Y-50898102D01*
X47865000Y-51098061D01*
X26660000Y-51098061D01*
X26660000Y-46361911D01*
X39953000Y-46361911D01*
X39953000Y-46546089D01*
X39988932Y-46726729D01*
X40059414Y-46896889D01*
X40161738Y-47050028D01*
X40165710Y-47054000D01*
X40161738Y-47057972D01*
X40059414Y-47211111D01*
X39988932Y-47381271D01*
X39953000Y-47561911D01*
X39953000Y-47746089D01*
X39988932Y-47926729D01*
X40059414Y-48096889D01*
X40161738Y-48250028D01*
X40215710Y-48304000D01*
X40161738Y-48357972D01*
X40059414Y-48511111D01*
X39988932Y-48681271D01*
X39953000Y-48861911D01*
X39953000Y-49046089D01*
X39988932Y-49226729D01*
X40059414Y-49396889D01*
X40130983Y-49504000D01*
X40059414Y-49611111D01*
X39988932Y-49781271D01*
X39953000Y-49961911D01*
X39953000Y-50146089D01*
X39988932Y-50326729D01*
X40059414Y-50496889D01*
X40161738Y-50650028D01*
X40291972Y-50780262D01*
X40445111Y-50882586D01*
X40615271Y-50953068D01*
X40795911Y-50989000D01*
X40980089Y-50989000D01*
X41160729Y-50953068D01*
X41330889Y-50882586D01*
X41484028Y-50780262D01*
X41488000Y-50776290D01*
X41491972Y-50780262D01*
X41645111Y-50882586D01*
X41815271Y-50953068D01*
X41995911Y-50989000D01*
X42180089Y-50989000D01*
X42360729Y-50953068D01*
X42530889Y-50882586D01*
X42684028Y-50780262D01*
X42814262Y-50650028D01*
X42916586Y-50496889D01*
X42987068Y-50326729D01*
X43023000Y-50146089D01*
X43023000Y-49961911D01*
X42987068Y-49781271D01*
X42916586Y-49611111D01*
X42845017Y-49504000D01*
X42916586Y-49396889D01*
X42987068Y-49226729D01*
X43023000Y-49046089D01*
X43023000Y-48861911D01*
X42987068Y-48681271D01*
X42916586Y-48511111D01*
X42814262Y-48357972D01*
X42760290Y-48304000D01*
X42814262Y-48250028D01*
X42916586Y-48096889D01*
X42987068Y-47926729D01*
X43023000Y-47746089D01*
X43023000Y-47561911D01*
X42987068Y-47381271D01*
X42916586Y-47211111D01*
X42814262Y-47057972D01*
X42810290Y-47054000D01*
X42814262Y-47050028D01*
X42916586Y-46896889D01*
X42987068Y-46726729D01*
X43023000Y-46546089D01*
X43023000Y-46498061D01*
X52765000Y-46498061D01*
X52765000Y-46701939D01*
X52804774Y-46901898D01*
X52882795Y-47090256D01*
X52889306Y-47100000D01*
X52882795Y-47109744D01*
X52804774Y-47298102D01*
X52765000Y-47498061D01*
X52765000Y-47701939D01*
X52804774Y-47901898D01*
X52882795Y-48090256D01*
X52889306Y-48100000D01*
X52882795Y-48109744D01*
X52804774Y-48298102D01*
X52765000Y-48498061D01*
X52765000Y-48701939D01*
X52804774Y-48901898D01*
X52882795Y-49090256D01*
X52996063Y-49259774D01*
X53140226Y-49403937D01*
X53309744Y-49517205D01*
X53498102Y-49595226D01*
X53698061Y-49635000D01*
X53901939Y-49635000D01*
X54101898Y-49595226D01*
X54290256Y-49517205D01*
X54459774Y-49403937D01*
X54603937Y-49259774D01*
X54717205Y-49090256D01*
X54795226Y-48901898D01*
X54835000Y-48701939D01*
X54835000Y-48498061D01*
X54795226Y-48298102D01*
X54717205Y-48109744D01*
X54710694Y-48100000D01*
X54717205Y-48090256D01*
X54795226Y-47901898D01*
X54835000Y-47701939D01*
X54835000Y-47498061D01*
X54795226Y-47298102D01*
X54775302Y-47250000D01*
X71709993Y-47250000D01*
X71729976Y-47452895D01*
X71789159Y-47647993D01*
X71885266Y-47827797D01*
X71924004Y-47875000D01*
X71885266Y-47922203D01*
X71789159Y-48102007D01*
X71729976Y-48297105D01*
X71709993Y-48500000D01*
X71729976Y-48702895D01*
X71789159Y-48897993D01*
X71885266Y-49077797D01*
X72014604Y-49235396D01*
X72172203Y-49364734D01*
X72352007Y-49460841D01*
X72547105Y-49520024D01*
X72699162Y-49535000D01*
X73300838Y-49535000D01*
X73452895Y-49520024D01*
X73647993Y-49460841D01*
X73827797Y-49364734D01*
X73985396Y-49235396D01*
X74114734Y-49077797D01*
X74210841Y-48897993D01*
X74270024Y-48702895D01*
X74290007Y-48500000D01*
X74270024Y-48297105D01*
X74210841Y-48102007D01*
X74114734Y-47922203D01*
X74075996Y-47875000D01*
X74114734Y-47827797D01*
X74210841Y-47647993D01*
X74270024Y-47452895D01*
X74290007Y-47250000D01*
X74270024Y-47047105D01*
X74210841Y-46852007D01*
X74167401Y-46770736D01*
X74179298Y-46756342D01*
X74238646Y-46646234D01*
X74275374Y-46526664D01*
X74285000Y-46406750D01*
X74126250Y-46248000D01*
X73512311Y-46248000D01*
X73452895Y-46229976D01*
X73300838Y-46215000D01*
X72699162Y-46215000D01*
X72547105Y-46229976D01*
X72487689Y-46248000D01*
X71873750Y-46248000D01*
X71715000Y-46406750D01*
X71724626Y-46526664D01*
X71761354Y-46646234D01*
X71820702Y-46756342D01*
X71832599Y-46770736D01*
X71789159Y-46852007D01*
X71729976Y-47047105D01*
X71709993Y-47250000D01*
X54775302Y-47250000D01*
X54717205Y-47109744D01*
X54710694Y-47100000D01*
X54717205Y-47090256D01*
X54795226Y-46901898D01*
X54835000Y-46701939D01*
X54835000Y-46498061D01*
X54795226Y-46298102D01*
X54717205Y-46109744D01*
X54603937Y-45940226D01*
X54459774Y-45796063D01*
X54290256Y-45682795D01*
X54101898Y-45604774D01*
X53901939Y-45565000D01*
X53698061Y-45565000D01*
X53498102Y-45604774D01*
X53309744Y-45682795D01*
X53140226Y-45796063D01*
X52996063Y-45940226D01*
X52882795Y-46109744D01*
X52804774Y-46298102D01*
X52765000Y-46498061D01*
X43023000Y-46498061D01*
X43023000Y-46361911D01*
X42987068Y-46181271D01*
X42916586Y-46011111D01*
X42814262Y-45857972D01*
X42684028Y-45727738D01*
X42530889Y-45625414D01*
X42360729Y-45554932D01*
X42180089Y-45519000D01*
X41995911Y-45519000D01*
X41815271Y-45554932D01*
X41645111Y-45625414D01*
X41491972Y-45727738D01*
X41488000Y-45731710D01*
X41484028Y-45727738D01*
X41330889Y-45625414D01*
X41160729Y-45554932D01*
X40980089Y-45519000D01*
X40795911Y-45519000D01*
X40615271Y-45554932D01*
X40445111Y-45625414D01*
X40291972Y-45727738D01*
X40161738Y-45857972D01*
X40059414Y-46011111D01*
X39988932Y-46181271D01*
X39953000Y-46361911D01*
X26660000Y-46361911D01*
X26660000Y-45098061D01*
X47865000Y-45098061D01*
X47865000Y-45301939D01*
X47904774Y-45501898D01*
X47982795Y-45690256D01*
X48096063Y-45859774D01*
X48240226Y-46003937D01*
X48409744Y-46117205D01*
X48598102Y-46195226D01*
X48798061Y-46235000D01*
X49001939Y-46235000D01*
X49201898Y-46195226D01*
X49390256Y-46117205D01*
X49559774Y-46003937D01*
X49703937Y-45859774D01*
X49817205Y-45690256D01*
X49895226Y-45501898D01*
X49935000Y-45301939D01*
X49935000Y-45098061D01*
X49895226Y-44898102D01*
X49817205Y-44709744D01*
X49703937Y-44540226D01*
X49661772Y-44498061D01*
X53565000Y-44498061D01*
X53565000Y-44701939D01*
X53604774Y-44901898D01*
X53682795Y-45090256D01*
X53796063Y-45259774D01*
X53940226Y-45403937D01*
X54109744Y-45517205D01*
X54298102Y-45595226D01*
X54498061Y-45635000D01*
X54701939Y-45635000D01*
X54901898Y-45595226D01*
X55050000Y-45533880D01*
X55198102Y-45595226D01*
X55398061Y-45635000D01*
X55601939Y-45635000D01*
X55801898Y-45595226D01*
X55990256Y-45517205D01*
X56159774Y-45403937D01*
X56303937Y-45259774D01*
X56417205Y-45090256D01*
X56495226Y-44901898D01*
X56535000Y-44701939D01*
X56535000Y-44498061D01*
X56495226Y-44298102D01*
X56417205Y-44109744D01*
X56303937Y-43940226D01*
X56161772Y-43798061D01*
X56665000Y-43798061D01*
X56665000Y-44001939D01*
X56704774Y-44201898D01*
X56782795Y-44390256D01*
X56896063Y-44559774D01*
X57040226Y-44703937D01*
X57209744Y-44817205D01*
X57398102Y-44895226D01*
X57598061Y-44935000D01*
X57772334Y-44935000D01*
X57704774Y-45098102D01*
X57665000Y-45298061D01*
X57665000Y-45501939D01*
X57704774Y-45701898D01*
X57782795Y-45890256D01*
X57896063Y-46059774D01*
X58040226Y-46203937D01*
X58209744Y-46317205D01*
X58398102Y-46395226D01*
X58487076Y-46412924D01*
X58504774Y-46501898D01*
X58582795Y-46690256D01*
X58696063Y-46859774D01*
X58840226Y-47003937D01*
X59009744Y-47117205D01*
X59198102Y-47195226D01*
X59398061Y-47235000D01*
X59601939Y-47235000D01*
X59801898Y-47195226D01*
X59990256Y-47117205D01*
X60159774Y-47003937D01*
X60303937Y-46859774D01*
X60417205Y-46690256D01*
X60495226Y-46501898D01*
X60535000Y-46301939D01*
X60535000Y-46098061D01*
X61765000Y-46098061D01*
X61765000Y-46301939D01*
X61804774Y-46501898D01*
X61882795Y-46690256D01*
X61996063Y-46859774D01*
X62140226Y-47003937D01*
X62309744Y-47117205D01*
X62498102Y-47195226D01*
X62698061Y-47235000D01*
X62901939Y-47235000D01*
X63101898Y-47195226D01*
X63290256Y-47117205D01*
X63459774Y-47003937D01*
X63603937Y-46859774D01*
X63717205Y-46690256D01*
X63795226Y-46501898D01*
X63811940Y-46417870D01*
X63898061Y-46435000D01*
X64101939Y-46435000D01*
X64301898Y-46395226D01*
X64490256Y-46317205D01*
X64659774Y-46203937D01*
X64803937Y-46059774D01*
X64917205Y-45890256D01*
X64995226Y-45701898D01*
X65035000Y-45501939D01*
X65035000Y-45298061D01*
X64995226Y-45098102D01*
X64917205Y-44909744D01*
X64803937Y-44740226D01*
X64659774Y-44596063D01*
X64490256Y-44482795D01*
X64301898Y-44404774D01*
X64268150Y-44398061D01*
X66965000Y-44398061D01*
X66965000Y-44601939D01*
X67004774Y-44801898D01*
X67082795Y-44990256D01*
X67122715Y-45050000D01*
X67082795Y-45109744D01*
X67004774Y-45298102D01*
X66965000Y-45498061D01*
X66965000Y-45701939D01*
X67004774Y-45901898D01*
X67082795Y-46090256D01*
X67196063Y-46259774D01*
X67340226Y-46403937D01*
X67509744Y-46517205D01*
X67698102Y-46595226D01*
X67898061Y-46635000D01*
X68101939Y-46635000D01*
X68301898Y-46595226D01*
X68490256Y-46517205D01*
X68659774Y-46403937D01*
X68803937Y-46259774D01*
X68917205Y-46090256D01*
X68995226Y-45901898D01*
X69035000Y-45701939D01*
X69035000Y-45593250D01*
X71715000Y-45593250D01*
X71873750Y-45752000D01*
X72752000Y-45752000D01*
X72752000Y-45123750D01*
X73248000Y-45123750D01*
X73248000Y-45752000D01*
X74126250Y-45752000D01*
X74285000Y-45593250D01*
X74275374Y-45473336D01*
X74238646Y-45353766D01*
X74179298Y-45243658D01*
X74099608Y-45147244D01*
X74002641Y-45068229D01*
X73892122Y-45009650D01*
X73772298Y-44973758D01*
X73647774Y-44961932D01*
X73406750Y-44965000D01*
X73248000Y-45123750D01*
X72752000Y-45123750D01*
X72593250Y-44965000D01*
X72352226Y-44961932D01*
X72227702Y-44973758D01*
X72107878Y-45009650D01*
X71997359Y-45068229D01*
X71900392Y-45147244D01*
X71820702Y-45243658D01*
X71761354Y-45353766D01*
X71724626Y-45473336D01*
X71715000Y-45593250D01*
X69035000Y-45593250D01*
X69035000Y-45498061D01*
X68995226Y-45298102D01*
X68917205Y-45109744D01*
X68877285Y-45050000D01*
X68917205Y-44990256D01*
X68995226Y-44801898D01*
X69035000Y-44601939D01*
X69035000Y-44398061D01*
X68995226Y-44198102D01*
X68917205Y-44009744D01*
X68803937Y-43840226D01*
X68659774Y-43696063D01*
X68490256Y-43582795D01*
X68301898Y-43504774D01*
X68101939Y-43465000D01*
X67898061Y-43465000D01*
X67698102Y-43504774D01*
X67509744Y-43582795D01*
X67340226Y-43696063D01*
X67196063Y-43840226D01*
X67082795Y-44009744D01*
X67004774Y-44198102D01*
X66965000Y-44398061D01*
X64268150Y-44398061D01*
X64101939Y-44365000D01*
X63898061Y-44365000D01*
X63698102Y-44404774D01*
X63509744Y-44482795D01*
X63340226Y-44596063D01*
X63196063Y-44740226D01*
X63082795Y-44909744D01*
X63004774Y-45098102D01*
X62988060Y-45182130D01*
X62901939Y-45165000D01*
X62698061Y-45165000D01*
X62498102Y-45204774D01*
X62309744Y-45282795D01*
X62140226Y-45396063D01*
X61996063Y-45540226D01*
X61882795Y-45709744D01*
X61804774Y-45898102D01*
X61765000Y-46098061D01*
X60535000Y-46098061D01*
X60495226Y-45898102D01*
X60417205Y-45709744D01*
X60303937Y-45540226D01*
X60159774Y-45396063D01*
X59990256Y-45282795D01*
X59801898Y-45204774D01*
X59712924Y-45187076D01*
X59695226Y-45098102D01*
X59617205Y-44909744D01*
X59503937Y-44740226D01*
X59359774Y-44596063D01*
X59190256Y-44482795D01*
X59001898Y-44404774D01*
X58801939Y-44365000D01*
X58627666Y-44365000D01*
X58695226Y-44201898D01*
X58735000Y-44001939D01*
X58735000Y-43798061D01*
X58695226Y-43598102D01*
X58617205Y-43409744D01*
X58503937Y-43240226D01*
X58359774Y-43096063D01*
X58190256Y-42982795D01*
X58001898Y-42904774D01*
X57801939Y-42865000D01*
X57598061Y-42865000D01*
X57398102Y-42904774D01*
X57209744Y-42982795D01*
X57040226Y-43096063D01*
X56896063Y-43240226D01*
X56782795Y-43409744D01*
X56704774Y-43598102D01*
X56665000Y-43798061D01*
X56161772Y-43798061D01*
X56159774Y-43796063D01*
X55990256Y-43682795D01*
X55801898Y-43604774D01*
X55601939Y-43565000D01*
X55398061Y-43565000D01*
X55198102Y-43604774D01*
X55050000Y-43666120D01*
X54901898Y-43604774D01*
X54701939Y-43565000D01*
X54498061Y-43565000D01*
X54298102Y-43604774D01*
X54109744Y-43682795D01*
X53940226Y-43796063D01*
X53796063Y-43940226D01*
X53682795Y-44109744D01*
X53604774Y-44298102D01*
X53565000Y-44498061D01*
X49661772Y-44498061D01*
X49559774Y-44396063D01*
X49390256Y-44282795D01*
X49201898Y-44204774D01*
X49001939Y-44165000D01*
X48798061Y-44165000D01*
X48598102Y-44204774D01*
X48409744Y-44282795D01*
X48240226Y-44396063D01*
X48096063Y-44540226D01*
X47982795Y-44709744D01*
X47904774Y-44898102D01*
X47865000Y-45098061D01*
X26660000Y-45098061D01*
X26660000Y-42198061D01*
X51065000Y-42198061D01*
X51065000Y-42401939D01*
X51104774Y-42601898D01*
X51182795Y-42790256D01*
X51222715Y-42850000D01*
X51182795Y-42909744D01*
X51104774Y-43098102D01*
X51065000Y-43298061D01*
X51065000Y-43501939D01*
X51104774Y-43701898D01*
X51182795Y-43890256D01*
X51296063Y-44059774D01*
X51440226Y-44203937D01*
X51609744Y-44317205D01*
X51798102Y-44395226D01*
X51998061Y-44435000D01*
X52201939Y-44435000D01*
X52401898Y-44395226D01*
X52590256Y-44317205D01*
X52759774Y-44203937D01*
X52903937Y-44059774D01*
X53017205Y-43890256D01*
X53095226Y-43701898D01*
X53135000Y-43501939D01*
X53135000Y-43322456D01*
X53198061Y-43335000D01*
X53401939Y-43335000D01*
X53601898Y-43295226D01*
X53790256Y-43217205D01*
X53959774Y-43103937D01*
X54103937Y-42959774D01*
X54217205Y-42790256D01*
X54295226Y-42601898D01*
X54335000Y-42401939D01*
X54335000Y-42198061D01*
X54295226Y-41998102D01*
X54217205Y-41809744D01*
X54103937Y-41640226D01*
X53959774Y-41496063D01*
X53790256Y-41382795D01*
X53601898Y-41304774D01*
X53401939Y-41265000D01*
X53198061Y-41265000D01*
X52998102Y-41304774D01*
X52809744Y-41382795D01*
X52700000Y-41456123D01*
X52590256Y-41382795D01*
X52401898Y-41304774D01*
X52201939Y-41265000D01*
X51998061Y-41265000D01*
X51798102Y-41304774D01*
X51609744Y-41382795D01*
X51440226Y-41496063D01*
X51296063Y-41640226D01*
X51182795Y-41809744D01*
X51104774Y-41998102D01*
X51065000Y-42198061D01*
X26660000Y-42198061D01*
X26660000Y-40998061D01*
X54565000Y-40998061D01*
X54565000Y-41201939D01*
X54604774Y-41401898D01*
X54682795Y-41590256D01*
X54796063Y-41759774D01*
X54940226Y-41903937D01*
X55109744Y-42017205D01*
X55298102Y-42095226D01*
X55498061Y-42135000D01*
X55701939Y-42135000D01*
X55901898Y-42095226D01*
X56090256Y-42017205D01*
X56259774Y-41903937D01*
X56403937Y-41759774D01*
X56517205Y-41590256D01*
X56595226Y-41401898D01*
X56635000Y-41201939D01*
X56635000Y-40998061D01*
X56595226Y-40798102D01*
X56595210Y-40798061D01*
X63065000Y-40798061D01*
X63065000Y-41001939D01*
X63104774Y-41201898D01*
X63182795Y-41390256D01*
X63296063Y-41559774D01*
X63440226Y-41703937D01*
X63609744Y-41817205D01*
X63798102Y-41895226D01*
X63998061Y-41935000D01*
X64201939Y-41935000D01*
X64401898Y-41895226D01*
X64590256Y-41817205D01*
X64600000Y-41810694D01*
X64609744Y-41817205D01*
X64798102Y-41895226D01*
X64998061Y-41935000D01*
X65201939Y-41935000D01*
X65401898Y-41895226D01*
X65590256Y-41817205D01*
X65759774Y-41703937D01*
X65903937Y-41559774D01*
X66017205Y-41390256D01*
X66095226Y-41201898D01*
X66135000Y-41001939D01*
X66135000Y-40798061D01*
X66095226Y-40598102D01*
X66017205Y-40409744D01*
X65903937Y-40240226D01*
X65759774Y-40096063D01*
X65590256Y-39982795D01*
X65401898Y-39904774D01*
X65201939Y-39865000D01*
X64998061Y-39865000D01*
X64798102Y-39904774D01*
X64609744Y-39982795D01*
X64600000Y-39989306D01*
X64590256Y-39982795D01*
X64401898Y-39904774D01*
X64201939Y-39865000D01*
X63998061Y-39865000D01*
X63798102Y-39904774D01*
X63609744Y-39982795D01*
X63440226Y-40096063D01*
X63296063Y-40240226D01*
X63182795Y-40409744D01*
X63104774Y-40598102D01*
X63065000Y-40798061D01*
X56595210Y-40798061D01*
X56517205Y-40609744D01*
X56403937Y-40440226D01*
X56259774Y-40296063D01*
X56090256Y-40182795D01*
X55901898Y-40104774D01*
X55701939Y-40065000D01*
X55498061Y-40065000D01*
X55298102Y-40104774D01*
X55109744Y-40182795D01*
X54940226Y-40296063D01*
X54796063Y-40440226D01*
X54682795Y-40609744D01*
X54604774Y-40798102D01*
X54565000Y-40998061D01*
X26660000Y-40998061D01*
X26660000Y-37979444D01*
X26698102Y-37995226D01*
X26898061Y-38035000D01*
X27101939Y-38035000D01*
X27301898Y-37995226D01*
X27490256Y-37917205D01*
X27500000Y-37910694D01*
X27509744Y-37917205D01*
X27698102Y-37995226D01*
X27898061Y-38035000D01*
X28101939Y-38035000D01*
X28301898Y-37995226D01*
X28490256Y-37917205D01*
X28500000Y-37910694D01*
X28509744Y-37917205D01*
X28698102Y-37995226D01*
X28898061Y-38035000D01*
X29101939Y-38035000D01*
X29301898Y-37995226D01*
X29490256Y-37917205D01*
X29659774Y-37803937D01*
X29803937Y-37659774D01*
X29917205Y-37490256D01*
X29995226Y-37301898D01*
X29995989Y-37298061D01*
X57665000Y-37298061D01*
X57665000Y-37501939D01*
X57704774Y-37701898D01*
X57782795Y-37890256D01*
X57896063Y-38059774D01*
X58040226Y-38203937D01*
X58209744Y-38317205D01*
X58398102Y-38395226D01*
X58598061Y-38435000D01*
X58801939Y-38435000D01*
X59001898Y-38395226D01*
X59190256Y-38317205D01*
X59200000Y-38310694D01*
X59209744Y-38317205D01*
X59398102Y-38395226D01*
X59598061Y-38435000D01*
X59801939Y-38435000D01*
X60001898Y-38395226D01*
X60150000Y-38333880D01*
X60298102Y-38395226D01*
X60498061Y-38435000D01*
X60701939Y-38435000D01*
X60901898Y-38395226D01*
X61090256Y-38317205D01*
X61100000Y-38310694D01*
X61109744Y-38317205D01*
X61298102Y-38395226D01*
X61498061Y-38435000D01*
X61701939Y-38435000D01*
X61901898Y-38395226D01*
X62090256Y-38317205D01*
X62259774Y-38203937D01*
X62403937Y-38059774D01*
X62517205Y-37890256D01*
X62595226Y-37701898D01*
X62635000Y-37501939D01*
X62635000Y-37298061D01*
X62595226Y-37098102D01*
X62517205Y-36909744D01*
X62403937Y-36740226D01*
X62259774Y-36596063D01*
X62090256Y-36482795D01*
X61901898Y-36404774D01*
X61701939Y-36365000D01*
X61498061Y-36365000D01*
X61298102Y-36404774D01*
X61109744Y-36482795D01*
X61100000Y-36489306D01*
X61090256Y-36482795D01*
X60901898Y-36404774D01*
X60701939Y-36365000D01*
X60498061Y-36365000D01*
X60298102Y-36404774D01*
X60150000Y-36466120D01*
X60001898Y-36404774D01*
X59801939Y-36365000D01*
X59598061Y-36365000D01*
X59398102Y-36404774D01*
X59209744Y-36482795D01*
X59200000Y-36489306D01*
X59190256Y-36482795D01*
X59001898Y-36404774D01*
X58801939Y-36365000D01*
X58598061Y-36365000D01*
X58398102Y-36404774D01*
X58209744Y-36482795D01*
X58040226Y-36596063D01*
X57896063Y-36740226D01*
X57782795Y-36909744D01*
X57704774Y-37098102D01*
X57665000Y-37298061D01*
X29995989Y-37298061D01*
X30035000Y-37101939D01*
X30035000Y-36898061D01*
X29995226Y-36698102D01*
X29917205Y-36509744D01*
X29910694Y-36500000D01*
X29917205Y-36490256D01*
X29995226Y-36301898D01*
X30035000Y-36101939D01*
X30035000Y-35898061D01*
X49265000Y-35898061D01*
X49265000Y-36101939D01*
X49304774Y-36301898D01*
X49382795Y-36490256D01*
X49496063Y-36659774D01*
X49640226Y-36803937D01*
X49809744Y-36917205D01*
X49998102Y-36995226D01*
X50198061Y-37035000D01*
X50401939Y-37035000D01*
X50601898Y-36995226D01*
X50790256Y-36917205D01*
X50959774Y-36803937D01*
X51050000Y-36713711D01*
X51140226Y-36803937D01*
X51309744Y-36917205D01*
X51498102Y-36995226D01*
X51698061Y-37035000D01*
X51901939Y-37035000D01*
X52101898Y-36995226D01*
X52290256Y-36917205D01*
X52459774Y-36803937D01*
X52550000Y-36713711D01*
X52640226Y-36803937D01*
X52809744Y-36917205D01*
X52998102Y-36995226D01*
X53198061Y-37035000D01*
X53401939Y-37035000D01*
X53601898Y-36995226D01*
X53790256Y-36917205D01*
X53959774Y-36803937D01*
X54050000Y-36713711D01*
X54140226Y-36803937D01*
X54309744Y-36917205D01*
X54498102Y-36995226D01*
X54698061Y-37035000D01*
X54901939Y-37035000D01*
X55101898Y-36995226D01*
X55290256Y-36917205D01*
X55459774Y-36803937D01*
X55550000Y-36713711D01*
X55640226Y-36803937D01*
X55809744Y-36917205D01*
X55998102Y-36995226D01*
X56198061Y-37035000D01*
X56401939Y-37035000D01*
X56601898Y-36995226D01*
X56790256Y-36917205D01*
X56959774Y-36803937D01*
X57103937Y-36659774D01*
X57217205Y-36490256D01*
X57295226Y-36301898D01*
X57335000Y-36101939D01*
X57335000Y-35898061D01*
X57295226Y-35698102D01*
X57217205Y-35509744D01*
X57103937Y-35340226D01*
X56959774Y-35196063D01*
X56790256Y-35082795D01*
X56601898Y-35004774D01*
X56401939Y-34965000D01*
X56198061Y-34965000D01*
X55998102Y-35004774D01*
X55809744Y-35082795D01*
X55640226Y-35196063D01*
X55550000Y-35286289D01*
X55459774Y-35196063D01*
X55290256Y-35082795D01*
X55101898Y-35004774D01*
X54901939Y-34965000D01*
X54698061Y-34965000D01*
X54498102Y-35004774D01*
X54309744Y-35082795D01*
X54140226Y-35196063D01*
X54050000Y-35286289D01*
X53959774Y-35196063D01*
X53790256Y-35082795D01*
X53601898Y-35004774D01*
X53401939Y-34965000D01*
X53198061Y-34965000D01*
X52998102Y-35004774D01*
X52809744Y-35082795D01*
X52640226Y-35196063D01*
X52550000Y-35286289D01*
X52459774Y-35196063D01*
X52290256Y-35082795D01*
X52101898Y-35004774D01*
X51901939Y-34965000D01*
X51698061Y-34965000D01*
X51498102Y-35004774D01*
X51309744Y-35082795D01*
X51140226Y-35196063D01*
X51050000Y-35286289D01*
X50959774Y-35196063D01*
X50790256Y-35082795D01*
X50601898Y-35004774D01*
X50401939Y-34965000D01*
X50198061Y-34965000D01*
X49998102Y-35004774D01*
X49809744Y-35082795D01*
X49640226Y-35196063D01*
X49496063Y-35340226D01*
X49382795Y-35509744D01*
X49304774Y-35698102D01*
X49265000Y-35898061D01*
X30035000Y-35898061D01*
X29995226Y-35698102D01*
X29917205Y-35509744D01*
X29910694Y-35500000D01*
X29917205Y-35490256D01*
X29995226Y-35301898D01*
X30035000Y-35101939D01*
X30035000Y-34898061D01*
X29995226Y-34698102D01*
X29917205Y-34509744D01*
X29803937Y-34340226D01*
X29659774Y-34196063D01*
X29490256Y-34082795D01*
X29301898Y-34004774D01*
X29101939Y-33965000D01*
X28898061Y-33965000D01*
X28698102Y-34004774D01*
X28509744Y-34082795D01*
X28500000Y-34089306D01*
X28490256Y-34082795D01*
X28301898Y-34004774D01*
X28101939Y-33965000D01*
X27898061Y-33965000D01*
X27698102Y-34004774D01*
X27509744Y-34082795D01*
X27500000Y-34089306D01*
X27490256Y-34082795D01*
X27301898Y-34004774D01*
X27101939Y-33965000D01*
X26898061Y-33965000D01*
X26698102Y-34004774D01*
X26660000Y-34020556D01*
X26660000Y-33876890D01*
X67750048Y-33876890D01*
X67750048Y-34123110D01*
X67798083Y-34364598D01*
X67892307Y-34592074D01*
X68029099Y-34796798D01*
X68203202Y-34970901D01*
X68407926Y-35107693D01*
X68635402Y-35201917D01*
X68876890Y-35249952D01*
X69123110Y-35249952D01*
X69364598Y-35201917D01*
X69592074Y-35107693D01*
X69796798Y-34970901D01*
X69970901Y-34796798D01*
X70107693Y-34592074D01*
X70201917Y-34364598D01*
X70249952Y-34123110D01*
X70249952Y-33876890D01*
X70201917Y-33635402D01*
X70107693Y-33407926D01*
X69970901Y-33203202D01*
X69796798Y-33029099D01*
X69592074Y-32892307D01*
X69364598Y-32798083D01*
X69123110Y-32750048D01*
X68876890Y-32750048D01*
X68635402Y-32798083D01*
X68407926Y-32892307D01*
X68203202Y-33029099D01*
X68029099Y-33203202D01*
X67892307Y-33407926D01*
X67798083Y-33635402D01*
X67750048Y-33876890D01*
X26660000Y-33876890D01*
X26660000Y-32600807D01*
X26797912Y-32807207D01*
X27192793Y-33202088D01*
X27657124Y-33512344D01*
X28173061Y-33726052D01*
X28720777Y-33835000D01*
X29279223Y-33835000D01*
X29826939Y-33726052D01*
X30342876Y-33512344D01*
X30807207Y-33202088D01*
X31202088Y-32807207D01*
X31512344Y-32342876D01*
X31726052Y-31826939D01*
X31835000Y-31279223D01*
X31835000Y-31241620D01*
X31876890Y-31249952D01*
X32123110Y-31249952D01*
X32364598Y-31201917D01*
X32592074Y-31107693D01*
X32796798Y-30970901D01*
X32970901Y-30796798D01*
X33107693Y-30592074D01*
X33201917Y-30364598D01*
X33249952Y-30123110D01*
X33249952Y-30050000D01*
X34461928Y-30050000D01*
X34461928Y-30950000D01*
X34478031Y-31113500D01*
X34525722Y-31270716D01*
X34603169Y-31415608D01*
X34707394Y-31542606D01*
X34834392Y-31646831D01*
X34979284Y-31724278D01*
X35136500Y-31771969D01*
X35300000Y-31788072D01*
X35700000Y-31788072D01*
X35863500Y-31771969D01*
X36020716Y-31724278D01*
X36165608Y-31646831D01*
X36191894Y-31625259D01*
X36352008Y-31710841D01*
X36547106Y-31770024D01*
X36750000Y-31790007D01*
X36952895Y-31770024D01*
X37147993Y-31710841D01*
X37327797Y-31614734D01*
X37485396Y-31485396D01*
X37614734Y-31327797D01*
X37710841Y-31147992D01*
X37770024Y-30952894D01*
X37785000Y-30800837D01*
X37785000Y-30199162D01*
X37770024Y-30047105D01*
X37710841Y-29852007D01*
X37614734Y-29672203D01*
X37485396Y-29514604D01*
X37327797Y-29385266D01*
X37147992Y-29289159D01*
X36952894Y-29229976D01*
X36750000Y-29209993D01*
X36547105Y-29229976D01*
X36352007Y-29289159D01*
X36191894Y-29374741D01*
X36165608Y-29353169D01*
X36020716Y-29275722D01*
X35863500Y-29228031D01*
X35700000Y-29211928D01*
X35300000Y-29211928D01*
X35136500Y-29228031D01*
X34979284Y-29275722D01*
X34834392Y-29353169D01*
X34707394Y-29457394D01*
X34603169Y-29584392D01*
X34525722Y-29729284D01*
X34478031Y-29886500D01*
X34461928Y-30050000D01*
X33249952Y-30050000D01*
X33249952Y-29876890D01*
X33201917Y-29635402D01*
X33107693Y-29407926D01*
X32970901Y-29203202D01*
X32796798Y-29029099D01*
X32592074Y-28892307D01*
X32364598Y-28798083D01*
X32123110Y-28750048D01*
X31876890Y-28750048D01*
X31635402Y-28798083D01*
X31407926Y-28892307D01*
X31203202Y-29029099D01*
X31120798Y-29111503D01*
X30807207Y-28797912D01*
X30600807Y-28660000D01*
X38582850Y-28660000D01*
X38482795Y-28809744D01*
%TD*%
M02*
