%TF.GenerationSoftware,KiCad,Pcbnew,(5.1.5)-3*%
%TF.CreationDate,2021-03-30T18:15:46+02:00*%
%TF.ProjectId,rpm_meter_arduino,72706d5f-6d65-4746-9572-5f6172647569,rev?*%
%TF.SameCoordinates,Original*%
%TF.FileFunction,Legend,Top*%
%TF.FilePolarity,Positive*%
%FSLAX46Y46*%
G04 Gerber Fmt 4.6, Leading zero omitted, Abs format (unit mm)*
G04 Created by KiCad (PCBNEW (5.1.5)-3) date 2021-03-30 18:15:46*
%MOMM*%
%LPD*%
G04 APERTURE LIST*
%ADD10C,0.150000*%
%ADD11C,0.200000*%
%ADD12C,0.120000*%
G04 APERTURE END LIST*
D10*
X58552380Y-47152380D02*
X58552380Y-47866666D01*
X58504761Y-48009523D01*
X58409523Y-48104761D01*
X58266666Y-48152380D01*
X58171428Y-48152380D01*
X59504761Y-48152380D02*
X59028571Y-48152380D01*
X59028571Y-47152380D01*
X60409523Y-48057142D02*
X60361904Y-48104761D01*
X60219047Y-48152380D01*
X60123809Y-48152380D01*
X59980952Y-48104761D01*
X59885714Y-48009523D01*
X59838095Y-47914285D01*
X59790476Y-47723809D01*
X59790476Y-47580952D01*
X59838095Y-47390476D01*
X59885714Y-47295238D01*
X59980952Y-47200000D01*
X60123809Y-47152380D01*
X60219047Y-47152380D01*
X60361904Y-47200000D01*
X60409523Y-47247619D01*
X61123809Y-47152380D02*
X61123809Y-47866666D01*
X61076190Y-48009523D01*
X60980952Y-48104761D01*
X60838095Y-48152380D01*
X60742857Y-48152380D01*
X62076190Y-48152380D02*
X61600000Y-48152380D01*
X61600000Y-47152380D01*
X62980952Y-48057142D02*
X62933333Y-48104761D01*
X62790476Y-48152380D01*
X62695238Y-48152380D01*
X62552380Y-48104761D01*
X62457142Y-48009523D01*
X62409523Y-47914285D01*
X62361904Y-47723809D01*
X62361904Y-47580952D01*
X62409523Y-47390476D01*
X62457142Y-47295238D01*
X62552380Y-47200000D01*
X62695238Y-47152380D01*
X62790476Y-47152380D01*
X62933333Y-47200000D01*
X62980952Y-47247619D01*
D11*
X70755714Y-33853571D02*
X71255714Y-35353571D01*
X71755714Y-33853571D01*
X73041428Y-35353571D02*
X72184285Y-35353571D01*
X72612857Y-35353571D02*
X72612857Y-33853571D01*
X72470000Y-34067857D01*
X72327142Y-34210714D01*
X72184285Y-34282142D01*
X73684285Y-35210714D02*
X73755714Y-35282142D01*
X73684285Y-35353571D01*
X73612857Y-35282142D01*
X73684285Y-35210714D01*
X73684285Y-35353571D01*
X74684285Y-33853571D02*
X74827142Y-33853571D01*
X74970000Y-33925000D01*
X75041428Y-33996428D01*
X75112857Y-34139285D01*
X75184285Y-34425000D01*
X75184285Y-34782142D01*
X75112857Y-35067857D01*
X75041428Y-35210714D01*
X74970000Y-35282142D01*
X74827142Y-35353571D01*
X74684285Y-35353571D01*
X74541428Y-35282142D01*
X74470000Y-35210714D01*
X74398571Y-35067857D01*
X74327142Y-34782142D01*
X74327142Y-34425000D01*
X74398571Y-34139285D01*
X74470000Y-33996428D01*
X74541428Y-33925000D01*
X74684285Y-33853571D01*
X64755714Y-37803571D02*
X64255714Y-37089285D01*
X63898571Y-37803571D02*
X63898571Y-36303571D01*
X64470000Y-36303571D01*
X64612857Y-36375000D01*
X64684285Y-36446428D01*
X64755714Y-36589285D01*
X64755714Y-36803571D01*
X64684285Y-36946428D01*
X64612857Y-37017857D01*
X64470000Y-37089285D01*
X63898571Y-37089285D01*
X65398571Y-37803571D02*
X65398571Y-36303571D01*
X65970000Y-36303571D01*
X66112857Y-36375000D01*
X66184285Y-36446428D01*
X66255714Y-36589285D01*
X66255714Y-36803571D01*
X66184285Y-36946428D01*
X66112857Y-37017857D01*
X65970000Y-37089285D01*
X65398571Y-37089285D01*
X66898571Y-37803571D02*
X66898571Y-36303571D01*
X67398571Y-37375000D01*
X67898571Y-36303571D01*
X67898571Y-37803571D01*
X69755714Y-37803571D02*
X69755714Y-36303571D01*
X70255714Y-37375000D01*
X70755714Y-36303571D01*
X70755714Y-37803571D01*
X72041428Y-37732142D02*
X71898571Y-37803571D01*
X71612857Y-37803571D01*
X71470000Y-37732142D01*
X71398571Y-37589285D01*
X71398571Y-37017857D01*
X71470000Y-36875000D01*
X71612857Y-36803571D01*
X71898571Y-36803571D01*
X72041428Y-36875000D01*
X72112857Y-37017857D01*
X72112857Y-37160714D01*
X71398571Y-37303571D01*
X72541428Y-36803571D02*
X73112857Y-36803571D01*
X72755714Y-36303571D02*
X72755714Y-37589285D01*
X72827142Y-37732142D01*
X72970000Y-37803571D01*
X73112857Y-37803571D01*
X74184285Y-37732142D02*
X74041428Y-37803571D01*
X73755714Y-37803571D01*
X73612857Y-37732142D01*
X73541428Y-37589285D01*
X73541428Y-37017857D01*
X73612857Y-36875000D01*
X73755714Y-36803571D01*
X74041428Y-36803571D01*
X74184285Y-36875000D01*
X74255714Y-37017857D01*
X74255714Y-37160714D01*
X73541428Y-37303571D01*
X74898571Y-37803571D02*
X74898571Y-36803571D01*
X74898571Y-37089285D02*
X74970000Y-36946428D01*
X75041428Y-36875000D01*
X75184285Y-36803571D01*
X75327142Y-36803571D01*
X43764285Y-67278571D02*
X43764285Y-65778571D01*
X43764285Y-67207142D02*
X43621428Y-67278571D01*
X43335714Y-67278571D01*
X43192857Y-67207142D01*
X43121428Y-67135714D01*
X43050000Y-66992857D01*
X43050000Y-66564285D01*
X43121428Y-66421428D01*
X43192857Y-66350000D01*
X43335714Y-66278571D01*
X43621428Y-66278571D01*
X43764285Y-66350000D01*
X45050000Y-67207142D02*
X44907142Y-67278571D01*
X44621428Y-67278571D01*
X44478571Y-67207142D01*
X44407142Y-67064285D01*
X44407142Y-66492857D01*
X44478571Y-66350000D01*
X44621428Y-66278571D01*
X44907142Y-66278571D01*
X45050000Y-66350000D01*
X45121428Y-66492857D01*
X45121428Y-66635714D01*
X44407142Y-66778571D01*
X45692857Y-67207142D02*
X45835714Y-67278571D01*
X46121428Y-67278571D01*
X46264285Y-67207142D01*
X46335714Y-67064285D01*
X46335714Y-66992857D01*
X46264285Y-66850000D01*
X46121428Y-66778571D01*
X45907142Y-66778571D01*
X45764285Y-66707142D01*
X45692857Y-66564285D01*
X45692857Y-66492857D01*
X45764285Y-66350000D01*
X45907142Y-66278571D01*
X46121428Y-66278571D01*
X46264285Y-66350000D01*
X46978571Y-67278571D02*
X46978571Y-66278571D01*
X46978571Y-65778571D02*
X46907142Y-65850000D01*
X46978571Y-65921428D01*
X47050000Y-65850000D01*
X46978571Y-65778571D01*
X46978571Y-65921428D01*
X48335714Y-66278571D02*
X48335714Y-67492857D01*
X48264285Y-67635714D01*
X48192857Y-67707142D01*
X48050000Y-67778571D01*
X47835714Y-67778571D01*
X47692857Y-67707142D01*
X48335714Y-67207142D02*
X48192857Y-67278571D01*
X47907142Y-67278571D01*
X47764285Y-67207142D01*
X47692857Y-67135714D01*
X47621428Y-66992857D01*
X47621428Y-66564285D01*
X47692857Y-66421428D01*
X47764285Y-66350000D01*
X47907142Y-66278571D01*
X48192857Y-66278571D01*
X48335714Y-66350000D01*
X49050000Y-66278571D02*
X49050000Y-67278571D01*
X49050000Y-66421428D02*
X49121428Y-66350000D01*
X49264285Y-66278571D01*
X49478571Y-66278571D01*
X49621428Y-66350000D01*
X49692857Y-66492857D01*
X49692857Y-67278571D01*
X51550000Y-67278571D02*
X51550000Y-65778571D01*
X51550000Y-66350000D02*
X51692857Y-66278571D01*
X51978571Y-66278571D01*
X52121428Y-66350000D01*
X52192857Y-66421428D01*
X52264285Y-66564285D01*
X52264285Y-66992857D01*
X52192857Y-67135714D01*
X52121428Y-67207142D01*
X51978571Y-67278571D01*
X51692857Y-67278571D01*
X51550000Y-67207142D01*
X52764285Y-66278571D02*
X53121428Y-67278571D01*
X53478571Y-66278571D02*
X53121428Y-67278571D01*
X52978571Y-67635714D01*
X52907142Y-67707142D01*
X52764285Y-67778571D01*
X56121428Y-66564285D02*
X56050000Y-66492857D01*
X55907142Y-66421428D01*
X55764285Y-66421428D01*
X55621428Y-66492857D01*
X55550000Y-66564285D01*
X55478571Y-66707142D01*
X55478571Y-66850000D01*
X55550000Y-66992857D01*
X55621428Y-67064285D01*
X55764285Y-67135714D01*
X55907142Y-67135714D01*
X56050000Y-67064285D01*
X56121428Y-66992857D01*
X56121428Y-66421428D02*
X56121428Y-66992857D01*
X56192857Y-67064285D01*
X56264285Y-67064285D01*
X56407142Y-66992857D01*
X56478571Y-66850000D01*
X56478571Y-66492857D01*
X56335714Y-66278571D01*
X56121428Y-66135714D01*
X55835714Y-66064285D01*
X55550000Y-66135714D01*
X55335714Y-66278571D01*
X55192857Y-66492857D01*
X55121428Y-66778571D01*
X55192857Y-67064285D01*
X55335714Y-67278571D01*
X55550000Y-67421428D01*
X55835714Y-67492857D01*
X56121428Y-67421428D01*
X56335714Y-67278571D01*
X57121428Y-67278571D02*
X57121428Y-66278571D01*
X57121428Y-66421428D02*
X57192857Y-66350000D01*
X57335714Y-66278571D01*
X57550000Y-66278571D01*
X57692857Y-66350000D01*
X57764285Y-66492857D01*
X57764285Y-67278571D01*
X57764285Y-66492857D02*
X57835714Y-66350000D01*
X57978571Y-66278571D01*
X58192857Y-66278571D01*
X58335714Y-66350000D01*
X58407142Y-66492857D01*
X58407142Y-67278571D01*
X59121428Y-67278571D02*
X59121428Y-66278571D01*
X59121428Y-65778571D02*
X59050000Y-65850000D01*
X59121428Y-65921428D01*
X59192857Y-65850000D01*
X59121428Y-65778571D01*
X59121428Y-65921428D01*
X59835714Y-67278571D02*
X59835714Y-65778571D01*
X60478571Y-67278571D02*
X60478571Y-66492857D01*
X60407142Y-66350000D01*
X60264285Y-66278571D01*
X60050000Y-66278571D01*
X59907142Y-66350000D01*
X59835714Y-66421428D01*
X61835714Y-67278571D02*
X61835714Y-66492857D01*
X61764285Y-66350000D01*
X61621428Y-66278571D01*
X61335714Y-66278571D01*
X61192857Y-66350000D01*
X61835714Y-67207142D02*
X61692857Y-67278571D01*
X61335714Y-67278571D01*
X61192857Y-67207142D01*
X61121428Y-67064285D01*
X61121428Y-66921428D01*
X61192857Y-66778571D01*
X61335714Y-66707142D01*
X61692857Y-66707142D01*
X61835714Y-66635714D01*
X62550000Y-67278571D02*
X62550000Y-66278571D01*
X62550000Y-65778571D02*
X62478571Y-65850000D01*
X62550000Y-65921428D01*
X62621428Y-65850000D01*
X62550000Y-65778571D01*
X62550000Y-65921428D01*
X63478571Y-67278571D02*
X63335714Y-67207142D01*
X63264285Y-67064285D01*
X63264285Y-65778571D01*
X64264285Y-67278571D02*
X64121428Y-67207142D01*
X64050000Y-67135714D01*
X63978571Y-66992857D01*
X63978571Y-66564285D01*
X64050000Y-66421428D01*
X64121428Y-66350000D01*
X64264285Y-66278571D01*
X64478571Y-66278571D01*
X64621428Y-66350000D01*
X64692857Y-66421428D01*
X64764285Y-66564285D01*
X64764285Y-66992857D01*
X64692857Y-67135714D01*
X64621428Y-67207142D01*
X64478571Y-67278571D01*
X64264285Y-67278571D01*
X65407142Y-67135714D02*
X65478571Y-67207142D01*
X65407142Y-67278571D01*
X65335714Y-67207142D01*
X65407142Y-67135714D01*
X65407142Y-67278571D01*
X66050000Y-67207142D02*
X66192857Y-67278571D01*
X66478571Y-67278571D01*
X66621428Y-67207142D01*
X66692857Y-67064285D01*
X66692857Y-66992857D01*
X66621428Y-66850000D01*
X66478571Y-66778571D01*
X66264285Y-66778571D01*
X66121428Y-66707142D01*
X66050000Y-66564285D01*
X66050000Y-66492857D01*
X66121428Y-66350000D01*
X66264285Y-66278571D01*
X66478571Y-66278571D01*
X66621428Y-66350000D01*
X67121428Y-66278571D02*
X67692857Y-66278571D01*
X67335714Y-65778571D02*
X67335714Y-67064285D01*
X67407142Y-67207142D01*
X67550000Y-67278571D01*
X67692857Y-67278571D01*
D12*
%TO.C,C1*%
X55610000Y-47062779D02*
X55610000Y-46737221D01*
X54590000Y-47062779D02*
X54590000Y-46737221D01*
%TO.C,C2*%
X67490000Y-47962779D02*
X67490000Y-47637221D01*
X68510000Y-47962779D02*
X68510000Y-47637221D01*
%TO.C,C3*%
X67490000Y-51237221D02*
X67490000Y-51562779D01*
X68510000Y-51237221D02*
X68510000Y-51562779D01*
%TO.C,C5*%
X61737221Y-40390000D02*
X62062779Y-40390000D01*
X61737221Y-41410000D02*
X62062779Y-41410000D01*
%TO.C,C6*%
X47697936Y-46690000D02*
X48902064Y-46690000D01*
X47697936Y-48510000D02*
X48902064Y-48510000D01*
%TO.C,C7*%
X51524000Y-39837221D02*
X51524000Y-40162779D01*
X52544000Y-39837221D02*
X52544000Y-40162779D01*
%TO.C,C8*%
X36262779Y-46849000D02*
X35937221Y-46849000D01*
X36262779Y-45829000D02*
X35937221Y-45829000D01*
%TO.C,C9*%
X62466000Y-59593779D02*
X62466000Y-59268221D01*
X63486000Y-59593779D02*
X63486000Y-59268221D01*
%TO.C,C10*%
X71332000Y-56061779D02*
X71332000Y-55736221D01*
X70312000Y-56061779D02*
X70312000Y-55736221D01*
%TO.C,C11*%
X27590000Y-56610000D02*
X29940000Y-56610000D01*
X34410000Y-56610000D02*
X32060000Y-56610000D01*
X34410000Y-50854437D02*
X34410000Y-56610000D01*
X27590000Y-50854437D02*
X27590000Y-56610000D01*
X28654437Y-49790000D02*
X29940000Y-49790000D01*
X33345563Y-49790000D02*
X32060000Y-49790000D01*
X33345563Y-49790000D02*
X34410000Y-50854437D01*
X28654437Y-49790000D02*
X27590000Y-50854437D01*
X32847500Y-48762500D02*
X32847500Y-49550000D01*
X33241250Y-49156250D02*
X32453750Y-49156250D01*
%TO.C,D1*%
X54950000Y-38400000D02*
X54950000Y-40400000D01*
X54950000Y-40400000D02*
X58850000Y-40400000D01*
X54950000Y-38400000D02*
X58850000Y-38400000D01*
%TO.C,D2*%
X45288000Y-38004000D02*
X45288000Y-44504000D01*
X45288000Y-38004000D02*
X36888000Y-38004000D01*
X45288000Y-44504000D02*
X36888000Y-44504000D01*
%TO.C,D3*%
X33200000Y-58465000D02*
X30915000Y-58465000D01*
X30915000Y-58465000D02*
X30915000Y-59935000D01*
X30915000Y-59935000D02*
X33200000Y-59935000D01*
%TO.C,F1*%
X35490000Y-35202064D02*
X35490000Y-33997936D01*
X37310000Y-35202064D02*
X37310000Y-33997936D01*
%TO.C,FB1*%
X39710000Y-34888422D02*
X39710000Y-35405578D01*
X38290000Y-34888422D02*
X38290000Y-35405578D01*
%TO.C,J1*%
X48110000Y-57600000D02*
X48110000Y-62800000D01*
X35290000Y-57600000D02*
X35290000Y-62800000D01*
X47540000Y-56160000D02*
X47540000Y-57600000D01*
X48110000Y-57600000D02*
X47540000Y-57600000D01*
X48110000Y-62800000D02*
X47540000Y-62800000D01*
X35860000Y-57600000D02*
X35290000Y-57600000D01*
X35860000Y-62800000D02*
X35290000Y-62800000D01*
X46020000Y-57600000D02*
X45000000Y-57600000D01*
X46020000Y-62800000D02*
X45000000Y-62800000D01*
X43480000Y-57600000D02*
X42460000Y-57600000D01*
X43480000Y-62800000D02*
X42460000Y-62800000D01*
X40940000Y-57600000D02*
X39920000Y-57600000D01*
X40940000Y-62800000D02*
X39920000Y-62800000D01*
X38400000Y-57600000D02*
X37380000Y-57600000D01*
X38400000Y-62800000D02*
X37380000Y-62800000D01*
%TO.C,J3*%
X33600000Y-32050000D02*
X34600000Y-32050000D01*
X33600000Y-32050000D02*
X33600000Y-31050000D01*
X37850000Y-28850000D02*
X36125000Y-28850000D01*
X37850000Y-29700000D02*
X37850000Y-28850000D01*
X38050000Y-29700000D02*
X37850000Y-29700000D01*
X38050000Y-30500000D02*
X38050000Y-29700000D01*
X37850000Y-30500000D02*
X38050000Y-30500000D01*
X37850000Y-31250000D02*
X37850000Y-30500000D01*
X36125000Y-31250000D02*
X37850000Y-31250000D01*
X34400000Y-28850000D02*
X36125000Y-28850000D01*
X34400000Y-29700000D02*
X34400000Y-28850000D01*
X34200000Y-29700000D02*
X34400000Y-29700000D01*
X34200000Y-30500000D02*
X34200000Y-29700000D01*
X34400000Y-30500000D02*
X34200000Y-30500000D01*
X34400000Y-31250000D02*
X34400000Y-30500000D01*
X36125000Y-31250000D02*
X34400000Y-31250000D01*
X38360000Y-28340000D02*
X33890000Y-28340000D01*
X38360000Y-31760000D02*
X38360000Y-28340000D01*
X33890000Y-31760000D02*
X38360000Y-31760000D01*
X33890000Y-28340000D02*
X33890000Y-31760000D01*
%TO.C,J4*%
X42190000Y-28340000D02*
X42190000Y-31760000D01*
X42190000Y-31760000D02*
X46660000Y-31760000D01*
X46660000Y-31760000D02*
X46660000Y-28340000D01*
X46660000Y-28340000D02*
X42190000Y-28340000D01*
X44425000Y-31250000D02*
X42700000Y-31250000D01*
X42700000Y-31250000D02*
X42700000Y-30500000D01*
X42700000Y-30500000D02*
X42500000Y-30500000D01*
X42500000Y-30500000D02*
X42500000Y-29700000D01*
X42500000Y-29700000D02*
X42700000Y-29700000D01*
X42700000Y-29700000D02*
X42700000Y-28850000D01*
X42700000Y-28850000D02*
X44425000Y-28850000D01*
X44425000Y-31250000D02*
X46150000Y-31250000D01*
X46150000Y-31250000D02*
X46150000Y-30500000D01*
X46150000Y-30500000D02*
X46350000Y-30500000D01*
X46350000Y-30500000D02*
X46350000Y-29700000D01*
X46350000Y-29700000D02*
X46150000Y-29700000D01*
X46150000Y-29700000D02*
X46150000Y-28850000D01*
X46150000Y-28850000D02*
X44425000Y-28850000D01*
X41900000Y-32050000D02*
X41900000Y-31050000D01*
X41900000Y-32050000D02*
X42900000Y-32050000D01*
%TO.C,J5*%
X75160000Y-44390000D02*
X71740000Y-44390000D01*
X71740000Y-44390000D02*
X71740000Y-50110000D01*
X71740000Y-50110000D02*
X75160000Y-50110000D01*
X75160000Y-50110000D02*
X75160000Y-44390000D01*
X72250000Y-47250000D02*
X72250000Y-44900000D01*
X72250000Y-44900000D02*
X73000000Y-44900000D01*
X73000000Y-44900000D02*
X73000000Y-44700000D01*
X73000000Y-44700000D02*
X73800000Y-44700000D01*
X73800000Y-44700000D02*
X73800000Y-44900000D01*
X73800000Y-44900000D02*
X74650000Y-44900000D01*
X74650000Y-44900000D02*
X74650000Y-47250000D01*
X72250000Y-47250000D02*
X72250000Y-49600000D01*
X72250000Y-49600000D02*
X73000000Y-49600000D01*
X73000000Y-49600000D02*
X73000000Y-49800000D01*
X73000000Y-49800000D02*
X73800000Y-49800000D01*
X73800000Y-49800000D02*
X73800000Y-49600000D01*
X73800000Y-49600000D02*
X74650000Y-49600000D01*
X74650000Y-49600000D02*
X74650000Y-47250000D01*
X71450000Y-44100000D02*
X72450000Y-44100000D01*
X71450000Y-44100000D02*
X71450000Y-45100000D01*
%TO.C,J6*%
X64690000Y-28340000D02*
X64690000Y-31760000D01*
X64690000Y-31760000D02*
X69160000Y-31760000D01*
X69160000Y-31760000D02*
X69160000Y-28340000D01*
X69160000Y-28340000D02*
X64690000Y-28340000D01*
X66925000Y-31250000D02*
X65200000Y-31250000D01*
X65200000Y-31250000D02*
X65200000Y-30500000D01*
X65200000Y-30500000D02*
X65000000Y-30500000D01*
X65000000Y-30500000D02*
X65000000Y-29700000D01*
X65000000Y-29700000D02*
X65200000Y-29700000D01*
X65200000Y-29700000D02*
X65200000Y-28850000D01*
X65200000Y-28850000D02*
X66925000Y-28850000D01*
X66925000Y-31250000D02*
X68650000Y-31250000D01*
X68650000Y-31250000D02*
X68650000Y-30500000D01*
X68650000Y-30500000D02*
X68850000Y-30500000D01*
X68850000Y-30500000D02*
X68850000Y-29700000D01*
X68850000Y-29700000D02*
X68650000Y-29700000D01*
X68650000Y-29700000D02*
X68650000Y-28850000D01*
X68650000Y-28850000D02*
X66925000Y-28850000D01*
X64400000Y-32050000D02*
X64400000Y-31050000D01*
X64400000Y-32050000D02*
X65400000Y-32050000D01*
%TO.C,J7*%
X49390000Y-28340000D02*
X49390000Y-31760000D01*
X49390000Y-31760000D02*
X62610000Y-31760000D01*
X62610000Y-31760000D02*
X62610000Y-28340000D01*
X62610000Y-28340000D02*
X49390000Y-28340000D01*
X56000000Y-31250000D02*
X49900000Y-31250000D01*
X49900000Y-31250000D02*
X49900000Y-30500000D01*
X49900000Y-30500000D02*
X49700000Y-30500000D01*
X49700000Y-30500000D02*
X49700000Y-29700000D01*
X49700000Y-29700000D02*
X49900000Y-29700000D01*
X49900000Y-29700000D02*
X49900000Y-28850000D01*
X49900000Y-28850000D02*
X56000000Y-28850000D01*
X56000000Y-31250000D02*
X62100000Y-31250000D01*
X62100000Y-31250000D02*
X62100000Y-30500000D01*
X62100000Y-30500000D02*
X62300000Y-30500000D01*
X62300000Y-30500000D02*
X62300000Y-29700000D01*
X62300000Y-29700000D02*
X62100000Y-29700000D01*
X62100000Y-29700000D02*
X62100000Y-28850000D01*
X62100000Y-28850000D02*
X56000000Y-28850000D01*
X49100000Y-32050000D02*
X49100000Y-31050000D01*
X49100000Y-32050000D02*
X50100000Y-32050000D01*
%TO.C,L1*%
X33800000Y-40069000D02*
G75*
G02X34410000Y-40679000I0J-610000D01*
G01*
X34410000Y-46379000D02*
G75*
G02X33800000Y-46989000I-610000J0D01*
G01*
X34410000Y-40679000D02*
X34410000Y-46379000D01*
X27590000Y-40729000D02*
G75*
G02X28250000Y-40069000I660000J0D01*
G01*
X28200000Y-46989000D02*
G75*
G02X27590000Y-46379000I0J610000D01*
G01*
X29050000Y-46989000D02*
X28200000Y-46989000D01*
X27590000Y-46379000D02*
X27590000Y-40729000D01*
X28250000Y-40069000D02*
X29050000Y-40069000D01*
X33800000Y-46989000D02*
X32950000Y-46989000D01*
X32950000Y-40069000D02*
X33800000Y-40069000D01*
%TO.C,Q1*%
X34580000Y-34240000D02*
X33650000Y-34240000D01*
X31420000Y-34240000D02*
X32350000Y-34240000D01*
X31420000Y-34240000D02*
X31420000Y-36400000D01*
X34580000Y-34240000D02*
X34580000Y-35700000D01*
%TO.C,R1*%
X70110000Y-51562779D02*
X70110000Y-51237221D01*
X69090000Y-51562779D02*
X69090000Y-51237221D01*
%TO.C,R2*%
X62062779Y-39710000D02*
X61737221Y-39710000D01*
X62062779Y-38690000D02*
X61737221Y-38690000D01*
%TO.C,R3*%
X46962779Y-51710000D02*
X46637221Y-51710000D01*
X46962779Y-50690000D02*
X46637221Y-50690000D01*
%TO.C,R4*%
X46637221Y-53310000D02*
X46962779Y-53310000D01*
X46637221Y-52290000D02*
X46962779Y-52290000D01*
%TO.C,R5*%
X65010000Y-62595721D02*
X65010000Y-62921279D01*
X63990000Y-62595721D02*
X63990000Y-62921279D01*
%TO.C,R6*%
X72856000Y-59038221D02*
X72856000Y-59363779D01*
X71836000Y-59038221D02*
X71836000Y-59363779D01*
%TO.C,R7*%
X62466000Y-62570221D02*
X62466000Y-62895779D01*
X63486000Y-62570221D02*
X63486000Y-62895779D01*
%TO.C,R8*%
X70312000Y-59038221D02*
X70312000Y-59363779D01*
X71332000Y-59038221D02*
X71332000Y-59363779D01*
%TO.C,R9*%
X49890000Y-40162779D02*
X49890000Y-39837221D01*
X50910000Y-40162779D02*
X50910000Y-39837221D01*
%TO.C,R10*%
X53190000Y-39837221D02*
X53190000Y-40162779D01*
X54210000Y-39837221D02*
X54210000Y-40162779D01*
%TO.C,R11*%
X35937221Y-49110000D02*
X36262779Y-49110000D01*
X35937221Y-48090000D02*
X36262779Y-48090000D01*
%TO.C,R12*%
X36262779Y-50659000D02*
X35937221Y-50659000D01*
X36262779Y-49639000D02*
X35937221Y-49639000D01*
%TO.C,R13*%
X32562779Y-61310000D02*
X32237221Y-61310000D01*
X32562779Y-60290000D02*
X32237221Y-60290000D01*
%TO.C,R14*%
X49790000Y-33737221D02*
X49790000Y-34062779D01*
X50810000Y-33737221D02*
X50810000Y-34062779D01*
%TO.C,R15*%
X52310000Y-33737221D02*
X52310000Y-34062779D01*
X51290000Y-33737221D02*
X51290000Y-34062779D01*
%TO.C,R16*%
X52790000Y-33737221D02*
X52790000Y-34062779D01*
X53810000Y-33737221D02*
X53810000Y-34062779D01*
%TO.C,R17*%
X55310000Y-33737221D02*
X55310000Y-34062779D01*
X54290000Y-33737221D02*
X54290000Y-34062779D01*
%TO.C,R18*%
X56810000Y-33737221D02*
X56810000Y-34062779D01*
X55790000Y-33737221D02*
X55790000Y-34062779D01*
%TO.C,R19*%
X57290000Y-33737221D02*
X57290000Y-34062779D01*
X58310000Y-33737221D02*
X58310000Y-34062779D01*
%TO.C,R20*%
X59810000Y-33737221D02*
X59810000Y-34062779D01*
X58790000Y-33737221D02*
X58790000Y-34062779D01*
%TO.C,R21*%
X60290000Y-33737221D02*
X60290000Y-34062779D01*
X61310000Y-33737221D02*
X61310000Y-34062779D01*
%TO.C,SW1*%
X54050000Y-56240000D02*
X54050000Y-62360000D01*
X54050000Y-62360000D02*
X50350000Y-62360000D01*
X50350000Y-62360000D02*
X50350000Y-56240000D01*
X50350000Y-56240000D02*
X54050000Y-56240000D01*
%TO.C,SW2*%
X61850000Y-56240000D02*
X61850000Y-62360000D01*
X61850000Y-62360000D02*
X58150000Y-62360000D01*
X58150000Y-62360000D02*
X58150000Y-56240000D01*
X58150000Y-56240000D02*
X61850000Y-56240000D01*
%TO.C,SW3*%
X69650000Y-62360000D02*
X65950000Y-62360000D01*
X69650000Y-56240000D02*
X69650000Y-62360000D01*
X65950000Y-56240000D02*
X69650000Y-56240000D01*
X65950000Y-62360000D02*
X65950000Y-56240000D01*
D10*
%TO.C,U2*%
X39413000Y-45679000D02*
X39413000Y-45729000D01*
X43563000Y-45679000D02*
X43563000Y-45824000D01*
X43563000Y-50829000D02*
X43563000Y-50684000D01*
X39413000Y-50829000D02*
X39413000Y-50684000D01*
X39413000Y-45679000D02*
X43563000Y-45679000D01*
X39413000Y-50829000D02*
X43563000Y-50829000D01*
X39413000Y-45729000D02*
X38013000Y-45729000D01*
D12*
%TO.C,C4*%
X55610000Y-50037221D02*
X55610000Y-50362779D01*
X54590000Y-50037221D02*
X54590000Y-50362779D01*
D10*
%TO.C,U1*%
X57875000Y-44575000D02*
X57875000Y-44800000D01*
X65125000Y-44575000D02*
X65125000Y-44900000D01*
X65125000Y-51825000D02*
X65125000Y-51500000D01*
X57875000Y-51825000D02*
X57875000Y-51500000D01*
X57875000Y-44575000D02*
X58200000Y-44575000D01*
X57875000Y-51825000D02*
X58200000Y-51825000D01*
X65125000Y-51825000D02*
X64800000Y-51825000D01*
X65125000Y-44575000D02*
X64800000Y-44575000D01*
X57875000Y-44800000D02*
X56450000Y-44800000D01*
%TO.C,C1*%
X54027142Y-47066666D02*
X54074761Y-47114285D01*
X54122380Y-47257142D01*
X54122380Y-47352380D01*
X54074761Y-47495238D01*
X53979523Y-47590476D01*
X53884285Y-47638095D01*
X53693809Y-47685714D01*
X53550952Y-47685714D01*
X53360476Y-47638095D01*
X53265238Y-47590476D01*
X53170000Y-47495238D01*
X53122380Y-47352380D01*
X53122380Y-47257142D01*
X53170000Y-47114285D01*
X53217619Y-47066666D01*
X54122380Y-46114285D02*
X54122380Y-46685714D01*
X54122380Y-46400000D02*
X53122380Y-46400000D01*
X53265238Y-46495238D01*
X53360476Y-46590476D01*
X53408095Y-46685714D01*
%TO.C,C2*%
X68357142Y-45553666D02*
X68404761Y-45601285D01*
X68452380Y-45744142D01*
X68452380Y-45839380D01*
X68404761Y-45982238D01*
X68309523Y-46077476D01*
X68214285Y-46125095D01*
X68023809Y-46172714D01*
X67880952Y-46172714D01*
X67690476Y-46125095D01*
X67595238Y-46077476D01*
X67500000Y-45982238D01*
X67452380Y-45839380D01*
X67452380Y-45744142D01*
X67500000Y-45601285D01*
X67547619Y-45553666D01*
X67547619Y-45172714D02*
X67500000Y-45125095D01*
X67452380Y-45029857D01*
X67452380Y-44791761D01*
X67500000Y-44696523D01*
X67547619Y-44648904D01*
X67642857Y-44601285D01*
X67738095Y-44601285D01*
X67880952Y-44648904D01*
X68452380Y-45220333D01*
X68452380Y-44601285D01*
%TO.C,C3*%
X66957142Y-52966666D02*
X67004761Y-53014285D01*
X67052380Y-53157142D01*
X67052380Y-53252380D01*
X67004761Y-53395238D01*
X66909523Y-53490476D01*
X66814285Y-53538095D01*
X66623809Y-53585714D01*
X66480952Y-53585714D01*
X66290476Y-53538095D01*
X66195238Y-53490476D01*
X66100000Y-53395238D01*
X66052380Y-53252380D01*
X66052380Y-53157142D01*
X66100000Y-53014285D01*
X66147619Y-52966666D01*
X66052380Y-52633333D02*
X66052380Y-52014285D01*
X66433333Y-52347619D01*
X66433333Y-52204761D01*
X66480952Y-52109523D01*
X66528571Y-52061904D01*
X66623809Y-52014285D01*
X66861904Y-52014285D01*
X66957142Y-52061904D01*
X67004761Y-52109523D01*
X67052380Y-52204761D01*
X67052380Y-52490476D01*
X67004761Y-52585714D01*
X66957142Y-52633333D01*
%TO.C,C5*%
X64120833Y-41257142D02*
X64073214Y-41304761D01*
X63930357Y-41352380D01*
X63835119Y-41352380D01*
X63692261Y-41304761D01*
X63597023Y-41209523D01*
X63549404Y-41114285D01*
X63501785Y-40923809D01*
X63501785Y-40780952D01*
X63549404Y-40590476D01*
X63597023Y-40495238D01*
X63692261Y-40400000D01*
X63835119Y-40352380D01*
X63930357Y-40352380D01*
X64073214Y-40400000D01*
X64120833Y-40447619D01*
X65025595Y-40352380D02*
X64549404Y-40352380D01*
X64501785Y-40828571D01*
X64549404Y-40780952D01*
X64644642Y-40733333D01*
X64882738Y-40733333D01*
X64977976Y-40780952D01*
X65025595Y-40828571D01*
X65073214Y-40923809D01*
X65073214Y-41161904D01*
X65025595Y-41257142D01*
X64977976Y-41304761D01*
X64882738Y-41352380D01*
X64644642Y-41352380D01*
X64549404Y-41304761D01*
X64501785Y-41257142D01*
%TO.C,C6*%
X49533333Y-46157142D02*
X49485714Y-46204761D01*
X49342857Y-46252380D01*
X49247619Y-46252380D01*
X49104761Y-46204761D01*
X49009523Y-46109523D01*
X48961904Y-46014285D01*
X48914285Y-45823809D01*
X48914285Y-45680952D01*
X48961904Y-45490476D01*
X49009523Y-45395238D01*
X49104761Y-45300000D01*
X49247619Y-45252380D01*
X49342857Y-45252380D01*
X49485714Y-45300000D01*
X49533333Y-45347619D01*
X50390476Y-45252380D02*
X50200000Y-45252380D01*
X50104761Y-45300000D01*
X50057142Y-45347619D01*
X49961904Y-45490476D01*
X49914285Y-45680952D01*
X49914285Y-46061904D01*
X49961904Y-46157142D01*
X50009523Y-46204761D01*
X50104761Y-46252380D01*
X50295238Y-46252380D01*
X50390476Y-46204761D01*
X50438095Y-46157142D01*
X50485714Y-46061904D01*
X50485714Y-45823809D01*
X50438095Y-45728571D01*
X50390476Y-45680952D01*
X50295238Y-45633333D01*
X50104761Y-45633333D01*
X50009523Y-45680952D01*
X49961904Y-45728571D01*
X49914285Y-45823809D01*
%TO.C,C7*%
X52557142Y-42566666D02*
X52604761Y-42614285D01*
X52652380Y-42757142D01*
X52652380Y-42852380D01*
X52604761Y-42995238D01*
X52509523Y-43090476D01*
X52414285Y-43138095D01*
X52223809Y-43185714D01*
X52080952Y-43185714D01*
X51890476Y-43138095D01*
X51795238Y-43090476D01*
X51700000Y-42995238D01*
X51652380Y-42852380D01*
X51652380Y-42757142D01*
X51700000Y-42614285D01*
X51747619Y-42566666D01*
X51652380Y-42233333D02*
X51652380Y-41566666D01*
X52652380Y-41995238D01*
%TO.C,C8*%
X35552333Y-45426142D02*
X35504714Y-45473761D01*
X35361857Y-45521380D01*
X35266619Y-45521380D01*
X35123761Y-45473761D01*
X35028523Y-45378523D01*
X34980904Y-45283285D01*
X34933285Y-45092809D01*
X34933285Y-44949952D01*
X34980904Y-44759476D01*
X35028523Y-44664238D01*
X35123761Y-44569000D01*
X35266619Y-44521380D01*
X35361857Y-44521380D01*
X35504714Y-44569000D01*
X35552333Y-44616619D01*
X36123761Y-44949952D02*
X36028523Y-44902333D01*
X35980904Y-44854714D01*
X35933285Y-44759476D01*
X35933285Y-44711857D01*
X35980904Y-44616619D01*
X36028523Y-44569000D01*
X36123761Y-44521380D01*
X36314238Y-44521380D01*
X36409476Y-44569000D01*
X36457095Y-44616619D01*
X36504714Y-44711857D01*
X36504714Y-44759476D01*
X36457095Y-44854714D01*
X36409476Y-44902333D01*
X36314238Y-44949952D01*
X36123761Y-44949952D01*
X36028523Y-44997571D01*
X35980904Y-45045190D01*
X35933285Y-45140428D01*
X35933285Y-45330904D01*
X35980904Y-45426142D01*
X36028523Y-45473761D01*
X36123761Y-45521380D01*
X36314238Y-45521380D01*
X36409476Y-45473761D01*
X36457095Y-45426142D01*
X36504714Y-45330904D01*
X36504714Y-45140428D01*
X36457095Y-45045190D01*
X36409476Y-44997571D01*
X36314238Y-44949952D01*
%TO.C,C9*%
X64730142Y-59089666D02*
X64777761Y-59137285D01*
X64825380Y-59280142D01*
X64825380Y-59375380D01*
X64777761Y-59518238D01*
X64682523Y-59613476D01*
X64587285Y-59661095D01*
X64396809Y-59708714D01*
X64253952Y-59708714D01*
X64063476Y-59661095D01*
X63968238Y-59613476D01*
X63873000Y-59518238D01*
X63825380Y-59375380D01*
X63825380Y-59280142D01*
X63873000Y-59137285D01*
X63920619Y-59089666D01*
X64825380Y-58613476D02*
X64825380Y-58423000D01*
X64777761Y-58327761D01*
X64730142Y-58280142D01*
X64587285Y-58184904D01*
X64396809Y-58137285D01*
X64015857Y-58137285D01*
X63920619Y-58184904D01*
X63873000Y-58232523D01*
X63825380Y-58327761D01*
X63825380Y-58518238D01*
X63873000Y-58613476D01*
X63920619Y-58661095D01*
X64015857Y-58708714D01*
X64253952Y-58708714D01*
X64349190Y-58661095D01*
X64396809Y-58613476D01*
X64444428Y-58518238D01*
X64444428Y-58327761D01*
X64396809Y-58232523D01*
X64349190Y-58184904D01*
X64253952Y-58137285D01*
%TO.C,C10*%
X72757142Y-56542857D02*
X72804761Y-56590476D01*
X72852380Y-56733333D01*
X72852380Y-56828571D01*
X72804761Y-56971428D01*
X72709523Y-57066666D01*
X72614285Y-57114285D01*
X72423809Y-57161904D01*
X72280952Y-57161904D01*
X72090476Y-57114285D01*
X71995238Y-57066666D01*
X71900000Y-56971428D01*
X71852380Y-56828571D01*
X71852380Y-56733333D01*
X71900000Y-56590476D01*
X71947619Y-56542857D01*
X72852380Y-55590476D02*
X72852380Y-56161904D01*
X72852380Y-55876190D02*
X71852380Y-55876190D01*
X71995238Y-55971428D01*
X72090476Y-56066666D01*
X72138095Y-56161904D01*
X71852380Y-54971428D02*
X71852380Y-54876190D01*
X71900000Y-54780952D01*
X71947619Y-54733333D01*
X72042857Y-54685714D01*
X72233333Y-54638095D01*
X72471428Y-54638095D01*
X72661904Y-54685714D01*
X72757142Y-54733333D01*
X72804761Y-54780952D01*
X72852380Y-54876190D01*
X72852380Y-54971428D01*
X72804761Y-55066666D01*
X72757142Y-55114285D01*
X72661904Y-55161904D01*
X72471428Y-55209523D01*
X72233333Y-55209523D01*
X72042857Y-55161904D01*
X71947619Y-55114285D01*
X71900000Y-55066666D01*
X71852380Y-54971428D01*
%TO.C,C11*%
X27127142Y-53912857D02*
X27174761Y-53960476D01*
X27222380Y-54103333D01*
X27222380Y-54198571D01*
X27174761Y-54341428D01*
X27079523Y-54436666D01*
X26984285Y-54484285D01*
X26793809Y-54531904D01*
X26650952Y-54531904D01*
X26460476Y-54484285D01*
X26365238Y-54436666D01*
X26270000Y-54341428D01*
X26222380Y-54198571D01*
X26222380Y-54103333D01*
X26270000Y-53960476D01*
X26317619Y-53912857D01*
X27222380Y-52960476D02*
X27222380Y-53531904D01*
X27222380Y-53246190D02*
X26222380Y-53246190D01*
X26365238Y-53341428D01*
X26460476Y-53436666D01*
X26508095Y-53531904D01*
X27222380Y-52008095D02*
X27222380Y-52579523D01*
X27222380Y-52293809D02*
X26222380Y-52293809D01*
X26365238Y-52389047D01*
X26460476Y-52484285D01*
X26508095Y-52579523D01*
%TO.C,D1*%
X54961904Y-41752380D02*
X54961904Y-40752380D01*
X55200000Y-40752380D01*
X55342857Y-40800000D01*
X55438095Y-40895238D01*
X55485714Y-40990476D01*
X55533333Y-41180952D01*
X55533333Y-41323809D01*
X55485714Y-41514285D01*
X55438095Y-41609523D01*
X55342857Y-41704761D01*
X55200000Y-41752380D01*
X54961904Y-41752380D01*
X56485714Y-41752380D02*
X55914285Y-41752380D01*
X56200000Y-41752380D02*
X56200000Y-40752380D01*
X56104761Y-40895238D01*
X56009523Y-40990476D01*
X55914285Y-41038095D01*
%TO.C,D2*%
X43261904Y-37452380D02*
X43261904Y-36452380D01*
X43500000Y-36452380D01*
X43642857Y-36500000D01*
X43738095Y-36595238D01*
X43785714Y-36690476D01*
X43833333Y-36880952D01*
X43833333Y-37023809D01*
X43785714Y-37214285D01*
X43738095Y-37309523D01*
X43642857Y-37404761D01*
X43500000Y-37452380D01*
X43261904Y-37452380D01*
X44214285Y-36547619D02*
X44261904Y-36500000D01*
X44357142Y-36452380D01*
X44595238Y-36452380D01*
X44690476Y-36500000D01*
X44738095Y-36547619D01*
X44785714Y-36642857D01*
X44785714Y-36738095D01*
X44738095Y-36880952D01*
X44166666Y-37452380D01*
X44785714Y-37452380D01*
%TO.C,D3*%
X29061904Y-59752380D02*
X29061904Y-58752380D01*
X29300000Y-58752380D01*
X29442857Y-58800000D01*
X29538095Y-58895238D01*
X29585714Y-58990476D01*
X29633333Y-59180952D01*
X29633333Y-59323809D01*
X29585714Y-59514285D01*
X29538095Y-59609523D01*
X29442857Y-59704761D01*
X29300000Y-59752380D01*
X29061904Y-59752380D01*
X29966666Y-58752380D02*
X30585714Y-58752380D01*
X30252380Y-59133333D01*
X30395238Y-59133333D01*
X30490476Y-59180952D01*
X30538095Y-59228571D01*
X30585714Y-59323809D01*
X30585714Y-59561904D01*
X30538095Y-59657142D01*
X30490476Y-59704761D01*
X30395238Y-59752380D01*
X30109523Y-59752380D01*
X30014285Y-59704761D01*
X29966666Y-59657142D01*
%TO.C,F1*%
X34246666Y-37128571D02*
X33913333Y-37128571D01*
X33913333Y-37652380D02*
X33913333Y-36652380D01*
X34389523Y-36652380D01*
X35294285Y-37652380D02*
X34722857Y-37652380D01*
X35008571Y-37652380D02*
X35008571Y-36652380D01*
X34913333Y-36795238D01*
X34818095Y-36890476D01*
X34722857Y-36938095D01*
%TO.C,FB1*%
X40928571Y-35833333D02*
X40928571Y-36166666D01*
X41452380Y-36166666D02*
X40452380Y-36166666D01*
X40452380Y-35690476D01*
X40928571Y-34976190D02*
X40976190Y-34833333D01*
X41023809Y-34785714D01*
X41119047Y-34738095D01*
X41261904Y-34738095D01*
X41357142Y-34785714D01*
X41404761Y-34833333D01*
X41452380Y-34928571D01*
X41452380Y-35309523D01*
X40452380Y-35309523D01*
X40452380Y-34976190D01*
X40500000Y-34880952D01*
X40547619Y-34833333D01*
X40642857Y-34785714D01*
X40738095Y-34785714D01*
X40833333Y-34833333D01*
X40880952Y-34880952D01*
X40928571Y-34976190D01*
X40928571Y-35309523D01*
X41452380Y-33785714D02*
X41452380Y-34357142D01*
X41452380Y-34071428D02*
X40452380Y-34071428D01*
X40595238Y-34166666D01*
X40690476Y-34261904D01*
X40738095Y-34357142D01*
%TO.C,H2*%
X31438095Y-67552380D02*
X31438095Y-66552380D01*
X31438095Y-67028571D02*
X32009523Y-67028571D01*
X32009523Y-67552380D02*
X32009523Y-66552380D01*
X32438095Y-66647619D02*
X32485714Y-66600000D01*
X32580952Y-66552380D01*
X32819047Y-66552380D01*
X32914285Y-66600000D01*
X32961904Y-66647619D01*
X33009523Y-66742857D01*
X33009523Y-66838095D01*
X32961904Y-66980952D01*
X32390476Y-67552380D01*
X33009523Y-67552380D01*
%TO.C,J1*%
X36152380Y-66533333D02*
X36866666Y-66533333D01*
X37009523Y-66580952D01*
X37104761Y-66676190D01*
X37152380Y-66819047D01*
X37152380Y-66914285D01*
X37152380Y-65533333D02*
X37152380Y-66104761D01*
X37152380Y-65819047D02*
X36152380Y-65819047D01*
X36295238Y-65914285D01*
X36390476Y-66009523D01*
X36438095Y-66104761D01*
%TO.C,J3*%
X32644666Y-28353380D02*
X32644666Y-29067666D01*
X32597047Y-29210523D01*
X32501809Y-29305761D01*
X32358952Y-29353380D01*
X32263714Y-29353380D01*
X33025619Y-28353380D02*
X33644666Y-28353380D01*
X33311333Y-28734333D01*
X33454190Y-28734333D01*
X33549428Y-28781952D01*
X33597047Y-28829571D01*
X33644666Y-28924809D01*
X33644666Y-29162904D01*
X33597047Y-29258142D01*
X33549428Y-29305761D01*
X33454190Y-29353380D01*
X33168476Y-29353380D01*
X33073238Y-29305761D01*
X33025619Y-29258142D01*
%TO.C,J4*%
X40866666Y-28452380D02*
X40866666Y-29166666D01*
X40819047Y-29309523D01*
X40723809Y-29404761D01*
X40580952Y-29452380D01*
X40485714Y-29452380D01*
X41771428Y-28785714D02*
X41771428Y-29452380D01*
X41533333Y-28404761D02*
X41295238Y-29119047D01*
X41914285Y-29119047D01*
%TO.C,J5*%
X73752380Y-43333333D02*
X74466666Y-43333333D01*
X74609523Y-43380952D01*
X74704761Y-43476190D01*
X74752380Y-43619047D01*
X74752380Y-43714285D01*
X73752380Y-42380952D02*
X73752380Y-42857142D01*
X74228571Y-42904761D01*
X74180952Y-42857142D01*
X74133333Y-42761904D01*
X74133333Y-42523809D01*
X74180952Y-42428571D01*
X74228571Y-42380952D01*
X74323809Y-42333333D01*
X74561904Y-42333333D01*
X74657142Y-42380952D01*
X74704761Y-42428571D01*
X74752380Y-42523809D01*
X74752380Y-42761904D01*
X74704761Y-42857142D01*
X74657142Y-42904761D01*
%TO.C,J6*%
X63466666Y-28352380D02*
X63466666Y-29066666D01*
X63419047Y-29209523D01*
X63323809Y-29304761D01*
X63180952Y-29352380D01*
X63085714Y-29352380D01*
X64371428Y-28352380D02*
X64180952Y-28352380D01*
X64085714Y-28400000D01*
X64038095Y-28447619D01*
X63942857Y-28590476D01*
X63895238Y-28780952D01*
X63895238Y-29161904D01*
X63942857Y-29257142D01*
X63990476Y-29304761D01*
X64085714Y-29352380D01*
X64276190Y-29352380D01*
X64371428Y-29304761D01*
X64419047Y-29257142D01*
X64466666Y-29161904D01*
X64466666Y-28923809D01*
X64419047Y-28828571D01*
X64371428Y-28780952D01*
X64276190Y-28733333D01*
X64085714Y-28733333D01*
X63990476Y-28780952D01*
X63942857Y-28828571D01*
X63895238Y-28923809D01*
%TO.C,J7*%
X48066666Y-28352380D02*
X48066666Y-29066666D01*
X48019047Y-29209523D01*
X47923809Y-29304761D01*
X47780952Y-29352380D01*
X47685714Y-29352380D01*
X48447619Y-28352380D02*
X49114285Y-28352380D01*
X48685714Y-29352380D01*
%TO.C,L1*%
X27833333Y-39706380D02*
X27357142Y-39706380D01*
X27357142Y-38706380D01*
X28690476Y-39706380D02*
X28119047Y-39706380D01*
X28404761Y-39706380D02*
X28404761Y-38706380D01*
X28309523Y-38849238D01*
X28214285Y-38944476D01*
X28119047Y-38992095D01*
%TO.C,Q1*%
X29904761Y-35690619D02*
X29809523Y-35643000D01*
X29714285Y-35547761D01*
X29571428Y-35404904D01*
X29476190Y-35357285D01*
X29380952Y-35357285D01*
X29428571Y-35595380D02*
X29333333Y-35547761D01*
X29238095Y-35452523D01*
X29190476Y-35262047D01*
X29190476Y-34928714D01*
X29238095Y-34738238D01*
X29333333Y-34643000D01*
X29428571Y-34595380D01*
X29619047Y-34595380D01*
X29714285Y-34643000D01*
X29809523Y-34738238D01*
X29857142Y-34928714D01*
X29857142Y-35262047D01*
X29809523Y-35452523D01*
X29714285Y-35547761D01*
X29619047Y-35595380D01*
X29428571Y-35595380D01*
X30809523Y-35595380D02*
X30238095Y-35595380D01*
X30523809Y-35595380D02*
X30523809Y-34595380D01*
X30428571Y-34738238D01*
X30333333Y-34833476D01*
X30238095Y-34881095D01*
%TO.C,R1*%
X71452380Y-52266666D02*
X70976190Y-52600000D01*
X71452380Y-52838095D02*
X70452380Y-52838095D01*
X70452380Y-52457142D01*
X70500000Y-52361904D01*
X70547619Y-52314285D01*
X70642857Y-52266666D01*
X70785714Y-52266666D01*
X70880952Y-52314285D01*
X70928571Y-52361904D01*
X70976190Y-52457142D01*
X70976190Y-52838095D01*
X71452380Y-51314285D02*
X71452380Y-51885714D01*
X71452380Y-51600000D02*
X70452380Y-51600000D01*
X70595238Y-51695238D01*
X70690476Y-51790476D01*
X70738095Y-51885714D01*
%TO.C,R2*%
X64146333Y-39652380D02*
X63813000Y-39176190D01*
X63574904Y-39652380D02*
X63574904Y-38652380D01*
X63955857Y-38652380D01*
X64051095Y-38700000D01*
X64098714Y-38747619D01*
X64146333Y-38842857D01*
X64146333Y-38985714D01*
X64098714Y-39080952D01*
X64051095Y-39128571D01*
X63955857Y-39176190D01*
X63574904Y-39176190D01*
X64527285Y-38747619D02*
X64574904Y-38700000D01*
X64670142Y-38652380D01*
X64908238Y-38652380D01*
X65003476Y-38700000D01*
X65051095Y-38747619D01*
X65098714Y-38842857D01*
X65098714Y-38938095D01*
X65051095Y-39080952D01*
X64479666Y-39652380D01*
X65098714Y-39652380D01*
%TO.C,R3*%
X49133333Y-51752380D02*
X48800000Y-51276190D01*
X48561904Y-51752380D02*
X48561904Y-50752380D01*
X48942857Y-50752380D01*
X49038095Y-50800000D01*
X49085714Y-50847619D01*
X49133333Y-50942857D01*
X49133333Y-51085714D01*
X49085714Y-51180952D01*
X49038095Y-51228571D01*
X48942857Y-51276190D01*
X48561904Y-51276190D01*
X49466666Y-50752380D02*
X50085714Y-50752380D01*
X49752380Y-51133333D01*
X49895238Y-51133333D01*
X49990476Y-51180952D01*
X50038095Y-51228571D01*
X50085714Y-51323809D01*
X50085714Y-51561904D01*
X50038095Y-51657142D01*
X49990476Y-51704761D01*
X49895238Y-51752380D01*
X49609523Y-51752380D01*
X49514285Y-51704761D01*
X49466666Y-51657142D01*
%TO.C,R4*%
X49133333Y-53252380D02*
X48800000Y-52776190D01*
X48561904Y-53252380D02*
X48561904Y-52252380D01*
X48942857Y-52252380D01*
X49038095Y-52300000D01*
X49085714Y-52347619D01*
X49133333Y-52442857D01*
X49133333Y-52585714D01*
X49085714Y-52680952D01*
X49038095Y-52728571D01*
X48942857Y-52776190D01*
X48561904Y-52776190D01*
X49990476Y-52585714D02*
X49990476Y-53252380D01*
X49752380Y-52204761D02*
X49514285Y-52919047D01*
X50133333Y-52919047D01*
%TO.C,R5*%
X66452380Y-64266666D02*
X65976190Y-64600000D01*
X66452380Y-64838095D02*
X65452380Y-64838095D01*
X65452380Y-64457142D01*
X65500000Y-64361904D01*
X65547619Y-64314285D01*
X65642857Y-64266666D01*
X65785714Y-64266666D01*
X65880952Y-64314285D01*
X65928571Y-64361904D01*
X65976190Y-64457142D01*
X65976190Y-64838095D01*
X65452380Y-63361904D02*
X65452380Y-63838095D01*
X65928571Y-63885714D01*
X65880952Y-63838095D01*
X65833333Y-63742857D01*
X65833333Y-63504761D01*
X65880952Y-63409523D01*
X65928571Y-63361904D01*
X66023809Y-63314285D01*
X66261904Y-63314285D01*
X66357142Y-63361904D01*
X66404761Y-63409523D01*
X66452380Y-63504761D01*
X66452380Y-63742857D01*
X66404761Y-63838095D01*
X66357142Y-63885714D01*
%TO.C,R6*%
X72798380Y-61780666D02*
X72322190Y-62114000D01*
X72798380Y-62352095D02*
X71798380Y-62352095D01*
X71798380Y-61971142D01*
X71846000Y-61875904D01*
X71893619Y-61828285D01*
X71988857Y-61780666D01*
X72131714Y-61780666D01*
X72226952Y-61828285D01*
X72274571Y-61875904D01*
X72322190Y-61971142D01*
X72322190Y-62352095D01*
X71798380Y-60923523D02*
X71798380Y-61114000D01*
X71846000Y-61209238D01*
X71893619Y-61256857D01*
X72036476Y-61352095D01*
X72226952Y-61399714D01*
X72607904Y-61399714D01*
X72703142Y-61352095D01*
X72750761Y-61304476D01*
X72798380Y-61209238D01*
X72798380Y-61018761D01*
X72750761Y-60923523D01*
X72703142Y-60875904D01*
X72607904Y-60828285D01*
X72369809Y-60828285D01*
X72274571Y-60875904D01*
X72226952Y-60923523D01*
X72179333Y-61018761D01*
X72179333Y-61209238D01*
X72226952Y-61304476D01*
X72274571Y-61352095D01*
X72369809Y-61399714D01*
%TO.C,R7*%
X62152380Y-64166666D02*
X61676190Y-64500000D01*
X62152380Y-64738095D02*
X61152380Y-64738095D01*
X61152380Y-64357142D01*
X61200000Y-64261904D01*
X61247619Y-64214285D01*
X61342857Y-64166666D01*
X61485714Y-64166666D01*
X61580952Y-64214285D01*
X61628571Y-64261904D01*
X61676190Y-64357142D01*
X61676190Y-64738095D01*
X61152380Y-63833333D02*
X61152380Y-63166666D01*
X62152380Y-63595238D01*
%TO.C,R8*%
X71274380Y-61780666D02*
X70798190Y-62114000D01*
X71274380Y-62352095D02*
X70274380Y-62352095D01*
X70274380Y-61971142D01*
X70322000Y-61875904D01*
X70369619Y-61828285D01*
X70464857Y-61780666D01*
X70607714Y-61780666D01*
X70702952Y-61828285D01*
X70750571Y-61875904D01*
X70798190Y-61971142D01*
X70798190Y-62352095D01*
X70702952Y-61209238D02*
X70655333Y-61304476D01*
X70607714Y-61352095D01*
X70512476Y-61399714D01*
X70464857Y-61399714D01*
X70369619Y-61352095D01*
X70322000Y-61304476D01*
X70274380Y-61209238D01*
X70274380Y-61018761D01*
X70322000Y-60923523D01*
X70369619Y-60875904D01*
X70464857Y-60828285D01*
X70512476Y-60828285D01*
X70607714Y-60875904D01*
X70655333Y-60923523D01*
X70702952Y-61018761D01*
X70702952Y-61209238D01*
X70750571Y-61304476D01*
X70798190Y-61352095D01*
X70893428Y-61399714D01*
X71083904Y-61399714D01*
X71179142Y-61352095D01*
X71226761Y-61304476D01*
X71274380Y-61209238D01*
X71274380Y-61018761D01*
X71226761Y-60923523D01*
X71179142Y-60875904D01*
X71083904Y-60828285D01*
X70893428Y-60828285D01*
X70798190Y-60875904D01*
X70750571Y-60923523D01*
X70702952Y-61018761D01*
%TO.C,R9*%
X50952380Y-42566666D02*
X50476190Y-42900000D01*
X50952380Y-43138095D02*
X49952380Y-43138095D01*
X49952380Y-42757142D01*
X50000000Y-42661904D01*
X50047619Y-42614285D01*
X50142857Y-42566666D01*
X50285714Y-42566666D01*
X50380952Y-42614285D01*
X50428571Y-42661904D01*
X50476190Y-42757142D01*
X50476190Y-43138095D01*
X50952380Y-42090476D02*
X50952380Y-41900000D01*
X50904761Y-41804761D01*
X50857142Y-41757142D01*
X50714285Y-41661904D01*
X50523809Y-41614285D01*
X50142857Y-41614285D01*
X50047619Y-41661904D01*
X50000000Y-41709523D01*
X49952380Y-41804761D01*
X49952380Y-41995238D01*
X50000000Y-42090476D01*
X50047619Y-42138095D01*
X50142857Y-42185714D01*
X50380952Y-42185714D01*
X50476190Y-42138095D01*
X50523809Y-42090476D01*
X50571428Y-41995238D01*
X50571428Y-41804761D01*
X50523809Y-41709523D01*
X50476190Y-41661904D01*
X50380952Y-41614285D01*
%TO.C,R10*%
X54252380Y-43542857D02*
X53776190Y-43876190D01*
X54252380Y-44114285D02*
X53252380Y-44114285D01*
X53252380Y-43733333D01*
X53300000Y-43638095D01*
X53347619Y-43590476D01*
X53442857Y-43542857D01*
X53585714Y-43542857D01*
X53680952Y-43590476D01*
X53728571Y-43638095D01*
X53776190Y-43733333D01*
X53776190Y-44114285D01*
X54252380Y-42590476D02*
X54252380Y-43161904D01*
X54252380Y-42876190D02*
X53252380Y-42876190D01*
X53395238Y-42971428D01*
X53490476Y-43066666D01*
X53538095Y-43161904D01*
X53252380Y-41971428D02*
X53252380Y-41876190D01*
X53300000Y-41780952D01*
X53347619Y-41733333D01*
X53442857Y-41685714D01*
X53633333Y-41638095D01*
X53871428Y-41638095D01*
X54061904Y-41685714D01*
X54157142Y-41733333D01*
X54204761Y-41780952D01*
X54252380Y-41876190D01*
X54252380Y-41971428D01*
X54204761Y-42066666D01*
X54157142Y-42114285D01*
X54061904Y-42161904D01*
X53871428Y-42209523D01*
X53633333Y-42209523D01*
X53442857Y-42161904D01*
X53347619Y-42114285D01*
X53300000Y-42066666D01*
X53252380Y-41971428D01*
%TO.C,R11*%
X35457142Y-47622380D02*
X35123809Y-47146190D01*
X34885714Y-47622380D02*
X34885714Y-46622380D01*
X35266666Y-46622380D01*
X35361904Y-46670000D01*
X35409523Y-46717619D01*
X35457142Y-46812857D01*
X35457142Y-46955714D01*
X35409523Y-47050952D01*
X35361904Y-47098571D01*
X35266666Y-47146190D01*
X34885714Y-47146190D01*
X36409523Y-47622380D02*
X35838095Y-47622380D01*
X36123809Y-47622380D02*
X36123809Y-46622380D01*
X36028571Y-46765238D01*
X35933333Y-46860476D01*
X35838095Y-46908095D01*
X37361904Y-47622380D02*
X36790476Y-47622380D01*
X37076190Y-47622380D02*
X37076190Y-46622380D01*
X36980952Y-46765238D01*
X36885714Y-46860476D01*
X36790476Y-46908095D01*
%TO.C,R12*%
X35457142Y-52031380D02*
X35123809Y-51555190D01*
X34885714Y-52031380D02*
X34885714Y-51031380D01*
X35266666Y-51031380D01*
X35361904Y-51079000D01*
X35409523Y-51126619D01*
X35457142Y-51221857D01*
X35457142Y-51364714D01*
X35409523Y-51459952D01*
X35361904Y-51507571D01*
X35266666Y-51555190D01*
X34885714Y-51555190D01*
X36409523Y-52031380D02*
X35838095Y-52031380D01*
X36123809Y-52031380D02*
X36123809Y-51031380D01*
X36028571Y-51174238D01*
X35933333Y-51269476D01*
X35838095Y-51317095D01*
X36790476Y-51126619D02*
X36838095Y-51079000D01*
X36933333Y-51031380D01*
X37171428Y-51031380D01*
X37266666Y-51079000D01*
X37314285Y-51126619D01*
X37361904Y-51221857D01*
X37361904Y-51317095D01*
X37314285Y-51459952D01*
X36742857Y-52031380D01*
X37361904Y-52031380D01*
%TO.C,R13*%
X28757142Y-61252380D02*
X28423809Y-60776190D01*
X28185714Y-61252380D02*
X28185714Y-60252380D01*
X28566666Y-60252380D01*
X28661904Y-60300000D01*
X28709523Y-60347619D01*
X28757142Y-60442857D01*
X28757142Y-60585714D01*
X28709523Y-60680952D01*
X28661904Y-60728571D01*
X28566666Y-60776190D01*
X28185714Y-60776190D01*
X29709523Y-61252380D02*
X29138095Y-61252380D01*
X29423809Y-61252380D02*
X29423809Y-60252380D01*
X29328571Y-60395238D01*
X29233333Y-60490476D01*
X29138095Y-60538095D01*
X30042857Y-60252380D02*
X30661904Y-60252380D01*
X30328571Y-60633333D01*
X30471428Y-60633333D01*
X30566666Y-60680952D01*
X30614285Y-60728571D01*
X30661904Y-60823809D01*
X30661904Y-61061904D01*
X30614285Y-61157142D01*
X30566666Y-61204761D01*
X30471428Y-61252380D01*
X30185714Y-61252380D01*
X30090476Y-61204761D01*
X30042857Y-61157142D01*
%TO.C,R14*%
X50752380Y-37463857D02*
X50276190Y-37797190D01*
X50752380Y-38035285D02*
X49752380Y-38035285D01*
X49752380Y-37654333D01*
X49800000Y-37559095D01*
X49847619Y-37511476D01*
X49942857Y-37463857D01*
X50085714Y-37463857D01*
X50180952Y-37511476D01*
X50228571Y-37559095D01*
X50276190Y-37654333D01*
X50276190Y-38035285D01*
X50752380Y-36511476D02*
X50752380Y-37082904D01*
X50752380Y-36797190D02*
X49752380Y-36797190D01*
X49895238Y-36892428D01*
X49990476Y-36987666D01*
X50038095Y-37082904D01*
X50085714Y-35654333D02*
X50752380Y-35654333D01*
X49704761Y-35892428D02*
X50419047Y-36130523D01*
X50419047Y-35511476D01*
%TO.C,R15*%
X52252380Y-37463857D02*
X51776190Y-37797190D01*
X52252380Y-38035285D02*
X51252380Y-38035285D01*
X51252380Y-37654333D01*
X51300000Y-37559095D01*
X51347619Y-37511476D01*
X51442857Y-37463857D01*
X51585714Y-37463857D01*
X51680952Y-37511476D01*
X51728571Y-37559095D01*
X51776190Y-37654333D01*
X51776190Y-38035285D01*
X52252380Y-36511476D02*
X52252380Y-37082904D01*
X52252380Y-36797190D02*
X51252380Y-36797190D01*
X51395238Y-36892428D01*
X51490476Y-36987666D01*
X51538095Y-37082904D01*
X51252380Y-35606714D02*
X51252380Y-36082904D01*
X51728571Y-36130523D01*
X51680952Y-36082904D01*
X51633333Y-35987666D01*
X51633333Y-35749571D01*
X51680952Y-35654333D01*
X51728571Y-35606714D01*
X51823809Y-35559095D01*
X52061904Y-35559095D01*
X52157142Y-35606714D01*
X52204761Y-35654333D01*
X52252380Y-35749571D01*
X52252380Y-35987666D01*
X52204761Y-36082904D01*
X52157142Y-36130523D01*
%TO.C,R16*%
X53752380Y-37438357D02*
X53276190Y-37771690D01*
X53752380Y-38009785D02*
X52752380Y-38009785D01*
X52752380Y-37628833D01*
X52800000Y-37533595D01*
X52847619Y-37485976D01*
X52942857Y-37438357D01*
X53085714Y-37438357D01*
X53180952Y-37485976D01*
X53228571Y-37533595D01*
X53276190Y-37628833D01*
X53276190Y-38009785D01*
X53752380Y-36485976D02*
X53752380Y-37057404D01*
X53752380Y-36771690D02*
X52752380Y-36771690D01*
X52895238Y-36866928D01*
X52990476Y-36962166D01*
X53038095Y-37057404D01*
X52752380Y-35628833D02*
X52752380Y-35819309D01*
X52800000Y-35914547D01*
X52847619Y-35962166D01*
X52990476Y-36057404D01*
X53180952Y-36105023D01*
X53561904Y-36105023D01*
X53657142Y-36057404D01*
X53704761Y-36009785D01*
X53752380Y-35914547D01*
X53752380Y-35724071D01*
X53704761Y-35628833D01*
X53657142Y-35581214D01*
X53561904Y-35533595D01*
X53323809Y-35533595D01*
X53228571Y-35581214D01*
X53180952Y-35628833D01*
X53133333Y-35724071D01*
X53133333Y-35914547D01*
X53180952Y-36009785D01*
X53228571Y-36057404D01*
X53323809Y-36105023D01*
%TO.C,R17*%
X55379380Y-37463857D02*
X54903190Y-37797190D01*
X55379380Y-38035285D02*
X54379380Y-38035285D01*
X54379380Y-37654333D01*
X54427000Y-37559095D01*
X54474619Y-37511476D01*
X54569857Y-37463857D01*
X54712714Y-37463857D01*
X54807952Y-37511476D01*
X54855571Y-37559095D01*
X54903190Y-37654333D01*
X54903190Y-38035285D01*
X55379380Y-36511476D02*
X55379380Y-37082904D01*
X55379380Y-36797190D02*
X54379380Y-36797190D01*
X54522238Y-36892428D01*
X54617476Y-36987666D01*
X54665095Y-37082904D01*
X54379380Y-36178142D02*
X54379380Y-35511476D01*
X55379380Y-35940047D01*
%TO.C,R18*%
X56752380Y-37463857D02*
X56276190Y-37797190D01*
X56752380Y-38035285D02*
X55752380Y-38035285D01*
X55752380Y-37654333D01*
X55800000Y-37559095D01*
X55847619Y-37511476D01*
X55942857Y-37463857D01*
X56085714Y-37463857D01*
X56180952Y-37511476D01*
X56228571Y-37559095D01*
X56276190Y-37654333D01*
X56276190Y-38035285D01*
X56752380Y-36511476D02*
X56752380Y-37082904D01*
X56752380Y-36797190D02*
X55752380Y-36797190D01*
X55895238Y-36892428D01*
X55990476Y-36987666D01*
X56038095Y-37082904D01*
X56180952Y-35940047D02*
X56133333Y-36035285D01*
X56085714Y-36082904D01*
X55990476Y-36130523D01*
X55942857Y-36130523D01*
X55847619Y-36082904D01*
X55800000Y-36035285D01*
X55752380Y-35940047D01*
X55752380Y-35749571D01*
X55800000Y-35654333D01*
X55847619Y-35606714D01*
X55942857Y-35559095D01*
X55990476Y-35559095D01*
X56085714Y-35606714D01*
X56133333Y-35654333D01*
X56180952Y-35749571D01*
X56180952Y-35940047D01*
X56228571Y-36035285D01*
X56276190Y-36082904D01*
X56371428Y-36130523D01*
X56561904Y-36130523D01*
X56657142Y-36082904D01*
X56704761Y-36035285D01*
X56752380Y-35940047D01*
X56752380Y-35749571D01*
X56704761Y-35654333D01*
X56657142Y-35606714D01*
X56561904Y-35559095D01*
X56371428Y-35559095D01*
X56276190Y-35606714D01*
X56228571Y-35654333D01*
X56180952Y-35749571D01*
%TO.C,R19*%
X58252380Y-37463857D02*
X57776190Y-37797190D01*
X58252380Y-38035285D02*
X57252380Y-38035285D01*
X57252380Y-37654333D01*
X57300000Y-37559095D01*
X57347619Y-37511476D01*
X57442857Y-37463857D01*
X57585714Y-37463857D01*
X57680952Y-37511476D01*
X57728571Y-37559095D01*
X57776190Y-37654333D01*
X57776190Y-38035285D01*
X58252380Y-36511476D02*
X58252380Y-37082904D01*
X58252380Y-36797190D02*
X57252380Y-36797190D01*
X57395238Y-36892428D01*
X57490476Y-36987666D01*
X57538095Y-37082904D01*
X58252380Y-36035285D02*
X58252380Y-35844809D01*
X58204761Y-35749571D01*
X58157142Y-35701952D01*
X58014285Y-35606714D01*
X57823809Y-35559095D01*
X57442857Y-35559095D01*
X57347619Y-35606714D01*
X57300000Y-35654333D01*
X57252380Y-35749571D01*
X57252380Y-35940047D01*
X57300000Y-36035285D01*
X57347619Y-36082904D01*
X57442857Y-36130523D01*
X57680952Y-36130523D01*
X57776190Y-36082904D01*
X57823809Y-36035285D01*
X57871428Y-35940047D01*
X57871428Y-35749571D01*
X57823809Y-35654333D01*
X57776190Y-35606714D01*
X57680952Y-35559095D01*
%TO.C,R20*%
X59752380Y-37463857D02*
X59276190Y-37797190D01*
X59752380Y-38035285D02*
X58752380Y-38035285D01*
X58752380Y-37654333D01*
X58800000Y-37559095D01*
X58847619Y-37511476D01*
X58942857Y-37463857D01*
X59085714Y-37463857D01*
X59180952Y-37511476D01*
X59228571Y-37559095D01*
X59276190Y-37654333D01*
X59276190Y-38035285D01*
X58847619Y-37082904D02*
X58800000Y-37035285D01*
X58752380Y-36940047D01*
X58752380Y-36701952D01*
X58800000Y-36606714D01*
X58847619Y-36559095D01*
X58942857Y-36511476D01*
X59038095Y-36511476D01*
X59180952Y-36559095D01*
X59752380Y-37130523D01*
X59752380Y-36511476D01*
X58752380Y-35892428D02*
X58752380Y-35797190D01*
X58800000Y-35701952D01*
X58847619Y-35654333D01*
X58942857Y-35606714D01*
X59133333Y-35559095D01*
X59371428Y-35559095D01*
X59561904Y-35606714D01*
X59657142Y-35654333D01*
X59704761Y-35701952D01*
X59752380Y-35797190D01*
X59752380Y-35892428D01*
X59704761Y-35987666D01*
X59657142Y-36035285D01*
X59561904Y-36082904D01*
X59371428Y-36130523D01*
X59133333Y-36130523D01*
X58942857Y-36082904D01*
X58847619Y-36035285D01*
X58800000Y-35987666D01*
X58752380Y-35892428D01*
%TO.C,R21*%
X61252380Y-37463857D02*
X60776190Y-37797190D01*
X61252380Y-38035285D02*
X60252380Y-38035285D01*
X60252380Y-37654333D01*
X60300000Y-37559095D01*
X60347619Y-37511476D01*
X60442857Y-37463857D01*
X60585714Y-37463857D01*
X60680952Y-37511476D01*
X60728571Y-37559095D01*
X60776190Y-37654333D01*
X60776190Y-38035285D01*
X60347619Y-37082904D02*
X60300000Y-37035285D01*
X60252380Y-36940047D01*
X60252380Y-36701952D01*
X60300000Y-36606714D01*
X60347619Y-36559095D01*
X60442857Y-36511476D01*
X60538095Y-36511476D01*
X60680952Y-36559095D01*
X61252380Y-37130523D01*
X61252380Y-36511476D01*
X61252380Y-35559095D02*
X61252380Y-36130523D01*
X61252380Y-35844809D02*
X60252380Y-35844809D01*
X60395238Y-35940047D01*
X60490476Y-36035285D01*
X60538095Y-36130523D01*
%TO.C,SW1*%
X53704761Y-60433333D02*
X53752380Y-60290476D01*
X53752380Y-60052380D01*
X53704761Y-59957142D01*
X53657142Y-59909523D01*
X53561904Y-59861904D01*
X53466666Y-59861904D01*
X53371428Y-59909523D01*
X53323809Y-59957142D01*
X53276190Y-60052380D01*
X53228571Y-60242857D01*
X53180952Y-60338095D01*
X53133333Y-60385714D01*
X53038095Y-60433333D01*
X52942857Y-60433333D01*
X52847619Y-60385714D01*
X52800000Y-60338095D01*
X52752380Y-60242857D01*
X52752380Y-60004761D01*
X52800000Y-59861904D01*
X52752380Y-59528571D02*
X53752380Y-59290476D01*
X53038095Y-59100000D01*
X53752380Y-58909523D01*
X52752380Y-58671428D01*
X53752380Y-57766666D02*
X53752380Y-58338095D01*
X53752380Y-58052380D02*
X52752380Y-58052380D01*
X52895238Y-58147619D01*
X52990476Y-58242857D01*
X53038095Y-58338095D01*
%TO.C,SW2*%
X59404761Y-60833333D02*
X59452380Y-60690476D01*
X59452380Y-60452380D01*
X59404761Y-60357142D01*
X59357142Y-60309523D01*
X59261904Y-60261904D01*
X59166666Y-60261904D01*
X59071428Y-60309523D01*
X59023809Y-60357142D01*
X58976190Y-60452380D01*
X58928571Y-60642857D01*
X58880952Y-60738095D01*
X58833333Y-60785714D01*
X58738095Y-60833333D01*
X58642857Y-60833333D01*
X58547619Y-60785714D01*
X58500000Y-60738095D01*
X58452380Y-60642857D01*
X58452380Y-60404761D01*
X58500000Y-60261904D01*
X58452380Y-59928571D02*
X59452380Y-59690476D01*
X58738095Y-59500000D01*
X59452380Y-59309523D01*
X58452380Y-59071428D01*
X58547619Y-58738095D02*
X58500000Y-58690476D01*
X58452380Y-58595238D01*
X58452380Y-58357142D01*
X58500000Y-58261904D01*
X58547619Y-58214285D01*
X58642857Y-58166666D01*
X58738095Y-58166666D01*
X58880952Y-58214285D01*
X59452380Y-58785714D01*
X59452380Y-58166666D01*
%TO.C,SW3*%
X69304761Y-60533333D02*
X69352380Y-60390476D01*
X69352380Y-60152380D01*
X69304761Y-60057142D01*
X69257142Y-60009523D01*
X69161904Y-59961904D01*
X69066666Y-59961904D01*
X68971428Y-60009523D01*
X68923809Y-60057142D01*
X68876190Y-60152380D01*
X68828571Y-60342857D01*
X68780952Y-60438095D01*
X68733333Y-60485714D01*
X68638095Y-60533333D01*
X68542857Y-60533333D01*
X68447619Y-60485714D01*
X68400000Y-60438095D01*
X68352380Y-60342857D01*
X68352380Y-60104761D01*
X68400000Y-59961904D01*
X68352380Y-59628571D02*
X69352380Y-59390476D01*
X68638095Y-59200000D01*
X69352380Y-59009523D01*
X68352380Y-58771428D01*
X68352380Y-58485714D02*
X68352380Y-57866666D01*
X68733333Y-58200000D01*
X68733333Y-58057142D01*
X68780952Y-57961904D01*
X68828571Y-57914285D01*
X68923809Y-57866666D01*
X69161904Y-57866666D01*
X69257142Y-57914285D01*
X69304761Y-57961904D01*
X69352380Y-58057142D01*
X69352380Y-58342857D01*
X69304761Y-58438095D01*
X69257142Y-58485714D01*
%TO.C,U2*%
X45538095Y-45152380D02*
X45538095Y-45961904D01*
X45585714Y-46057142D01*
X45633333Y-46104761D01*
X45728571Y-46152380D01*
X45919047Y-46152380D01*
X46014285Y-46104761D01*
X46061904Y-46057142D01*
X46109523Y-45961904D01*
X46109523Y-45152380D01*
X46538095Y-45247619D02*
X46585714Y-45200000D01*
X46680952Y-45152380D01*
X46919047Y-45152380D01*
X47014285Y-45200000D01*
X47061904Y-45247619D01*
X47109523Y-45342857D01*
X47109523Y-45438095D01*
X47061904Y-45580952D01*
X46490476Y-46152380D01*
X47109523Y-46152380D01*
%TO.C,C4*%
X54157142Y-50466666D02*
X54204761Y-50514285D01*
X54252380Y-50657142D01*
X54252380Y-50752380D01*
X54204761Y-50895238D01*
X54109523Y-50990476D01*
X54014285Y-51038095D01*
X53823809Y-51085714D01*
X53680952Y-51085714D01*
X53490476Y-51038095D01*
X53395238Y-50990476D01*
X53300000Y-50895238D01*
X53252380Y-50752380D01*
X53252380Y-50657142D01*
X53300000Y-50514285D01*
X53347619Y-50466666D01*
X53585714Y-49609523D02*
X54252380Y-49609523D01*
X53204761Y-49847619D02*
X53919047Y-50085714D01*
X53919047Y-49466666D01*
%TO.C,U1*%
X56538095Y-43252380D02*
X56538095Y-44061904D01*
X56585714Y-44157142D01*
X56633333Y-44204761D01*
X56728571Y-44252380D01*
X56919047Y-44252380D01*
X57014285Y-44204761D01*
X57061904Y-44157142D01*
X57109523Y-44061904D01*
X57109523Y-43252380D01*
X58109523Y-44252380D02*
X57538095Y-44252380D01*
X57823809Y-44252380D02*
X57823809Y-43252380D01*
X57728571Y-43395238D01*
X57633333Y-43490476D01*
X57538095Y-43538095D01*
%TD*%
M02*
